<svg width="237" height="49" viewBox="0 0 237 49" fill="none" xmlns="http://www.w3.org/2000/svg">
<path d="M11.8812 29.7355V17.1381C11.8812 16.6875 12.2466 16.3221 12.6972 16.3221H25.2946C25.7452 16.3221 26.1106 16.6875 26.1106 17.1381V29.7355C26.1106 30.1861 25.7452 30.5515 25.2946 30.5515H12.6972C12.2466 30.5515 11.8812 30.1861 11.8812 29.7355ZM2.63055 0.771459L0.00122135 48.1048C-0.024112 48.5728 0.347888 48.9661 0.815888 48.9661H11.0652C11.5159 48.9661 11.8812 48.6008 11.8812 48.1501V41.6208C11.8812 41.1701 12.2466 40.8048 12.6972 40.8048H25.2946C25.7452 40.8048 26.1106 41.1701 26.1106 41.6208V48.1501C26.1106 48.6008 26.4759 48.9661 26.9266 48.9661H37.1759C37.6439 48.9661 38.0159 48.5728 37.9906 48.1048L35.3612 0.771459C35.3372 0.338126 34.9785 0.000793457 34.5452 0.000793457H3.44655C3.01322 0.000793457 2.65455 0.338126 2.63055 0.771459Z" fill="#303F23"/>
<path d="M123.343 16.3221H138.032C138.483 16.3221 138.848 16.6875 138.848 17.1381V31.8275C138.848 32.2781 138.483 32.6435 138.032 32.6435H123.343C122.892 32.6435 122.527 32.2781 122.527 31.8275V17.1381C122.527 16.6875 122.892 16.3221 123.343 16.3221ZM115.182 48.9661H146.194C146.644 48.9661 147.01 48.6008 147.01 48.1501V0.816793C147.01 0.366126 146.644 0.000793457 146.194 0.000793457H115.182C114.731 0.000793457 114.366 0.366126 114.366 0.816793V48.1501C114.366 48.6008 114.731 48.9661 115.182 48.9661Z" fill="#303F23"/>
<path d="M39.9575 0.816259V15.5056C39.9575 15.9563 40.3228 16.3216 40.7735 16.3216H50.0228C50.4735 16.3216 50.8388 16.6869 50.8388 17.1376V48.1496C50.8388 48.6003 51.2042 48.9656 51.6548 48.9656H60.9042C61.3548 48.9656 61.7202 48.6003 61.7202 48.1496V17.1376C61.7202 16.6869 62.0855 16.3216 62.5362 16.3216H71.7855C72.2362 16.3216 72.6015 15.9563 72.6015 15.5056V0.816259C72.6015 0.365592 72.2362 0.000259399 71.7855 0.000259399H40.7735C40.3228 0.000259399 39.9575 0.365592 39.9575 0.816259Z" fill="#303F23"/>
<path d="M77.0974 16.3221H94.3574C95.128 16.3221 95.4694 17.2941 94.8667 17.7755L76.588 32.3995C76.3934 32.5541 76.2814 32.7888 76.2814 33.0368V48.1501C76.2814 48.6008 76.6467 48.9661 77.0974 48.9661H108.109C108.56 48.9661 108.925 48.6008 108.925 48.1501V33.4608C108.925 33.0088 108.56 32.6435 108.109 32.6435H90.8494C90.0774 32.6435 89.7374 31.6728 90.34 31.1901L108.619 16.5675C108.812 16.4128 108.925 16.1781 108.925 15.9301V0.816793C108.925 0.366126 108.56 0.000793457 108.109 0.000793457H77.0974C76.6467 0.000793457 76.2814 0.366126 76.2814 0.816793V15.5061C76.2814 15.9568 76.6467 16.3221 77.0974 16.3221Z" fill="#303F23"/>
<path d="M182.205 0.592L177.102 18.4507C177.002 18.8013 176.682 19.0427 176.318 19.0427H172.109C171.743 19.0427 171.423 18.8013 171.323 18.4507L166.221 0.592C166.121 0.241334 165.801 0 165.437 0H153.266C152.815 0 152.45 0.365333 152.45 0.815999V48.1493C152.45 48.6 152.815 48.9653 153.266 48.9653H162.515C162.966 48.9653 163.331 48.6 163.331 48.1493V28.02C163.331 27.568 163.697 27.2027 164.147 27.2027H167.767C168.133 27.2027 168.453 27.4453 168.553 27.7947L171.323 37.492C171.423 37.8427 171.743 38.084 172.109 38.084H176.318C176.682 38.084 177.002 37.8427 177.102 37.492L179.873 27.7947C179.973 27.4453 180.293 27.2027 180.658 27.2027H184.278C184.729 27.2027 185.094 27.568 185.094 28.02V48.1493C185.094 48.6 185.459 48.9653 185.91 48.9653H195.159C195.61 48.9653 195.975 48.6 195.975 48.1493V0.815999C195.975 0.365333 195.61 0 195.159 0H182.99C182.625 0 182.305 0.241334 182.205 0.592Z" fill="#303F23"/>
<path d="M235.711 0.000259399H226.522C226.154 0.000259399 225.831 0.246926 225.735 0.601593L220.862 18.4416C220.764 18.7963 220.442 19.0429 220.074 19.0429H215.386C215.018 19.0429 214.695 18.7963 214.598 18.4403L209.74 0.601593C209.644 0.246926 209.322 0.000259399 208.954 0.000259399H199.763C199.226 0.000259399 198.835 0.512258 198.976 1.03092L205.314 24.3069C205.352 24.4469 205.352 24.5949 205.314 24.7363L198.978 47.9349C198.835 48.4536 199.226 48.9656 199.764 48.9656H208.954C209.322 48.9656 209.644 48.7203 209.74 48.3656L214.614 30.5243C214.711 30.1696 215.034 29.9243 215.402 29.9243H220.09C220.458 29.9243 220.78 30.1696 220.878 30.5256L225.735 48.3643C225.831 48.7189 226.154 48.9656 226.522 48.9656H235.712C236.25 48.9656 236.64 48.4549 236.499 47.9349L230.162 24.6603C230.123 24.5189 230.123 24.3709 230.162 24.2296L236.498 1.03092C236.64 0.512258 236.25 0.000259399 235.711 0.000259399Z" fill="#303F23"/>
</svg>
