<svg width="237" height="74" viewBox="0 0 237 74" fill="none" xmlns="http://www.w3.org/2000/svg">
<path d="M76.34 70.0912C76.34 68.1512 77.7574 66.5699 80.4787 66.5699C83.3734 66.5699 84.3494 68.1605 84.3494 69.2592V69.3925H83.0654V69.3512C83.0654 68.6432 82.3667 67.6885 80.5494 67.6885C78.7534 67.6885 77.7987 68.7045 77.7987 70.0912C77.7987 71.3032 78.5894 72.4525 80.5707 72.4525C82.2747 72.4525 83.1067 71.6725 83.1067 70.8205V70.7592H84.3907V70.8712C84.3907 72.1445 83.2814 73.5725 80.54 73.5725C77.4187 73.5725 76.34 71.7952 76.34 70.0912Z" fill="#303F23"/>
<path d="M94.5763 70.0399C94.5763 68.7359 93.611 67.6879 91.6803 67.6879C89.751 67.6879 88.7856 68.7359 88.7856 70.0399C88.7856 71.4879 89.7403 72.4532 91.6803 72.4532C93.6723 72.4532 94.5763 71.4159 94.5763 70.0399ZM87.327 70.0399C87.327 68.1305 88.7443 66.5692 91.6803 66.5692C94.6176 66.5692 96.035 68.1305 96.035 70.0399C96.035 72.0012 94.7096 73.5719 91.6803 73.5719C88.7336 73.5719 87.327 72.1039 87.327 70.0399Z" fill="#303F23"/>
<path d="M98.3555 66.6925H99.9062L102.175 71.8885H102.196L104.393 66.7539H105.81L107.966 71.8885H107.988L110.215 66.6925H111.642L108.665 73.4485H107.125L105.039 68.5099H105.02L102.873 73.4485H101.333L98.3555 66.6925Z" fill="#303F23"/>
<path d="M121.213 70.0399C121.213 68.7359 120.247 67.6879 118.317 67.6879C116.387 67.6879 115.422 68.7359 115.422 70.0399C115.422 71.4879 116.377 72.4532 118.317 72.4532C120.309 72.4532 121.213 71.4159 121.213 70.0399ZM113.963 70.0399C113.963 68.1305 115.381 66.5692 118.317 66.5692C121.254 66.5692 122.671 68.1305 122.671 70.0399C122.671 72.0012 121.346 73.5719 118.317 73.5719C115.37 73.5719 113.963 72.1039 113.963 70.0399Z" fill="#303F23"/>
<path d="M130.28 69.9063C131.398 69.9063 131.892 69.4849 131.892 68.8583C131.892 68.2223 131.378 67.8116 129.992 67.8116H127.272V69.9063H130.28ZM125.854 66.6929H130.105C132.354 66.6929 133.216 67.4623 133.216 68.6636C133.216 69.4036 132.826 70.0396 131.953 70.2649V70.2863C132.918 70.4916 133.176 71.1689 133.176 72.0116V73.4489H131.769V72.0116C131.769 71.2209 131.389 70.8409 130.413 70.8409H127.272V73.4489H125.854V66.6929Z" fill="#303F23"/>
<path d="M136.616 66.6925H138.033V70.5539H138.053L143.228 66.6925H145.138L140.908 69.7939L145.374 73.4485H143.269L139.84 70.6245L138.033 71.9392V73.4485H136.616V66.6925Z" fill="#303F23"/>
<path d="M148.363 66.6925H149.769V73.4485H148.363V66.6925Z" fill="#303F23"/>
<path d="M153.24 66.6925H155.252L159.904 71.5392H159.924V66.6925H161.28V73.4485H159.884L154.616 67.9352H154.605V73.4485H153.24V66.6925Z" fill="#303F23"/>
<path d="M164.463 70.1527C164.463 68.2433 165.829 66.5687 168.663 66.5687C171.486 66.5687 172.442 67.894 172.442 69.126C172.442 69.1673 172.442 69.2287 172.431 69.3207H171.147C171.158 69.2593 171.158 69.218 171.158 69.1767C171.158 68.4687 170.511 67.6887 168.694 67.6887C166.825 67.6887 165.901 68.7967 165.901 70.1633C165.901 71.446 166.743 72.5247 168.683 72.5247C170.49 72.5247 171.117 71.6207 171.117 70.994V70.9633H168.395V70.07H172.523V73.4487H171.353C171.363 73.182 171.394 72.586 171.405 72.0727H171.394C171.107 73.0487 170.101 73.5713 168.53 73.5713C165.623 73.5713 164.463 71.9087 164.463 70.1527Z" fill="#303F23"/>
<path d="M47.3104 59.2099C47.3104 57.2699 48.7278 55.6885 51.4478 55.6885C54.3438 55.6885 55.3198 57.2792 55.3198 58.3779V58.5112H54.0358V58.4699C54.0358 57.7619 53.3371 56.8072 51.5198 56.8072C49.7238 56.8072 48.7691 57.8232 48.7691 59.2099C48.7691 60.4219 49.5584 61.5712 51.5411 61.5712C53.2451 61.5712 54.0771 60.7912 54.0771 59.9392V59.8779H55.3611V59.9899C55.3611 61.2632 54.2518 62.6912 51.5104 62.6912C48.3891 62.6912 47.3104 60.9139 47.3104 59.2099Z" fill="#303F23"/>
<path d="M65.5467 59.1587C65.5467 57.8547 64.5814 56.8067 62.6507 56.8067C60.7214 56.8067 59.756 57.8547 59.756 59.1587C59.756 60.6067 60.7107 61.572 62.6507 61.572C64.6427 61.572 65.5467 60.5347 65.5467 59.1587ZM58.2974 59.1587C58.2974 57.2493 59.7147 55.688 62.6507 55.688C65.588 55.688 67.0054 57.2493 67.0054 59.1587C67.0054 61.12 65.68 62.6907 62.6507 62.6907C59.704 62.6907 58.2974 61.2227 58.2974 59.1587Z" fill="#303F23"/>
<path d="M70.1883 55.8112H72.5403L74.9936 61.0379H75.0043L77.4376 55.8112H79.7163V62.5672H78.3003V56.7872H78.2896L75.5483 62.5672H74.327L71.575 56.7872H71.5536V62.5672H70.1883V55.8112Z" fill="#303F23"/>
<path d="M83.0854 59.5384V55.8117H84.5027V59.3744C84.5027 60.8731 85.4267 61.5304 87.0387 61.5304C88.6707 61.5304 89.6054 60.8731 89.6054 59.3744V55.8117H90.8987V59.5384C90.8987 61.6744 89.452 62.6904 86.9974 62.6904C84.5747 62.6904 83.0854 61.6744 83.0854 59.5384Z" fill="#303F23"/>
<path d="M94.2678 55.8112H96.2798L100.932 60.6579H100.952V55.8112H102.308V62.5672H100.91L95.6438 57.0539H95.6331V62.5672H94.2678V55.8112Z" fill="#303F23"/>
<path d="M105.779 55.8112H107.185V62.5672H105.779V55.8112Z" fill="#303F23"/>
<path d="M114.219 61.4483C116.016 61.4483 116.735 60.6776 116.735 59.1896C116.735 57.9363 116.098 56.9309 114.024 56.9309H112.074V61.4483H114.219ZM110.656 55.8109H113.972C117.155 55.8109 118.142 57.3723 118.142 59.1896C118.142 61.3349 117.063 62.5669 114.26 62.5669H110.656V55.8109Z" fill="#303F23"/>
<path d="M126.849 60.1339L125.052 56.9512H125.042L123.245 60.1339H126.849ZM127.373 61.0686H122.721L121.88 62.5672H120.39L124.302 55.8112H125.956L129.868 62.5672H128.214L127.373 61.0686Z" fill="#303F23"/>
<path d="M136.44 61.4483C138.237 61.4483 138.956 60.6776 138.956 59.1896C138.956 57.9363 138.318 56.9309 136.245 56.9309H134.294V61.4483H136.44ZM132.877 55.8109H136.193C139.377 55.8109 140.362 57.3723 140.362 59.1896C140.362 61.3349 139.284 62.5669 136.481 62.5669H132.877V55.8109Z" fill="#303F23"/>
<path d="M152.13 57.5669C152.13 57.8136 152.222 58.0803 152.387 58.3776C153.68 58.3576 154.142 58.1109 154.142 57.4536C154.142 57.0536 153.772 56.7149 153.136 56.7149C152.418 56.7149 152.13 57.0949 152.13 57.5669ZM151.935 61.6643C152.499 61.6643 153.034 61.5616 153.516 61.3656C152.695 60.7603 151.986 60.0109 151.494 59.2509H151.462C150.332 59.3016 149.994 59.8776 149.994 60.3696C149.994 60.9963 150.559 61.6643 151.935 61.6643ZM157.5 61.6016V62.6696C157.387 62.6909 157.254 62.6909 157.171 62.6909C156.278 62.6909 155.384 62.4336 154.543 62.0029C153.762 62.4443 152.87 62.6909 151.874 62.6909C149.644 62.6909 148.68 61.4789 148.68 60.4003C148.68 59.5069 149.286 58.4909 151.031 58.3989C150.887 58.0496 150.815 57.7309 150.815 57.4443C150.815 56.5603 151.503 55.6883 153.095 55.6883C154.543 55.6883 155.343 56.4483 155.343 57.4229C155.343 58.3776 154.624 59.1589 152.931 59.1683L152.92 59.1789C153.351 59.7123 153.947 60.2469 154.604 60.6883C155.148 60.2163 155.62 59.5696 155.939 58.7576H157.16C156.822 59.7123 156.278 60.5656 155.58 61.2229C156.164 61.4683 156.75 61.6016 157.295 61.6016H157.5Z" fill="#303F23"/>
<path d="M165.602 59.2099C165.602 57.2699 167.019 55.6885 169.741 55.6885C172.635 55.6885 173.611 57.2792 173.611 58.3779V58.5112H172.327V58.4699C172.327 57.7619 171.63 56.8072 169.811 56.8072C168.015 56.8072 167.061 57.8232 167.061 59.2099C167.061 60.4219 167.85 61.5712 169.833 61.5712C171.537 61.5712 172.369 60.7912 172.369 59.9392V59.8779H173.653V59.9899C173.653 61.2632 172.543 62.6912 169.802 62.6912C166.681 62.6912 165.602 60.9139 165.602 59.2099Z" fill="#303F23"/>
<path d="M182.463 60.1339L180.665 56.9512H180.656L178.859 60.1339H182.463ZM182.987 61.0686H178.335L177.493 62.5672H176.004L179.916 55.8112H181.569L185.481 62.5672H183.828L182.987 61.0686Z" fill="#303F23"/>
<path d="M188.49 55.8112H194.61V56.9299H189.908V58.9019H193.892V59.8872H189.908V62.5672H188.49V55.8112Z" fill="#303F23"/>
<path d="M201.243 53.7475H202.722L201.326 55.2261H200.186L201.243 53.7475ZM197.659 55.8115H203.934V56.9301H199.077V58.7075H202.907V59.6315H199.077V61.4488H204.037V62.5675H197.659V55.8115Z" fill="#303F23"/>
<path d="M11.8812 29.7355V17.1381C11.8812 16.6875 12.2466 16.3221 12.6972 16.3221H25.2946C25.7452 16.3221 26.1106 16.6875 26.1106 17.1381V29.7355C26.1106 30.1861 25.7452 30.5515 25.2946 30.5515H12.6972C12.2466 30.5515 11.8812 30.1861 11.8812 29.7355ZM2.63055 0.771459L0.00122135 48.1048C-0.024112 48.5728 0.347888 48.9661 0.815888 48.9661H11.0652C11.5159 48.9661 11.8812 48.6008 11.8812 48.1501V41.6208C11.8812 41.1701 12.2466 40.8048 12.6972 40.8048H25.2946C25.7452 40.8048 26.1106 41.1701 26.1106 41.6208V48.1501C26.1106 48.6008 26.4759 48.9661 26.9266 48.9661H37.1759C37.6439 48.9661 38.0159 48.5728 37.9906 48.1048L35.3612 0.771459C35.3372 0.338126 34.9785 0.000793457 34.5452 0.000793457H3.44655C3.01322 0.000793457 2.65455 0.338126 2.63055 0.771459Z" fill="#303F23"/>
<path d="M123.343 16.3221H138.032C138.483 16.3221 138.848 16.6875 138.848 17.1381V31.8275C138.848 32.2781 138.483 32.6435 138.032 32.6435H123.343C122.892 32.6435 122.527 32.2781 122.527 31.8275V17.1381C122.527 16.6875 122.892 16.3221 123.343 16.3221ZM115.182 48.9661H146.194C146.644 48.9661 147.01 48.6008 147.01 48.1501V0.816793C147.01 0.366126 146.644 0.000793457 146.194 0.000793457H115.182C114.731 0.000793457 114.366 0.366126 114.366 0.816793V48.1501C114.366 48.6008 114.731 48.9661 115.182 48.9661Z" fill="#303F23"/>
<path d="M39.9575 0.816259V15.5056C39.9575 15.9563 40.3228 16.3216 40.7735 16.3216H50.0228C50.4735 16.3216 50.8388 16.6869 50.8388 17.1376V48.1496C50.8388 48.6003 51.2042 48.9656 51.6548 48.9656H60.9042C61.3548 48.9656 61.7202 48.6003 61.7202 48.1496V17.1376C61.7202 16.6869 62.0855 16.3216 62.5362 16.3216H71.7855C72.2362 16.3216 72.6015 15.9563 72.6015 15.5056V0.816259C72.6015 0.365592 72.2362 0.000259399 71.7855 0.000259399H40.7735C40.3228 0.000259399 39.9575 0.365592 39.9575 0.816259Z" fill="#303F23"/>
<path d="M77.0974 16.3221H94.3574C95.128 16.3221 95.4694 17.2941 94.8667 17.7755L76.588 32.3995C76.3934 32.5541 76.2814 32.7888 76.2814 33.0368V48.1501C76.2814 48.6008 76.6467 48.9661 77.0974 48.9661H108.109C108.56 48.9661 108.925 48.6008 108.925 48.1501V33.4608C108.925 33.0088 108.56 32.6435 108.109 32.6435H90.8494C90.0774 32.6435 89.7374 31.6728 90.34 31.1901L108.619 16.5675C108.812 16.4128 108.925 16.1781 108.925 15.9301V0.816793C108.925 0.366126 108.56 0.000793457 108.109 0.000793457H77.0974C76.6467 0.000793457 76.2814 0.366126 76.2814 0.816793V15.5061C76.2814 15.9568 76.6467 16.3221 77.0974 16.3221Z" fill="#303F23"/>
<path d="M182.205 0.592L177.102 18.4507C177.002 18.8013 176.682 19.0427 176.318 19.0427H172.109C171.743 19.0427 171.423 18.8013 171.323 18.4507L166.221 0.592C166.121 0.241334 165.801 0 165.437 0H153.266C152.815 0 152.45 0.365333 152.45 0.815999V48.1493C152.45 48.6 152.815 48.9653 153.266 48.9653H162.515C162.966 48.9653 163.331 48.6 163.331 48.1493V28.02C163.331 27.568 163.697 27.2027 164.147 27.2027H167.767C168.133 27.2027 168.453 27.4453 168.553 27.7947L171.323 37.492C171.423 37.8427 171.743 38.084 172.109 38.084H176.318C176.682 38.084 177.002 37.8427 177.102 37.492L179.873 27.7947C179.973 27.4453 180.293 27.2027 180.658 27.2027H184.278C184.729 27.2027 185.094 27.568 185.094 28.02V48.1493C185.094 48.6 185.459 48.9653 185.91 48.9653H195.159C195.61 48.9653 195.975 48.6 195.975 48.1493V0.815999C195.975 0.365333 195.61 0 195.159 0H182.99C182.625 0 182.305 0.241334 182.205 0.592Z" fill="#303F23"/>
<path d="M235.711 0.000259399H226.522C226.154 0.000259399 225.831 0.246926 225.735 0.601593L220.862 18.4416C220.764 18.7963 220.442 19.0429 220.074 19.0429H215.386C215.018 19.0429 214.695 18.7963 214.598 18.4403L209.74 0.601593C209.644 0.246926 209.322 0.000259399 208.954 0.000259399H199.763C199.226 0.000259399 198.835 0.512258 198.976 1.03092L205.314 24.3069C205.352 24.4469 205.352 24.5949 205.314 24.7363L198.978 47.9349C198.835 48.4536 199.226 48.9656 199.764 48.9656H208.954C209.322 48.9656 209.644 48.7203 209.74 48.3656L214.614 30.5243C214.711 30.1696 215.034 29.9243 215.402 29.9243H220.09C220.458 29.9243 220.78 30.1696 220.878 30.5256L225.735 48.3643C225.831 48.7189 226.154 48.9656 226.522 48.9656H235.712C236.25 48.9656 236.64 48.4549 236.499 47.9349L230.162 24.6603C230.123 24.5189 230.123 24.3709 230.162 24.2296L236.498 1.03092C236.64 0.512258 236.25 0.000259399 235.711 0.000259399Z" fill="#303F23"/>
</svg>
