<svg width="521" height="287" viewBox="0 0 521 287" fill="none" xmlns="http://www.w3.org/2000/svg">
<path d="M464.262 61.1242C464.418 60.9642 464.504 60.7468 464.499 60.5215L464.375 55.2055C464.363 54.7522 463.994 54.3908 463.54 54.3908H111.583C111.123 54.3908 110.75 54.7642 110.75 55.2255C110.75 55.6855 111.123 56.0588 111.583 56.0588H462.726L462.811 59.7068H372.876C372.415 59.7068 372.042 60.0802 372.042 60.5415C372.042 61.0015 372.415 61.3748 372.876 61.3748H463.664C463.89 61.3748 464.104 61.2842 464.262 61.1242Z" fill="#303F23"/>
<path d="M361.001 60.5412C361.001 60.0799 360.628 59.7066 360.166 59.7066H56.5517V56.0586H101.484C101.944 56.0586 102.317 55.6852 102.317 55.2252C102.317 54.7639 101.944 54.3906 101.484 54.3906H55.7184C55.2571 54.3906 54.8837 54.7639 54.8837 55.2252V60.5412C54.8837 61.0026 55.2571 61.3759 55.7184 61.3759H360.166C360.628 61.3759 361.001 61.0026 361.001 60.5412Z" fill="#303F23"/>
<path d="M414.595 9.47203C414.708 9.51869 414.822 9.56135 414.935 9.61069C414.941 9.61203 414.944 9.6107 414.95 9.61337C415.019 9.64137 415.091 9.64937 415.162 9.65869C415.198 9.66403 415.231 9.67869 415.269 9.67869C415.311 9.67869 415.35 9.66136 415.391 9.65604C415.456 9.64535 415.523 9.64003 415.589 9.61337C415.594 9.6107 415.598 9.61203 415.603 9.61069C415.715 9.56135 415.83 9.51869 415.943 9.47203V38.3174H414.595V9.47203ZM404.022 16.7307L410.307 8.17737C411.181 8.35069 412.055 8.56937 412.927 8.85203V15.632C408.879 15.688 405.925 16.2254 404.022 16.7307ZM390.627 14.2547L403.542 7.75203C403.567 7.73869 403.582 7.71736 403.604 7.7027C405.162 7.63202 406.795 7.67335 408.458 7.87869L401.595 17.216C397.971 14.6614 393.822 14.144 390.627 14.2547ZM376.682 9.74271C381.314 9.14537 387.525 8.77069 390.939 10.3454C391.158 10.4467 391.411 10.448 391.631 10.3494C391.69 10.3227 394.604 9.04137 398.824 8.26004L385.861 14.788C383.122 11.8894 379.638 10.4494 376.682 9.74271ZM415.086 1.67602L444.494 7.63336C442.537 7.76269 440.711 8.07869 439.249 8.68002C437.104 7.7867 425.825 3.53603 415.269 7.94403C404.715 3.5347 393.434 7.7867 391.29 8.68002C389.803 8.06937 387.941 7.75336 385.946 7.62802L415.086 1.67602ZM444.677 14.788L431.713 8.26004C435.934 9.04137 438.849 10.3227 438.907 10.3494C439.129 10.448 439.38 10.4467 439.599 10.3454C443.014 8.77069 449.223 9.1467 453.856 9.74271C450.9 10.4507 447.415 11.8894 444.677 14.788ZM428.943 17.216L422.081 7.87869C423.743 7.67335 425.376 7.63202 426.932 7.7027C426.955 7.71736 426.971 7.73869 426.995 7.75203L439.911 14.256C436.718 14.1454 432.567 14.6614 428.943 17.216ZM417.611 15.632V8.85203C418.483 8.56937 419.358 8.35069 420.23 8.17737L426.517 16.7307C424.614 16.2254 421.658 15.688 417.611 15.632ZM315.927 9.47203C316.04 9.51869 316.154 9.56135 316.267 9.61069C316.273 9.61203 316.277 9.6107 316.282 9.61337C316.351 9.64137 316.423 9.64937 316.494 9.65869C316.53 9.66403 316.563 9.67869 316.6 9.67869C316.643 9.67869 316.682 9.66136 316.723 9.65604C316.79 9.64535 316.855 9.64003 316.921 9.61337C316.925 9.6107 316.93 9.61203 316.935 9.61069C317.047 9.56135 317.161 9.51869 317.274 9.47203V38.3174H315.927V9.47203ZM305.354 16.7307L311.641 8.17737C312.513 8.35069 313.387 8.56937 314.259 8.85203V15.632C310.211 15.688 307.257 16.2254 305.354 16.7307ZM291.959 14.2547L304.875 7.75203C304.899 7.73869 304.914 7.71736 304.936 7.7027C306.494 7.63202 308.127 7.67335 309.79 7.87869L302.927 17.216C299.303 14.6614 295.154 14.144 291.959 14.2547ZM278.013 9.74136C282.646 9.14537 288.857 8.76936 292.271 10.3454C292.49 10.4467 292.743 10.448 292.963 10.3494C293.022 10.3227 295.936 9.04137 300.156 8.26004L287.193 14.788C284.454 11.8894 280.97 10.4494 278.013 9.74136ZM316.418 1.67602L345.826 7.63336C343.869 7.76269 342.042 8.07869 340.579 8.68002C338.437 7.7867 327.158 3.5347 316.6 7.94403C306.047 3.5347 294.766 7.7867 292.622 8.68002C291.135 8.06937 289.273 7.75336 287.278 7.62802L316.418 1.67602ZM346.009 14.788L333.047 8.26004C337.266 9.04137 340.179 10.3227 340.239 10.3494C340.461 10.448 340.711 10.4467 340.931 10.3454C344.345 8.77069 350.555 9.1467 355.189 9.74271C352.233 10.4494 348.747 11.8894 346.009 14.788ZM330.275 17.216L323.413 7.87869C325.075 7.67335 326.708 7.63202 328.266 7.7027C328.289 7.71736 328.303 7.73869 328.327 7.75203L341.242 14.2547C338.049 14.144 333.899 14.6614 330.275 17.216ZM318.942 15.632V8.85203C319.814 8.56937 320.69 8.35069 321.562 8.17737L327.849 16.7307C325.946 16.2254 322.99 15.688 318.942 15.632ZM41.6405 44.812H43.5565V49.6214C43.5565 50.0827 43.9299 50.456 44.3899 50.456H48.1979V80.0734C48.1979 80.5334 48.5712 80.9067 49.0312 80.9067C49.4925 80.9067 49.8659 80.5334 49.8659 80.0734V50.456H469.958V147.404C469.958 147.864 470.331 148.237 470.791 148.237C471.253 148.237 471.626 147.864 471.626 147.404V50.456H475.838C476.299 50.456 476.672 50.0827 476.672 49.6214V44.812H478.466C478.687 44.812 478.899 44.724 479.055 44.568C479.211 44.4107 479.299 44.1987 479.299 43.9774L479.297 39.1507C479.297 38.6907 478.923 38.3174 478.463 38.3174H417.611V17.3014C424.772 17.408 428.346 19.1027 428.39 19.1254C428.449 19.1547 428.511 19.176 428.573 19.1907C428.635 19.2054 428.699 19.212 428.762 19.212H428.763C428.851 19.212 428.941 19.196 429.027 19.168C429.055 19.1587 429.082 19.1387 429.11 19.1254C429.159 19.1027 429.21 19.084 429.257 19.0507C429.26 19.0467 429.262 19.0427 429.266 19.0387C429.271 19.036 429.277 19.0347 429.282 19.0307C435.59 14.0067 444.538 16.5894 444.629 16.616C444.635 16.6187 444.642 16.6174 444.649 16.6187C444.721 16.6387 444.794 16.652 444.866 16.652C444.945 16.652 445.021 16.64 445.095 16.6187C445.117 16.612 445.137 16.6 445.158 16.592C445.208 16.572 445.259 16.5534 445.306 16.524C445.33 16.5094 445.35 16.488 445.373 16.4707C445.413 16.44 445.451 16.4107 445.486 16.3734C445.488 16.3694 445.494 16.3667 445.496 16.364C450.708 10.3534 459.815 10.74 459.908 10.7467C459.914 10.7467 459.919 10.744 459.925 10.7454C459.934 10.7454 459.943 10.748 459.953 10.748C460.019 10.748 460.083 10.7307 460.147 10.7147C460.179 10.7067 460.212 10.704 460.243 10.692C460.328 10.66 460.407 10.6174 460.477 10.5614C460.506 10.5374 460.526 10.504 460.551 10.476C460.593 10.432 460.635 10.3894 460.666 10.336C460.686 10.304 460.695 10.2654 460.71 10.2294C460.73 10.184 460.755 10.1427 460.766 10.092C460.77 10.08 460.764 10.0667 460.767 10.0547C460.77 10.0414 460.776 10.0307 460.779 10.0174C460.785 9.97069 460.773 9.9267 460.77 9.88136C460.769 9.83069 460.771 9.78003 460.76 9.73202C460.747 9.67602 460.722 9.62402 460.698 9.57202C460.678 9.53068 460.664 9.48537 460.639 9.44803C460.604 9.39737 460.556 9.35736 460.512 9.3147C460.482 9.28537 460.456 9.2507 460.421 9.2267C460.36 9.18536 460.289 9.16269 460.218 9.13736C460.187 9.12669 460.163 9.10669 460.131 9.09869C460.035 9.07736 459.587 8.98135 458.883 8.84669L415.254 0.00802498L415.251 0.00669746C415.195 -0.00531121 415.142 0.00669746 415.087 0.00669746C415.031 0.00669746 414.977 -0.00531121 414.919 0.00669746L414.908 0.00936775L371.482 8.88003C370.879 8.99603 370.495 9.08003 370.407 9.09869C370.375 9.10669 370.351 9.12669 370.321 9.13736C370.25 9.16136 370.178 9.18536 370.118 9.2267C370.082 9.25203 370.055 9.2867 370.023 9.31737C369.979 9.3587 369.932 9.39737 369.899 9.44803C369.872 9.48669 369.859 9.53203 369.84 9.57471C369.816 9.62669 369.79 9.67602 369.778 9.73202C369.767 9.78003 369.77 9.83069 369.769 9.88136C369.766 9.92802 369.754 9.9707 369.759 10.0187C369.76 10.032 369.769 10.0414 369.771 10.0547C369.774 10.0667 369.769 10.08 369.771 10.092C369.783 10.1454 369.81 10.1894 369.831 10.2374C369.845 10.2694 369.854 10.3054 369.871 10.3347C369.91 10.4014 369.962 10.4587 370.018 10.512C370.033 10.5267 370.043 10.544 370.059 10.5574C370.135 10.62 370.221 10.668 370.314 10.7014C370.334 10.708 370.355 10.7067 370.375 10.712C370.443 10.7294 370.513 10.748 370.586 10.748C370.595 10.748 370.605 10.7454 370.614 10.7454C370.619 10.744 370.625 10.7467 370.63 10.7467C370.723 10.7414 379.831 10.3547 385.042 16.364C385.044 16.3667 385.05 16.3694 385.052 16.3734C385.087 16.412 385.127 16.4414 385.167 16.472C385.19 16.4894 385.208 16.5094 385.231 16.524C385.283 16.556 385.339 16.5774 385.395 16.5974C385.411 16.604 385.426 16.6134 385.442 16.6187C385.517 16.64 385.594 16.652 385.673 16.652C385.745 16.652 385.818 16.6387 385.89 16.6187C385.897 16.6174 385.903 16.6187 385.91 16.616C385.999 16.5894 394.947 14.0067 401.257 19.0307C401.26 19.0347 401.267 19.036 401.271 19.0387C401.275 19.0427 401.278 19.0467 401.282 19.0507C401.33 19.0854 401.383 19.1054 401.434 19.128C401.461 19.14 401.483 19.1587 401.51 19.1667C401.597 19.196 401.686 19.212 401.775 19.212C401.883 19.212 401.988 19.1867 402.089 19.1467C402.107 19.1387 402.127 19.1347 402.145 19.1267L402.147 19.1254C402.207 19.096 405.779 17.408 412.927 17.3014V38.3174H318.942V17.3014C326.105 17.408 329.678 19.104 329.722 19.1254H329.723C329.782 19.1547 329.843 19.176 329.905 19.1907C329.967 19.2054 330.031 19.212 330.094 19.212H330.095C330.183 19.212 330.273 19.196 330.359 19.168C330.387 19.1587 330.414 19.1387 330.442 19.1254C330.491 19.1027 330.543 19.084 330.589 19.0507C330.592 19.0467 330.594 19.0427 330.598 19.0387C330.603 19.036 330.609 19.0347 330.614 19.0307C336.922 14.008 345.87 16.5894 345.959 16.616C345.966 16.6187 345.974 16.6174 345.98 16.6187C346.053 16.6387 346.125 16.652 346.198 16.652C346.275 16.652 346.353 16.64 346.427 16.6187C346.448 16.612 346.467 16.6 346.488 16.592C346.54 16.572 346.591 16.5534 346.638 16.524C346.662 16.5094 346.682 16.488 346.704 16.4707C346.743 16.44 346.783 16.4107 346.816 16.3734C346.82 16.3694 346.825 16.3667 346.829 16.364C352.041 10.3534 361.147 10.74 361.241 10.7467C361.246 10.7467 361.25 10.744 361.255 10.7454C361.264 10.7454 361.275 10.748 361.285 10.748C361.354 10.748 361.419 10.7294 361.486 10.7134C361.509 10.7067 361.535 10.7093 361.558 10.7014C361.65 10.668 361.735 10.62 361.81 10.5587C361.831 10.5414 361.845 10.5174 361.865 10.4974C361.914 10.448 361.962 10.396 361.999 10.3347C362.017 10.304 362.026 10.268 362.039 10.2347C362.059 10.188 362.086 10.144 362.098 10.092C362.1 10.08 362.096 10.0667 362.098 10.0534C362.1 10.0414 362.109 10.0307 362.11 10.0174C362.117 9.97069 362.103 9.9267 362.102 9.88136C362.099 9.83069 362.103 9.78003 362.092 9.73202C362.079 9.67602 362.052 9.62402 362.029 9.57202C362.01 9.53068 361.997 9.48537 361.97 9.44803C361.937 9.39737 361.889 9.35736 361.843 9.3147C361.812 9.28537 361.787 9.2507 361.751 9.2267C361.693 9.18536 361.621 9.16269 361.55 9.13736C361.519 9.12669 361.495 9.10669 361.462 9.09869C361.366 9.07736 360.918 8.98135 360.215 8.84669L316.586 0.00802498L316.583 0.00669746C316.527 -0.00531121 316.475 0.00669746 316.421 0.00669746C316.363 0.00536995 316.309 -0.00531121 316.251 0.00669746L316.242 0.00936775L272.815 8.87869C272.213 8.99603 271.827 9.08003 271.739 9.09869C271.707 9.10669 271.683 9.12669 271.653 9.13736C271.582 9.16136 271.51 9.18536 271.45 9.2267C271.414 9.25203 271.387 9.2867 271.355 9.31737C271.313 9.3587 271.266 9.39737 271.231 9.44803C271.204 9.48669 271.191 9.53203 271.173 9.57471C271.149 9.62669 271.122 9.67602 271.11 9.73202C271.099 9.78003 271.102 9.83069 271.101 9.88136C271.098 9.92802 271.086 9.9707 271.091 10.0187C271.093 10.032 271.101 10.0414 271.103 10.0547C271.106 10.068 271.101 10.08 271.103 10.092C271.115 10.1427 271.141 10.1854 271.161 10.2307C271.175 10.2654 271.185 10.304 271.203 10.336C271.237 10.3934 271.282 10.44 271.327 10.4867C271.35 10.5094 271.367 10.5387 271.394 10.56C271.467 10.62 271.551 10.668 271.643 10.7C271.666 10.708 271.691 10.7067 271.715 10.7134C271.782 10.7294 271.847 10.748 271.918 10.748C271.927 10.748 271.937 10.7454 271.946 10.7454C271.951 10.744 271.957 10.7467 271.962 10.7467C272.055 10.7414 281.163 10.3547 286.374 16.364C286.377 16.3667 286.382 16.3694 286.385 16.3734C286.419 16.412 286.459 16.4414 286.499 16.472C286.522 16.4894 286.541 16.5094 286.563 16.524C286.615 16.556 286.671 16.5774 286.727 16.5974C286.743 16.604 286.758 16.6134 286.774 16.6187C286.849 16.64 286.926 16.652 287.005 16.652C287.077 16.652 287.15 16.6387 287.222 16.6187C287.229 16.6174 287.235 16.6187 287.242 16.616C287.333 16.5894 296.281 14.0067 302.589 19.0307C302.594 19.0347 302.599 19.036 302.603 19.0387C302.609 19.0427 302.61 19.0467 302.614 19.0507C302.662 19.0854 302.715 19.1054 302.766 19.128C302.793 19.14 302.815 19.1587 302.842 19.1667C302.928 19.196 303.018 19.212 303.107 19.212C303.215 19.212 303.322 19.1867 303.423 19.1454C303.441 19.1387 303.459 19.1347 303.477 19.1267L303.479 19.1254C303.539 19.096 307.111 17.408 314.259 17.3014V38.3174H267.743C267.283 38.3174 266.91 38.6907 266.91 39.1507C266.91 39.612 267.283 39.9854 267.743 39.9854H477.63L477.631 43.144H453.246C452.786 43.144 452.413 43.5174 452.413 43.9787C452.413 44.4387 452.786 44.812 453.246 44.812H475.003V48.788H471.152C471.042 48.7334 470.922 48.6974 470.791 48.6974C470.66 48.6974 470.541 48.7334 470.431 48.788H49.4419C49.3192 48.716 49.1845 48.664 49.0312 48.664C48.8792 48.664 48.7432 48.716 48.6205 48.788H45.2245V44.812H443.823C444.283 44.812 444.656 44.4387 444.656 43.9787C444.656 43.5174 444.283 43.144 443.823 43.144H42.4752V39.9854H90.6952C91.1565 39.9854 91.5299 39.612 91.5299 39.1507C91.5299 38.6907 91.1565 38.3174 90.6952 38.3174H41.6405C41.1805 38.3174 40.8072 38.6907 40.8072 39.1507V43.9787C40.8072 44.4387 41.1805 44.812 41.6405 44.812Z" fill="#303F23"/>
<path d="M519.602 284.939H471.625V158.074C471.625 157.614 471.252 157.24 470.792 157.24C470.33 157.24 469.957 157.614 469.957 158.074V284.939H267.725C267.264 284.939 266.89 285.312 266.89 285.774C266.89 286.234 267.264 286.607 267.725 286.607H519.602C520.064 286.607 520.437 286.234 520.437 285.774C520.437 285.312 520.064 284.939 519.602 284.939Z" fill="#303F23"/>
<path d="M256.882 284.939H67.5571C67.0957 284.939 66.7224 285.312 66.7224 285.774C66.7224 286.234 67.0957 286.607 67.5571 286.607H256.882C257.344 286.607 257.717 286.234 257.717 285.774C257.717 285.312 257.344 284.939 256.882 284.939Z" fill="#303F23"/>
<path d="M58.3827 284.939H49.8653V90.7429C49.8653 90.2816 49.492 89.9082 49.032 89.9082C48.5707 89.9082 48.1973 90.2816 48.1973 90.7429V284.939H0.834666C0.373333 284.939 0 285.312 0 285.774C0 286.234 0.373333 286.607 0.834666 286.607H58.3827C58.844 286.607 59.2173 286.234 59.2173 285.774C59.2173 285.312 58.844 284.939 58.3827 284.939Z" fill="#303F23"/>
<path d="M80.8815 86.957V81.6237H141.46V86.957H80.8815ZM100.477 92.273C100.016 92.273 99.6428 92.6464 99.6428 93.1064C99.6428 93.5677 100.016 93.941 100.477 93.941H139.129C139.589 93.941 139.963 93.5677 139.963 93.1064V88.625H142.295C142.755 88.625 143.128 88.2517 143.128 87.7917V80.7904C143.128 80.329 142.755 79.9557 142.295 79.9557H80.0481C79.5868 79.9557 79.2135 80.329 79.2135 80.7904V87.7917C79.2135 88.2517 79.5868 88.625 80.0481 88.625H83.2415V93.1624C83.2415 93.6237 83.6148 93.997 84.0761 93.997H91.6535C92.1135 93.997 92.4868 93.6237 92.4868 93.1624C92.4868 92.7024 92.1135 92.3277 91.6535 92.3277H84.9108V88.625H138.295V92.273H100.477Z" fill="#303F23"/>
<path d="M187.978 88.6253C188.439 88.6253 188.813 88.252 188.813 87.7906C188.813 87.3306 188.439 86.9573 187.978 86.9573H178.083V81.624H238.662V86.9573H194.114C193.654 86.9573 193.281 87.3306 193.281 87.7906C193.281 88.252 193.654 88.6253 194.114 88.6253H235.497V92.328H182.111V88.6253H187.978ZM181.278 93.996H236.331C236.791 93.996 237.165 93.568 237.165 93.1066V88.6253H239.495C239.957 88.6253 240.33 88.252 240.33 87.7906V80.7893C240.33 80.3293 239.957 79.956 239.495 79.956H177.25C176.789 79.956 176.415 80.3293 176.415 80.7893V87.7906C176.415 88.252 176.789 88.6253 177.25 88.6253H180.443V93.1626C180.443 93.6226 180.817 93.996 181.278 93.996Z" fill="#303F23"/>
<path d="M108.445 268.236H114.925V239.476H108.445V268.236Z" fill="#303F23"/>
<path d="M100.297 268.236H106.777V239.476H100.297V268.236Z" fill="#303F23"/>
<path d="M116.593 268.236H123.071V239.476H116.593V268.236Z" fill="#303F23"/>
<path d="M80.6217 148.668H83.4177V174.236H80.6217V148.668ZM90.5564 174.236H85.0857V148.668H90.5564V174.236ZM138.279 174.236H132.808V148.668H138.279V174.236ZM142.77 174.236H139.948V148.668H142.77V174.236ZM91.963 147.835C91.963 147.718 91.9884 147.607 92.0311 147.506C92.0751 147.404 92.1391 147.314 92.2177 147.238C92.3671 147.092 92.571 147 92.7977 147H130.339C130.756 147 131.087 147.312 131.148 147.714C131.155 147.755 131.172 147.791 131.172 147.835C131.172 147.878 131.155 147.915 131.148 147.955C131.087 148.356 130.756 148.668 130.339 148.668H125.11V173.831C125.11 173.98 125.059 174.115 124.988 174.236C124.846 174.487 124.586 174.664 124.275 174.664C123.964 174.664 123.706 174.487 123.562 174.236C123.491 174.115 123.442 173.98 123.442 173.831V148.668H116.399V173.831C116.399 173.98 116.348 174.115 116.279 174.236C116.135 174.487 115.875 174.664 115.566 174.664C115.255 174.664 114.995 174.487 114.851 174.236C114.782 174.115 114.731 173.98 114.731 173.831V148.668H107.69V173.831C107.69 173.98 107.639 174.115 107.568 174.236C107.426 174.487 107.166 174.664 106.855 174.664C106.544 174.664 106.284 174.487 106.142 174.236C106.071 174.115 106.02 173.98 106.02 173.831V148.668H98.979V173.831C98.979 173.98 98.9284 174.115 98.8591 174.236C98.7151 174.487 98.455 174.664 98.1444 174.664C97.835 174.664 97.575 174.487 97.431 174.236C97.3617 174.115 97.311 173.98 97.311 173.831V148.668H92.7977C92.571 148.668 92.3671 148.578 92.2177 148.431C92.1391 148.355 92.0751 148.264 92.0311 148.163C91.9884 148.062 91.963 147.951 91.963 147.835ZM78.995 179.343C79.0004 179.8 79.3724 180.17 79.8297 180.17H83.1817V183.744C83.1817 184.206 83.555 184.579 84.0164 184.579H130.295C130.755 184.579 131.128 184.206 131.128 183.744C131.128 183.284 130.755 182.911 130.295 182.911H84.8497V180.17H86.8724C87.3324 180.17 87.7057 179.795 87.7057 179.335C87.7057 178.874 87.3324 178.5 86.8724 178.5H80.6551L80.6297 175.904H142.784V178.5H91.0284C90.5684 178.5 90.1951 178.874 90.1951 179.335C90.1951 179.795 90.5684 180.17 91.0284 180.17H138.483V182.911H135.008C134.548 182.911 134.175 183.284 134.175 183.744C134.175 184.206 134.548 184.579 135.008 184.579H139.318C139.778 184.579 140.151 184.206 140.151 183.744V180.17H143.618C144.079 180.17 144.452 179.795 144.452 179.335V175.071C144.452 175.044 144.44 175.022 144.438 174.996V147.835C144.438 147.374 144.064 147 143.603 147H139.947V102.946C139.947 102.486 139.574 102.112 139.114 102.112H84.2524C83.7911 102.112 83.4177 102.486 83.4177 102.946V108.999C83.4177 109.46 83.7911 109.834 84.2524 109.834C84.7124 109.834 85.0857 109.46 85.0857 108.999V103.78H138.279V147H132.808V110.104C132.808 109.646 132.436 109.274 131.979 109.274H91.387C90.9284 109.274 90.5564 109.646 90.5564 110.104V147H85.0857V116.727C85.0857 116.267 84.7124 115.892 84.2524 115.892C83.7911 115.892 83.4177 116.267 83.4177 116.727V147H79.7871C79.3271 147 78.9537 147.374 78.9537 147.835V175.079L78.995 179.343Z" fill="#303F23"/>
<path d="M177.975 148.668H180.771V174.236H177.975V148.668ZM187.911 174.236H182.44V148.668H187.911V174.236ZM235.632 174.236H230.162V148.668H235.632V174.236ZM240.123 174.236H237.302V148.668H240.123V174.236ZM189.316 147.835C189.316 147.718 189.342 147.607 189.384 147.506C189.428 147.404 189.492 147.314 189.571 147.238C189.72 147.092 189.924 147 190.151 147H227.692C228.11 147 228.44 147.312 228.502 147.714C228.508 147.755 228.526 147.791 228.526 147.835C228.526 147.878 228.508 147.915 228.502 147.955C228.44 148.356 228.11 148.668 227.692 148.668H222.463V173.831C222.463 173.98 222.412 174.115 222.343 174.236C222.199 174.487 221.939 174.664 221.628 174.664C221.319 174.664 221.059 174.487 220.915 174.236C220.846 174.115 220.795 173.98 220.795 173.831V148.668H213.752V173.831C213.752 173.98 213.702 174.115 213.632 174.236C213.488 174.487 213.228 174.664 212.919 174.664C212.608 174.664 212.348 174.487 212.204 174.236C212.135 174.115 212.084 173.98 212.084 173.831V148.668H205.043V173.831C205.043 173.98 204.992 174.115 204.922 174.236C204.779 174.487 204.519 174.664 204.208 174.664C203.898 174.664 203.638 174.487 203.495 174.236C203.424 174.115 203.374 173.98 203.374 173.831V148.668H196.332V173.831C196.332 173.98 196.282 174.115 196.212 174.236C196.068 174.487 195.808 174.664 195.498 174.664C195.188 174.664 194.928 174.487 194.784 174.236C194.715 174.115 194.664 173.98 194.664 173.831V148.668H190.151C189.924 148.668 189.72 148.578 189.571 148.431C189.492 148.355 189.428 148.264 189.384 148.163C189.342 148.062 189.316 147.951 189.316 147.835ZM176.348 179.343C176.354 179.8 176.726 180.17 177.183 180.17H180.535V183.744C180.535 184.206 180.908 184.579 181.37 184.579H227.648C228.11 184.579 228.483 184.206 228.483 183.744C228.483 183.284 228.11 182.911 227.648 182.911H182.204V180.17H184.224C184.686 180.17 185.059 179.795 185.059 179.335C185.059 178.874 184.686 178.5 184.224 178.5H178.01L177.983 175.904H240.138V178.5H188.383C187.922 178.5 187.548 178.874 187.548 179.335C187.548 179.795 187.922 180.17 188.383 180.17H235.836V182.911H232.363C231.902 182.911 231.528 183.284 231.528 183.744C231.528 184.206 231.902 184.579 232.363 184.579H236.671C237.131 184.579 237.504 184.206 237.504 183.744V180.17H240.971C241.432 180.17 241.806 179.795 241.806 179.335V175.071C241.806 175.044 241.794 175.023 241.791 174.998V147.835C241.791 147.374 241.418 147 240.956 147H237.3V102.946C237.3 102.486 236.927 102.112 236.467 102.112H181.606C181.144 102.112 180.771 102.486 180.771 102.946V108.999C180.771 109.46 181.144 109.834 181.606 109.834C182.066 109.834 182.439 109.46 182.439 108.999V103.78H235.632V147H230.162V110.104C230.162 109.646 229.79 109.274 229.332 109.274H188.74C188.282 109.274 187.911 109.646 187.911 110.104V147H182.439V116.727C182.439 116.267 182.066 115.892 181.606 115.892C181.144 115.892 180.771 116.267 180.771 116.727V147H177.142C176.68 147 176.307 147.374 176.307 147.835V175.071L176.308 175.075L176.307 175.079L176.348 179.343Z" fill="#303F23"/>
<path d="M148.557 253.294C148.043 252.394 147.316 251.642 146.449 251.114C147.316 250.586 148.043 249.834 148.557 248.933C149.072 249.834 149.799 250.586 150.665 251.114C149.799 251.642 149.072 252.394 148.557 253.294ZM141.035 268.063V239.475H147.732V245.718C147.731 245.738 147.72 245.755 147.72 245.777C147.72 248.259 145.823 250.279 143.491 250.279C143.031 250.279 142.657 250.652 142.657 251.114C142.657 251.574 143.031 251.947 143.491 251.947C145.823 251.947 147.72 253.967 147.72 256.451C147.72 256.511 147.743 256.564 147.755 256.622C147.749 256.66 147.732 256.694 147.732 256.734V268.063H141.035ZM147.732 280.434H141.035V269.731H147.732V280.434ZM132.888 269.733H139.368V280.435H132.888V269.733ZM84.0025 269.733H90.4825V280.435H84.0025V269.733ZM76.0065 269.733H82.3345V280.435H76.0065V269.733ZM75.9692 256.697C75.9932 256.618 76.0185 256.538 76.0185 256.451C76.0185 253.967 77.9159 251.947 80.2479 251.947C80.7079 251.947 81.0812 251.574 81.0812 251.114C81.0812 250.652 80.7079 250.279 80.2479 250.279C77.9159 250.279 76.0185 248.259 76.0185 245.777C76.0185 245.755 76.0079 245.738 76.0065 245.718V239.475H82.3345V268.063H76.0065V256.882C76.0065 256.815 75.9839 256.758 75.9692 256.697ZM73.0745 251.114C73.9412 250.586 74.6679 249.834 75.1812 248.933C75.6959 249.834 76.4225 250.586 77.2892 251.114C76.4225 251.642 75.6959 252.394 75.1812 253.294C74.6679 252.394 73.9412 251.642 73.0745 251.114ZM76.0065 201.062H82.3345V237.807H76.0065V201.062ZM90.4825 237.807H84.0025V201.062H90.4825V237.807ZM98.6292 215.203H92.1505V201.062H98.6292V215.203ZM106.777 215.203H100.297V201.062H106.777V215.203ZM114.924 215.203H108.444V201.062H114.924V215.203ZM123.072 215.203H116.593V201.062H123.072V215.203ZM131.219 215.203H124.739V201.062H131.219V215.203ZM139.367 237.807H132.887V201.062H139.367V237.807ZM147.732 237.807H141.035V201.062H147.732V237.807ZM91.3745 248.868C91.4092 248.93 91.4532 248.986 91.4892 249.046C91.6839 249.366 91.9052 249.666 92.1505 249.942C92.2065 250.005 92.2599 250.073 92.3185 250.133C92.6599 250.489 93.0412 250.8 93.4572 251.058C93.0412 251.315 92.6599 251.627 92.3185 251.982C92.2599 252.043 92.2065 252.11 92.1505 252.174C91.9052 252.45 91.6839 252.748 91.4892 253.068C91.4532 253.13 91.4092 253.185 91.3745 253.246C91.3572 253.215 91.3345 253.186 91.3159 253.155C91.1252 252.83 90.9039 252.529 90.6612 252.247C90.6012 252.177 90.5452 252.102 90.4825 252.034C90.1265 251.657 89.7278 251.327 89.2932 251.058C89.7278 250.787 90.1265 250.458 90.4825 250.082C90.5452 250.014 90.6012 249.938 90.6612 249.867C90.9039 249.586 91.1252 249.285 91.3159 248.959C91.3345 248.929 91.3572 248.901 91.3745 248.868ZM132.052 253.246C132 253.154 131.936 253.07 131.88 252.98C131.639 252.599 131.364 252.245 131.052 251.93C130.723 251.598 130.363 251.3 129.969 251.058C130.363 250.814 130.723 250.518 131.052 250.186C131.364 249.871 131.639 249.516 131.88 249.134C131.936 249.044 132 248.96 132.052 248.868C132.24 249.203 132.465 249.51 132.708 249.799C133.12 250.292 133.596 250.724 134.133 251.058C133.596 251.391 133.12 251.822 132.708 252.315C132.465 252.606 132.24 252.911 132.052 253.246ZM84.0025 239.475H90.4825V246.377C90.1692 248.553 88.4532 250.223 86.3852 250.223C85.9239 250.223 85.5505 250.596 85.5505 251.058C85.5505 251.518 85.9239 251.891 86.3852 251.891C88.4532 251.891 90.1692 253.563 90.4825 255.739V268.063H84.0025V239.475ZM123.072 279.473V269.905H116.593V279.473C116.593 279.821 116.22 280.102 115.759 280.102C115.297 280.102 114.924 279.821 114.924 279.473V269.905H108.445V279.473C108.445 279.821 108.072 280.102 107.611 280.102C107.151 280.102 106.777 279.821 106.777 279.473V269.905H100.297V279.473C100.297 279.821 99.9239 280.102 99.4639 280.102C99.0025 280.102 98.6292 279.821 98.6292 279.473V269.905H93.1452C93.0599 269.905 92.9852 269.833 92.9225 269.733C92.8265 269.581 92.7612 269.347 92.7612 269.07C92.7612 269.008 92.7705 268.955 92.7772 268.898C92.8145 268.523 92.9612 268.237 93.1452 268.237H98.6292V239.475H93.1452C92.9319 239.475 92.7612 239.102 92.7612 238.642C92.7612 238.18 92.9332 237.807 93.1452 237.807H98.6292V218.865C98.6292 218.517 99.0025 218.235 99.4639 218.235C99.9239 218.235 100.297 218.517 100.297 218.865V237.807H106.777V218.865C106.777 218.517 107.151 218.235 107.611 218.235C108.072 218.235 108.445 218.517 108.445 218.865V237.807H114.924V218.865C114.924 218.517 115.297 218.235 115.759 218.235C116.22 218.235 116.593 218.517 116.593 218.865V237.807H123.072V218.865C123.072 218.517 123.445 218.235 123.905 218.235C124.365 218.235 124.74 218.517 124.74 218.865V237.807H129.644C129.856 237.807 130.028 238.18 130.028 238.642C130.028 239.102 129.856 239.475 129.644 239.475H124.74V268.237H129.644C129.828 268.237 129.975 268.523 130.012 268.898C130.017 268.955 130.028 269.008 130.028 269.07C130.028 269.347 129.961 269.581 129.867 269.733C129.803 269.833 129.728 269.905 129.644 269.905H124.74V279.473C124.74 279.821 124.367 280.102 123.907 280.102C123.447 280.102 123.072 279.821 123.072 279.473ZM139.367 268.063H132.888V256.451C132.888 253.937 134.752 251.891 137.043 251.891C137.503 251.891 137.876 251.518 137.876 251.058C137.876 250.596 137.503 250.223 137.043 250.223C134.752 250.223 132.888 248.178 132.888 245.665C132.888 245.627 132.872 245.594 132.867 245.558C132.872 245.523 132.888 245.493 132.888 245.455V239.475H139.367V268.063ZM153.623 251.947C154.084 251.947 154.457 251.574 154.457 251.114C154.457 250.652 154.084 250.279 153.623 250.279C151.335 250.279 149.469 248.333 149.4 245.914V239.475H151.465C151.925 239.475 152.299 239.102 152.299 238.642C152.299 238.18 151.925 237.807 151.465 237.807H149.4V200.227C149.4 199.767 149.027 199.394 148.567 199.394H75.1719C74.7119 199.394 74.3385 199.767 74.3385 200.227V237.807H72.2745C71.8132 237.807 71.4399 238.18 71.4399 238.642C71.4399 239.102 71.8132 239.475 72.2745 239.475H74.3385V245.921C74.2665 248.336 72.4025 250.279 70.1159 250.279C69.6545 250.279 69.2812 250.652 69.2812 251.114C69.2812 251.574 69.6545 251.947 70.1159 251.947C72.4479 251.947 74.3452 253.967 74.3452 256.451C74.3452 256.522 74.3692 256.585 74.3852 256.65C74.3625 256.725 74.3385 256.799 74.3385 256.882V268.063H72.2745C71.8132 268.063 71.4399 268.436 71.4399 268.898C71.4399 269.358 71.8132 269.733 72.2745 269.733H74.3385V281.268C74.3385 281.728 74.7119 282.102 75.1719 282.102H148.567C149.027 282.102 149.4 281.728 149.4 281.268V269.733H151.465C151.925 269.733 152.299 269.358 152.299 268.898C152.299 268.436 151.925 268.063 151.465 268.063H149.4V256.734C149.4 256.678 149.379 256.63 149.369 256.577C149.376 256.534 149.395 256.495 149.395 256.451C149.395 253.967 151.292 251.947 153.623 251.947Z" fill="#303F23"/>
<path d="M213.858 239.476V268.236H220.337V239.476H213.858Z" fill="#303F23"/>
<path d="M205.71 239.476V268.236H212.19V239.476H205.71Z" fill="#303F23"/>
<path d="M197.563 239.476V268.236H204.043V239.476H197.563Z" fill="#303F23"/>
<path d="M246.124 253.312C245.603 252.404 244.864 251.645 243.981 251.113C244.864 250.582 245.603 249.824 246.124 248.916C246.645 249.824 247.384 250.582 248.267 251.113C247.384 251.645 246.645 252.404 246.124 253.312ZM238.485 268.064V239.476H245.3V245.717C245.297 245.737 245.287 245.756 245.287 245.777C245.287 248.26 243.359 250.28 240.988 250.28C240.527 250.28 240.153 250.653 240.153 251.113C240.153 251.574 240.527 251.948 240.988 251.948C243.359 251.948 245.287 253.968 245.287 256.452C245.287 256.512 245.309 256.565 245.321 256.622C245.316 256.661 245.3 256.694 245.3 256.734V268.064H238.485ZM245.3 280.434H238.487V269.732H245.3V280.434ZM230.225 269.732H236.817V280.434H230.225V269.732ZM180.661 269.732H187.253V280.434H180.661V269.732ZM172.553 269.732H178.993V280.434H172.553V269.732ZM172.517 256.697C172.541 256.618 172.567 256.538 172.567 256.452C172.567 253.968 174.495 251.948 176.867 251.948C177.327 251.948 177.7 251.574 177.7 251.113C177.7 250.653 177.327 250.28 176.867 250.28C174.495 250.28 172.567 248.26 172.567 245.777C172.567 245.756 172.556 245.737 172.553 245.716V239.476H178.993V268.064H172.553V256.881C172.553 256.816 172.531 256.758 172.517 256.697ZM169.587 251.113C170.469 250.582 171.208 249.824 171.729 248.916C172.251 249.824 172.989 250.582 173.872 251.113C172.989 251.645 172.251 252.404 171.729 253.312C171.208 252.404 170.469 251.645 169.587 251.113ZM172.553 201.062H178.993V237.808H172.553V201.062ZM187.253 237.808H180.661V201.062H187.253V237.808ZM195.515 215.197H188.923V201.061H195.515V215.197ZM203.775 215.197H197.183V201.061H203.775V215.197ZM212.036 215.197H205.444V201.061H212.036V215.197ZM220.296 215.197H213.704V201.061H220.296V215.197ZM228.557 215.197H221.965V201.061H228.557V215.197ZM236.817 237.808H230.225V201.062H236.817V237.808ZM245.3 237.808H238.487V201.062H245.3V237.808ZM188.148 248.852C188.183 248.913 188.227 248.969 188.264 249.029C188.457 249.348 188.679 249.644 188.921 249.918C188.981 249.985 189.036 250.056 189.097 250.12C189.448 250.48 189.839 250.797 190.264 251.057C189.839 251.318 189.448 251.636 189.097 251.996C189.036 252.06 188.981 252.132 188.921 252.198C188.679 252.472 188.457 252.769 188.264 253.085C188.227 253.146 188.183 253.202 188.148 253.264C188.129 253.232 188.107 253.204 188.088 253.172C187.896 252.848 187.673 252.546 187.431 252.265C187.371 252.196 187.316 252.122 187.253 252.056C186.889 251.67 186.48 251.333 186.031 251.057C186.48 250.782 186.889 250.445 187.253 250.06C187.316 249.993 187.371 249.92 187.431 249.85C187.673 249.569 187.896 249.268 188.088 248.944C188.107 248.912 188.129 248.884 188.148 248.852ZM229.389 253.264C229.336 253.17 229.272 253.086 229.215 252.996C228.972 252.613 228.696 252.258 228.381 251.942C228.045 251.605 227.676 251.305 227.273 251.057C227.676 250.81 228.045 250.51 228.381 250.173C228.696 249.857 228.972 249.502 229.215 249.12C229.272 249.029 229.336 248.945 229.389 248.852C229.579 249.186 229.805 249.492 230.048 249.782C230.468 250.282 230.955 250.72 231.507 251.057C230.955 251.396 230.468 251.833 230.048 252.333C229.805 252.624 229.579 252.929 229.389 253.264ZM180.661 239.476H187.253V246.378C186.935 248.553 185.191 250.224 183.088 250.224C182.627 250.224 182.253 250.597 182.253 251.057C182.253 251.518 182.627 251.892 183.088 251.892C185.191 251.892 186.935 253.562 187.253 255.737V268.064H180.661V239.476ZM220.336 279.473V269.905H213.857V279.473C213.857 279.602 213.793 279.717 213.704 279.817C213.555 279.985 213.312 280.102 213.024 280.102C212.969 280.102 212.921 280.086 212.869 280.078C212.485 280.022 212.189 279.778 212.189 279.473V269.905H205.711V279.473C205.711 279.654 205.605 279.814 205.444 279.929C205.295 280.034 205.097 280.102 204.876 280.102C204.781 280.102 204.695 280.084 204.609 280.061C204.281 279.977 204.041 279.749 204.041 279.473V269.905H197.563V279.473C197.563 279.69 197.407 279.874 197.183 279.986C197.051 280.053 196.9 280.102 196.728 280.102C196.589 280.102 196.464 280.07 196.348 280.025C196.083 279.92 195.895 279.716 195.895 279.473V269.905H190.411C190.325 269.905 190.251 269.833 190.188 269.732C190.092 269.581 190.025 269.348 190.025 269.07C190.025 269.009 190.036 268.956 190.041 268.898C190.08 268.522 190.227 268.237 190.411 268.237H195.895V239.476H190.411C190.199 239.476 190.025 239.102 190.025 238.642C190.025 238.182 190.197 237.808 190.411 237.808H195.895V218.865C195.895 218.622 196.083 218.418 196.348 218.313C196.464 218.268 196.589 218.236 196.728 218.236C196.9 218.236 197.051 218.284 197.183 218.35C197.407 218.464 197.563 218.646 197.563 218.865V237.808H204.041V218.865C204.041 218.589 204.281 218.361 204.609 218.276C204.695 218.254 204.781 218.236 204.876 218.236C205.097 218.236 205.295 218.302 205.444 218.408C205.605 218.522 205.711 218.684 205.711 218.865V237.808H212.189V218.865C212.189 218.558 212.485 218.314 212.869 218.258C212.921 218.252 212.969 218.236 213.024 218.236C213.312 218.236 213.555 218.353 213.704 218.521C213.793 218.621 213.857 218.734 213.857 218.865V237.808H220.336V218.865C220.336 218.528 220.689 218.258 221.131 218.241C221.144 218.241 221.156 218.236 221.171 218.236C221.56 218.236 221.873 218.441 221.964 218.713C221.981 218.764 222.005 218.81 222.005 218.865V237.808H226.909C227.121 237.808 227.293 238.181 227.293 238.641C227.293 239.101 227.121 239.476 226.909 239.476H222.005V268.237H226.909C227.093 268.237 227.24 268.522 227.277 268.898C227.283 268.956 227.293 269.009 227.293 269.07C227.293 269.348 227.227 269.581 227.132 269.732C227.068 269.833 226.993 269.905 226.909 269.905H222.005V279.473C222.005 279.526 221.981 279.574 221.964 279.624C221.873 279.896 221.56 280.102 221.171 280.102C221.156 280.102 221.144 280.096 221.131 280.096C220.689 280.08 220.336 279.809 220.336 279.473ZM236.817 268.064H230.225V256.456L230.227 256.452C230.227 253.937 232.12 251.892 234.449 251.892C234.909 251.892 235.283 251.518 235.283 251.057C235.283 250.597 234.909 250.224 234.449 250.224C232.12 250.224 230.227 248.178 230.227 245.665C230.227 245.626 230.209 245.594 230.204 245.558C230.209 245.524 230.225 245.492 230.225 245.456V239.476H236.817V268.064ZM251.26 251.948C251.721 251.948 252.095 251.574 252.095 251.113C252.095 250.653 251.721 250.28 251.26 250.28C248.935 250.28 247.04 248.336 246.968 245.918V239.476H249.072C249.533 239.476 249.907 239.102 249.907 238.641C249.907 238.181 249.533 237.808 249.072 237.808H246.968V200.228C246.968 199.768 246.595 199.393 246.133 199.393H171.72C171.259 199.393 170.885 199.768 170.885 200.228V237.808H168.781C168.321 237.808 167.948 238.181 167.948 238.641C167.948 239.102 168.321 239.476 168.781 239.476H170.885V245.918C170.813 248.336 168.919 250.28 166.593 250.28C166.132 250.28 165.759 250.653 165.759 251.113C165.759 251.574 166.132 251.948 166.593 251.948C168.964 251.948 170.892 253.968 170.892 256.452C170.892 256.521 170.916 256.584 170.932 256.649C170.911 256.725 170.885 256.8 170.885 256.881V268.064H168.781C168.321 268.064 167.948 268.437 167.948 268.898C167.948 269.358 168.321 269.732 168.781 269.732H170.885V281.269C170.885 281.729 171.259 282.102 171.72 282.102H246.133C246.595 282.102 246.968 281.729 246.968 281.269V269.732H249.072C249.533 269.732 249.907 269.358 249.907 268.898C249.907 268.437 249.533 268.064 249.072 268.064H246.968V256.734C246.968 256.678 246.947 256.629 246.936 256.576C246.943 256.533 246.961 256.496 246.961 256.452C246.961 253.968 248.889 251.948 251.26 251.948Z" fill="#303F23"/>
<path d="M378.144 86.957V81.6237H438.723V86.957H378.144ZM427.952 92.3277C427.491 92.3277 427.117 92.7024 427.117 93.1624C427.117 93.6237 427.491 93.997 427.952 93.997H435.528C435.989 93.997 436.363 93.6237 436.363 93.1624V88.625H439.557C440.017 88.625 440.391 88.2517 440.391 87.7917V80.7904C440.391 80.329 440.017 79.9557 439.557 79.9557H377.309C376.849 79.9557 376.476 80.329 376.476 80.7904V87.7917C376.476 88.2517 376.849 88.625 377.309 88.625H379.641V93.1064C379.641 93.5677 380.015 93.941 380.475 93.941H419.127C419.588 93.941 419.961 93.5677 419.961 93.1064C419.961 92.6464 419.588 92.273 419.127 92.273H381.309V88.625H434.695V92.3277H427.952Z" fill="#303F23"/>
<path d="M325.49 88.6253C325.952 88.6253 326.325 88.252 326.325 87.7906C326.325 87.3306 325.952 86.9573 325.49 86.9573H280.944V81.624H341.521V86.9573H331.628C331.166 86.9573 330.793 87.3306 330.793 87.7906C330.793 88.252 331.166 88.6253 331.628 88.6253H337.493V92.328H284.108V88.6253H325.49ZM283.274 93.996H338.328C338.788 93.996 339.161 93.6226 339.161 93.1626V88.6253H342.356C342.816 88.6253 343.189 88.252 343.189 87.7906V80.7893C343.189 80.3293 342.816 79.956 342.356 79.956H280.109C279.648 79.956 279.274 80.3293 279.274 80.7893V87.7906C279.274 88.252 279.648 88.6253 280.109 88.6253H282.44V93.1626C282.44 93.6226 282.813 93.996 283.274 93.996Z" fill="#303F23"/>
<path d="M396.541 239.476V268.236H403.021V239.476H396.541Z" fill="#303F23"/>
<path d="M412.837 239.476V268.236H419.315V239.476H412.837Z" fill="#303F23"/>
<path d="M404.689 239.476V268.236H411.169V239.476H404.689Z" fill="#303F23"/>
<path d="M376.835 148.668H379.656V174.236H376.835V148.668ZM386.796 174.236H381.326V148.668H386.796V174.236ZM434.519 174.236H429.048V148.668H434.519V174.236ZM438.983 174.236H436.187V148.668H438.983V174.236ZM389.266 147H426.807C427.034 147 427.236 147.092 427.387 147.238C427.466 147.314 427.53 147.404 427.574 147.507C427.616 147.607 427.642 147.718 427.642 147.835C427.642 147.951 427.616 148.062 427.574 148.163C427.53 148.264 427.466 148.355 427.387 148.431C427.236 148.578 427.034 148.668 426.807 148.668H422.294V173.831C422.294 173.98 422.243 174.115 422.174 174.236C422.03 174.487 421.77 174.664 421.459 174.664C421.15 174.664 420.89 174.487 420.746 174.236C420.676 174.115 420.626 173.98 420.626 173.831V148.668H413.584V173.831C413.584 173.98 413.534 174.115 413.463 174.236C413.319 174.487 413.06 174.664 412.75 174.664C412.439 174.664 412.179 174.487 412.036 174.236C411.966 174.115 411.915 173.98 411.915 173.831V148.668H404.874V173.831C404.874 173.98 404.823 174.115 404.754 174.236C404.61 174.487 404.35 174.664 404.039 174.664C403.73 174.664 403.47 174.487 403.326 174.236C403.256 174.115 403.206 173.98 403.206 173.831V148.668H396.163V173.831C396.163 173.98 396.114 174.115 396.043 174.236C395.899 174.487 395.64 174.664 395.33 174.664C395.019 174.664 394.759 174.487 394.616 174.236C394.546 174.115 394.495 173.98 394.495 173.831V148.668H389.266C388.848 148.668 388.518 148.358 388.456 147.958C388.45 147.915 388.432 147.878 388.432 147.835C388.432 147.791 388.45 147.754 388.456 147.712C388.518 147.312 388.848 147 389.266 147ZM375.167 147.835V174.996C375.164 175.022 375.152 175.044 375.152 175.071V179.335C375.152 179.795 375.526 180.17 375.987 180.17H379.454V183.744C379.454 184.206 379.827 184.579 380.287 184.579H384.595C385.056 184.579 385.43 184.206 385.43 183.744C385.43 183.284 385.056 182.911 384.595 182.911H381.122V180.17H428.576C429.036 180.17 429.41 179.795 429.41 179.335C429.41 178.874 429.036 178.5 428.576 178.5H376.82V175.904H438.974L438.948 178.5H432.732C432.272 178.5 431.899 178.874 431.899 179.335C431.899 179.795 432.272 180.17 432.732 180.17H434.754V182.911H389.31C388.848 182.911 388.475 183.284 388.475 183.744C388.475 184.206 388.848 184.579 389.31 184.579H435.588C436.048 184.579 436.422 184.206 436.422 183.744V180.17H439.775C440.232 180.17 440.604 179.8 440.61 179.343L440.651 175.079L440.65 175.075L440.651 175.071V147.835C440.651 147.374 440.278 147 439.816 147H436.187V116.727C436.187 116.267 435.814 115.892 435.352 115.892C434.892 115.892 434.519 116.267 434.519 116.727V147H429.047V110.104C429.047 109.646 428.676 109.274 428.218 109.274H387.626C387.167 109.274 386.796 109.646 386.796 110.104V147H381.326V103.78H434.519V108.999C434.519 109.46 434.892 109.834 435.352 109.834C435.814 109.834 436.187 109.46 436.187 108.999V102.946C436.187 102.486 435.814 102.112 435.352 102.112H380.491C380.031 102.112 379.658 102.486 379.658 102.946V147H376.002C375.54 147 375.167 147.374 375.167 147.835Z" fill="#303F23"/>
<path d="M279.482 148.668H282.303V174.236H279.482V148.668ZM289.443 174.236H283.972V148.668H289.443V174.236ZM337.166 174.236H331.695V148.668H337.166V174.236ZM341.63 174.236H338.834V148.668H341.63V174.236ZM291.912 147H329.454C329.68 147 329.883 147.092 330.034 147.238C330.112 147.314 330.176 147.404 330.22 147.507C330.263 147.607 330.288 147.718 330.288 147.835C330.288 147.951 330.263 148.062 330.22 148.163C330.176 148.264 330.112 148.355 330.034 148.431C329.883 148.578 329.68 148.668 329.454 148.668H324.94V173.831C324.94 173.98 324.89 174.115 324.82 174.236C324.676 174.487 324.416 174.664 324.106 174.664C323.796 174.664 323.536 174.487 323.392 174.236C323.323 174.115 323.272 173.98 323.272 173.831V148.668H316.23V173.831C316.23 173.98 316.179 174.115 316.11 174.236C315.966 174.487 315.707 174.664 315.396 174.664C315.086 174.664 314.826 174.487 314.682 174.236C314.612 174.115 314.562 173.98 314.562 173.831V148.668H307.52V173.831C307.52 173.98 307.47 174.115 307.4 174.236C307.256 174.487 306.996 174.664 306.686 174.664C306.376 174.664 306.116 174.487 305.972 174.236C305.903 174.115 305.852 173.98 305.852 173.831V148.668H298.81V173.831C298.81 173.98 298.759 174.115 298.69 174.236C298.546 174.487 298.286 174.664 297.976 174.664C297.666 174.664 297.406 174.487 297.262 174.236C297.192 174.115 297.142 173.98 297.142 173.831V148.668H291.912C291.495 148.668 291.164 148.358 291.103 147.958C291.096 147.915 291.078 147.878 291.078 147.835C291.078 147.791 291.096 147.754 291.103 147.712C291.164 147.312 291.495 147 291.912 147ZM277.814 147.835V174.996C277.811 175.022 277.799 175.044 277.799 175.071V179.335C277.799 179.795 278.172 180.17 278.632 180.17H282.1V183.744C282.1 184.206 282.474 184.579 282.934 184.579H287.242C287.703 184.579 288.076 184.206 288.076 183.744C288.076 183.284 287.703 182.911 287.242 182.911H283.768V180.17H331.222C331.683 180.17 332.056 179.795 332.056 179.335C332.056 178.874 331.683 178.5 331.222 178.5H279.467V175.904H341.62L341.595 178.5H335.38C334.919 178.5 334.546 178.874 334.546 179.335C334.546 179.795 334.919 180.17 335.38 180.17H337.4V182.911H291.956C291.495 182.911 291.122 183.284 291.122 183.744C291.122 184.206 291.495 184.579 291.956 184.579H338.235C338.695 184.579 339.068 184.206 339.068 183.744V180.17H342.422C342.879 180.17 343.251 179.8 343.256 179.343L343.298 175.079L343.296 175.075L343.298 175.071V147.835C343.298 147.374 342.924 147 342.463 147H338.834V116.727C338.834 116.267 338.46 115.892 337.999 115.892C337.539 115.892 337.166 116.267 337.166 116.727V147H331.694V110.104C331.694 109.646 331.323 109.274 330.864 109.274H290.272C289.814 109.274 289.443 109.646 289.443 110.104V147H283.972V103.78H337.166V108.999C337.166 109.46 337.539 109.834 337.999 109.834C338.46 109.834 338.834 109.46 338.834 108.999V102.946C338.834 102.486 338.46 102.112 337.999 102.112H283.138C282.678 102.112 282.304 102.486 282.304 102.946V147H278.648C278.187 147 277.814 147.374 277.814 147.835Z" fill="#303F23"/>
<path d="M444.423 253.294C443.908 252.394 443.181 251.642 442.315 251.114C443.181 250.586 443.908 249.834 444.423 248.933C444.937 249.834 445.664 250.586 446.531 251.114C445.664 251.642 444.937 252.394 444.423 253.294ZM437.271 268.063V239.475H443.599V245.715C443.597 245.736 443.585 245.755 443.585 245.777C443.585 248.259 441.689 250.279 439.357 250.279C438.896 250.279 438.523 250.652 438.523 251.114C438.523 251.574 438.896 251.947 439.357 251.947C441.689 251.947 443.585 253.967 443.585 256.451C443.585 256.538 443.611 256.616 443.636 256.695C443.621 256.756 443.599 256.815 443.599 256.882V268.063H437.271ZM443.599 280.434H437.271V269.731H443.599V280.434ZM429.123 269.733H435.603V280.435H429.123V269.733ZM380.237 269.733H386.717V280.435H380.237V269.733ZM371.872 269.733H378.569V280.435H371.872V269.733ZM371.849 256.622C371.863 256.564 371.884 256.511 371.884 256.451C371.884 253.967 373.781 251.947 376.113 251.947C376.575 251.947 376.948 251.574 376.948 251.114C376.948 250.652 376.575 250.279 376.113 250.279C373.781 250.279 371.884 248.259 371.884 245.777C371.884 245.757 371.873 245.739 371.872 245.719V239.475H378.569V268.063H371.872V256.734C371.872 256.694 371.855 256.66 371.849 256.622ZM368.94 251.114C369.807 250.586 370.533 249.834 371.048 248.933C371.561 249.834 372.288 250.586 373.155 251.114C372.288 251.642 371.561 252.394 371.048 253.294C370.533 252.394 369.807 251.642 368.94 251.114ZM371.872 201.062H378.569V237.807H371.872V201.062ZM386.717 237.807H380.237V201.062H386.717V237.807ZM394.864 215.203H388.385V201.062H394.864V215.203ZM403.012 215.203H396.532V201.062H403.012V215.203ZM411.16 215.203H404.68V201.062H411.16V215.203ZM419.307 215.203H412.827V201.062H419.307V215.203ZM427.455 215.203H420.976V201.062H427.455V215.203ZM435.601 237.807H429.121V201.062H435.601V237.807ZM443.599 237.807H437.271V201.062H443.599V237.807ZM387.552 248.868C387.605 248.96 387.668 249.044 387.725 249.134C387.967 249.516 388.241 249.87 388.553 250.186C388.881 250.518 389.241 250.814 389.635 251.058C389.241 251.3 388.881 251.598 388.553 251.93C388.241 252.245 387.967 252.599 387.725 252.98C387.668 253.07 387.605 253.154 387.552 253.246C387.364 252.911 387.139 252.606 386.896 252.316C386.484 251.823 386.009 251.391 385.471 251.058C386.009 250.724 386.484 250.292 386.896 249.799C387.139 249.508 387.364 249.203 387.552 248.868ZM428.229 253.246C428.195 253.185 428.152 253.13 428.115 253.068C427.92 252.748 427.699 252.45 427.455 252.174C427.397 252.111 427.345 252.043 427.287 251.983C426.944 251.627 426.563 251.315 426.148 251.058C426.563 250.8 426.944 250.487 427.287 250.133C427.345 250.071 427.397 250.005 427.455 249.942C427.699 249.665 427.92 249.366 428.115 249.046C428.152 248.986 428.195 248.93 428.229 248.868C428.248 248.901 428.271 248.929 428.288 248.959C428.48 249.285 428.701 249.586 428.943 249.867C429.004 249.938 429.059 250.014 429.123 250.081C429.477 250.458 429.876 250.787 430.312 251.058C429.876 251.327 429.477 251.658 429.123 252.034C429.059 252.102 429.004 252.178 428.943 252.247C428.701 252.53 428.48 252.83 428.288 253.155C428.271 253.187 428.248 253.215 428.229 253.246ZM380.237 239.475H386.717V245.455C386.717 245.491 386.733 245.522 386.737 245.557C386.732 245.594 386.716 245.626 386.716 245.665C386.716 248.178 384.853 250.223 382.563 250.223C382.101 250.223 381.728 250.596 381.728 251.058C381.728 251.518 382.101 251.891 382.563 251.891C384.853 251.891 386.716 253.937 386.716 256.451C386.716 256.454 386.717 256.455 386.717 256.458V268.063H380.237V239.475ZM419.316 279.473V269.905H412.837V279.473C412.837 279.485 412.828 279.494 412.828 279.506C412.804 279.836 412.448 280.102 412.003 280.102C412 280.102 411.997 280.1 411.993 280.1C411.537 280.096 411.168 279.818 411.168 279.473V269.905H404.689V279.473C404.689 279.485 404.681 279.494 404.68 279.506C404.656 279.836 404.3 280.102 403.855 280.102C403.852 280.102 403.849 280.1 403.847 280.1C403.389 280.096 403.021 279.818 403.021 279.473V269.905H396.541V279.473C396.541 279.485 396.533 279.494 396.532 279.506C396.508 279.836 396.152 280.102 395.707 280.102C395.704 280.102 395.701 280.1 395.699 280.1C395.243 280.096 394.873 279.818 394.873 279.473V269.905H389.389C389.304 269.905 389.229 269.833 389.167 269.733C389.071 269.581 389.004 269.347 389.004 269.07C389.004 269.008 389.015 268.955 389.021 268.898C389.059 268.523 389.205 268.237 389.389 268.237H394.873V239.475H389.389C389.176 239.475 389.004 239.102 389.004 238.642C389.004 238.18 389.177 237.807 389.389 237.807H394.873V218.865C394.873 218.519 395.243 218.24 395.699 218.236C395.701 218.236 395.704 218.235 395.707 218.235C396.152 218.235 396.508 218.499 396.532 218.831C396.533 218.842 396.541 218.853 396.541 218.865V237.807H403.021V218.865C403.021 218.519 403.389 218.24 403.847 218.236C403.849 218.236 403.852 218.235 403.855 218.235C404.3 218.235 404.656 218.499 404.68 218.831C404.681 218.842 404.689 218.853 404.689 218.865V237.807H411.168V218.865C411.168 218.519 411.537 218.24 411.993 218.236C411.997 218.236 412 218.235 412.003 218.235C412.448 218.235 412.804 218.499 412.828 218.831C412.828 218.842 412.837 218.853 412.837 218.865V237.807H419.316V218.865C419.316 218.519 419.684 218.24 420.141 218.236C420.144 218.236 420.147 218.235 420.149 218.235C420.596 218.235 420.953 218.501 420.976 218.833C420.976 218.845 420.984 218.854 420.984 218.865V237.807H425.888C426.1 237.807 426.272 238.18 426.272 238.642C426.272 239.102 426.1 239.475 425.888 239.475H420.984V268.237H425.888C426.072 268.237 426.219 268.523 426.256 268.898C426.261 268.955 426.272 269.008 426.272 269.07C426.272 269.347 426.205 269.581 426.111 269.733C426.047 269.833 425.972 269.905 425.888 269.905H420.984V279.473C420.984 279.483 420.976 279.493 420.976 279.503C420.953 279.835 420.596 280.102 420.149 280.102C420.147 280.102 420.144 280.1 420.141 280.1C419.684 280.096 419.316 279.818 419.316 279.473ZM435.601 268.063H429.123V255.738C429.436 253.562 431.151 251.891 433.22 251.891C433.681 251.891 434.055 251.518 434.055 251.058C434.055 250.596 433.681 250.223 433.22 250.223C431.151 250.223 429.436 248.554 429.123 246.378V239.475H435.601V268.063ZM449.488 251.947C449.949 251.947 450.323 251.574 450.323 251.114C450.323 250.652 449.949 250.279 449.488 250.279C447.204 250.279 445.343 248.339 445.267 245.927V239.475H447.331C447.791 239.475 448.164 239.102 448.164 238.642C448.164 238.18 447.791 237.807 447.331 237.807H445.267V200.227C445.267 199.767 444.893 199.394 444.432 199.394H371.039C370.577 199.394 370.204 199.767 370.204 200.227V237.807H368.14C367.679 237.807 367.305 238.18 367.305 238.642C367.305 239.102 367.679 239.475 368.14 239.475H370.204V245.914C370.136 248.333 368.271 250.279 365.981 250.279C365.521 250.279 365.148 250.652 365.148 251.114C365.148 251.574 365.521 251.947 365.981 251.947C368.313 251.947 370.211 253.967 370.211 256.451C370.211 256.495 370.229 256.534 370.236 256.575C370.225 256.628 370.204 256.678 370.204 256.734V268.063H368.14C367.679 268.063 367.305 268.436 367.305 268.898C367.305 269.358 367.679 269.733 368.14 269.733H370.204V281.268C370.204 281.728 370.577 282.102 371.039 282.102H444.432C444.893 282.102 445.267 281.728 445.267 281.268V269.733H447.331C447.791 269.733 448.164 269.358 448.164 268.898C448.164 268.436 447.791 268.063 447.331 268.063H445.267V256.882C445.267 256.799 445.241 256.723 445.22 256.648C445.236 256.583 445.26 256.521 445.26 256.451C445.26 253.967 447.156 251.947 449.488 251.947Z" fill="#303F23"/>
<path d="M347.875 253.312C347.354 252.404 346.614 251.645 345.733 251.113C346.614 250.583 347.354 249.823 347.875 248.915C348.397 249.823 349.135 250.583 350.018 251.113C349.135 251.645 348.397 252.404 347.875 253.312ZM340.611 268.064V239.476H347.05V245.715C347.049 245.736 347.038 245.755 347.038 245.776C347.038 248.259 345.109 250.279 342.738 250.279C342.278 250.279 341.905 250.652 341.905 251.113C341.905 251.575 342.278 251.948 342.738 251.948C345.109 251.948 347.038 253.968 347.038 256.451C347.038 256.537 347.063 256.616 347.087 256.695C347.074 256.756 347.05 256.815 347.05 256.881V268.064H340.611ZM347.05 280.433H340.611V269.731H347.05V280.433ZM332.351 269.732H338.943V280.435H332.351V269.732ZM282.786 269.732H289.379V280.435H282.786V269.732ZM274.305 269.732H281.118V280.435H274.305V269.732ZM274.282 256.621C274.295 256.564 274.317 256.512 274.317 256.451C274.317 253.968 276.246 251.948 278.617 251.948C279.078 251.948 279.451 251.575 279.451 251.113C279.451 250.652 279.078 250.279 278.617 250.279C276.246 250.279 274.317 248.259 274.317 245.776C274.317 245.756 274.307 245.739 274.305 245.719V239.476H281.118V268.064H274.305V256.733C274.305 256.693 274.289 256.66 274.282 256.621ZM271.338 251.113C272.221 250.583 272.959 249.824 273.481 248.916C274.001 249.824 274.741 250.583 275.623 251.113C274.741 251.644 274.001 252.404 273.481 253.311C272.959 252.404 272.221 251.644 271.338 251.113ZM274.305 201.061H281.118V237.807H274.305V201.061ZM289.379 237.807H282.786V201.061H289.379V237.807ZM297.639 215.197H291.047V201.061H297.639V215.197ZM305.901 215.197H299.307V201.061H305.901V215.197ZM314.161 215.197H307.569V201.061H314.161V215.197ZM322.422 215.197H315.83V201.061H322.422V215.197ZM330.683 215.197H324.09V201.061H330.683V215.197ZM338.943 237.807H332.351V201.061H338.943V237.807ZM347.05 237.807H340.611V201.061H347.05V237.807ZM331.457 253.264C331.422 253.201 331.378 253.145 331.341 253.085C331.146 252.768 330.926 252.472 330.683 252.197C330.623 252.131 330.569 252.059 330.506 251.995C330.157 251.635 329.766 251.317 329.341 251.057C329.766 250.797 330.157 250.48 330.506 250.12C330.569 250.056 330.623 249.984 330.683 249.917C330.926 249.644 331.146 249.347 331.341 249.031C331.378 248.969 331.422 248.913 331.457 248.852C331.475 248.883 331.498 248.912 331.517 248.943C331.709 249.268 331.931 249.569 332.174 249.851C332.234 249.92 332.289 249.993 332.351 250.06C332.715 250.445 333.125 250.783 333.574 251.057C333.125 251.332 332.715 251.669 332.351 252.055C332.289 252.121 332.234 252.195 332.174 252.264C331.931 252.545 331.709 252.847 331.517 253.172C331.498 253.204 331.475 253.232 331.457 253.264ZM290.215 248.852C290.267 248.945 290.333 249.029 290.39 249.12C290.633 249.501 290.909 249.857 291.223 250.173C291.559 250.509 291.929 250.811 292.331 251.057C291.929 251.304 291.559 251.604 291.223 251.941C290.909 252.257 290.633 252.613 290.39 252.996C290.333 253.085 290.267 253.171 290.215 253.264C290.026 252.929 289.799 252.623 289.555 252.333C289.135 251.832 288.65 251.395 288.098 251.057C288.65 250.72 289.135 250.283 289.555 249.781C289.799 249.492 290.026 249.185 290.215 248.852ZM282.786 239.476H289.379V245.456C289.379 245.492 289.395 245.523 289.399 245.557C289.395 245.593 289.378 245.627 289.378 245.664C289.378 248.179 287.483 250.223 285.155 250.223C284.695 250.223 284.321 250.596 284.321 251.057C284.321 251.517 284.695 251.892 285.155 251.892C287.483 251.892 289.378 253.937 289.378 256.451C289.378 256.453 289.379 256.455 289.379 256.457V268.064H282.786V239.476ZM338.943 268.064H332.351V255.735C332.671 253.561 334.414 251.892 336.517 251.892C336.977 251.892 337.35 251.517 337.35 251.057C337.35 250.596 336.977 250.223 336.517 250.223C334.414 250.223 332.671 248.555 332.351 246.38V239.476H338.943V268.064ZM353.011 251.948C353.473 251.948 353.846 251.575 353.846 251.113C353.846 250.652 353.473 250.279 353.011 250.279C350.685 250.279 348.787 248.331 348.718 245.911V239.476H350.823C351.283 239.476 351.657 239.101 351.657 238.641C351.657 238.18 351.283 237.807 350.823 237.807H348.718V200.228C348.718 199.767 348.345 199.393 347.885 199.393H273.471C273.01 199.393 272.637 199.767 272.637 200.228V237.807H270.533C270.071 237.807 269.698 238.18 269.698 238.641C269.698 239.101 270.071 239.476 270.533 239.476H272.637V245.911C272.569 248.331 270.671 250.279 268.343 250.279C267.883 250.279 267.51 250.652 267.51 251.113C267.51 251.575 267.883 251.948 268.343 251.948C270.715 251.948 272.643 253.968 272.643 256.451C272.643 256.495 272.662 256.533 272.669 256.576C272.658 256.628 272.637 256.677 272.637 256.733V268.064H270.533C270.071 268.064 269.698 268.437 269.698 268.897C269.698 269.359 270.071 269.732 270.533 269.732H272.637V281.268C272.637 281.729 273.01 282.103 273.471 282.103H347.885C348.345 282.103 348.718 281.729 348.718 281.268V269.732H350.823C351.283 269.732 351.657 269.359 351.657 268.897C351.657 268.437 351.283 268.064 350.823 268.064H348.718V256.881C348.718 256.799 348.694 256.725 348.671 256.649C348.689 256.584 348.713 256.521 348.713 256.451C348.713 253.968 350.641 251.948 353.011 251.948Z" fill="#303F23"/>
<path d="M104.518 1.67558L133.657 7.62758C131.664 7.75291 129.801 8.06891 128.314 8.67958C126.172 7.78624 114.889 3.53424 104.336 7.94491C93.7811 3.53557 82.4997 7.78758 80.3571 8.67958C78.8944 8.07824 77.0678 7.76224 75.1091 7.63291L104.518 1.67558ZM133.744 14.7876L120.781 8.26091C125.001 9.04091 127.914 10.3222 127.974 10.3489C128.194 10.4489 128.446 10.4462 128.666 10.3462C132.08 8.77024 138.29 9.14491 142.924 9.74224C139.968 10.4489 136.482 11.8889 133.744 14.7876ZM118.009 17.2156L111.148 7.87825C112.81 7.67424 114.444 7.63291 116.001 7.70358C116.024 7.71691 116.038 7.73958 116.062 7.75158L128.978 14.2556C125.784 14.1449 121.634 14.6622 118.009 17.2156ZM106.677 15.6316V8.85158C107.549 8.57024 108.424 8.35157 109.297 8.17691L115.582 16.7302C113.68 16.2249 110.725 15.6889 106.677 15.6316ZM103.662 38.3169V9.47158C103.776 9.51958 103.889 9.56091 104.002 9.61024C104.008 9.61291 104.013 9.61158 104.017 9.61291C104.085 9.64091 104.153 9.64758 104.222 9.65691C104.26 9.66224 104.296 9.67824 104.334 9.67824C104.385 9.67824 104.433 9.65958 104.484 9.65024C104.54 9.63958 104.597 9.63691 104.652 9.61424C104.657 9.61158 104.664 9.61291 104.669 9.61024C104.782 9.56091 104.896 9.51958 105.009 9.47158V38.3169H103.662ZM93.0891 16.7302L99.3744 8.17691C100.248 8.35024 101.122 8.57024 101.994 8.85158V15.6316C97.9464 15.6889 94.9917 16.2249 93.0891 16.7302ZM79.6931 14.2556L92.6091 7.75158C92.6331 7.73958 92.6491 7.71691 92.6717 7.70224C94.2277 7.63158 95.8611 7.67424 97.5237 7.87825L90.6611 17.2156C87.0371 14.6609 82.8878 14.1449 79.6931 14.2556ZM65.7477 9.74224C70.3811 9.14625 76.5917 8.77024 80.0051 10.3462C80.2237 10.4476 80.4771 10.4489 80.6971 10.3489C80.7571 10.3222 83.6717 9.04091 87.8917 8.25958L74.9277 14.7876C72.1891 11.8889 68.7051 10.4502 65.7477 9.74224ZM202.33 9.47158C202.444 9.51958 202.557 9.56091 202.67 9.61024C202.676 9.61158 202.681 9.61158 202.685 9.61291C202.753 9.64091 202.822 9.64758 202.892 9.65691C202.929 9.66224 202.964 9.67824 203.002 9.67824C203.053 9.67824 203.101 9.65958 203.152 9.65024C203.208 9.63958 203.265 9.63691 203.32 9.61424C203.325 9.61158 203.332 9.61291 203.337 9.61024C203.45 9.56091 203.564 9.51958 203.677 9.47158V38.3169H202.33V9.47158ZM191.757 16.7302L198.042 8.17691C198.916 8.35024 199.79 8.57024 200.662 8.85158V15.6316C196.614 15.6889 193.66 16.2249 191.757 16.7302ZM178.361 14.2556L191.277 7.75158C191.301 7.73958 191.316 7.71691 191.34 7.70224C192.896 7.63158 194.529 7.67424 196.192 7.87825L189.329 17.2156C185.705 14.6609 181.556 14.1449 178.361 14.2556ZM164.416 9.74224C169.049 9.14625 175.26 8.77024 178.673 10.3462C178.893 10.4476 179.145 10.4489 179.365 10.3489C179.425 10.3222 182.34 9.04091 186.56 8.25958L173.596 14.7876C170.857 11.8889 167.373 10.4502 164.416 9.74224ZM203.186 1.67558L232.326 7.62758C230.332 7.75291 228.469 8.06891 226.982 8.67958C224.84 7.78624 213.557 3.53424 203.004 7.94491C192.45 3.53557 181.168 7.78758 179.025 8.67958C177.561 8.07824 175.734 7.76224 173.776 7.63424L203.186 1.67558ZM232.412 14.7876L219.449 8.26091C223.668 9.04091 226.582 10.3222 226.642 10.3489C226.862 10.4489 227.114 10.4462 227.334 10.3462C230.748 8.76891 236.96 9.14491 241.592 9.74224C238.636 10.4489 235.15 11.8889 232.412 14.7876ZM216.677 17.2156L209.816 7.87825C211.478 7.67424 213.112 7.63291 214.669 7.70358C214.692 7.71691 214.706 7.73958 214.73 7.75158L227.646 14.2556C224.452 14.1449 220.302 14.6622 216.677 17.2156ZM205.345 15.6316V8.85158C206.217 8.57024 207.092 8.35157 207.965 8.17691L214.25 16.7302C212.348 16.2249 209.393 15.6889 205.345 15.6316ZM58.8384 10.0929C58.8491 10.1422 58.8757 10.1822 58.8931 10.2276C58.9091 10.2636 58.9184 10.3036 58.9384 10.3369C58.9691 10.3889 59.0117 10.4329 59.0531 10.4769C59.0797 10.5049 59.0997 10.5369 59.1291 10.5609C59.1917 10.6129 59.2651 10.6502 59.3411 10.6809C59.3824 10.6982 59.4251 10.7062 59.4677 10.7156C59.5291 10.7302 59.5891 10.7476 59.6531 10.7476C59.6611 10.7476 59.6717 10.7449 59.6811 10.7449C59.6864 10.7449 59.6904 10.7476 59.6957 10.7462C59.7851 10.7396 68.8971 10.3529 74.1077 16.3636C74.1117 16.3676 74.1157 16.3689 74.1197 16.3729C74.1544 16.4116 74.1944 16.4422 74.2357 16.4729C74.2571 16.4902 74.2757 16.5102 74.2984 16.5236C74.3451 16.5529 74.3971 16.5729 74.4477 16.5916C74.4691 16.5996 74.4877 16.6129 74.5091 16.6182C74.5837 16.6396 74.6611 16.6516 74.7384 16.6516C74.8117 16.6516 74.8837 16.6396 74.9557 16.6196C74.9624 16.6169 74.9704 16.6182 74.9771 16.6169C75.0664 16.5902 84.0157 14.0076 90.3224 19.0302C90.3277 19.0342 90.3344 19.0356 90.3384 19.0396C90.3424 19.0422 90.3451 19.0476 90.3491 19.0502C90.3957 19.0849 90.4477 19.1036 90.4984 19.1262C90.5251 19.1396 90.5491 19.1582 90.5771 19.1676C90.6637 19.1969 90.7531 19.2116 90.8424 19.2116C90.9611 19.2116 91.0771 19.1849 91.1864 19.1356C91.1944 19.1316 91.2037 19.1302 91.2117 19.1262L91.2131 19.1249C91.2651 19.1009 94.8371 17.4076 101.994 17.3022V38.3169H98.2931C97.8331 38.3169 97.4597 38.6902 97.4597 39.1516C97.4597 39.6116 97.8331 39.9849 98.2931 39.9849H259.892C260.352 39.9849 260.725 39.6116 260.725 39.1516C260.725 38.6902 260.352 38.3169 259.892 38.3169H205.345V17.3022C212.516 17.4089 216.09 19.1076 216.125 19.1249C216.184 19.1542 216.245 19.1756 216.308 19.1902C216.369 19.2049 216.433 19.2116 216.497 19.2116C216.586 19.2116 216.674 19.1969 216.761 19.1676C216.79 19.1582 216.818 19.1369 216.846 19.1236C216.896 19.1009 216.945 19.0836 216.99 19.0502C216.994 19.0476 216.996 19.0422 217 19.0396C217.005 19.0356 217.012 19.0342 217.016 19.0302C223.325 14.0076 232.273 16.5889 232.362 16.6169C232.369 16.6182 232.377 16.6169 232.384 16.6196C232.456 16.6396 232.528 16.6516 232.6 16.6516C232.678 16.6516 232.754 16.6396 232.829 16.6182C232.856 16.6116 232.88 16.5956 232.906 16.5862C232.952 16.5676 232.998 16.5516 233.04 16.5249C233.065 16.5089 233.085 16.4876 233.109 16.4689C233.148 16.4396 233.186 16.4102 233.22 16.3729C233.224 16.3689 233.228 16.3676 233.232 16.3636C238.442 10.3542 247.552 10.7422 247.644 10.7462C247.648 10.7476 247.653 10.7449 247.658 10.7449C247.668 10.7449 247.677 10.7476 247.686 10.7476C247.885 10.7476 248.07 10.6756 248.217 10.5529C248.226 10.5449 248.233 10.5329 248.242 10.5249C248.305 10.4689 248.36 10.4062 248.402 10.3329C248.42 10.3036 248.429 10.2662 248.442 10.2342C248.462 10.1876 248.489 10.1436 248.501 10.0929C248.504 10.0796 248.5 10.0676 248.501 10.0556C248.504 10.0422 248.512 10.0316 248.513 10.0182C248.52 9.97024 248.506 9.92491 248.505 9.87691C248.502 9.82891 248.505 9.77958 248.496 9.73291C248.482 9.67558 248.456 9.62357 248.432 9.57157C248.412 9.53024 248.398 9.48624 248.373 9.44758C248.338 9.39691 248.292 9.35691 248.246 9.31424C248.216 9.28624 248.19 9.25158 248.154 9.22758C248.093 9.18491 248.021 9.15958 247.948 9.13558C247.918 9.12624 247.896 9.10624 247.865 9.09957C247.777 9.07958 247.392 8.99691 246.789 8.87958L203.354 0.00757866C203.31 -0.00175591 203.266 0.00890999 203.222 0.00624351C203.156 0.00357704 203.089 -0.00708885 203.021 0.00757866H203.017L159.374 8.84891C158.701 8.97824 158.272 9.07024 158.158 9.09558H158.156C158.153 9.09558 158.145 9.09824 158.142 9.09957C158.112 9.10624 158.088 9.12624 158.058 9.13691C157.986 9.16091 157.913 9.18491 157.853 9.22624C157.817 9.25158 157.792 9.28624 157.761 9.31558C157.716 9.35691 157.669 9.39691 157.634 9.44758C157.609 9.48624 157.596 9.53024 157.576 9.57157C157.552 9.62491 157.525 9.67558 157.513 9.73291C157.502 9.77958 157.505 9.82891 157.502 9.87824C157.501 9.92491 157.488 9.97024 157.494 10.0182C157.496 10.0316 157.504 10.0422 157.506 10.0556C157.508 10.0676 157.504 10.0796 157.506 10.0929C157.517 10.1409 157.544 10.1822 157.561 10.2262C157.577 10.2636 157.586 10.3036 157.606 10.3369C157.637 10.3889 157.678 10.4302 157.72 10.4742C157.746 10.5036 157.768 10.5369 157.798 10.5622C157.857 10.6089 157.925 10.6436 157.996 10.6742C158.041 10.6929 158.089 10.7049 158.137 10.7169C158.197 10.7302 158.257 10.7476 158.321 10.7476C158.33 10.7476 158.34 10.7449 158.349 10.7449C158.354 10.7449 158.358 10.7476 158.364 10.7462C158.453 10.7396 167.564 10.3529 172.776 16.3636C172.78 16.3676 172.784 16.3689 172.786 16.3729C172.822 16.4116 172.864 16.4436 172.905 16.4742C172.925 16.4902 172.944 16.5102 172.966 16.5236C173.016 16.5556 173.07 16.5756 173.125 16.5956C173.142 16.6022 173.158 16.6129 173.177 16.6182C173.252 16.6396 173.329 16.6516 173.406 16.6516C173.48 16.6516 173.552 16.6396 173.624 16.6196C173.63 16.6169 173.638 16.6182 173.645 16.6169C173.734 16.5902 182.684 14.0076 188.99 19.0302C188.996 19.0342 189.002 19.0356 189.006 19.0396C189.01 19.0422 189.013 19.0476 189.017 19.0502C189.064 19.0849 189.116 19.1036 189.166 19.1262C189.193 19.1396 189.217 19.1582 189.245 19.1676C189.332 19.1969 189.421 19.2116 189.51 19.2116C189.628 19.2116 189.745 19.1849 189.853 19.1356C189.862 19.1316 189.872 19.1302 189.88 19.1262L189.881 19.1249C189.933 19.1009 193.505 17.4076 200.662 17.3022V38.3169H106.677V17.3022C113.848 17.4089 117.422 19.1076 117.457 19.1249C117.516 19.1542 117.577 19.1756 117.64 19.1902C117.701 19.2049 117.765 19.2116 117.829 19.2116C117.918 19.2116 118.006 19.1969 118.093 19.1676C118.122 19.1582 118.15 19.1369 118.178 19.1236C118.228 19.1009 118.278 19.0836 118.322 19.0502C118.326 19.0476 118.329 19.0422 118.333 19.0396C118.337 19.0356 118.344 19.0342 118.348 19.0302C124.657 14.0076 133.605 16.5889 133.694 16.6169C133.701 16.6182 133.709 16.6169 133.716 16.6196C133.788 16.6396 133.86 16.6516 133.933 16.6516C134.01 16.6516 134.088 16.6396 134.161 16.6182C134.188 16.6116 134.212 16.5956 134.238 16.5862C134.284 16.5676 134.33 16.5516 134.373 16.5249C134.397 16.5089 134.417 16.4876 134.441 16.4689C134.48 16.4396 134.518 16.4102 134.552 16.3729C134.556 16.3689 134.56 16.3676 134.564 16.3636C139.774 10.3542 148.885 10.7422 148.976 10.7462C148.981 10.7476 148.985 10.7449 148.99 10.7449C149 10.7449 149.009 10.7476 149.018 10.7476C149.216 10.7476 149.401 10.6756 149.548 10.5542C149.565 10.5409 149.576 10.5209 149.592 10.5062C149.645 10.4542 149.696 10.3996 149.733 10.3342C149.753 10.3022 149.762 10.2649 149.777 10.2302C149.796 10.1836 149.822 10.1422 149.833 10.0929C149.836 10.0796 149.832 10.0676 149.833 10.0556C149.836 10.0422 149.844 10.0316 149.845 10.0182C149.852 9.97024 149.838 9.92491 149.837 9.87691C149.834 9.82891 149.837 9.77958 149.828 9.73291C149.814 9.67558 149.788 9.62357 149.764 9.57157C149.744 9.53024 149.73 9.48624 149.705 9.44758C149.67 9.39691 149.624 9.35691 149.578 9.31424C149.548 9.28624 149.522 9.25158 149.488 9.22758C149.426 9.18491 149.353 9.15958 149.28 9.13558C149.25 9.12624 149.228 9.10624 149.197 9.09957C149.194 9.09824 149.188 9.09691 149.185 9.09691C149.085 9.07424 148.713 8.99424 148.132 8.88091L104.686 0.00757866C104.642 -0.00175591 104.598 0.00890999 104.554 0.00624351C104.488 0.00357704 104.421 -0.00708885 104.353 0.00757866H104.349L60.7211 8.84624C60.0397 8.97691 59.6024 9.07024 59.4891 9.09558L59.4877 9.09691C59.4837 9.09691 59.4771 9.09824 59.4744 9.09957C59.4424 9.10624 59.4197 9.12624 59.3904 9.13691C59.3184 9.16091 59.2451 9.18491 59.1851 9.22624C59.1491 9.25158 59.1237 9.28624 59.0917 9.31558C59.0477 9.35691 59.0011 9.39691 58.9664 9.44758C58.9411 9.48624 58.9264 9.53024 58.9077 9.57157C58.8837 9.62491 58.8571 9.67558 58.8437 9.73291C58.8331 9.77958 58.8371 9.82891 58.8344 9.87824C58.8331 9.92491 58.8197 9.97024 58.8264 10.0182C58.8277 10.0316 58.8357 10.0422 58.8384 10.0556C58.8397 10.0676 58.8357 10.0796 58.8384 10.0929Z" fill="#303F23"/>
</svg>
