<svg width="550" height="139" viewBox="0 0 550 139" fill="none" xmlns="http://www.w3.org/2000/svg">
<g clip-path="url(#clip0_37_75)">
<path d="M50.03 7.66C48.45 3.57 45.67 0 39.73 0C33.79 0 31.02 3.43 29.43 7.66L0.79 82.24C0.39 83.3 0 84.88 0 85.8C0 89.36 2.51 92.53 7 92.53C11.09 92.53 13.2 90.68 14.39 87.38L40.12 18.91L64.55 87.38C65.47 90.68 68.11 92.53 71.68 92.53C76.04 92.53 79.07 89.89 79.07 85.67C79.07 84.75 78.67 83.16 78.41 82.24L50.03 7.66Z" fill="#43554D"/>
<path d="M146.26 1.32001H82.24C78.81 1.32001 75.9 4.36001 75.9 7.92001C75.9 11.48 78.8 14.39 82.24 14.39H106.92V85.41C106.92 89.37 110.22 92.54 114.31 92.54C118.4 92.54 121.7 89.37 121.7 85.41V14.39H146.25C149.81 14.39 152.72 11.49 152.72 7.92001C152.72 4.35001 149.82 1.32001 146.25 1.32001H146.26Z" fill="#43554D"/>
<path d="M229.02 78.15H185.72L231.26 11.62C231.92 10.7 232.32 9.11001 232.32 7.92001C232.32 4.36001 229.55 1.32001 225.85 1.32001H170.14C166.71 1.32001 163.8 4.36001 163.8 7.92001C163.8 11.48 166.7 14.39 170.14 14.39H212.51L167.37 80.52C166.58 81.58 165.92 83.03 165.92 84.61C165.92 88.31 168.69 91.21 172.39 91.21H229.02C232.58 91.21 235.36 88.31 235.36 84.61C235.36 81.18 232.59 78.14 229.02 78.14V78.15Z" fill="#43554D"/>
<path d="M291.98 0.130005C266.11 0.130005 244.46 19.67 244.46 46.46C244.46 73.25 266.11 92.53 291.98 92.53C317.85 92.53 339.5 73.26 339.5 46.46C339.5 19.66 317.72 0.130005 291.98 0.130005ZM291.98 78.81C273.9 78.81 260.04 64.55 260.04 46.47C260.04 28.39 273.9 14 291.98 14C310.06 14 323.79 28.39 323.79 46.47C323.79 64.55 310.19 78.81 291.98 78.81Z" fill="#43554D"/>
<path d="M442.33 0.130005C438.5 0.130005 435.86 1.98 434.28 4.75L405.64 52.67L377.26 4.75C375.68 1.98 372.9 0.130005 369.21 0.130005C363.67 0.130005 359.97 4.22 359.97 9.11V85.67C359.97 89.37 362.87 92.53 367.1 92.53C371.33 92.53 374.36 89.36 374.36 85.67V26.93L398.52 66.93C399.97 69.44 402.22 71.42 405.78 71.42C409.34 71.42 411.59 69.44 413.04 66.93L437.2 26.93V85.67C437.2 89.37 440.1 92.53 444.33 92.53C448.56 92.53 451.59 89.36 451.59 85.67V9.11C451.59 4.23 447.89 0.130005 442.35 0.130005H442.33Z" fill="#43554D"/>
<path d="M470.04 80.26C468.85 81.58 468.19 83.16 468.19 84.88C468.19 89.37 472.55 92.54 476.64 92.54C479.41 92.54 481.52 91.35 483.24 89.24L508.32 57.69L498.68 46.47L470.04 80.26Z" fill="#43554D"/>
<path d="M483.91 3.56C482.33 1.18 480.21 0.130005 477.31 0.130005C472.82 0.130005 468.86 3.69 468.86 7.92C468.86 9.5 469.52 11.09 470.71 12.54L498.69 46.46L508.19 34.58L483.9 3.56H483.91Z" fill="#43554D"/>
<path d="M539.61 92.53C543.97 92.53 548.06 89.1 548.06 84.74C548.06 83.16 547.4 81.57 546.21 80.25L517.83 46.19L545.68 12.53C546.87 11.21 547.4 9.49 547.4 7.91C547.4 3.29 543.18 0.119995 538.95 0.119995C536.18 0.119995 534.2 1.18 532.35 3.55L508.19 34.57L498.69 46.45L508.33 57.67L533.01 89.22C534.73 91.33 536.84 92.52 539.61 92.52V92.53Z" fill="#43554D"/>
<path d="M46.81 58.05C45.3 62.34 36.07 65.42 32.94 62.64C29.82 59.88 32.8 51.29 37.43 49.76C42.04 48.23 48.29 53.74 46.81 58.05Z" fill="#43554D"/>
<path d="M12.45 137.57C11.41 138.1 10.18 138.33 8.89999 138.33C4.13999 138.33 0.429993 134.76 0.429993 130.14C0.429993 125.52 4.12999 122.06 8.91999 122.06C10.2 122.06 11.41 122.27 12.45 122.77V124.01C11.41 123.51 10.26 123.25 8.91999 123.25C4.88999 123.25 1.76999 126.23 1.76999 130.14C1.76999 134.05 4.88999 137.09 8.91999 137.09C10.26 137.09 11.41 136.86 12.45 136.33V137.57Z" fill="#43554D"/>
<path d="M42.87 133.18H35.55L33.49 138.03H32L39.06 122.07H39.36L46.42 138.03H44.9L42.86 133.18H42.87ZM39.21 124.55L36.03 132.05H42.4L39.22 124.55H39.21Z" fill="#43554D"/>
<path d="M68.77 123.48V128.98H75.31V130.18H68.77V138.03H67.45V122.28H75.74V123.48H68.77Z" fill="#43554D"/>
<path d="M107.51 136.84V138.04H97.23V122.29H107.23V123.49H98.5V128.99H106.75V130.19H98.5V136.85H107.51V136.84ZM105.99 118.19L99.54 119.93V118.88L105.99 117.1V118.19Z" fill="#43554D"/>
<path d="M184.99 133.29V138.04H183.67V133.29L177.24 122.29H178.71L184.34 131.99L189.99 122.29H191.44L184.99 133.29Z" fill="#43554D"/>
<path d="M272.94 137.57C271.9 138.1 270.67 138.33 269.39 138.33C264.63 138.33 260.92 134.76 260.92 130.14C260.92 125.52 264.62 122.06 269.41 122.06C270.69 122.06 271.9 122.27 272.94 122.77V124.01C271.9 123.51 270.75 123.25 269.41 123.25C265.38 123.25 262.26 126.23 262.26 130.14C262.26 134.05 265.38 137.09 269.41 137.09C270.75 137.09 271.9 136.86 272.94 136.33V137.57Z" fill="#43554D"/>
<path d="M292.93 130.14C292.93 125.58 296.59 122.06 301.35 122.06C306.11 122.06 309.79 125.59 309.79 130.14C309.79 134.69 306.15 138.33 301.35 138.33C296.55 138.33 292.93 134.72 292.93 130.14ZM308.45 130.14C308.45 126.26 305.38 123.23 301.35 123.23C297.32 123.23 294.27 126.25 294.27 130.14C294.27 134.03 297.32 137.11 301.35 137.11C305.38 137.11 308.45 134.04 308.45 130.14Z" fill="#43554D"/>
<path d="M352.47 122.28L345.45 138.3H345.08L340.53 127.3L335.92 138.3H335.57L328.55 122.28H330L335.74 135.57L340.31 124.67H340.79L345.29 135.57L351.03 122.28H352.46H352.47Z" fill="#43554D"/>
<path d="M371.25 130.14C371.25 125.58 374.91 122.06 379.67 122.06C384.43 122.06 388.11 125.59 388.11 130.14C388.11 134.69 384.47 138.33 379.67 138.33C374.87 138.33 371.25 134.72 371.25 130.14ZM386.77 130.14C386.77 126.26 383.7 123.23 379.67 123.23C375.64 123.23 372.59 126.25 372.59 130.14C372.59 134.03 375.64 137.11 379.67 137.11C383.7 137.11 386.77 134.04 386.77 130.14Z" fill="#43554D"/>
<path d="M420.58 138.03L416.62 132.36C415.88 132.49 415.06 132.55 414.17 132.55C412.78 132.55 411.75 132.42 410.9 132.21V138.03H409.58V122.28H415.45C419.82 122.28 421.86 124.15 421.86 127.13C421.86 129.63 420.45 131.29 417.9 132.06L422.08 138.02H420.59L420.58 138.03ZM414.17 131.4C418.37 131.4 420.47 129.89 420.47 127.16C420.47 124.98 419.15 123.46 415.34 123.46H410.9V131.08C411.74 131.27 412.81 131.4 414.17 131.4Z" fill="#43554D"/>
<path d="M453.81 138.03L444.91 129.88V138.03H443.59V122.28H444.91V129.42L453.53 122.28H455.28L446.45 129.61L455.59 138.03H453.81Z" fill="#43554D"/>
<path d="M476.4 122.28H477.7V138.03H476.4V122.28Z" fill="#43554D"/>
<path d="M514.01 122.28V138.09H513.69L501.8 125.16V138.03H500.48V122.2H500.78L512.69 135.07V122.28H514.01Z" fill="#43554D"/>
<path d="M536.81 130.47C536.81 134.4 539.78 137.1 544.3 137.1C545.58 137.1 546.77 136.78 547.51 136.51V130.23H548.81V137.26C548.25 137.64 546.39 138.31 544.24 138.31C538.98 138.31 535.47 135.06 535.47 130.46C535.47 125.55 539.24 122.04 544.89 122.04C546.6 122.04 548.2 122.42 549.16 122.9V124.14C548.14 123.68 546.6 123.22 544.94 123.22C540.05 123.22 536.82 126.16 536.82 130.46L536.81 130.47Z" fill="#43554D"/>
</g>
<defs>
<clipPath id="clip0_37_75">
<rect width="549.16" height="138.33" fill="white"/>
</clipPath>
</defs>
</svg>
