<svg width="549" height="93" viewBox="0 0 549 93" fill="none" xmlns="http://www.w3.org/2000/svg">
<path d="M50.03 7.66C48.45 3.57 45.67 0 39.73 0C33.79 0 31.02 3.43 29.43 7.66L0.79 82.24C0.39 83.3 0 84.88 0 85.8C0 89.36 2.51 92.53 7 92.53C11.09 92.53 13.2 90.68 14.39 87.38L40.12 18.91L64.55 87.38C65.47 90.68 68.11 92.53 71.68 92.53C76.04 92.53 79.07 89.89 79.07 85.67C79.07 84.75 78.67 83.16 78.41 82.24L50.03 7.66Z" fill="black"/>
<path d="M146.26 1.32001H82.24C78.81 1.32001 75.9 4.36001 75.9 7.92001C75.9 11.48 78.8 14.39 82.24 14.39H106.92V85.41C106.92 89.37 110.22 92.54 114.31 92.54C118.4 92.54 121.7 89.37 121.7 85.41V14.39H146.25C149.81 14.39 152.72 11.49 152.72 7.92001C152.72 4.35001 149.82 1.32001 146.25 1.32001H146.26Z" fill="black"/>
<path d="M229.02 78.15H185.72L231.26 11.62C231.92 10.7 232.32 9.11001 232.32 7.92001C232.32 4.36001 229.55 1.32001 225.85 1.32001H170.14C166.71 1.32001 163.8 4.36001 163.8 7.92001C163.8 11.48 166.7 14.39 170.14 14.39H212.51L167.37 80.52C166.58 81.58 165.92 83.03 165.92 84.61C165.92 88.31 168.69 91.21 172.39 91.21H229.02C232.58 91.21 235.36 88.31 235.36 84.61C235.36 81.18 232.59 78.14 229.02 78.14V78.15Z" fill="black"/>
<path d="M291.98 0.130005C266.11 0.130005 244.46 19.67 244.46 46.46C244.46 73.25 266.11 92.53 291.98 92.53C317.85 92.53 339.5 73.26 339.5 46.46C339.5 19.66 317.72 0.130005 291.98 0.130005ZM291.98 78.81C273.9 78.81 260.04 64.55 260.04 46.47C260.04 28.39 273.9 14 291.98 14C310.06 14 323.79 28.39 323.79 46.47C323.79 64.55 310.19 78.81 291.98 78.81Z" fill="black"/>
<path d="M442.33 0.130005C438.5 0.130005 435.86 1.98 434.28 4.75L405.64 52.67L377.26 4.75C375.68 1.98 372.9 0.130005 369.21 0.130005C363.67 0.130005 359.97 4.22 359.97 9.11V85.67C359.97 89.37 362.87 92.53 367.1 92.53C371.33 92.53 374.36 89.36 374.36 85.67V26.93L398.52 66.93C399.97 69.44 402.22 71.42 405.78 71.42C409.34 71.42 411.59 69.44 413.04 66.93L437.2 26.93V85.67C437.2 89.37 440.1 92.53 444.33 92.53C448.56 92.53 451.59 89.36 451.59 85.67V9.11C451.59 4.23 447.89 0.130005 442.35 0.130005H442.33Z" fill="black"/>
<path d="M470.04 80.26C468.85 81.58 468.19 83.16 468.19 84.88C468.19 89.37 472.55 92.54 476.64 92.54C479.41 92.54 481.52 91.35 483.24 89.24L508.32 57.69L498.68 46.47L470.04 80.26Z" fill="black"/>
<path d="M483.91 3.56C482.33 1.18 480.21 0.130005 477.31 0.130005C472.82 0.130005 468.86 3.69 468.86 7.92C468.86 9.5 469.52 11.09 470.71 12.54L498.69 46.46L508.19 34.58L483.9 3.56H483.91Z" fill="black"/>
<path d="M539.61 92.53C543.97 92.53 548.06 89.1 548.06 84.74C548.06 83.16 547.4 81.57 546.21 80.25L517.83 46.19L545.68 12.53C546.87 11.21 547.4 9.49 547.4 7.91C547.4 3.29 543.18 0.119995 538.95 0.119995C536.18 0.119995 534.2 1.18 532.35 3.55L508.19 34.57L498.69 46.45L508.33 57.67L533.01 89.22C534.73 91.33 536.84 92.52 539.61 92.52V92.53Z" fill="black"/>
<path d="M46.81 58.05C45.3 62.34 36.07 65.42 32.94 62.64C29.82 59.88 32.8 51.29 37.43 49.76C42.04 48.23 48.29 53.74 46.81 58.05Z" fill="black"/>
</svg>
