<svg width="550" height="139" viewBox="0 0 550 139" fill="none" xmlns="http://www.w3.org/2000/svg">
<path d="M50.03 7.69998C48.45 3.60998 45.67 0.039978 39.73 0.039978C33.79 0.039978 31.02 3.46998 29.43 7.69998L0.79 82.28C0.39 83.34 0 84.92 0 85.84C0 89.4 2.51 92.57 7 92.57C11.09 92.57 13.2 90.72 14.39 87.42L40.12 18.95L64.55 87.42C65.47 90.72 68.11 92.57 71.68 92.57C76.04 92.57 79.07 89.93 79.07 85.71C79.07 84.79 78.67 83.2 78.41 82.28L50.03 7.69998Z" fill="white"/>
<path d="M146.26 1.35999H82.24C78.81 1.35999 75.9 4.39999 75.9 7.95999C75.9 11.52 78.8 14.43 82.24 14.43H106.92V85.45C106.92 89.41 110.22 92.58 114.31 92.58C118.4 92.58 121.7 89.41 121.7 85.45V14.43H146.25C149.81 14.43 152.72 11.53 152.72 7.95999C152.72 4.38999 149.82 1.35999 146.25 1.35999H146.26Z" fill="white"/>
<path d="M229.02 78.19H185.72L231.26 11.66C231.92 10.74 232.32 9.14999 232.32 7.95999C232.32 4.39999 229.55 1.35999 225.85 1.35999H170.14C166.71 1.35999 163.8 4.39999 163.8 7.95999C163.8 11.52 166.7 14.43 170.14 14.43H212.51L167.37 80.56C166.58 81.62 165.92 83.07 165.92 84.65C165.92 88.35 168.69 91.25 172.39 91.25H229.02C232.58 91.25 235.36 88.35 235.36 84.65C235.36 81.22 232.59 78.18 229.02 78.18V78.19Z" fill="white"/>
<path d="M291.98 0.179993C266.11 0.179993 244.46 19.72 244.46 46.51C244.46 73.3 266.11 92.58 291.98 92.58C317.85 92.58 339.5 73.31 339.5 46.51C339.5 19.71 317.72 0.179993 291.98 0.179993ZM291.98 78.85C273.9 78.85 260.04 64.59 260.04 46.51C260.04 28.43 273.9 14.04 291.98 14.04C310.06 14.04 323.79 28.43 323.79 46.51C323.79 64.59 310.19 78.85 291.98 78.85Z" fill="white"/>
<path d="M442.33 0.179993C438.5 0.179993 435.86 2.03 434.28 4.8L405.64 52.72L377.26 4.8C375.68 2.03 372.9 0.179993 369.21 0.179993C363.67 0.179993 359.97 4.27 359.97 9.16V85.72C359.97 89.42 362.87 92.58 367.1 92.58C371.33 92.58 374.36 89.41 374.36 85.72V26.98L398.52 66.98C399.97 69.49 402.22 71.47 405.78 71.47C409.34 71.47 411.59 69.49 413.04 66.98L437.2 26.98V85.72C437.2 89.42 440.1 92.58 444.33 92.58C448.56 92.58 451.59 89.41 451.59 85.72V9.16C451.59 4.28 447.89 0.179993 442.35 0.179993H442.33Z" fill="white"/>
<path d="M470.04 80.3C468.85 81.62 468.19 83.2 468.19 84.92C468.19 89.41 472.55 92.58 476.64 92.58C479.41 92.58 481.52 91.39 483.24 89.28L508.32 57.73L498.68 46.51L470.04 80.3Z" fill="white"/>
<path d="M483.91 3.61C482.33 1.23 480.21 0.179993 477.31 0.179993C472.82 0.179993 468.86 3.74 468.86 7.97C468.86 9.55 469.52 11.14 470.71 12.59L498.69 46.51L508.19 34.63L483.9 3.61H483.91Z" fill="white"/>
<path d="M539.61 92.58C543.97 92.58 548.06 89.15 548.06 84.79C548.06 83.21 547.4 81.62 546.21 80.3L517.83 46.24L545.68 12.58C546.87 11.26 547.4 9.53999 547.4 7.95999C547.4 3.33999 543.18 0.169983 538.95 0.169983C536.18 0.169983 534.2 1.22999 532.35 3.59999L508.19 34.62L498.69 46.5L508.33 57.72L533.01 89.27C534.73 91.38 536.84 92.57 539.61 92.57V92.58Z" fill="white"/>
<path d="M46.81 58.09C45.3 62.38 36.07 65.46 32.94 62.68C29.82 59.92 32.8 51.33 37.43 49.8C42.04 48.27 48.29 53.78 46.81 58.09Z" fill="white"/>
<path d="M12.45 137.61C11.41 138.14 10.18 138.37 8.9 138.37C4.14 138.37 0.43 134.8 0.43 130.18C0.43 125.56 4.13 122.1 8.92 122.1C10.2 122.1 11.41 122.31 12.45 122.81V124.05C11.41 123.55 10.26 123.29 8.92 123.29C4.89 123.29 1.77 126.27 1.77 130.18C1.77 134.09 4.89 137.13 8.92 137.13C10.26 137.13 11.41 136.9 12.45 136.37V137.61Z" fill="white"/>
<path d="M42.87 133.22H35.55L33.49 138.07H32L39.06 122.11H39.36L46.42 138.07H44.9L42.86 133.22H42.87ZM39.21 124.6L36.03 132.1H42.4L39.22 124.6H39.21Z" fill="white"/>
<path d="M68.77 123.53V129.03H75.31V130.23H68.77V138.08H67.45V122.33H75.74V123.53H68.77Z" fill="white"/>
<path d="M107.51 136.88V138.08H97.23V122.33H107.23V123.53H98.5V129.03H106.75V130.23H98.5V136.89H107.51V136.88ZM105.99 118.23L99.54 119.97V118.92L105.99 117.14V118.23Z" fill="white"/>
<path d="M184.99 133.33V138.08H183.67V133.33L177.24 122.33H178.71L184.34 132.03L189.99 122.33H191.44L184.99 133.33Z" fill="white"/>
<path d="M272.94 137.61C271.9 138.14 270.67 138.37 269.39 138.37C264.63 138.37 260.92 134.8 260.92 130.18C260.92 125.56 264.62 122.1 269.41 122.1C270.69 122.1 271.9 122.31 272.94 122.81V124.05C271.9 123.55 270.75 123.29 269.41 123.29C265.38 123.29 262.26 126.27 262.26 130.18C262.26 134.09 265.38 137.13 269.41 137.13C270.75 137.13 271.9 136.9 272.94 136.37V137.61Z" fill="white"/>
<path d="M292.93 130.18C292.93 125.62 296.59 122.1 301.35 122.1C306.11 122.1 309.79 125.63 309.79 130.18C309.79 134.73 306.15 138.37 301.35 138.37C296.55 138.37 292.93 134.76 292.93 130.18ZM308.45 130.18C308.45 126.3 305.38 123.27 301.35 123.27C297.32 123.27 294.27 126.29 294.27 130.18C294.27 134.07 297.32 137.15 301.35 137.15C305.38 137.15 308.45 134.08 308.45 130.18Z" fill="white"/>
<path d="M352.47 122.33L345.45 138.35H345.08L340.53 127.35L335.92 138.35H335.57L328.55 122.33H330L335.74 135.62L340.31 124.72H340.79L345.29 135.62L351.03 122.33H352.46H352.47Z" fill="white"/>
<path d="M371.25 130.18C371.25 125.62 374.91 122.1 379.67 122.1C384.43 122.1 388.11 125.63 388.11 130.18C388.11 134.73 384.47 138.37 379.67 138.37C374.87 138.37 371.25 134.76 371.25 130.18ZM386.77 130.18C386.77 126.3 383.7 123.27 379.67 123.27C375.64 123.27 372.59 126.29 372.59 130.18C372.59 134.07 375.64 137.15 379.67 137.15C383.7 137.15 386.77 134.08 386.77 130.18Z" fill="white"/>
<path d="M420.58 138.07L416.62 132.4C415.88 132.53 415.06 132.59 414.17 132.59C412.78 132.59 411.75 132.46 410.9 132.25V138.07H409.58V122.32H415.45C419.82 122.32 421.86 124.19 421.86 127.17C421.86 129.67 420.45 131.33 417.9 132.1L422.08 138.06H420.59L420.58 138.07ZM414.17 131.44C418.37 131.44 420.47 129.93 420.47 127.2C420.47 125.02 419.15 123.5 415.34 123.5H410.9V131.12C411.74 131.31 412.81 131.44 414.17 131.44Z" fill="white"/>
<path d="M453.81 138.07L444.91 129.92V138.07H443.59V122.32H444.91V129.46L453.53 122.32H455.28L446.45 129.65L455.59 138.07H453.81Z" fill="white"/>
<path d="M476.4 122.33H477.7V138.08H476.4V122.33Z" fill="white"/>
<path d="M514.01 122.33V138.14H513.69L501.8 125.21V138.08H500.48V122.25H500.78L512.69 135.12V122.33H514.01Z" fill="white"/>
<path d="M536.81 130.52C536.81 134.45 539.78 137.15 544.3 137.15C545.58 137.15 546.77 136.83 547.51 136.56V130.28H548.81V137.31C548.25 137.69 546.39 138.36 544.24 138.36C538.98 138.36 535.47 135.11 535.47 130.51C535.47 125.6 539.24 122.09 544.89 122.09C546.6 122.09 548.2 122.47 549.16 122.95V124.19C548.14 123.73 546.6 123.27 544.94 123.27C540.05 123.27 536.82 126.21 536.82 130.51L536.81 130.52Z" fill="white"/>
</svg>
