<svg width="499" height="425" viewBox="0 0 499 425" fill="none" xmlns="http://www.w3.org/2000/svg">
<path d="M278.164 16.425V24.913C250.04 8.93301 223.54 9.64634 206.119 13.1317C190.784 16.1997 179.88 21.7437 175.819 24.0383V15.561C178.352 14.057 189.959 7.56101 206.651 4.23568C223.9 0.799682 250.261 0.146347 278.164 16.425ZM235.02 28.8423C234.975 28.845 234.939 28.869 234.895 28.877C229.761 26.061 223.397 24.4717 215.512 25.0984C215.473 25.101 215.435 25.1063 215.397 25.113C214.936 25.1983 214.436 25.281 213.903 25.3704C209.796 26.0544 203.692 27.069 198.548 31.453C196.849 31.737 189.48 33.2544 181.348 39.2664L176.101 26.4797C179.117 24.7197 190.499 18.5383 206.651 15.321C223.82 11.901 250.021 11.2503 277.78 27.2983L272.439 37.253C254.369 27.585 235.256 28.825 235.02 28.8423ZM283.076 47.553C292.645 56.473 298.692 68.649 301.149 83.873L286.127 85.4997C285.828 85.5317 285.555 85.6823 285.368 85.9183C285.18 86.153 285.095 86.449 285.131 86.753L286.36 96.909C286.432 97.5063 286.961 97.941 287.561 97.897L302.348 96.8023C302.385 98.0223 302.413 99.2503 302.413 100.502V100.752C302.383 115.948 297.968 129.734 292.588 141.145C287.945 137.054 280.677 131.037 273.931 127.068C274.327 125.634 274.7 124.153 275.037 122.596C276.033 118.01 276.467 113.752 276.467 109.806C276.465 85.025 259.339 72.7023 256.529 70.849C256.516 70.5263 256.505 70.205 256.487 69.8757C256.449 69.2144 256.392 68.449 256.313 67.613C257.939 68.081 260.411 68.305 262.073 66.1797C262.611 65.4917 262.88 64.625 262.88 63.6543C262.88 62.8223 262.681 61.9144 262.283 60.9784C261.087 58.177 257.992 55.1663 253.708 54.529C252.959 52.0983 252.02 49.5637 250.828 47.009C248.223 41.425 244.248 35.3824 238.293 31.037C244.417 31.1157 258.627 32.1904 272.067 39.617C277.508 47.4357 276.276 54.805 276.253 54.9303C276.143 55.5397 276.543 56.1277 277.152 56.2424C277.763 56.357 278.351 55.9543 278.465 55.3437C278.487 55.2317 278.655 54.2863 278.655 52.7583C278.655 50.3303 278.223 46.4303 276.112 42.0743C278.505 43.6663 280.847 45.4744 283.076 47.553ZM288.465 95.573L287.503 87.6143L301.465 86.1037C301.836 88.8263 302.097 91.6423 302.245 94.5517L288.465 95.573ZM369.809 81.085V240.212C357.605 244.262 347.803 250.104 341.321 254.09C341.315 254.092 341.309 254.089 341.303 254.09L276.959 265.305C276.347 265.412 275.933 265.992 276.044 266.606L294.776 374.597C294.827 374.892 294.995 375.156 295.24 375.328C295.487 375.498 295.792 375.565 296.087 375.512L332.235 368.917C341.021 376.746 353.393 385.556 369.348 390.213V422.054H83.6548V405.417C87.6508 406.397 91.7308 407.062 95.8921 407.401C95.5681 410.086 95.1575 412.737 94.6361 415.297C94.5055 415.904 94.9041 416.5 95.5135 416.624C96.1215 416.749 96.7161 416.356 96.8401 415.746C97.3815 413.093 97.7975 410.34 98.1295 407.558C101.984 407.765 105.904 407.692 109.884 407.357C109.795 410.341 109.596 413.298 109.256 416.158C109.188 416.769 109.623 417.336 110.241 417.409C110.859 417.482 111.419 417.041 111.491 416.424C111.849 413.412 112.051 410.294 112.137 407.153C119.929 406.304 127.947 404.418 136.151 401.521C137.096 403.506 139.092 404.821 141.373 404.821C144.572 404.821 147.176 402.218 147.176 399.018C147.176 398.394 147.073 397.793 146.891 397.229C149.641 396.009 152.103 394.84 154.101 393.885C156.413 392.782 158.24 391.91 159.465 391.461C161.463 390.726 163.513 390.041 165.496 389.377C172.272 387.108 175.849 385.838 176.711 383.992C176.844 383.708 176.911 383.417 176.911 383.125C176.911 382.882 176.864 382.642 176.773 382.408C176.261 381.102 174.427 380.689 172.196 380.72C174.016 379.646 175.539 378.456 175.9 377.341C176.092 376.75 176.019 376.149 175.693 375.648C174.832 374.32 172.296 374.342 169.371 374.929C171.099 373.612 172.524 372.206 172.896 370.962C173.149 370.12 172.94 369.489 172.72 369.105C172.217 368.224 170.853 367.322 167.191 368.288C168.684 366.864 169.836 365.405 170.031 364.173C170.056 364.013 170.061 363.858 170.06 363.705L195.48 355.91C195.795 355.813 196.051 355.585 196.183 355.284C196.245 355.14 196.276 354.986 196.276 354.834C196.276 354.666 196.237 354.497 196.163 354.342C182.911 327.03 187.8 316.424 187.845 316.329C187.863 316.296 187.871 316.258 187.884 316.224C187.897 316.19 187.911 316.16 187.92 316.126C187.948 316.032 187.964 315.934 187.967 315.837C187.967 315.829 187.969 315.824 187.969 315.817C187.969 315.816 187.969 315.814 187.969 315.813C187.968 315.71 187.951 315.608 187.921 315.506C187.919 315.497 187.92 315.486 187.916 315.477C187.912 315.462 187.9 315.452 187.895 315.438C187.877 315.39 187.865 315.341 187.841 315.294C187.805 315.226 187.76 315.165 187.712 315.106C187.705 315.098 187.701 315.089 187.695 315.081C187.611 314.984 187.507 314.908 187.396 314.845C187.373 314.832 187.351 314.818 187.327 314.808C187.221 314.757 187.112 314.717 186.993 314.701C177.491 313.425 173.935 291.457 173.367 283.1C173.344 282.757 173.165 282.445 172.884 282.25C172.601 282.054 172.245 282 171.919 282.098L165.347 284.09C164.893 283.28 164.269 282.417 163.561 281.56C166.276 282.794 168.741 283.392 169.88 282.294C170.309 281.88 170.515 281.308 170.465 280.692C170.367 279.525 169.155 278.02 167.625 276.561C169.789 277.097 171.672 277.112 172.465 275.957C172.696 275.621 172.813 275.244 172.813 274.845C172.813 274.698 172.797 274.55 172.765 274.4C172.344 272.405 169.149 270.356 163.064 266.606C161.284 265.512 159.445 264.378 157.667 263.21C156.253 262.282 154.591 260.544 152.487 258.341C144.388 249.866 131.024 235.896 102.407 236.277C100.777 233.146 99.0295 230.093 97.1668 227.246C96.8268 226.726 96.1281 226.581 95.6081 226.921C95.0881 227.264 94.9455 227.962 95.2828 228.48C96.9135 230.969 98.4535 233.622 99.9028 236.349C99.6441 236.36 99.3948 236.362 99.1335 236.374C94.7855 236.592 90.7361 237.124 86.9455 237.876C86.0975 236.677 85.2321 235.506 84.3481 234.374C84.2615 234.262 84.1535 234.178 84.0388 234.109V79.1263H158.543C158.665 79.1263 158.777 79.093 158.888 79.057C157.352 87.3917 156.953 95.6503 157.091 102.876C157.401 118.674 162.061 132.924 167.595 144.642C165.728 146.322 164.525 147.47 164.337 147.65C163.887 148.082 163.873 148.794 164.304 149.241C164.735 149.689 165.447 149.705 165.895 149.274C165.939 149.233 166.955 148.264 168.617 146.761C170.021 149.608 171.465 152.293 172.899 154.8C171.444 156.124 170.519 157.006 170.356 157.162C169.907 157.594 169.892 158.306 170.323 158.753C170.753 159.202 171.465 159.217 171.913 158.788C171.952 158.75 172.743 157.996 174.057 156.798C177.188 162.104 180.188 166.533 182.48 169.917C183.797 171.862 184.875 173.452 185.575 174.621V200.714L177.111 223.772C176.987 224.114 177.033 224.501 177.245 224.804C177.456 225.105 177.8 225.285 178.168 225.285H288.601C288.973 225.285 289.321 225.101 289.531 224.793C289.66 224.604 289.727 224.382 289.727 224.16C289.727 224.02 289.701 223.881 289.649 223.749L280.863 201.305C280.908 201.182 280.941 201.052 280.941 200.913V165.453C282.967 162.489 285.351 158.917 287.816 154.809C289.061 155.945 289.804 156.653 289.841 156.689C290.289 157.118 291.001 157.104 291.432 156.656C291.641 156.437 291.745 156.157 291.745 155.876C291.745 155.581 291.629 155.285 291.399 155.064C291.241 154.913 290.367 154.078 288.988 152.822C290.437 150.328 291.896 147.654 293.312 144.821C294.875 146.236 295.817 147.136 295.859 147.176C296.307 147.606 297.019 147.592 297.449 147.142C297.659 146.925 297.763 146.644 297.763 146.364C297.763 146.069 297.647 145.773 297.416 145.552C297.235 145.377 296.105 144.3 294.344 142.709C299.961 130.953 304.632 116.63 304.664 100.757V100.502C304.664 93.557 304.073 87.0903 302.931 81.085H369.809ZM389.609 238.212H389.611C388.279 244.277 386.708 253.342 386.484 263.058C378.021 263.014 371.144 264.913 365.555 267.776L363.007 263.905C363.187 263.212 363.285 262.482 363.285 261.726C363.285 257.432 360.144 253.868 356.039 253.201L353.663 249.582C363.06 244.666 375.367 239.634 389.609 238.212ZM403.868 238.094C403.871 238.096 403.873 238.096 403.876 238.096C401.76 244.578 398.845 254.636 397.448 264.498C394.66 263.752 391.747 263.285 388.735 263.122C388.961 253.202 390.621 243.968 391.959 238.022C395.793 237.753 399.772 237.753 403.868 238.094ZM406.173 238.32C406.245 238.329 406.317 238.338 406.389 238.346C426.697 240.724 442.46 249.653 453.479 264.965C445.596 261.377 436.011 262.508 435.527 262.569C434.911 262.645 434.465 263.213 434.551 263.824C434.627 264.441 435.189 264.878 435.805 264.802C435.937 264.785 449.053 263.244 456.425 269.416C459.711 274.762 462.492 280.785 464.769 287.473C472.033 308.805 471.184 329.478 471.127 330.786C471.004 331.553 468.072 349.073 455.788 364.988C453.297 368.212 450.616 371.14 447.752 373.784C447.695 373.808 447.633 373.816 447.58 373.852C440.476 378.456 428.304 375.833 428.183 375.806C427.576 375.672 426.976 376.054 426.841 376.661C426.707 377.269 427.089 377.868 427.695 378.004C428.099 378.093 435.412 379.672 442.372 378.244C428.976 388.192 412.109 392.645 391.959 391.538C390.236 384.89 388.093 375.213 387.357 365.908C393.855 364.888 399.909 362.282 404.928 358.186C404.929 358.186 404.929 358.186 404.931 358.188C408.775 359.645 412.961 360.456 417.345 360.456C436.007 360.456 451.185 345.836 451.185 327.868C451.185 312.608 440.229 299.761 425.492 296.241C424.088 281.613 413.78 269.765 399.628 265.148C401.013 255.097 404.048 244.761 406.169 238.32C406.171 238.32 406.172 238.32 406.173 238.32ZM474.148 266.489C475.772 269.86 481.419 282.521 483.883 300.249C486.508 319.114 485.933 347.7 468.584 377.264L455.548 368.857C456.273 367.998 456.969 367.142 457.625 366.29C470.448 349.636 473.244 331.834 473.359 331.085C473.365 331.029 473.371 330.972 473.371 330.916C473.371 330.912 473.368 330.908 473.368 330.902C473.387 330.604 473.439 329.453 473.439 327.606C473.439 320.656 472.745 303.938 466.921 286.806C465.292 282 463.168 276.941 460.413 271.934L474.148 266.489ZM485.063 266.633C486.437 269.434 492.407 282.368 494.959 300.724C497.592 319.681 497.015 348.452 479.416 378.169L470.885 377.804C488.239 347.864 488.771 318.962 486.1 299.849C483.748 283.022 478.567 270.648 476.532 266.268L485.063 266.633ZM380.932 390.433C379.861 390.278 378.809 390.098 377.765 389.904C376.855 383.665 376.027 375.097 376.448 366.148C379.377 366.47 382.283 366.477 385.123 366.194C385.855 375.306 387.891 384.71 389.596 391.388C386.769 391.176 383.884 390.86 380.932 390.433ZM320.164 323.488C319.536 323.797 319.105 324.341 318.917 325.062C318.604 326.268 319.077 328.072 319.879 329.978C317.831 328.341 315.856 327.484 314.48 328.509C314.127 328.773 313.683 329.27 313.577 330.141C313.424 331.432 314.165 333.286 315.221 335.184C312.776 333.478 310.46 332.442 309.14 333.316C308.643 333.645 308.335 334.166 308.275 334.786C308.149 335.965 309.08 337.653 310.32 339.365C309.161 338.84 308.069 338.51 307.155 338.498L304.848 324.721L316.124 322.992C316.68 322.906 317.079 322.428 317.079 321.882C317.079 321.825 317.073 321.768 317.065 321.709C316.971 321.096 316.397 320.674 315.783 320.768L304.476 322.502L298.563 287.196L320.753 283.62L322.741 294.844C311.681 296.478 311.657 296.529 311.38 297.357C311.185 297.944 311.501 298.582 312.091 298.781C312.383 298.878 312.687 298.849 312.943 298.724C313.769 298.504 318.621 297.732 323.135 297.061L328.883 329.505C325.741 325.576 322.349 322.412 320.164 323.488ZM334.275 322.724C332.504 324.326 332.063 329.708 331.992 333.71C331.951 333.65 331.908 333.59 331.867 333.53C331.865 333.474 331.861 333.418 331.852 333.361L326.485 303.076L340.448 300.909L350.067 350.822C342.164 342.337 339.664 332.17 338.324 326.698C337.543 323.505 337.249 322.309 336.051 322.148C335.401 322.06 334.788 322.26 334.275 322.724ZM336.027 257.297C335.667 257.496 335.351 257.666 335.055 257.82C333.145 258.765 331.192 259.674 329.293 260.556C322.811 263.562 319.399 265.228 318.741 267.154C318.561 267.704 318.597 268.244 318.859 268.74C319.516 269.981 321.38 270.189 323.595 269.909C321.901 271.178 320.524 272.529 320.291 273.673C320.164 274.285 320.308 274.878 320.687 275.338C321.685 276.562 324.207 276.256 327.043 275.346C325.476 276.85 324.215 278.398 323.981 279.677C323.828 280.55 324.107 281.153 324.368 281.505C325.376 282.89 327.519 282.657 329.959 281.693C328.627 283.278 327.645 284.862 327.583 286.114C327.537 286.842 327.799 287.5 328.312 287.986C330.697 290.237 337.431 285.798 342.635 281.712C341.517 285.556 340.348 290.822 341.572 292.884C341.923 293.478 342.445 293.846 343.093 293.954C344.291 294.153 344.921 293.1 346.613 290.282C347.595 288.644 348.855 286.537 350.484 284.241C359.548 338.868 362.285 355.204 363.125 360.12C359.069 358.285 355.703 356.036 352.887 353.562L342.453 299.418C342.339 298.822 341.773 298.426 341.176 298.518L326.093 300.86L322.776 282.137C322.669 281.53 322.096 281.124 321.489 281.221L297.087 285.154C296.791 285.202 296.527 285.366 296.352 285.609C296.177 285.853 296.104 286.156 296.156 286.45L305.065 339.642C304.936 339.924 304.864 340.23 304.872 340.558C304.924 342.596 307.695 345.189 313.001 349.98C314.552 351.38 316.156 352.828 317.693 354.297C318.499 355.068 319.536 356.182 320.851 357.594C323.128 360.04 326.232 363.368 330.145 367.01L296.799 373.093L278.453 267.329L336.035 257.293L336.027 257.297ZM344.975 254.506L347.045 257.657C346.388 258.873 346.019 260.258 346.019 261.726C346.019 266.48 349.899 270.36 354.652 270.36C354.841 270.36 355.031 270.35 355.22 270.341L357.217 273.385C350.827 278.876 346.992 285.258 344.677 289.121C344.209 289.904 343.696 290.76 343.327 291.308C342.959 289.58 344.048 284.205 345.911 278.813C346.083 278.336 345.901 277.805 345.488 277.525C345.065 277.237 344.507 277.265 344.12 277.589C337.8 282.926 330.995 287.096 329.86 286.348C329.851 286.338 329.841 286.312 329.833 286.213C329.923 284.322 335 279.506 338.583 276.688C339.06 276.31 339.151 275.617 338.781 275.13C338.421 274.645 337.728 274.537 337.232 274.888C331.535 278.938 326.681 280.857 326.187 280.2C325.944 279.092 330.328 275.041 335.396 271.71C335.891 271.377 336.053 270.71 335.748 270.197C335.441 269.685 334.793 269.496 334.261 269.765C329.112 272.43 323.775 274.312 322.549 273.961C323.072 272.826 326.988 270.062 331.273 267.83C331.795 267.56 332.02 266.921 331.787 266.381C331.543 265.832 330.921 265.57 330.364 265.777C326.259 267.262 321.875 268.145 320.939 267.74C321.632 266.597 326.583 264.292 330.237 262.6C332.156 261.708 334.127 260.8 336.053 259.826C337.341 259.188 339.087 258.108 341.293 256.748C342.4 256.064 343.624 255.308 344.965 254.506H344.975ZM354.652 268.109C351.305 268.109 348.56 265.528 348.297 262.253L354.548 262.844C355.167 262.902 355.716 262.449 355.775 261.83C355.779 261.794 355.78 261.758 355.78 261.722C355.78 261.149 355.343 260.658 354.761 260.604L348.512 260.013C348.512 260.01 348.512 260.009 348.513 260.006C349.26 257.324 351.727 255.344 354.652 255.344C358.172 255.344 361.035 258.206 361.035 261.726C361.035 265.246 358.172 268.109 354.652 268.109ZM369.488 362.465C369.435 362.449 369.381 362.438 369.328 362.422C368.027 362.036 366.792 361.604 365.6 361.145L360.921 273.456C360.92 273.424 360.903 273.397 360.897 273.366C360.901 273.364 360.905 273.36 360.909 273.357C363.403 271.494 366.239 269.801 369.488 268.469V362.465ZM419.38 295.35C419.001 293.669 417.911 289.974 415.399 288.382C414.12 287.573 412.681 287.397 411.121 287.861C408.577 288.617 407.933 291.438 409.192 296.242C401.967 297.972 395.639 301.95 391.076 307.35C388.096 305.721 386.133 306.244 384.981 307.017C384.243 307.513 383.676 308.133 383.316 308.845L371.739 303.137V271.276L421.365 288.237C421.367 288.241 421.368 288.244 421.369 288.248C422.26 290.633 422.872 293.154 423.179 295.773C421.937 295.566 420.668 295.422 419.38 295.35ZM417.052 295.288C415.127 295.305 413.239 295.477 411.404 295.792C411.403 295.792 411.403 295.792 411.401 295.792C410.135 291.08 411.215 290.181 411.763 290.018C412.683 289.745 413.477 289.83 414.191 290.281C415.695 291.233 416.611 293.624 417.052 295.288ZM437.124 319.197C437.069 319.206 437.016 319.216 436.961 319.225C433.873 316.416 429.732 314.417 425.708 315.12C422.783 312.194 418.821 310.196 415.193 311.492C414.375 311.78 413.681 312.14 413.105 312.545C410.692 310.609 407.803 309.412 404.921 310.069C404.031 310.268 403.32 310.573 402.743 310.925C400.268 309.169 397.54 308.034 395.271 308.368C394.596 308.476 393.993 308.682 393.48 308.998C393.309 308.862 393.137 308.728 392.976 308.593C397.447 303.393 403.681 299.64 410.788 298.198C410.797 298.196 410.807 298.2 410.816 298.198C410.824 298.196 410.831 298.19 410.839 298.188C410.841 298.188 410.843 298.188 410.845 298.186C412.943 297.762 415.121 297.538 417.345 297.538C419.596 297.538 421.783 297.762 423.899 298.194C423.908 298.194 423.908 298.204 423.908 298.204C424.088 298.304 424.295 298.357 424.52 298.34C424.529 298.34 424.537 298.34 424.547 298.33C424.556 298.34 424.556 298.33 424.556 298.33C438.519 301.481 448.935 313.526 448.935 327.868C446.855 323.914 442.857 318.378 437.124 319.197ZM436.277 321.709C437.655 323.132 438.725 324.708 439.267 326.148C439.644 327.174 439.896 328.497 438.924 328.965C438.465 329.19 437.736 328.938 436.971 328.3C435.755 327.282 434.693 325.418 434.693 323.906C434.693 323.645 434.729 323.402 434.792 323.168C434.981 322.501 435.476 322.016 436.277 321.709ZM424.988 317.649C426.113 318.964 426.996 320.413 427.481 321.754C427.985 323.141 428.265 324.905 426.761 325.464C426.375 325.608 425.924 325.464 425.429 325.022C424.403 324.113 423.503 322.169 423.503 320.413C423.503 320.07 423.539 319.729 423.611 319.413C423.809 318.558 424.259 317.982 424.988 317.649ZM413.24 315.722C413.727 316.245 414.167 316.785 414.572 317.334C416.544 320.026 416.877 322.033 416.715 322.34C415.68 322.592 413.771 320.926 413.105 318.693C412.988 318.297 412.889 317.812 412.889 317.289C412.889 316.785 412.979 316.245 413.24 315.722ZM402.941 313.958C405.219 315.894 407.1 318.28 407.452 320.034C407.613 320.89 407.335 321.124 406.704 321.277C406.452 321.34 405.759 321.106 404.895 320.188C403.697 318.937 402.689 316.91 402.689 315.245C402.689 314.904 402.735 314.57 402.824 314.273C402.86 314.165 402.896 314.057 402.941 313.958ZM393.768 312.329C396.055 314.75 397.648 317.632 397.449 319.017C397.405 319.324 397.288 319.45 396.973 319.54C396.873 319.566 396.496 319.441 395.956 318.873C394.749 317.596 393.687 315.074 393.687 313.148C393.687 312.86 393.713 312.59 393.768 312.329ZM388.789 330.594C389.456 328.704 392.048 326.633 393.993 326.076C394.74 325.85 395.136 325.941 395.208 326.013C395.443 326.256 395.469 326.417 395.361 326.706C394.831 328.002 391.985 329.677 388.789 330.594ZM397.521 333.853C397.531 333.745 397.549 333.637 397.576 333.521C398.017 331.72 400.357 330.045 402.365 329.469C403.572 329.128 404.292 329.272 404.48 329.452C404.94 329.901 405.065 330.253 404.489 330.901C403.292 332.233 400.465 333.341 397.521 333.853ZM407.289 337.553C407.379 336.384 408.081 335.484 408.676 334.934C410.377 333.349 412.871 332.881 413.627 333.565C413.627 333.961 412.321 335.528 409.252 336.842C408.631 337.113 407.973 337.356 407.289 337.553ZM418.389 341.857C417.931 341.209 417.84 340.48 418.092 339.652C418.696 337.725 420.901 336.041 422.504 335.736C423.16 335.609 423.62 335.708 423.881 336.024C424.899 337.265 423.755 338.652 422.62 339.597C421.523 340.497 420.019 341.298 418.389 341.857ZM430.092 343.936C429.652 343.261 429.58 342.558 429.868 341.812C430.624 339.876 433.513 338.193 435.205 338.31C435.872 338.354 435.944 338.642 435.98 338.822C436.259 339.957 434.909 341.56 432.631 342.81C431.839 343.252 430.984 343.63 430.092 343.936ZM445.892 340.857C445.892 340.866 445.883 340.866 445.883 340.866C445.316 341.361 437.348 348.105 432.083 345.584C432.649 345.341 433.199 345.07 433.72 344.782C437.043 342.946 438.699 340.516 438.168 338.301C437.852 336.977 436.827 336.168 435.359 336.068C432.803 335.897 428.931 338.013 427.769 340.993C427.464 341.794 427.185 343.1 427.841 344.521C425.213 344.998 422.495 344.773 420.343 343.522C421.765 342.92 423.044 342.162 424.052 341.325C426.689 339.146 427.284 336.626 425.627 334.601C424.817 333.62 423.565 333.233 422.08 333.521C419.479 334.025 416.724 336.473 415.949 338.976C415.563 340.2 415.635 341.397 416.139 342.46C413.168 343.018 410.161 342.685 408.541 340.749C408.253 340.398 408.019 340.065 407.839 339.741C410.684 338.93 413.267 337.473 414.689 335.978C416.328 334.258 416.031 332.8 415.212 332.008C413.276 330.136 409.405 331.18 407.145 333.286C405.885 334.457 404.94 336.132 405.029 338.049C402.689 338.373 400.376 338.058 398.791 336.572C398.593 336.384 398.423 336.204 398.269 336.014C401.636 335.348 404.769 333.97 406.164 332.396C407.488 330.91 407.443 329.209 406.056 327.849C405.156 326.966 403.625 326.769 401.744 327.309C399.169 328.048 396.081 330.136 395.388 332.989C395.307 333.332 395.253 333.709 395.253 334.124C392.868 334.277 390.671 333.97 389.483 333.017C389.392 332.944 389.312 332.872 389.231 332.792C392.921 331.765 396.532 329.776 397.44 327.561C397.9 326.445 397.684 325.337 396.837 324.456C396.307 323.906 395.271 323.357 393.363 323.914C390.509 324.744 387.061 327.606 386.467 330.558C386.431 330.748 386.404 330.937 386.385 331.126C386.241 331.144 386.097 331.162 385.953 331.18C385.828 330.09 385.765 328.984 385.765 327.868C385.765 321.349 387.916 315.309 391.571 310.357C391.707 310.456 391.841 310.556 391.968 310.664C391.887 310.825 391.815 311.005 391.751 311.185C390.761 314.03 392.283 318.253 394.317 320.413C395.676 321.862 396.847 321.916 397.585 321.709C398.764 321.376 399.503 320.538 399.683 319.341C400.016 316.974 397.927 313.428 395.271 310.664C395.371 310.636 395.479 310.618 395.596 310.601C397.099 310.376 399.151 311.23 401.123 312.572C400.916 312.932 400.772 313.284 400.672 313.616C399.817 316.434 401.42 319.801 403.256 321.737C404.607 323.158 406.02 323.77 407.253 323.465C409.144 322.997 410.044 321.556 409.657 319.602C409.243 317.541 407.253 314.76 404.688 312.473C404.913 312.392 405.156 312.32 405.425 312.257C407.532 311.78 409.693 312.689 411.548 314.156C410.504 315.768 410.459 317.685 410.944 319.333C411.827 322.294 414.636 325.157 417.245 324.528C418.363 324.257 419.352 323.15 418.821 320.845C418.344 318.829 416.868 316.262 414.816 314.12C415.14 313.932 415.517 313.76 415.941 313.608C418.317 312.77 421.081 314.004 423.349 315.993C422.387 316.658 421.711 317.649 421.423 318.901C420.829 321.44 421.955 324.95 423.935 326.706C425.069 327.705 426.348 328.02 427.536 327.578C429.993 326.669 430.759 324.202 429.597 320.98C429.156 319.765 428.445 318.469 427.536 317.236C429.931 317.308 432.407 318.477 434.485 320.106C433.307 320.854 432.829 321.862 432.631 322.546C431.875 325.193 433.559 328.372 435.521 330.018C437.007 331.27 438.609 331.621 439.905 330.99C441.796 330.073 442.345 327.966 441.372 325.364C440.895 324.086 440.085 322.736 439.041 321.43C444.892 322.304 448.44 332.242 448.484 332.35C448.503 332.404 448.529 332.458 448.556 332.512V332.521C448.088 335.456 447.179 338.256 445.892 340.857ZM386.296 333.394C386.476 333.377 386.665 333.349 386.845 333.322C387.133 333.853 387.539 334.34 388.069 334.772C389.861 336.212 392.787 336.617 395.812 336.365C396.127 336.96 396.585 337.589 397.252 338.21C399.395 340.236 402.5 340.669 405.561 340.228C405.849 340.876 406.263 341.533 406.821 342.198C409.297 345.152 413.717 345.449 417.723 344.413C420.839 347.088 425.312 347.484 429.381 346.474C429.463 346.548 429.544 346.618 429.633 346.682C433.684 349.914 439.041 347.988 442.813 345.8C437.06 353.317 427.788 358.205 417.345 358.205C401.897 358.205 389.005 347.501 386.296 333.394ZM398.176 354.701C396.904 355.821 394.536 357.517 392.593 357.409C391.751 357.362 391.055 356.972 390.464 356.213C390.107 355.758 389.751 354.356 393.705 351.157C395.081 352.461 396.575 353.649 398.176 354.701ZM379.345 325.265C378.941 325.716 378.599 326.21 378.364 326.76C377.824 328.01 377.879 329.38 378.517 330.721C379.121 331.981 380.579 333.44 384.027 333.521C385.135 339.606 388.005 345.124 392.111 349.553C390.524 350.86 389.387 352.082 388.712 353.214L371.739 355.45V324.761L379.345 325.265ZM383.649 324.924C383.559 325.896 383.515 326.877 383.515 327.868C383.515 329.01 383.577 330.145 383.695 331.261C382.488 331.17 381.075 330.829 380.552 329.74C380.192 328.992 380.147 328.317 380.435 327.66C380.948 326.472 382.416 325.517 383.649 324.924ZM389.672 309.15C388.384 310.897 387.277 312.778 386.377 314.76C385.629 313.58 384.883 311.969 385.063 310.645C385.161 309.925 385.54 309.349 386.233 308.89C387.223 308.224 388.6 308.629 389.672 309.15ZM352.355 281.76C352.355 281.758 352.356 281.758 352.357 281.757C354.112 279.542 356.209 277.256 358.712 275.104H358.721C358.729 275.113 358.74 275.113 358.756 275.113L362.305 341.632C359.347 323.885 355.1 298.31 352.355 281.76ZM384.849 358.524C384.844 358.896 384.84 359.266 384.84 359.642C384.84 361.054 384.888 362.497 384.969 363.95C382.227 364.229 379.416 364.22 376.581 363.9C376.693 362.325 376.841 360.744 377.041 359.166C377.117 358.565 376.685 357.986 376.067 357.908C375.451 357.83 374.887 358.266 374.809 358.884C374.611 360.449 374.461 362.018 374.349 363.582C373.479 363.436 372.609 363.266 371.739 363.062V357.72L387.969 355.582C387.972 356.302 388.205 356.976 388.689 357.597C389.691 358.881 390.963 359.573 392.472 359.657C395.812 359.84 399.239 356.813 400.164 355.93C400.949 356.376 401.744 356.796 402.564 357.18C398.103 360.557 392.837 362.742 387.204 363.657C387.111 361.928 387.072 360.222 387.1 358.562V358.542C387.1 357.93 386.609 357.428 385.995 357.417C385.373 357.408 384.86 357.902 384.849 358.524ZM386.457 265.309C386.455 267.445 386.519 269.601 386.673 271.757C386.719 272.377 387.257 272.844 387.876 272.8C388.496 272.756 388.967 272.233 388.919 271.597C388.771 269.52 388.708 267.441 388.708 265.382C391.631 265.545 394.464 266.012 397.153 266.749C397.153 266.75 397.155 266.75 397.156 266.75C396.921 268.754 396.753 270.738 396.68 272.669C396.641 273.293 397.139 273.813 397.761 273.836C398.383 273.86 398.904 273.376 398.928 272.754C398.995 271.014 399.139 269.229 399.34 267.425C408.667 270.585 416.165 277.085 420.199 285.457V285.461L371.739 268.898V267.614C375.979 266.156 380.849 265.282 386.449 265.309H386.457ZM322.499 356.06C321.159 354.622 320.101 353.486 319.249 352.672C317.688 351.178 316.072 349.72 314.509 348.308C311.543 345.63 307.533 342.012 307.151 340.684C308.307 340.625 312.153 342.725 315.569 345.313C316.041 345.67 316.711 345.601 317.1 345.153C317.487 344.705 317.463 344.033 317.041 343.617C313.629 340.237 310.723 336.466 310.521 335.205C311.9 335.293 316.383 338.629 320.467 342.646C320.893 343.066 321.575 343.078 322.016 342.674C322.456 342.27 322.505 341.592 322.124 341.129C318.267 336.444 315.269 331.285 315.825 330.313C316.499 329.81 320.572 333.082 324.82 338.632C325.191 339.117 325.881 339.217 326.375 338.857C326.869 338.498 326.985 337.81 326.639 337.308C324.049 333.561 320.621 327.449 321.096 325.628C321.123 325.524 321.147 325.513 321.155 325.508C322.471 325.125 327.735 331.121 332.199 338.088C332.472 338.513 332.997 338.704 333.48 338.554C333.964 338.404 334.319 337.937 334.271 337.442C334.076 331.669 334.647 326.132 335.472 324.696C335.671 325.326 335.915 326.322 336.139 327.234C338.324 336.164 343.445 357.076 368.687 364.58C370.524 365.126 372.369 365.536 374.212 365.837C373.783 374.652 374.541 383.11 375.429 389.437C348.037 383.482 330.333 364.474 322.499 356.06ZM26.9148 356.384C25.8975 354.049 25.0215 351.748 24.2588 349.509C29.6748 356.225 36.5455 358.44 36.9321 358.558C37.5241 358.744 38.1548 358.412 38.3388 357.82C38.3735 357.708 38.3895 357.596 38.3895 357.485C38.3895 357.005 38.0815 356.561 37.6001 356.41C37.4828 356.373 25.8881 352.609 21.6161 340.092C21.6068 340.064 21.5841 340.045 21.5735 340.018C19.6788 331.693 19.3948 325.337 19.3548 323.277C21.2495 323.009 23.3281 322.594 25.6015 322.024C30.5415 320.784 34.8388 319.216 36.3361 318.648C40.0548 323.04 45.2841 325.076 47.0135 325.661C47.9761 328.686 49.4081 331.657 51.2895 334.565C53.2615 337.625 55.5748 340.362 58.0228 342.774C58.0241 342.776 58.0255 342.777 58.0255 342.777C58.0308 342.894 58.0388 343.013 58.0815 343.129C65.8948 364.184 83.6081 373.52 96.5881 376.626C97.0041 384.362 97.1868 394.898 96.1415 405.162C91.5988 404.797 87.1535 404.05 82.8175 402.9C49.5041 394.053 34.0295 372.722 26.9148 356.384ZM36.0135 270.468C39.6015 275.926 41.4801 281.81 40.8948 282.609C40.1908 282.54 38.1388 279.521 36.7295 273.997C36.4175 272.774 36.1788 271.588 36.0135 270.468ZM25.8335 276.744C29.3415 279.528 32.4161 283.058 33.2361 285.538C33.3441 285.866 33.5628 286.661 33.2561 286.952C33.1868 287.018 33.1081 287.093 32.8228 287.008C30.9948 286.464 27.8775 281.994 25.8335 276.744ZM17.6948 285.826C22.7241 288.094 27.0535 291.658 27.1628 292.954C26.3295 293.162 22.5681 291.364 18.3548 286.597C18.1321 286.346 17.9121 286.089 17.6948 285.826ZM11.2748 299.372C16.4601 299.304 21.9735 300.885 23.7228 301.944C21.7628 302.33 16.1521 301.949 11.2748 299.372ZM9.56812 320.338C8.55612 319.72 8.00681 318.814 7.88947 317.572C7.73214 315.876 8.42547 314.617 9.48147 313.688C15.3388 315.502 22.2815 315.673 25.0361 314.364C26.2935 313.765 26.5935 312.934 26.6228 312.344C26.6575 311.801 26.4895 310.757 25.0868 309.944C21.8375 308.056 13.6775 308.246 9.13746 311.153C9.12279 311.162 9.10814 311.172 9.09347 311.182C8.78414 311.072 8.47614 310.954 8.1708 310.832C5.23747 309.646 1.84146 307.525 2.29346 304.201C2.60146 301.965 4.31613 300.482 7.39346 299.79C7.47879 299.772 7.56546 299.753 7.65213 299.736C11.4215 302.534 16.4055 303.864 19.8441 304.214C22.1988 304.454 26.1841 304.526 26.4228 302.304C26.4295 302.245 26.4321 302.186 26.4321 302.129C26.4321 298.74 15.7001 297.388 15.5895 297.374C12.8241 297.037 10.3615 297.032 8.25479 297.338C6.04679 295.43 4.26279 292.644 4.65213 288.662C4.99613 285.137 7.02414 283.573 10.8548 283.881C11.8321 283.96 12.8455 284.152 13.8641 284.429C17.4228 289.854 23.6201 295.088 26.9375 295.202C28.2241 295.246 28.8468 294.561 29.1028 294.149C29.5055 293.504 29.7175 292.382 28.4575 290.706C26.4468 288.028 20.8441 284.22 15.3121 282.497C13.4175 279.358 12.4495 276.06 13.9001 273.754C14.6015 272.638 15.7321 272.192 17.3508 272.39C18.9335 272.584 20.8081 273.39 22.7081 274.549C24.6015 280.962 28.7495 288.144 32.1815 289.165C33.1695 289.46 34.1028 289.253 34.8068 288.584C35.4335 287.988 36.0388 286.853 35.3721 284.832C34.2108 281.317 29.5241 276.3 24.6441 273.121C24.5775 272.868 24.5135 272.614 24.4535 272.361C23.4041 267.933 23.7361 264.641 25.3868 263.09C26.6921 261.865 28.6401 262.402 31.1761 264.692C31.9788 265.414 32.7401 266.209 33.4601 267.05C33.4855 272.524 35.8081 279.612 37.7801 282.581C39.6841 285.448 41.3028 285.01 42.0975 284.496C42.9788 283.924 43.3335 282.822 43.1561 281.22C42.7455 277.549 39.5801 271.094 35.7415 266.306C35.8161 264.353 36.2441 262.942 37.0188 262.414C37.1988 262.293 37.6748 261.97 38.7575 262.537C40.0588 263.22 41.5161 264.773 42.9495 266.865C43.0068 267.086 43.1441 267.276 43.3255 267.429C46.8575 272.837 50.1415 281.396 50.4441 288.221C50.4441 288.221 50.4441 288.221 50.4428 288.221C48.4535 288.032 46.3295 288.157 44.2228 288.833C39.7748 290.273 36.3988 293.865 34.1575 299.518C31.8441 305.388 31.8081 310.654 34.0495 315.192C34.3201 315.741 34.6255 316.262 34.9495 316.766C34.9508 316.768 34.9508 316.768 34.9508 316.768C28.6348 319.126 14.5308 323.38 9.56812 320.338ZM12.2455 312.105C13.0388 311.801 13.8281 311.588 14.5041 311.44C19.4441 310.354 23.8988 311.397 24.3521 312.176C23.4561 313.053 17.9255 313.43 12.2455 312.105ZM154.592 366.868C156.127 363.17 157.873 358.068 156.888 355.892C156.604 355.261 156.12 354.833 155.491 354.653C154.425 354.349 153.604 355.169 151.409 357.358C149.353 359.409 146.14 362.604 141.661 365.749C137.855 357.402 130.928 338.342 136.844 332.834L185.136 317.538C184.183 321.948 183.62 333.181 193.569 354.141L168.835 361.726C167.276 360.984 163.547 361.296 154.592 366.868ZM137.916 399.838C137.853 399.572 137.821 399.296 137.821 399.018C137.821 397.06 139.415 395.466 141.373 395.466C143.332 395.466 144.925 397.06 144.925 399.018C144.925 400.977 143.332 402.57 141.373 402.57C139.717 402.57 138.295 401.446 137.916 399.838ZM112.192 403.481C112.192 394.218 111.281 385.029 110.337 377.982C115.028 377.9 119.56 377.329 123.875 376.273C124.692 377.969 126.305 379.206 128.231 379.498C127.852 380.269 127.633 381.132 127.633 382.046C127.633 384.952 129.781 387.358 132.572 387.777C132.176 388.561 131.948 389.444 131.948 390.38C131.948 393.12 133.857 395.416 136.415 396.021C135.883 396.897 135.571 397.921 135.571 399.018C135.571 399.125 135.584 399.229 135.589 399.336C127.584 402.177 119.767 404.028 112.175 404.88C112.18 404.413 112.192 403.948 112.192 403.481ZM129.1 377.32C127.141 377.32 125.548 375.726 125.548 373.768C125.548 371.809 127.141 370.216 129.1 370.216C131.059 370.216 132.652 371.809 132.652 373.768C132.652 375.726 131.059 377.32 129.1 377.32ZM133.436 385.598C131.476 385.598 129.884 384.005 129.884 382.046C129.884 380.088 131.476 378.496 133.436 378.496C135.395 378.496 136.987 380.088 136.987 382.046C136.987 384.005 135.395 385.598 133.436 385.598ZM137.749 393.932C135.792 393.932 134.199 392.338 134.199 390.38C134.199 388.421 135.792 386.829 137.749 386.829C139.708 386.829 141.301 388.421 141.301 390.38C141.301 392.338 139.708 393.932 137.749 393.932ZM68.3308 351.057C68.3321 351.058 68.3348 351.06 68.3361 351.061C67.5428 351.672 66.6068 352.56 66.0628 353.642C64.5055 351.394 63.0801 348.94 61.8321 346.258C64.0441 348.109 66.2641 349.709 68.3308 351.057ZM70.5948 357.718C69.7441 357.744 68.9801 357.318 68.2575 356.416C67.8135 355.86 67.8335 355.436 67.8855 355.162C68.1068 354.048 69.5508 352.912 70.3908 352.368C70.7748 352.6 71.1428 352.824 71.5081 353.038C72.6428 353.704 73.7868 354.334 74.9295 354.928C74.9321 354.929 74.9348 354.93 74.9375 354.932C73.9201 356.096 72.1948 357.67 70.5948 357.718ZM98.4708 353.226C92.5468 351.498 87.1455 348.789 85.6961 347.438C87.8935 347.384 94.8521 349.85 98.4708 353.226ZM110.264 341.56C101.172 341.245 92.1148 337.445 91.9348 335.96C91.9988 335.708 93.5641 335.078 97.6068 335.933C101.82 336.825 106.681 338.858 110.264 341.56ZM111.812 327.642C109.192 327.868 106.321 327.804 103.548 327.47C97.5081 326.75 94.9148 325.104 94.9148 324.636V324.626C95.4735 323.806 100.731 323.708 107.644 325.994C109.04 326.462 110.453 327.012 111.812 327.642ZM108.067 313.112C102.567 313.661 97.7508 312.905 97.0575 312.05C98.0655 311.42 102.783 311.662 108.067 313.112ZM106.005 301.49C104.512 301.769 102.9 301.994 101.28 302.112C98.6601 302.309 97.2561 302.112 96.6161 301.913C97.9935 301.373 101.801 301.121 106.005 301.49ZM88.6975 282.709C89.1201 282.234 89.6468 282.009 90.3548 281.998C91.4855 281.982 91.9228 282.397 92.1548 282.71C93.0455 283.914 92.6881 286.47 92.3348 287.96C92.3335 287.96 92.3321 287.96 92.3308 287.96C91.0615 287.708 89.7201 287.456 88.2988 287.202C88.0548 287.158 87.8215 287.122 87.5775 287.086C87.5668 285.794 87.7535 283.766 88.6975 282.709ZM48.7055 307.818C50.9468 301.03 55.2228 296.493 60.2735 293.568C60.2828 293.558 60.3001 293.55 60.3094 293.55C69.3748 288.284 80.9615 288.176 87.9028 289.417C106.249 292.704 111.605 295.746 112.875 297.726C113.172 298.194 113.253 298.628 113.136 299.14C112.929 299.392 112.344 299.708 111.479 300.032C105.052 298.654 97.4721 298.772 95.1308 300.157C94.1135 300.752 93.9881 301.544 93.9961 301.949C94.0241 302.877 94.6535 304.037 97.4535 304.353C100.397 304.677 107.32 303.912 111.641 302.364C113.055 302.688 114.405 303.11 115.62 303.624C117.457 304.406 119.672 305.721 119.555 307.566C119.473 309.548 117.007 311.257 112.767 312.31C106.393 309.898 98.9388 308.782 96.2201 309.98C95.0415 310.492 94.8068 311.338 94.7615 311.797C94.7348 312.284 94.8335 313.212 95.9775 313.985C98.6148 315.758 106.375 316.065 112.649 314.652C113.585 315.029 114.523 315.453 115.423 315.912C117.889 317.181 121.94 319.756 121.436 322.781C121.076 324.905 118.744 326.301 115.512 327.066C110.247 323.986 103.351 322.141 98.7588 321.88C93.9068 321.61 92.7721 323.114 92.6828 324.428C92.6735 324.482 92.6735 324.545 92.6735 324.6C92.6735 328.156 100.767 329.406 103.279 329.704C107.303 330.189 111.552 330.145 115.135 329.425C118.475 331.522 120.86 334.16 120.761 337.077C120.635 340.245 116.997 341.253 113.621 341.505C109.58 337.625 103.233 334.826 98.0748 333.737C93.2135 332.701 90.2521 333.313 89.7481 335.438C89.5855 336.132 89.6841 337.202 91.1255 338.39C94.6095 341.289 104.889 344.089 112.757 343.801C114.684 345.898 115.756 348.266 115.296 350.742C114.864 353.056 113.064 354.352 109.796 354.704C107.464 354.956 104.781 354.685 102.063 354.126C99.3801 349.202 89.1361 344.945 85.3628 345.224C83.7788 345.341 83.3108 346.196 83.1761 346.7C82.9695 347.438 83.2935 348.23 84.1388 349.041C86.3081 351.12 93.3481 354.46 100.424 356.089C100.632 357.08 100.136 357.746 99.6055 358.25C97.3188 360.429 85.6694 358.736 72.6428 351.093C45.1948 334.997 46.7428 315.498 48.7055 307.818ZM95.6268 364.784C95.6388 364.885 96.0841 368.586 96.4481 374.282C88.5801 372.297 79.0321 367.93 71.2268 359.913C73.8535 359.53 76.0695 357.138 77.0068 355.972C77.0068 355.972 77.0081 355.972 77.0095 355.973C87.7495 361.166 97.9308 362.958 101.163 359.88C102.189 358.898 102.711 357.764 102.72 356.557C106.384 357.197 109.904 357.286 112.623 356.413C115.341 355.541 117.033 353.713 117.511 351.148C118.015 348.401 117.151 345.836 115.44 343.558C116.781 343.36 117.997 343.036 119.032 342.577C121.535 341.461 122.912 339.588 123.012 337.166C123.111 333.908 121.049 331 117.935 328.668C121.021 327.578 123.209 325.788 123.651 323.158C123.696 322.88 123.732 322.582 123.732 322.268C123.732 320.62 122.976 318.441 120.059 316.164C118.915 315.273 117.501 314.436 115.953 313.68C116.529 313.464 117.088 313.22 117.592 312.968C120.959 311.257 121.743 309.142 121.805 307.657C121.859 306.28 121.309 304.253 118.384 302.498C117.304 301.85 115.999 301.301 114.559 300.842C114.945 300.509 115.197 300.149 115.296 299.78C115.593 298.628 115.423 297.529 114.775 296.521C113.505 294.54 109.967 291.65 94.5455 288.409C94.7455 287.572 94.9695 286.353 94.9695 285.084C94.9695 283.769 94.7281 282.406 93.9668 281.376C93.4081 280.618 92.3228 279.721 90.3228 279.748C88.9948 279.766 87.8508 280.274 87.0121 281.216C85.6148 282.788 85.3388 285.216 85.3201 286.753C85.3188 286.753 85.3188 286.753 85.3188 286.753C82.9188 286.448 80.5815 286.321 78.3081 286.357C82.1988 277.826 91.1428 271.878 101.912 270.404C104.457 276.37 105.907 280.448 105.944 280.552C106.149 281.138 106.792 281.446 107.379 281.24C107.841 281.077 108.131 280.642 108.131 280.178C108.131 280.054 108.109 279.928 108.067 279.805C108.031 279.702 106.667 275.86 104.253 270.16C105.469 270.069 106.697 270.014 107.948 270.038C109.928 270.078 111.787 270.24 113.549 270.49C114.392 273.285 114.843 274.988 114.86 275.056C115.017 275.657 115.632 276.017 116.233 275.86C116.74 275.728 117.075 275.272 117.075 274.772C117.075 274.678 117.063 274.582 117.039 274.488C117.023 274.428 116.675 273.112 116.023 270.91C131.093 274.005 137.752 284.572 141.116 291.436L123.755 296.698C123.261 296.848 122.925 297.314 122.956 297.826C123.592 312.093 125.892 322.293 129.793 328.146C131.431 330.6 133.044 331.805 134.251 332.397C128.363 340.866 137.623 362.324 139.772 367.022C137.963 368.188 135.969 369.321 133.789 370.365C132.733 368.914 131.028 367.965 129.1 367.965C125.901 367.965 123.299 370.569 123.299 373.768C123.299 373.878 123.308 373.985 123.315 374.093C119.085 375.126 114.639 375.676 110.027 375.738C109.127 369.478 108.284 365.384 108.261 365.276C108.133 364.668 107.537 364.277 106.929 364.405C106.321 364.532 105.935 365.128 106.059 365.737C106.08 365.841 106.883 369.741 107.753 375.728C106.509 375.702 105.259 375.653 103.993 375.558C102.409 375.438 100.636 375.19 98.7361 374.804C98.3601 368.645 97.8735 364.613 97.8601 364.508C97.7841 363.89 97.2215 363.452 96.6055 363.529C95.9881 363.605 95.5441 364.176 95.6268 364.784ZM98.3855 405.318C98.9588 399.657 99.1668 393.921 99.1668 388.609C99.1668 384.437 99.0401 380.528 98.8655 377.121C100.649 377.464 102.319 377.688 103.825 377.801C105.253 377.909 106.665 377.961 108.069 377.984C109.073 385.396 110.051 395.281 109.932 405.093C106.02 405.432 102.168 405.516 98.3855 405.318ZM159.197 374.25C166.563 370.168 170.517 369.785 170.76 370.205C170.761 370.214 170.761 370.225 170.761 370.237C170.761 371.06 167.463 374.162 160.668 377.618C160.135 377.89 159.907 378.532 160.149 379.078C160.393 379.625 161.021 379.886 161.581 379.672C166.996 377.597 172.504 376.325 173.687 376.808C173.037 377.873 168.841 380.185 164.335 381.93C163.783 382.145 163.489 382.748 163.667 383.316C163.844 383.882 164.429 384.213 165.005 384.074C169.252 383.048 173.708 382.666 174.593 383.169C173.779 384.23 168.601 385.964 164.781 387.242C162.784 387.912 160.717 388.602 158.691 389.348C157.365 389.834 155.497 390.725 153.132 391.853C151.099 392.824 148.587 394.018 145.784 395.258C144.996 394.336 143.925 393.666 142.708 393.377C143.24 392.501 143.552 391.477 143.552 390.38C143.552 387.476 141.404 385.069 138.613 384.649C139.009 383.865 139.237 382.984 139.237 382.046C139.237 379.144 137.092 376.738 134.305 376.317C134.684 375.546 134.903 374.684 134.903 373.768C134.903 373.298 134.84 372.845 134.735 372.408C143.875 368.038 149.793 362.148 152.999 358.95C153.725 358.228 154.469 357.485 154.941 357.088C155.256 358.642 153.547 364.058 151.008 369.384C150.789 369.842 150.905 370.389 151.288 370.72C151.672 371.05 152.229 371.085 152.649 370.804C159.528 366.201 166.749 362.81 167.799 363.684C167.808 363.696 167.825 363.718 167.808 363.821C167.512 365.692 161.928 369.912 158.059 372.31C157.54 372.632 157.372 373.308 157.68 373.837C157.989 374.364 158.663 374.546 159.197 374.25ZM171.239 284.657C171.768 290.264 174.284 310.498 183.317 315.753L136.149 330.693C134.964 330.442 126.7 327.641 125.247 298.598L142.088 293.493C142.229 293.802 142.365 294.104 142.493 294.385C143.683 297.013 144.225 298.213 145.439 298.154C146.092 298.122 146.66 297.814 147.08 297.265C148.531 295.369 147.989 290.001 147.336 286.054C156.208 294.93 159.576 294.882 160.819 293.957C161.381 293.54 161.705 292.925 161.76 292.184C161.859 290.936 161.059 289.257 159.928 287.53C161.04 288.118 161.948 288.445 162.695 288.597C162.703 288.632 162.695 288.665 162.704 288.698L170.747 315.146C170.927 315.741 171.556 316.076 172.151 315.896C172.636 315.748 172.948 315.301 172.948 314.818C172.948 314.71 172.932 314.601 172.9 314.492L164.967 288.401C165.184 288.284 165.36 288.141 165.5 287.99C165.799 287.666 166.157 287.113 166.093 286.221C166.093 286.22 166.092 286.218 166.092 286.217L171.239 284.657ZM150.859 259.896C153.063 262.201 154.804 264.022 156.431 265.092C158.236 266.277 160.091 267.42 161.883 268.524C165.285 270.62 169.884 273.452 170.501 274.689C169.376 274.956 165.211 273.586 161.383 271.662C160.855 271.396 160.209 271.585 159.908 272.096C159.607 272.608 159.755 273.262 160.244 273.597C164.212 276.302 167.753 279.485 168.181 280.688C166.808 280.85 161.796 278.382 157.051 275.17C156.555 274.834 155.884 274.946 155.523 275.424C155.161 275.904 155.237 276.578 155.695 276.962C160.34 280.874 164.215 285.428 163.851 286.46C163.279 287.074 158.68 284.596 153.497 279.909C153.044 279.5 152.347 279.526 151.927 279.969C151.505 280.412 151.515 281.11 151.948 281.54C155.172 284.756 159.636 290.128 159.515 292.022C159.507 292.128 159.487 292.144 159.479 292.149C158.375 292.705 152.521 288.388 146.339 281.781C145.992 281.41 145.441 281.317 144.992 281.553C144.544 281.789 144.309 282.297 144.417 282.79C145.659 288.456 146.099 294.025 145.539 295.561C145.259 295.034 144.885 294.212 144.544 293.457C141.488 286.708 134.751 271.854 115.287 268.478C113.151 261.568 109.123 249.733 103.552 238.525C130.431 238.541 143.127 251.804 150.859 259.896ZM99.2468 238.622C99.8588 238.592 100.452 238.578 101.051 238.56C106.536 249.377 110.572 260.968 112.817 268.117C111.281 267.937 109.679 267.822 107.992 267.788C106.407 267.757 104.849 267.836 103.316 267.978C99.8441 260.001 94.6495 249.266 88.3348 239.893C91.7481 239.261 95.3761 238.814 99.2468 238.622ZM49.8521 260.825C55.7881 255.672 68.4414 258.273 68.5681 258.3C69.1761 258.428 69.7735 258.041 69.9028 257.433C69.9188 257.354 69.9268 257.276 69.9268 257.198C69.9268 256.677 69.5655 256.21 69.0361 256.098C68.6161 256.009 61.1841 254.48 54.6055 256.098C61.2014 250.205 71.4201 243.533 85.9361 240.368C92.2401 249.549 97.4615 260.224 100.988 268.268C89.3108 270.057 79.7015 276.848 75.8215 286.464C75.8161 286.465 75.8095 286.465 75.8028 286.465C69.8615 286.888 64.4508 288.5 59.7961 291.272C58.6801 290.642 56.0161 289.265 52.7121 288.572C52.7095 288.57 52.7081 288.57 52.7055 288.57C52.5148 281.62 49.3081 272.534 45.4241 266.488C46.0735 265.488 47.5175 263.418 49.8521 260.825ZM84.0388 237.697C84.2068 237.924 84.3721 238.156 84.5375 238.385C84.3695 238.424 84.2068 238.466 84.0388 238.506V237.697ZM187.625 72.9317C187.076 73.0103 186.472 72.7077 185.829 72.0317C184.029 70.1383 186.759 65.7757 189.027 62.9143C189.099 64.5717 189.216 66.3023 189.387 68.1143C189.483 69.1357 189.6 70.1397 189.732 71.1303C189.345 71.749 188.519 72.805 187.625 72.9317ZM207.688 93.201C205.655 89.1383 204.553 85.1717 204.553 83.3983C204.553 83.125 204.579 82.9037 204.632 82.7424C205.492 83.3264 207.088 87.3837 207.688 93.201ZM223.679 96.2757C221.632 94.065 219.784 91.4223 218.476 88.9557C217.005 86.1783 216.652 84.4743 216.652 83.665C216.652 83.3263 216.713 83.145 216.783 83.1077C216.927 83.029 217.267 83.1437 217.651 83.3957C220.035 84.969 223.337 91.061 223.679 96.2757ZM236.911 92.3263C233.236 89.3557 230.28 84.993 230.24 82.6597C230.239 82.645 230.239 82.6304 230.239 82.617C230.239 81.9997 230.477 81.865 230.581 81.809C230.693 81.7463 231.032 81.557 231.759 82.001C233.865 83.2877 236.253 87.853 236.911 92.3263ZM246.908 84.0797C246.861 84.065 246.815 84.049 246.768 84.033C242.915 82.725 239.241 78.5757 238.937 76.0957C238.924 75.989 238.919 75.893 238.919 75.8037C238.919 75.1663 239.225 74.969 239.365 74.8797C240.141 74.3797 242.112 75.5703 244.237 78.757C245.264 80.297 246.211 82.161 246.908 84.0797ZM269.993 137.853C271.197 135.292 272.304 132.452 273.277 129.3C279.899 133.29 287.116 139.325 291.568 143.261C290.165 146.1 288.717 148.777 287.275 151.28C283.133 147.596 276.472 141.982 269.993 137.853ZM277.557 166.405C275.945 168.746 274.671 170.596 273.935 171.905C272.875 173.789 271.861 175.718 270.883 177.585C269.025 181.121 266.516 185.9 265.325 186.601C264.987 185.493 266.063 181.248 267.72 177.296C267.951 176.749 267.716 176.117 267.185 175.854C266.656 175.589 266.011 175.781 265.712 176.292C263.284 180.436 260.352 184.188 259.181 184.696C258.924 183.348 261.043 178.169 263.921 173.214C264.221 172.697 264.064 172.034 263.564 171.706C263.063 171.378 262.393 171.501 262.04 171.985C258.457 176.888 254.2 181.072 253.125 180.772C252.476 180.254 254.631 175.488 258.951 169.994C259.328 169.513 259.253 168.818 258.784 168.432C258.313 168.042 257.617 168.098 257.217 168.561C254.231 171.997 249.173 176.834 247.279 176.829C247.172 176.829 247.155 176.809 247.149 176.801C246.808 176.233 247.705 174.373 249.361 171.921C249.573 171.77 249.724 171.556 249.792 171.297C251.52 168.822 253.925 165.845 256.592 162.981C256.939 162.609 256.992 162.054 256.727 161.624C256.46 161.193 255.939 160.992 255.453 161.134C249.539 162.864 243.668 163.684 242.541 163.025C243.016 162.648 244.32 162.068 245.488 161.546C250.776 159.188 261.432 154.426 268.989 139.886C275.399 144.014 282.087 149.686 286.108 153.27C282.94 158.585 279.885 163.026 277.557 166.405ZM250.048 178.505V178.11C250.617 177.777 251.204 177.376 251.795 176.928C251.551 177.472 251.351 177.998 251.192 178.505H250.048ZM260.363 186.641V186.569C261.283 186.029 262.289 185.029 263.261 183.858C263.079 184.886 263.015 185.838 263.113 186.641H260.363ZM260.363 193.746V188.892H264.768C264.789 188.892 264.808 188.881 264.829 188.88C265.133 188.937 265.449 188.93 265.769 188.84C267.407 188.374 268.953 185.968 271.352 181.504V193.746H260.363ZM206.137 184.186V186.641H204.752C204.767 185.432 204.377 183.894 203.76 182.246C204.559 183.004 205.367 183.68 206.137 184.186ZM214.481 181.178C215.009 181.177 215.479 181.028 215.872 180.754H216.853V186.641H208.388V185.096C209.171 185.154 209.72 184.882 210.043 184.621C211.377 183.545 211.036 181.418 209.96 179.028C211.607 180.277 213.233 181.184 214.481 181.178ZM227.168 178.505H219.104V172.145H227.168V178.505ZM229.419 172.145H237.483V178.505H229.419V172.145ZM237.483 186.641H229.419V180.756H237.483V186.641ZM247.797 193.746H239.733V188.892H247.797V193.746ZM250.048 188.892H258.112V193.746H250.048V188.892ZM216.853 193.746H208.388V188.892H216.853V193.746ZM229.419 188.892H237.483V193.746H229.419V188.892ZM219.104 180.754H227.168V186.64H219.104V180.754ZM227.168 193.746H219.104V188.892H227.168V193.746ZM247.797 186.641H239.733V180.756H247.797V186.641ZM216.853 172.145V178.505H216.828C216.713 176.804 215.523 174.524 213.892 172.145H216.853ZM216.853 167.532V169.894H212.247C211.313 168.684 210.323 167.486 209.349 166.366C211.68 166.92 214.52 167.464 216.853 167.532ZM197.559 190.745C198.767 190.033 198.88 188.154 198.493 185.957C199.845 187.584 201.263 188.897 202.421 189.076C202.849 189.141 203.26 189.07 203.62 188.892H206.137V193.746H195.845V190.886C195.892 190.902 195.937 190.925 195.984 190.938C196.536 191.094 197.08 191.029 197.559 190.745ZM253.516 182.993C254.804 182.825 256.419 181.641 257.995 180.146C256.949 182.94 256.521 185.44 257.695 186.502C257.755 186.556 257.823 186.596 257.887 186.641H250.048V180.754H250.864C250.919 181.478 251.173 182.089 251.712 182.522C252.055 182.801 252.647 183.108 253.516 182.993ZM245.437 178.262C245.516 178.354 245.607 178.428 245.695 178.505H239.733V172.145H246.532C245.043 174.733 244.365 177.009 245.437 178.262ZM252.404 164.269C250.868 166.036 249.287 167.993 247.969 169.894H219.104V167.405C219.687 167.3 220.183 167.132 220.559 166.882C221.136 166.501 221.481 165.956 221.557 165.305C221.565 165.242 221.569 165.181 221.569 165.12C221.569 164.558 221.249 164.045 220.549 163.401H240.241C240.36 163.964 240.681 164.442 241.2 164.785C243.195 166.1 248.512 165.192 252.404 164.269ZM244.571 159.49C243.185 160.108 242.076 160.608 241.316 161.15H217.604C217.407 161.009 217.223 160.878 217.009 160.726C212.825 157.75 206.177 153.021 200.264 146.065H262.489C256.147 154.32 248.937 157.544 244.571 159.49ZM174.615 153.258C173.188 150.744 171.753 148.054 170.364 145.204C174.877 141.221 182.101 135.205 188.695 131.268C189.808 134.188 191.151 136.893 192.645 139.4C185.965 143.525 178.956 149.404 174.615 153.258ZM193.836 141.31C200.76 151.926 210.253 158.684 215.705 162.561C217.093 163.549 218.52 164.562 219.119 165.13C217.723 165.73 212.032 164.908 206.3 163.232C205.815 163.09 205.293 163.29 205.028 163.721C204.761 164.154 204.816 164.708 205.161 165.08C210.804 171.134 215.301 177.725 214.608 178.897C214.599 178.908 214.581 178.928 214.475 178.928C212.581 178.934 207.523 174.097 204.537 170.658C204.137 170.197 203.441 170.14 202.971 170.53C202.501 170.917 202.427 171.61 202.803 172.093C207.123 177.584 209.28 182.342 208.643 182.862C207.552 183.17 203.296 178.986 199.713 174.084C199.36 173.6 198.691 173.477 198.189 173.805C197.688 174.133 197.531 174.796 197.832 175.312C200.745 180.326 202.885 185.564 202.593 186.804C201.439 186.332 198.485 182.56 196.044 178.39C195.744 177.88 195.099 177.688 194.569 177.952C194.039 178.217 193.805 178.846 194.035 179.394C195.725 183.424 196.817 187.762 196.459 188.716C195.28 188.081 192.743 183.246 190.869 179.678C189.891 177.813 188.879 175.885 187.82 174.004C187.1 172.724 185.883 170.928 184.343 168.654C182.016 165.221 178.951 160.69 175.768 155.26C180.031 151.468 187.177 145.434 193.836 141.31ZM187.825 199.788V178.733C188.179 179.4 188.532 180.068 188.877 180.724C190.893 184.565 192.356 187.294 193.635 188.976C193.623 189.044 193.595 189.106 193.595 189.177V194.872C193.595 195.493 194.097 195.997 194.72 195.997H272.477C273.099 195.997 273.603 195.493 273.603 194.872V177.252C274.349 175.836 275.109 174.409 275.897 173.009C276.475 171.981 277.453 170.53 278.691 168.729V199.788H187.825ZM286.952 223.034H179.78L187.487 202.038H278.732L286.952 223.034ZM264.883 124.31C264.716 124.9 265.055 125.529 265.653 125.702C267.372 126.197 269.281 127.054 271.281 128.146C270.336 131.306 269.261 134.141 268.089 136.685C265.321 135.044 262.637 133.738 260.257 133.052C259.661 132.88 259.037 133.224 258.865 133.822C258.691 134.416 259.037 135.042 259.635 135.214C261.873 135.86 264.439 137.122 267.104 138.718C266.152 140.578 265.152 142.276 264.115 143.814H198.44C197.539 142.644 196.664 141.416 195.828 140.132C198.068 138.862 200.212 137.862 202.119 137.313C202.612 137.17 202.933 136.721 202.933 136.233C202.933 136.129 202.919 136.024 202.889 135.921C202.717 135.322 202.093 134.978 201.497 135.15C199.397 135.756 197.06 136.844 194.639 138.217C193.159 135.72 191.835 133.02 190.748 130.1C192.647 129.078 194.461 128.273 196.1 127.801C196.593 127.658 196.915 127.209 196.915 126.72C196.915 126.617 196.9 126.512 196.871 126.408C196.699 125.81 196.075 125.466 195.479 125.638C193.781 126.126 191.929 126.934 190.005 127.948C186.516 117.044 186.361 103.278 193.315 86.0943C196.508 95.065 200.856 101.281 204.06 103.549C205.333 104.45 206.481 104.782 207.472 104.534C208.785 104.206 209.521 102.746 209.877 100.764C210.688 101.756 211.529 102.642 212.387 103.374C216.116 106.561 219.185 106.261 221.103 105.448C223.184 104.565 224.635 103.005 225.379 100.872C228.6 103.324 232.061 104.497 235.075 102.933C237.399 101.728 238.815 99.513 239.217 96.485C242.365 98.0103 245.177 98.0183 247.367 96.5063C250.339 94.4517 250.796 90.5997 249.975 86.613C251.459 86.409 252.789 85.7423 253.884 84.6303C255.547 82.9383 256.497 78.9397 256.569 73.6183C258.803 75.2677 263.021 78.8157 266.753 84.401C273.901 95.1023 275.951 107.793 272.839 122.117C272.551 123.441 272.236 124.702 271.908 125.932C269.925 124.878 268.019 124.042 266.276 123.54C265.679 123.368 265.055 123.712 264.883 124.31ZM256.027 65.1224C255.709 62.7517 255.208 59.9784 254.412 56.973C257.296 57.7597 259.364 59.8757 260.212 61.861C260.731 63.077 260.763 64.1997 260.3 64.793C259.123 66.2983 256.829 65.4744 256.027 65.1224ZM248.788 47.961C255.731 62.8384 255.193 80.0877 252.279 83.053C251.471 83.873 250.509 84.3304 249.404 84.421C248.619 81.913 247.417 79.4703 246.109 77.509C243.293 73.2823 240.316 71.5917 238.148 72.985C237.037 73.6997 236.524 74.897 236.704 76.3704C237.147 79.9864 241.599 84.6543 246.044 86.165C246.592 86.3517 247.131 86.4864 247.659 86.5704C248.459 89.965 248.248 93.1597 246.087 94.6543C244.143 95.9983 241.661 95.2157 239.921 94.321C239.721 94.2183 239.521 94.1104 239.321 93.9957C239.103 88.569 236.18 82.0637 232.932 80.0797C231.739 79.3517 230.515 79.2677 229.484 79.8423C228.497 80.3943 227.932 81.389 227.989 82.6997C228.051 86.253 232.376 92.0543 237.071 95.2357C236.937 98.0423 235.917 99.9597 234.037 100.936C231.708 102.146 228.732 100.845 225.899 98.4223C225.901 98.4037 225.903 98.385 225.904 98.365C226.456 92.2837 222.445 83.8637 218.889 81.517C217.439 80.5597 216.36 80.777 215.712 81.1277C213.743 82.193 214.019 85.3463 216.488 90.0077C218.168 93.1797 220.675 96.6343 223.493 99.273C223.059 101.261 221.961 102.638 220.224 103.377C216.977 104.753 213.747 101.945 211.608 99.3464C211.097 98.7264 210.612 98.0757 210.152 97.405C210.152 97.3263 210.153 97.2477 210.153 97.1677C210.153 93.7343 209.575 89.8997 209.013 87.517C207.801 82.385 206.132 80.0183 204.048 80.4797C203.592 80.5823 202.78 80.9397 202.465 82.1983C201.716 85.2103 204.232 92.4103 207.892 98.0277C207.792 101.004 207.203 102.24 206.927 102.35C206.7 102.408 206.153 102.274 205.36 101.712C200.8 98.4837 193.283 85.5077 191.627 67.9037C188.239 31.9224 205.175 29.105 214.272 27.5903C214.797 27.5037 215.291 27.421 215.747 27.3383C234.42 25.8797 244.021 37.7437 248.788 47.961ZM176.599 46.4597C174.036 53.1357 174.36 59.9997 174.383 60.3823C174.416 61.0023 174.945 61.477 175.565 61.445C176.187 61.4103 176.673 60.8997 176.629 60.261C176.623 60.1463 176.103 48.8397 181.788 41.7637C187.169 37.5943 192.329 35.5037 195.616 34.4983C191.705 39.421 188.893 47.1637 188.947 59.5397C187.381 61.2197 180.2 69.3744 184.197 73.5824C185.664 75.1237 187.049 75.2903 187.953 75.1583C188.835 75.0303 189.583 74.589 190.183 74.0677C190.721 77.1797 191.424 80.109 192.243 82.8277C183.892 102.034 184.004 117.228 187.928 129.105C181.243 133.02 174.025 138.972 169.351 143.08C164.048 131.698 159.64 117.97 159.341 102.832C158.855 78.2183 164.813 58.8077 176.599 46.4597ZM206.119 2.04635C186.868 5.89968 174.6 13.6517 174.087 13.9797C173.764 14.1863 173.568 14.545 173.568 14.9277V26.013C173.568 26.1464 173.6 26.2743 173.644 26.3957C173.649 26.4103 173.647 26.425 173.652 26.4397L179.504 40.701C178.801 41.273 178.097 41.8783 177.392 42.521C167.187 51.8477 161.857 64.5037 159.259 77.1517C159.063 76.9864 158.819 76.8757 158.543 76.8757H82.9135C82.2921 76.8757 81.7881 77.3797 81.7881 78.001V239.068C64.8961 243.629 54.1308 252.78 48.3468 259.152C48.3295 259.166 48.3108 259.18 48.2935 259.196C48.2668 259.218 48.2561 259.25 48.2335 259.276C46.2548 261.466 44.8775 263.306 44.0428 264.514C42.6455 262.677 41.1988 261.276 39.8028 260.544C37.9188 259.557 36.5615 260.005 35.7535 260.554C34.7041 261.269 34.0628 262.497 33.7348 264.03C32.1335 262.397 30.4828 261.149 28.9121 260.57C26.9708 259.857 25.2188 260.161 23.8468 261.449C21.2708 263.87 21.3295 268.084 21.9895 271.594C20.4575 270.834 18.9681 270.32 17.6241 270.156C15.1215 269.85 13.1761 270.681 11.9948 272.556C10.4815 274.96 10.6121 278.141 12.3615 281.79C10.5655 281.5 8.8508 281.505 7.3508 281.926C5.33213 282.493 2.83614 284.084 2.41214 288.444C2.0228 292.472 3.39879 295.586 5.62012 297.941C2.41746 298.992 0.458801 301.021 0.0641343 303.894C-0.299866 306.534 0.890794 308.944 3.50279 310.854C4.55746 311.625 5.8028 312.292 7.16146 312.854C5.98946 314.244 5.46681 315.916 5.64814 317.785C5.83481 319.753 6.7588 321.257 8.39214 322.258C10.3135 323.434 13.2308 323.857 17.1001 323.536C17.1695 327.365 17.9415 341.372 24.8148 357.198C32.0615 373.884 47.7641 395.616 81.4041 404.838V423.18C81.4041 423.801 81.9081 424.305 82.5295 424.305H370.473C371.096 424.305 371.599 423.801 371.599 423.18V390.829C372.967 391.186 374.361 391.509 375.78 391.802C376.583 396.913 377.372 400.149 377.393 400.23C377.543 400.834 378.153 401.201 378.756 401.052C379.268 400.924 379.609 400.465 379.609 399.96C379.609 399.87 379.6 399.78 379.576 399.688C379.559 399.612 378.868 396.784 378.129 392.256C378.949 392.401 379.773 392.54 380.611 392.661C383.925 393.14 387.109 393.461 390.191 393.666C391.32 397.881 392.185 400.562 392.211 400.641C392.403 401.232 393.037 401.554 393.629 401.361C394.104 401.206 394.405 400.765 394.405 400.292C394.405 400.177 394.388 400.058 394.351 399.942C394.327 399.87 393.573 397.532 392.561 393.806C423.668 395.228 442.748 383.105 454.053 370.572L468.353 379.793C468.355 379.794 468.357 379.794 468.359 379.796C468.469 379.866 468.593 379.91 468.723 379.938C468.756 379.946 468.787 379.952 468.82 379.956C468.852 379.96 468.883 379.97 468.915 379.972L479.991 380.446C480.403 380.464 480.792 380.256 481.004 379.901C494.512 357.365 498.371 335.33 498.371 317.51C498.371 311.198 497.887 305.413 497.175 300.325C494.229 279.242 486.837 265.149 486.763 265.009C486.576 264.657 486.216 264.43 485.819 264.413L474.744 263.937C474.739 263.937 474.735 263.94 474.729 263.938C474.715 263.938 474.701 263.942 474.687 263.942C474.564 263.944 474.447 263.968 474.335 264.006C474.316 264.012 474.297 264.009 474.28 264.016L459.279 269.964C458.981 269.441 458.667 268.91 458.333 268.388C458.333 268.38 458.324 268.37 458.324 268.37C458.315 268.354 458.305 268.338 458.296 268.324C458.237 268.114 458.141 267.916 457.964 267.764C457.959 267.76 457.952 267.756 457.947 267.75V267.749C457.937 267.749 457.937 267.74 457.928 267.73C448.467 252.778 432.803 239.248 406.903 236.141H406.901C407.807 233.5 408.423 231.896 408.445 231.836C408.497 231.702 408.523 231.564 408.523 231.429C408.523 230.978 408.249 230.552 407.804 230.38C407.224 230.154 406.572 230.442 406.348 231.022C406.323 231.086 405.623 232.908 404.611 235.889C404.609 235.889 404.608 235.889 404.607 235.889C400.44 235.521 396.4 235.484 392.495 235.728C393.167 232.966 393.663 231.334 393.68 231.277C393.715 231.166 393.731 231.056 393.731 230.946C393.731 230.465 393.42 230.02 392.937 229.87C392.343 229.688 391.713 230.021 391.531 230.614C391.511 230.677 390.915 232.641 390.137 235.906C390.136 235.906 390.133 235.908 390.131 235.908C383.695 236.484 377.644 237.789 372.063 239.5C372.061 239.5 372.061 239.5 372.06 239.5V79.9597C372.06 79.3383 371.556 78.8344 370.935 78.8344H302.475C299.511 65.2664 293.543 54.225 284.595 45.8903C281.365 42.881 277.917 40.4024 274.403 38.353L280.281 27.397C280.305 27.353 280.317 27.305 280.335 27.2583C280.348 27.221 280.367 27.1863 280.377 27.149C280.401 27.0557 280.415 26.961 280.415 26.8663V15.781C280.415 15.3823 280.204 15.0144 279.861 14.8117C251.108 -2.18031 223.889 -1.50832 206.119 2.04635Z" fill="#303F23"/>
<path d="M189.887 205.302L184.664 218.42C184.527 218.764 184.57 219.157 184.779 219.466C184.988 219.776 185.338 219.96 185.71 219.96H280.714C281.079 219.96 281.422 219.782 281.632 219.485C281.768 219.292 281.839 219.065 281.839 218.834C281.839 218.709 281.818 218.582 281.775 218.461L277.143 205.344C276.984 204.893 276.56 204.593 276.083 204.593H190.932C190.471 204.593 190.058 204.874 189.887 205.302Z" fill="#303F23"/>
<path d="M285.517 141.624C284.125 141.624 282.993 142.756 282.993 144.148C282.993 145.54 284.125 146.671 285.517 146.671C286.909 146.671 288.04 145.54 288.04 144.148C288.04 142.756 286.909 141.624 285.517 141.624Z" fill="#303F23"/>
<path d="M174.026 145.437C174.026 146.829 175.158 147.961 176.55 147.961C177.942 147.961 179.073 146.829 179.073 145.437C179.073 144.045 177.942 142.915 176.55 142.915C175.158 142.915 174.026 144.045 174.026 145.437Z" fill="#303F23"/>
<path d="M100.565 244.913C100.565 243.521 99.4333 242.39 98.0413 242.39C96.6493 242.39 95.5187 243.521 95.5187 244.913C95.5187 246.305 96.6493 247.437 98.0413 247.437C99.4333 247.437 100.565 246.305 100.565 244.913Z" fill="#303F23"/>
<path d="M106.993 399.436C106.993 398.044 105.861 396.913 104.469 396.913C103.077 396.913 101.946 398.044 101.946 399.436C101.946 400.828 103.077 401.96 104.469 401.96C105.861 401.96 106.993 400.828 106.993 399.436Z" fill="#303F23"/>
<path d="M146.298 233.395C136.441 233.395 128.42 225.375 128.42 215.517C128.42 205.659 136.441 197.639 146.298 197.639C156.156 197.639 164.177 205.659 164.177 215.517C164.177 225.375 156.156 233.395 146.298 233.395ZM146.298 195.389C135.2 195.389 126.169 204.418 126.169 215.517C126.169 226.617 135.2 235.646 146.298 235.646C157.397 235.646 166.428 226.617 166.428 215.517C166.428 204.418 157.397 195.389 146.298 195.389Z" fill="#303F23"/>
<path d="M146.298 201.075C138.336 201.075 131.856 207.553 131.856 215.517C131.856 223.48 138.336 229.959 146.298 229.959C154.261 229.959 160.74 223.48 160.74 215.517C160.74 207.553 154.261 201.075 146.298 201.075Z" fill="#303F23"/>
<path d="M279.012 383.879C279.012 393.736 270.992 401.758 261.133 401.758C251.276 401.758 243.256 393.736 243.256 383.879C243.256 374.022 251.276 366 261.133 366C270.992 366 279.012 374.022 279.012 383.879ZM241.005 383.879C241.005 394.978 250.034 404.008 261.133 404.008C272.233 404.008 281.262 394.978 281.262 383.879C281.262 372.78 272.233 363.75 261.133 363.75C250.034 363.75 241.005 372.78 241.005 383.879Z" fill="#303F23"/>
<path d="M246.692 383.879C246.692 391.842 253.171 398.322 261.133 398.322C269.097 398.322 275.576 391.842 275.576 383.879C275.576 375.916 269.097 369.438 261.133 369.438C253.171 369.438 246.692 375.916 246.692 383.879Z" fill="#303F23"/>
<path d="M347.911 213.173H304.195V182.382H347.911V213.173ZM301.945 181.256V214.298C301.945 214.92 302.449 215.424 303.07 215.424H349.037C349.658 215.424 350.162 214.92 350.162 214.298V181.256C350.162 180.634 349.658 180.13 349.037 180.13H303.07C302.449 180.13 301.945 180.634 301.945 181.256Z" fill="#303F23"/>
<path d="M316.332 100.113H346.674V147.762H316.332V100.113ZM315.207 150.013H347.8C348.422 150.013 348.926 149.509 348.926 148.888V98.9877C348.926 98.3663 348.422 97.8623 347.8 97.8623H315.207C314.586 97.8623 314.082 98.3663 314.082 98.9877V148.888C314.082 149.509 314.586 150.013 315.207 150.013Z" fill="#303F23"/>
<path d="M318.642 130.701V144.056C318.642 144.677 319.146 145.181 319.767 145.181H343.444C344.066 145.181 344.57 144.677 344.57 144.056V130.701C344.57 130.08 344.066 129.576 343.444 129.576H319.767C319.146 129.576 318.642 130.08 318.642 130.701Z" fill="#303F23"/>
<path d="M342.319 108.103C340.899 108.093 339.565 108.085 338.316 108.075C338.324 106.997 338.331 105.945 338.339 104.946H342.319V108.103ZM338.296 124.731C338.281 124.053 338.275 122.955 338.271 121.581C339.669 121.589 341.033 121.597 342.319 121.606V124.731H338.296ZM320.892 121.563C321.717 121.549 323.069 121.541 324.757 121.538C324.765 123.03 324.784 124.039 324.816 124.731H320.892V121.563ZM324.836 104.946C324.828 106.022 324.82 107.054 324.813 108.022C322.945 108.029 321.712 108.047 320.892 108.082V104.946H324.836ZM332.691 108.041C332.697 106.974 332.705 105.934 332.712 104.946H336.088C336.079 106.037 336.071 107.081 336.064 108.061C334.855 108.054 333.731 108.047 332.691 108.041ZM336.027 113.686C334.819 113.679 333.697 113.673 332.66 113.667C332.664 112.555 332.671 111.425 332.677 110.302C333.789 110.306 334.92 110.311 336.048 110.317C336.04 111.531 336.032 112.653 336.027 113.686ZM338.285 113.701C338.291 112.587 338.296 111.455 338.303 110.329C339.689 110.337 341.044 110.346 342.319 110.354V113.729C340.887 113.719 339.544 113.71 338.285 113.701ZM338.269 119.327C338.271 118.277 338.273 117.141 338.277 115.954C339.673 115.962 341.036 115.971 342.319 115.979V119.355C340.88 119.345 339.532 119.335 338.269 119.327ZM332.669 124.731C332.656 124.049 332.648 122.941 332.645 121.553C333.755 121.558 334.883 121.563 336.008 121.569C336.016 123.043 336.036 124.043 336.067 124.731H332.669ZM330.383 121.546C330.391 123.033 330.409 124.041 330.441 124.731H327.044C327.031 124.046 327.023 122.933 327.02 121.538C328.076 121.539 329.207 121.542 330.383 121.546ZM332.651 115.927C333.76 115.931 334.889 115.937 336.015 115.942C336.008 117.219 336.005 118.337 336.004 119.313C334.799 119.305 333.68 119.298 332.644 119.293C332.644 118.245 332.647 117.11 332.651 115.927ZM330.379 119.282C329.121 119.277 328.004 119.273 327.019 119.271C327.019 118.225 327.021 117.093 327.025 115.913C328.083 115.914 329.213 115.915 330.388 115.919C330.383 117.193 330.379 118.307 330.379 119.282ZM330.423 110.294C330.415 111.505 330.407 112.623 330.401 113.655C329.141 113.65 328.021 113.647 327.035 113.646C327.04 112.535 327.045 111.407 327.052 110.286C328.111 110.287 329.244 110.29 330.423 110.294ZM327.087 104.946H330.463C330.453 106.025 330.445 107.059 330.439 108.03C329.177 108.025 328.055 108.022 327.065 108.021C327.072 106.961 327.08 105.927 327.087 104.946ZM320.892 110.311C321.724 110.297 323.091 110.289 324.797 110.286C324.788 111.498 324.781 112.617 324.775 113.647C322.928 113.654 321.707 113.674 320.892 113.707V110.311ZM320.892 115.937C321.719 115.922 323.073 115.914 324.763 115.913C324.757 117.186 324.753 118.299 324.753 119.274C322.919 119.281 321.704 119.299 320.892 119.334V115.937ZM318.641 103.821V125.857C318.641 126.479 319.145 126.982 319.767 126.982H343.444C344.065 126.982 344.569 126.479 344.569 125.857V103.821C344.569 103.199 344.065 102.695 343.444 102.695H319.767C319.145 102.695 318.641 103.199 318.641 103.821Z" fill="#303F23"/>
<path d="M59.4796 306.499C60.5662 306.569 62.8542 307.459 65.1996 308.889C62.5369 308.287 60.2782 307.241 59.4796 306.499ZM73.1169 320.372C74.5462 318.441 74.6436 316.155 73.3956 313.756C72.9782 312.955 72.4196 312.165 71.7609 311.404C72.0102 311.357 72.2529 311.304 72.4876 311.243C75.0662 310.565 76.6582 308.996 77.0916 306.704C77.1956 306.152 77.2476 305.621 77.2476 305.115C77.2476 303.485 76.7076 302.099 75.6329 300.981C71.6222 296.809 61.3329 298.284 60.8969 298.349C60.2809 298.44 59.8622 299.013 59.9489 299.627C60.0409 300.241 60.6129 300.667 61.2276 300.575C63.8809 300.183 71.3502 299.772 74.0116 302.541C74.8982 303.465 75.1849 304.691 74.8796 306.285C74.5409 308.077 73.0222 309.099 70.3636 309.323C70.1409 309.341 69.9169 309.355 69.6902 309.363C66.1929 306.363 61.5582 304.203 59.1796 304.267C57.8316 304.301 57.3116 305.011 57.1222 305.429C56.9276 305.857 56.7302 306.723 57.5782 307.729C59.2382 309.697 64.3556 311.488 68.8316 311.605C69.4329 312.163 69.9876 312.753 70.4689 313.371C72.1809 315.565 72.4636 317.472 71.3076 319.032C70.5556 320.048 69.6596 320.548 68.5702 320.559C64.6822 320.599 59.2556 314.691 57.4929 312.411C57.1129 311.919 56.4062 311.828 55.9142 312.208C55.4222 312.588 55.3316 313.293 55.7116 313.785C55.9982 314.157 62.7902 322.868 68.5916 322.809C70.4102 322.791 71.9316 321.972 73.1169 320.372Z" fill="#303F23"/>
<path d="M125.616 140.34L131.122 141.5L127.33 146.172L125.616 140.34ZM141.102 97.6131L140.165 102.062L133.216 100.598L134.153 96.1491L141.102 97.6131ZM132.288 139.446L129.866 138.936L137.28 103.754L139.701 104.264L132.288 139.446ZM132.752 102.8L135.077 103.289L127.664 138.472L125.338 137.982L132.752 102.8ZM134.03 141.489C134.042 141.474 134.049 141.457 134.06 141.442C134.074 141.422 134.085 141.402 134.098 141.382C134.172 141.268 134.23 141.145 134.258 141.012L143.536 96.9758C143.553 96.8984 143.561 96.8211 143.561 96.7438C143.561 96.5278 143.498 96.3131 143.378 96.1291C143.216 95.8798 142.96 95.7038 142.668 95.6424L133.516 93.7144C132.908 93.5878 132.31 93.9758 132.182 94.5838L122.904 138.618C122.874 138.752 122.88 138.888 122.901 139.021C122.905 139.048 122.908 139.073 122.914 139.1C122.92 139.122 122.918 139.145 122.925 139.168L125.774 148.86C125.893 149.261 126.222 149.562 126.633 149.645C127.042 149.728 127.465 149.576 127.728 149.252L134.03 141.489Z" fill="#303F23"/>
<path d="M153.418 405.74L157.628 404.029L160.302 410.608L156.09 412.32L153.418 405.74ZM201.371 389.994L197.496 394.676L195.378 389.464L201.371 389.994ZM161.492 407.558L194.802 394.025L195.696 396.226L162.387 409.761L161.492 407.558ZM193.023 389.645L193.955 391.94L160.646 405.473L159.714 403.181L193.023 389.645ZM197.854 397.728C197.883 397.705 197.907 397.677 197.934 397.652C197.966 397.621 198.002 397.596 198.03 397.562L204.468 389.78C204.638 389.574 204.727 389.32 204.727 389.062C204.727 388.916 204.699 388.769 204.64 388.629C204.479 388.244 204.118 387.978 203.702 387.941L193.742 387.058C193.723 387.057 193.706 387.061 193.687 387.061C193.662 387.06 193.638 387.062 193.611 387.062C193.478 387.066 193.344 387.086 193.218 387.137L151.527 404.078C150.951 404.313 150.675 404.972 150.908 405.545L154.428 414.209C154.542 414.485 154.759 414.706 155.034 414.822C155.308 414.938 155.618 414.941 155.895 414.828L197.587 397.888C197.684 397.848 197.772 397.792 197.854 397.728Z" fill="#303F23"/>
<path d="M340.25 385.641L336.254 387.81L332.866 381.569L336.862 379.399L340.25 385.641ZM297.673 401.535L300.358 406.481L294.343 406.619L297.673 401.535ZM332.022 384.731L300.423 401.885L299.29 399.795L330.889 382.642L332.022 384.731ZM302.678 406.037L301.498 403.862L333.095 386.709L334.277 388.883L302.678 406.037ZM297.226 398.354C297.107 398.418 297.009 398.509 296.921 398.611C296.902 398.631 296.885 398.651 296.867 398.673C296.854 398.691 296.835 398.707 296.822 398.727L291.287 407.177C291.058 407.527 291.042 407.974 291.246 408.341C291.449 408.705 291.838 408.929 292.255 408.918L302.251 408.689C302.27 408.687 302.289 408.682 302.307 408.681C302.331 408.678 302.354 408.674 302.378 408.67C302.513 408.651 302.643 408.617 302.763 408.551L342.314 387.082C342.575 386.939 342.77 386.698 342.855 386.413C342.886 386.307 342.902 386.199 342.902 386.093C342.902 385.907 342.855 385.722 342.765 385.555L338.303 377.337C338.006 376.79 337.323 376.589 336.777 376.885L297.226 398.354Z" fill="#303F23"/>
<path d="M324.295 209.346V186.368C324.295 185.746 323.791 185.242 323.17 185.242C322.549 185.242 322.045 185.746 322.045 186.368V209.346C322.045 209.968 322.549 210.472 323.17 210.472C323.791 210.472 324.295 209.968 324.295 209.346Z" fill="#303F23"/>
<path d="M310.998 209.346V186.368C310.998 185.746 310.494 185.242 309.873 185.242C309.252 185.242 308.748 185.746 308.748 186.368V209.346C308.748 209.968 309.252 210.472 309.873 210.472C310.494 210.472 310.998 209.968 310.998 209.346Z" fill="#303F23"/>
<path d="M317.647 209.346V186.368C317.647 185.746 317.143 185.242 316.522 185.242C315.901 185.242 315.397 185.746 315.397 186.368V209.346C315.397 209.968 315.901 210.472 316.522 210.472C317.143 210.472 317.647 209.968 317.647 209.346Z" fill="#303F23"/>
<path d="M330.944 209.346V186.368C330.944 185.746 330.44 185.242 329.819 185.242C329.198 185.242 328.694 185.746 328.694 186.368V209.346C328.694 209.968 329.198 210.472 329.819 210.472C330.44 210.472 330.944 209.968 330.944 209.346Z" fill="#303F23"/>
<path d="M337.592 209.346V197.264C337.592 196.642 337.088 196.14 336.467 196.14C335.846 196.14 335.342 196.642 335.342 197.264V209.346C335.342 209.968 335.846 210.472 336.467 210.472C337.088 210.472 337.592 209.968 337.592 209.346Z" fill="#303F23"/>
<path d="M344.241 209.346V197.264C344.241 196.642 343.737 196.14 343.116 196.14C342.495 196.14 341.991 196.642 341.991 197.264V209.346C341.991 209.968 342.495 210.472 343.116 210.472C343.737 210.472 344.241 209.968 344.241 209.346Z" fill="#303F23"/>
<path d="M184.094 354.17C184.576 354.019 184.884 353.575 184.884 353.095C184.884 352.985 184.868 352.871 184.833 352.759L176.198 325.153C176.013 324.559 175.382 324.229 174.789 324.414C174.196 324.601 173.866 325.23 174.05 325.825L182.684 353.431C182.87 354.025 183.501 354.355 184.094 354.17Z" fill="#303F23"/>
<path d="M175.993 356.728C176.474 356.578 176.782 356.134 176.782 355.654C176.782 355.543 176.766 355.43 176.732 355.318L168.097 327.711C167.912 327.118 167.281 326.787 166.688 326.972C166.094 327.159 165.765 327.788 165.949 328.383L174.582 355.99C174.769 356.583 175.4 356.914 175.993 356.728Z" fill="#303F23"/>
<path d="M168.682 358.212C168.682 358.102 168.665 357.988 168.632 357.876L159.997 330.268C159.812 329.675 159.181 329.344 158.588 329.531C157.994 329.716 157.666 330.347 157.849 330.94L166.482 358.548C166.668 359.142 167.3 359.472 167.893 359.287C168.374 359.135 168.682 358.691 168.682 358.212Z" fill="#303F23"/>
<path d="M156.936 352.963C157.419 352.814 157.729 352.368 157.729 351.888C157.729 351.778 157.713 351.666 157.679 351.555L151.897 332.831C151.713 332.238 151.084 331.904 150.489 332.088C149.897 332.271 149.561 332.9 149.747 333.495L155.528 352.22C155.712 352.814 156.341 353.147 156.936 352.963Z" fill="#303F23"/>
<path d="M149.24 299.862C148.648 300.05 148.32 300.681 148.508 301.275L154.491 320.086C154.679 320.679 155.312 321.006 155.904 320.818C156.383 320.666 156.688 320.223 156.688 319.746C156.688 319.633 156.672 319.518 156.636 319.405L150.653 300.594C150.465 300.001 149.832 299.674 149.24 299.862Z" fill="#303F23"/>
<path d="M142.387 334.647C141.795 334.831 141.459 335.455 141.647 336.055L147.804 355.888C147.988 356.482 148.619 356.814 149.212 356.63C149.695 356.479 150.004 356.035 150.004 355.555C150.004 355.444 149.988 355.332 149.952 355.22L143.795 335.387C143.611 334.794 142.982 334.463 142.387 334.647Z" fill="#303F23"/>
<path d="M157.273 297.367C156.682 297.558 156.355 298.191 156.547 298.783L162.622 317.628C162.813 318.219 163.447 318.544 164.038 318.352C164.515 318.199 164.818 317.758 164.818 317.282C164.818 317.168 164.801 317.052 164.763 316.936L158.689 298.092C158.498 297.5 157.865 297.176 157.273 297.367Z" fill="#303F23"/>
<path d="M141.298 302.415C140.706 302.599 140.371 303.227 140.555 303.823L146.358 322.542C146.542 323.135 147.172 323.468 147.766 323.284C148.248 323.134 148.558 322.69 148.558 322.208C148.558 322.099 148.542 321.987 148.507 321.876L142.706 303.158C142.522 302.563 141.891 302.231 141.298 302.415Z" fill="#303F23"/>
<path d="M212.687 241.982C214.852 244.101 216.523 248.126 216.176 252.885C211.765 250.606 208.989 247.39 208.289 244.554C208.065 243.645 207.885 241.966 209.209 240.951C210.471 239.985 212.189 241.495 212.687 241.982ZM223.567 257.651C225.912 258.054 228.301 258.153 230.632 258.007C230.319 260.291 230.532 262.634 231.493 264.889C232.624 267.541 234.568 269.515 236.911 270.913C235.491 273.063 234.605 275.498 234.584 278.126V278.215C234.584 280.806 235.481 283.041 236.924 284.913C235.805 285.751 234.795 286.735 233.943 287.871C232.723 289.499 231.955 291.615 231.576 293.938C229.316 293.177 227.059 292.79 225.036 292.918C223.308 293.027 221.667 293.359 220.128 293.866C219.643 291.889 218.793 290.023 217.5 288.419C216.275 286.899 214.68 285.759 212.804 285.021C214.197 281.579 214.476 278.145 213.648 275.486C212.915 273.142 211.389 271.175 209.417 269.591C211.005 268.221 212.54 266.575 213.965 264.63C216.172 261.615 217.367 258.717 217.964 256.15C219.66 256.787 221.528 257.302 223.567 257.651ZM252.367 263.825C253.955 263.671 256.689 263.766 257.164 266.117C257.728 268.841 254.361 270.202 252.893 270.658C249.395 271.746 244.501 271.671 240.413 270.095C243.704 266.554 248.625 264.183 252.367 263.825ZM255.692 284.146C257.524 284.929 258.343 285.995 258.12 287.302C257.753 289.506 254.241 289.994 251.345 289.743C247.923 289.446 243.555 287.957 240.509 285.375C245.545 282.833 252.109 282.613 255.692 284.146ZM202.207 293.939C200.677 294.857 196.88 296.747 194.675 294.505C194.204 294.026 193.973 293.543 193.973 293.021C193.973 292.821 194.008 292.614 194.075 292.399C194.809 290.049 199.041 287.511 203.711 286.623C204.984 286.382 207.228 286.098 209.58 286.474C207.949 289.295 205.469 291.982 202.207 293.939ZM192.471 272.505C190.379 271.875 189.089 270.646 189.021 269.214C189.02 269.194 189.019 269.175 189.019 269.157C189.019 267.847 191.18 267.322 192.119 267.155C195.909 266.485 201.353 267.397 205.567 269.709C200.821 272.867 195.912 273.541 192.471 272.505ZM240.829 246.233C241.751 245.657 244.875 243.919 246.428 245.71C247.279 246.694 247.367 247.697 246.705 248.874C245.077 251.761 239.761 254.455 233.54 255.433C234.94 251.499 237.944 248.035 240.829 246.233ZM243.197 305.993C243.965 307.962 243.62 309.507 242.135 310.711C240.563 311.986 239.151 311.926 237.691 310.521C235.183 308.106 233.549 302.651 233.549 297.579C233.549 297.427 233.551 297.278 233.553 297.127C238.024 299.283 241.968 302.842 243.197 305.993ZM214.211 310.218C212.997 311.435 211.937 311.698 211.06 310.995C210.089 310.219 209.793 309.134 209.793 308.102C209.793 307.289 209.977 306.509 210.156 305.938C211.197 302.645 214.24 299.151 218.36 297.055C218.713 302.175 216.787 307.633 214.211 310.218ZM206.104 245.094C206.953 248.537 210.255 252.581 215.843 255.249C215.3 257.839 214.141 260.579 212.148 263.301C210.696 265.283 209.129 266.926 207.516 268.259C202.651 265.278 196.143 264.158 191.727 264.939C187.104 265.757 186.74 268.274 186.772 269.321C186.888 271.747 188.776 273.743 191.821 274.661C195.999 275.917 202.007 275.053 207.609 271.019C209.449 272.402 210.864 274.122 211.5 276.158C212.209 278.423 211.892 281.39 210.629 284.374C208.424 283.906 205.941 283.909 203.291 284.413C197.697 285.475 192.919 288.553 191.927 291.729C191.435 293.293 191.845 294.837 193.071 296.083C195.413 298.465 199.164 298.386 203.364 295.869C207.24 293.546 210.067 290.374 211.847 287.061C213.279 287.597 214.647 288.466 215.747 289.831C216.887 291.243 217.617 292.915 218.019 294.697C212.908 297.049 209.256 301.317 208.011 305.261C207.023 308.395 207.62 311.126 209.653 312.753C211.468 314.205 213.768 313.851 215.805 311.806C218.929 308.671 221.189 302.153 220.525 296.123C221.988 295.605 223.549 295.267 225.176 295.163C227.127 295.042 229.247 295.439 231.332 296.191C230.975 302.263 232.924 309.054 236.129 312.142C238.4 314.329 241.105 314.443 243.552 312.459C245.797 310.639 246.419 308.055 245.293 305.174C243.699 301.087 238.9 297.05 233.729 294.774C234.019 292.613 234.667 290.658 235.743 289.222C236.499 288.215 237.425 287.343 238.468 286.601C241.916 289.817 247.028 291.629 251.151 291.986C256.301 292.433 259.823 290.779 260.341 287.671C260.385 287.405 260.407 287.142 260.407 286.885C260.407 284.858 259.049 283.134 256.577 282.077C252.316 280.253 244.649 280.407 238.839 283.669C237.591 282.109 236.787 280.246 236.835 278.143C236.852 275.901 237.653 273.802 238.932 271.938C243.721 273.989 249.532 274.059 253.561 272.807C257.835 271.479 260.007 268.813 259.371 265.67C258.776 262.734 256.077 261.206 252.151 261.585C247.701 262.011 241.976 264.825 238.292 269.093C236.215 267.903 234.511 266.227 233.564 264.006C232.697 261.974 232.557 259.85 232.916 257.787C240.261 256.826 246.652 253.553 248.665 249.979C249.793 247.978 249.603 245.938 248.128 244.237C246.291 242.117 243.116 242.15 239.637 244.325C236.157 246.498 232.544 250.834 231.124 255.721C228.76 255.91 226.321 255.839 223.947 255.433C221.912 255.083 220.043 254.549 218.359 253.878C218.511 252.553 218.511 251.355 218.439 250.327C218.156 246.378 216.595 242.658 214.26 240.373C212.095 238.254 209.635 237.79 207.841 239.165C206.131 240.475 205.497 242.634 206.104 245.094Z" fill="#303F23"/>
<path d="M132.853 303.75C132.261 303.932 131.925 304.557 132.109 305.157L138.227 325.002C138.409 325.597 139.039 325.929 139.633 325.746C140.117 325.598 140.427 325.152 140.427 324.672C140.427 324.562 140.411 324.45 140.377 324.34L134.26 304.494C134.077 303.9 133.448 303.568 132.853 303.75Z" fill="#303F23"/>
</svg>
