<svg width="366" height="393" viewBox="0 0 366 393" fill="none" xmlns="http://www.w3.org/2000/svg">
<path d="M17.1238 36.5208H189.772C190.458 36.5208 191.013 35.9648 191.013 35.2794C191.013 34.5941 190.458 34.0381 189.772 34.0381H17.1238C16.4384 34.0381 15.8824 34.5941 15.8824 35.2794C15.8824 35.9648 16.4384 36.5208 17.1238 36.5208Z" fill="#303F23"/>
<path d="M17.1238 21.1631H189.772C190.458 21.1631 191.013 20.6071 191.013 19.9217C191.013 19.2364 190.458 18.6804 189.772 18.6804H17.1238C16.4384 18.6804 15.8824 19.2364 15.8824 19.9217C15.8824 20.6071 16.4384 21.1631 17.1238 21.1631Z" fill="#303F23"/>
<path d="M361.62 297.881C361.369 298.179 361.109 298.307 360.752 298.307H360.736C359.817 298.296 358.799 297.439 357.868 295.987C358.844 292.453 359.005 288.175 358.475 285.383C357.78 281.715 356.041 281.408 355.061 281.552C354 281.708 352.268 282.655 352.579 287.225C352.772 290.071 353.693 293.577 355.179 296.313C354.479 298.376 353.589 299.46 352.857 299.631C352.335 299.752 351.556 299.299 350.727 298.383C350.471 298.101 350.221 297.793 349.98 297.461C351.264 292.699 351.321 286.531 349.367 284.04C348.557 283.008 347.429 282.564 346.188 282.793C345.163 282.981 344.389 283.701 344.011 284.82C342.999 287.809 344.847 293.877 347.276 297.848C347.115 298.336 346.937 298.8 346.743 299.231C345.991 300.909 345.236 301.537 344.781 301.567C343.744 301.615 342.459 300.459 341.224 298.689C342.528 294.269 342.605 288.385 340.615 285.689C339.821 284.613 338.719 284.107 337.496 284.267C336.605 284.383 334.572 285.1 334.971 289.24C335.232 291.956 336.577 295.905 338.495 299.044C338.391 299.321 338.277 299.591 338.159 299.852C337.691 300.877 336.699 302.612 335.308 302.721C335.053 302.74 334.648 302.716 334.148 302.253C331.019 299.361 330.331 287.009 330.329 282.493C330.329 281.981 330.015 281.521 329.537 281.336C329.061 281.151 328.517 281.276 328.172 281.656C323.164 287.129 317.644 291.755 316.103 291.8C315.651 289.581 322.449 278.332 329.232 269.003C329.443 268.713 329.517 268.348 329.439 267.999L322.217 236.061L351.869 229.649L361.949 283.332C362.779 287.82 363.423 295.74 361.62 297.881ZM356.092 292.115C356.08 292.077 356.068 292.04 356.055 292.001C354.716 287.872 354.884 284.568 355.388 284.04C355.988 284.617 356.613 287.904 356.092 292.115ZM348.123 294.201C346.632 290.92 345.829 287.188 346.363 285.616C346.481 285.264 346.593 285.244 346.636 285.236C346.697 285.224 346.757 285.217 346.815 285.217C347.017 285.217 347.201 285.301 347.413 285.572C348.468 286.915 348.664 290.623 348.123 294.201ZM339.399 295.508C338.397 293.397 337.639 291.047 337.441 289.003C337.296 287.487 337.573 286.76 337.817 286.728C337.852 286.724 337.893 286.719 337.94 286.719C338.101 286.719 338.335 286.781 338.617 287.164C339.615 288.515 339.939 292.053 339.399 295.508ZM328.724 351.411H287.701C273.9 322.893 270.22 273.063 270.184 272.559C270.137 271.891 269.545 271.401 268.903 271.407C268.235 271.431 267.704 271.979 267.704 272.647V351.411H216.896L219.625 260.501C227.763 261.404 243.1 262.781 260.877 262.781C278.76 262.781 299.099 261.376 317.032 256.695L319.731 278.557C315.993 284.531 312.821 290.669 313.876 292.939C314.212 293.661 314.823 294.125 315.599 294.245C316.304 294.357 317.985 294.123 321.337 291.575L328.724 351.411ZM315.552 226.676L355.48 217.54C356.345 220.204 357.131 222.964 357.821 225.821L317.083 234.632L315.552 226.676ZM173.805 162.38L204.161 130.853L210.804 136.179L180.052 168.329L173.805 162.38ZM114.675 61.7067C118.043 63.5733 121.093 66.308 121.416 67.7787C121.467 68.0093 121.42 68.0506 121.361 68.1026C121.325 68.1346 121.217 68.236 120.783 68.084C119.211 67.536 116.832 64.9467 114.675 61.7067ZM109.744 68.0147C112.32 69.8493 114.519 72.1893 114.941 73.7C115.028 74.008 115.021 74.2133 114.923 74.3107C114.651 74.58 114.479 74.5586 114.301 74.508C112.967 74.1346 111.079 71.3253 109.744 68.0147ZM103.967 74.4507C104.399 74.7867 104.829 75.1533 105.252 75.548C107.745 77.872 108.479 79.7507 108.383 80.2187C107.613 80.008 105.647 77.8707 103.967 74.4507ZM169.403 151.344L156.923 138.717C156.921 138.716 156.919 138.713 156.917 138.712L103.371 84.5386C100.573 81.6106 96.2467 75.96 96.5453 73.26C96.5947 72.8133 96.7733 72.5107 97.1253 72.276C97.864 71.784 99.0533 71.8546 100.436 72.38C101.675 75.9293 103.843 79.4733 105.509 81.1347C107.935 83.5533 109.491 82.6173 110.047 82.1053C110.705 81.4946 111.92 79.6667 108.941 75.8853C107.345 73.8587 104.92 71.7786 102.432 70.5533C101.681 67.9586 101.82 66.2453 102.403 65.612C102.863 65.112 103.956 65.2827 104.565 65.428C105.173 65.5733 105.813 65.8027 106.465 66.0973C107.677 70.316 110.504 76.0227 113.632 76.9C114.737 77.2107 115.82 76.9173 116.671 76.0747C117.113 75.6347 117.787 74.6573 117.332 73.032C116.567 70.2947 112.543 66.5013 108.585 64.3866C107.967 61.7293 108.207 60.3107 108.532 60C108.693 59.8453 109.364 59.684 110.777 60.0573C113.449 64.8907 117.107 69.432 119.967 70.428C121.544 70.9773 122.555 70.368 123.016 69.9546C123.781 69.272 124.075 68.3093 123.84 67.2467C123.085 63.8013 116.741 59.4933 112.459 57.9827C111.153 55.508 110.14 52.9613 109.769 50.8213C109.493 49.224 109.645 48.0586 110.187 47.6226C110.307 47.5266 110.521 47.4066 110.989 47.4733C115.167 48.0773 124.829 60.0053 129.94 67.3813C130.229 67.8013 130.755 68.0013 131.245 67.8827C131.743 67.7653 132.117 67.356 132.188 66.8493C133.235 59.504 135.184 52.572 136.431 51.6653C138.057 53.24 138.789 66.3653 138.452 77.8946C138.441 78.26 138.591 78.6106 138.863 78.8546L198.887 132.752L175.271 157.28L169.403 151.344ZM2.48267 150.98V140.833H155.524L165.553 150.98H2.48267ZM207.844 2.48268V130.623L204.831 128.208C204.327 127.805 203.605 127.852 203.16 128.315L200.609 130.963L140.949 77.392C141.167 69.2586 141.213 51.6013 137.627 49.468C136.941 49.0613 136.173 49.024 135.468 49.3613C132.84 50.6187 131.075 58.5213 130.209 63.484C126.192 57.9733 116.761 45.8 111.345 45.016C110.032 44.8266 109.143 45.276 108.631 45.6893C107.309 46.752 106.871 48.6213 107.323 51.244C107.628 53.008 108.376 55.144 109.399 57.3466C108.309 57.3173 107.441 57.6107 106.821 58.2013C105.683 59.284 105.581 61.2733 105.843 63.208C105.607 63.1333 105.373 63.068 105.144 63.0133C102.615 62.408 101.265 63.18 100.573 63.932C99.3933 65.2173 99.2373 67.292 99.6707 69.5906C98.236 69.3146 96.8733 69.46 95.748 70.2093C94.7853 70.852 94.208 71.8133 94.0773 72.988C93.556 77.716 100.753 85.3946 101.591 86.2693L153.069 138.351H2.48267V2.48268H207.844ZM287.42 201.972V194.597H306.851L308.271 201.972H287.42ZM364.389 282.877L354.297 229.124L359.583 227.981C359.907 227.911 360.189 227.713 360.367 227.433C360.545 227.153 360.604 226.813 360.529 226.491C359.773 223.195 358.881 220.036 357.896 216.988L360.719 216.343C361.387 216.189 361.804 215.523 361.652 214.855C361.499 214.187 360.837 213.772 360.165 213.921L357.104 214.621C343.392 175.191 312.541 157.161 312.201 156.968C311.603 156.627 310.847 156.835 310.508 157.431C310.167 158.025 310.375 158.784 310.969 159.124C311.3 159.313 341.232 176.847 354.664 215.18L315.083 224.236L304.776 170.679C304.647 170.005 304.003 169.567 303.323 169.693C302.649 169.823 302.208 170.473 302.339 171.148L306.373 192.113H286.179C285.493 192.113 284.937 192.669 284.937 193.356V203.213C284.937 203.9 285.493 204.455 286.179 204.455H308.748L312.661 224.789L308.003 225.856C307.333 226.009 306.916 226.675 307.069 227.343C307.2 227.919 307.712 228.308 308.279 228.308C308.369 228.308 308.463 228.297 308.556 228.276L313.131 227.229L314.885 236.348C314.948 236.676 315.141 236.965 315.42 237.149C315.624 237.284 315.863 237.355 316.104 237.355C316.192 237.355 316.28 237.345 316.367 237.327L319.791 236.587L326.893 267.999C325.509 269.912 323.683 272.5 321.829 275.3L319.323 254.988C319.319 254.957 319.3 254.935 319.295 254.905C319.288 254.873 319.296 254.844 319.288 254.813C319.273 254.759 319.236 254.719 319.215 254.668C319.183 254.592 319.152 254.52 319.107 254.453C319.06 254.384 319.005 254.328 318.947 254.269C318.891 254.216 318.839 254.165 318.775 254.123C318.707 254.077 318.636 254.045 318.561 254.015C318.488 253.983 318.417 253.956 318.339 253.939C318.26 253.923 318.181 253.921 318.099 253.92C318.045 253.92 317.993 253.901 317.939 253.908C317.907 253.912 317.883 253.931 317.852 253.936C317.823 253.943 317.795 253.935 317.765 253.943C277.383 264.943 223.665 258.583 214.98 257.444L225.936 170.681C226.021 170.001 225.54 169.38 224.859 169.295C224.185 169.209 223.559 169.691 223.472 170.371L219.041 205.455L181.851 170.041L212.748 137.737L229.531 151.189C230.067 151.619 230.848 151.533 231.276 150.997C231.705 150.463 231.619 149.681 231.084 149.253L214.472 135.936L215.773 134.575C216.247 134.08 216.229 133.295 215.735 132.82C215.237 132.347 214.451 132.364 213.979 132.86L212.527 134.377L210.327 132.613V1.24135C210.327 0.556012 209.771 1.20667e-05 209.085 1.20667e-05H1.24133C0.556 1.20667e-05 0 0.556012 0 1.24135V152.221C0 152.907 0.556 153.463 1.24133 153.463H168.007L173.548 159.068L171.151 161.557C170.923 161.796 170.797 162.115 170.804 162.445C170.812 162.776 170.951 163.089 171.189 163.317L178.336 170.123L175.597 172.987C175.124 173.481 175.141 174.268 175.637 174.741C175.877 174.972 176.187 175.085 176.495 175.085C176.821 175.085 177.148 174.957 177.392 174.703L180.135 171.836L218.656 208.516L212.363 258.352C212.279 259.023 212.747 259.639 213.415 259.736C213.501 259.749 214.825 259.939 217.151 260.216L214.376 352.615C214.365 352.949 214.492 353.275 214.725 353.516C214.959 353.757 215.281 353.893 215.616 353.893H220.719L198.415 370.795C197.973 371.128 197.807 371.713 198.005 372.231C198.205 372.747 198.725 373.073 199.271 373.02L232.744 370.121V371.871C232.744 372.556 233.3 373.112 233.985 373.112H264.691C265.376 373.112 265.932 372.556 265.932 371.871V353.893H268.945C269.632 353.893 270.187 353.337 270.187 352.652V294.587C270.527 296.948 270.905 299.429 271.329 301.995C273.808 317.027 278.332 338.112 285.816 353.203C286.025 353.625 286.456 353.893 286.928 353.893H287.02V371.871C287.02 372.556 287.576 373.112 288.261 373.112H318.967C319.653 373.112 320.208 372.556 320.208 371.871V370.121L353.681 373.02C354.235 373.073 354.748 372.747 354.947 372.231C355.144 371.713 354.979 371.128 354.537 370.795L331.256 353.152C331.347 352.949 331.387 352.725 331.36 352.5L323.608 289.705C324.865 288.599 326.288 287.244 327.916 285.556C328.131 290.791 328.997 300.872 332.463 304.076C333.267 304.82 334.208 305.208 335.2 305.208C335.3 305.208 335.4 305.204 335.501 305.196C336.824 305.092 338.677 304.335 340.177 301.384C341.623 303.064 343.235 304.156 344.936 304.044C346.048 303.975 347.657 303.26 349.009 300.247C349.016 300.232 349.021 300.219 349.028 300.204C350.856 302.143 352.42 302.281 353.42 302.048C354.871 301.711 356.005 300.46 356.848 298.741C357.961 299.984 359.26 300.772 360.707 300.789C361.811 300.803 362.788 300.349 363.52 299.48C366.661 295.747 364.632 284.185 364.389 282.877Z" fill="#303F23"/>
<path d="M287.423 100.134C287.201 97.6771 288.607 95.0544 290.301 93.9677C290.828 93.6317 291.262 93.5171 291.612 93.5171C292.202 93.5171 292.557 93.8424 292.713 93.9837C293.728 94.9144 293.587 95.4824 293.533 95.6957C293.269 96.7517 291.793 98.2251 287.423 100.134ZM301.153 78.5224C301.183 80.9544 300.731 83.1317 299.912 84.1891C299.451 84.7851 299.092 84.7104 298.92 84.6744C298.681 84.6251 298.64 84.5531 298.599 84.3864C298.351 83.3971 299.263 81.0251 301.153 78.5224ZM230.255 81.8677C232.719 83.2104 234.597 85.6557 234.639 87.0611C234.651 87.4731 234.504 87.7117 234.12 87.9131C233.752 88.1064 233.175 88.2904 232.381 87.6624C231.132 86.6717 230.152 84.3024 230.255 81.8677ZM225.659 81.6011C226.299 81.0704 227.077 80.9477 227.833 81.0331C227.473 84.3224 228.671 87.8877 230.84 89.6077C232.203 90.6891 233.819 90.8731 235.272 90.1131C236.503 89.4677 237.159 88.3584 237.12 86.9904C237.035 84.0424 233.793 80.7611 230.795 79.3597C231.445 77.8197 232.868 76.1957 235.94 75.6864C237.939 75.3531 239.493 75.6997 240.688 76.7477C243.585 79.2851 243.429 85.0531 243.427 85.1117C243.411 85.5904 243.672 86.0371 244.099 86.2571C244.524 86.4757 245.04 86.4304 245.42 86.1411C245.636 85.9757 267.121 69.8984 288.239 82.0637C288.661 82.3077 289.187 82.2797 289.581 81.9957C289.977 81.7117 290.17 81.2224 290.074 80.7437C289.653 78.6331 289.064 72.5384 291.37 69.7264C292.237 68.6704 293.437 68.1571 295.041 68.1571C296.975 68.1571 298.533 69.3344 299.671 71.6557C300.185 72.7037 300.556 73.8877 300.798 75.1064C297.836 78.2984 295.537 82.3917 296.191 84.9917C296.469 86.1011 297.281 86.8717 298.418 87.1064C299.732 87.3771 300.965 86.8824 301.875 85.7091C303.437 83.6904 303.964 79.7491 303.452 75.9357C303.809 75.5931 304.184 75.2557 304.576 74.9277C306.834 73.0437 311.273 70.1771 315.649 72.1611C317.588 73.0411 318.477 74.7064 318.292 77.1117C317.895 82.2877 312.639 89.1117 308.067 90.3877C307.629 90.5091 307.296 90.8624 307.193 91.3051C307.091 91.7477 307.24 92.2131 307.58 92.5144C307.902 92.8024 315.256 99.5784 311.437 115.253C310.988 115.1 310.52 114.989 310.031 114.934C306.744 114.569 303.381 116.616 301.319 118.201L300.636 106.881C300.597 106.225 300.049 105.717 299.405 105.726C299.381 105.726 299.358 105.714 299.333 105.716C293.717 106.004 289.861 104.864 288.247 102.489C292.98 100.421 295.412 98.4197 295.943 96.2971C296.195 95.2864 296.13 93.7477 294.389 92.1531C292.878 90.7704 290.85 90.6677 288.963 91.8784C286.404 93.5184 284.385 97.4677 285.055 101.1C281.512 102.457 276.583 104.006 269.783 105.753C261.065 107.993 252.041 109.194 246.007 109.806C245.324 109.876 244.827 110.485 244.897 111.166C244.961 111.806 245.501 112.282 246.129 112.282C246.172 112.282 246.213 112.281 246.256 112.276C252.377 111.656 261.533 110.436 270.401 108.157C276.889 106.49 282.012 104.941 285.918 103.44C287.256 105.73 290.479 108.356 298.229 108.232L298.981 120.696C298.972 120.801 298.981 120.901 299 121.005L299.582 130.69C299.572 130.802 299.584 130.909 299.602 131.017L301.043 154.91L270.525 174.006L238.367 154.884L240.151 111.677C240.152 111.66 240.144 111.646 240.144 111.63C240.144 111.542 240.12 111.458 240.103 111.372C240.087 111.298 240.081 111.225 240.053 111.157C240.027 111.092 239.98 111.037 239.941 110.976C239.892 110.898 239.849 110.82 239.785 110.756C239.773 110.745 239.771 110.73 239.759 110.72C239.595 110.565 223.357 95.2304 223.645 85.8344C223.699 84.0637 224.357 82.6797 225.659 81.6011ZM313.006 126.28C310.469 129.212 305.036 130.648 302.023 129.904L301.504 121.278C302.736 120.156 306.5 117.024 309.758 117.402C311.164 117.56 312.304 118.37 313.245 119.881C314.717 122.242 314.637 124.396 313.006 126.28ZM281.995 185.501L272.5 175.7L298.378 159.506L281.995 185.501ZM240.848 159.246L268.416 175.641L257.084 185.309L240.848 159.246ZM227.672 128.342C226.591 125.514 227.251 122.322 229.176 121.073C232.807 118.718 236.264 121.357 237.231 122.213L236.781 133.106C232.364 133.538 228.995 131.793 227.672 128.342ZM237.647 112.134L237.355 119.208C234.977 117.726 231.373 116.69 227.825 118.99C224.907 120.882 223.844 125.285 225.355 129.23C225.976 130.853 228.412 135.668 235.355 135.668C235.777 135.668 236.22 135.649 236.679 135.61L235.856 155.521C235.855 155.581 235.867 155.638 235.873 155.697C235.877 155.732 235.876 155.765 235.883 155.8C235.909 155.942 235.96 156.077 236.033 156.201C236.039 156.21 236.039 156.22 236.044 156.229L255.739 187.846C255.931 188.153 256.245 188.361 256.603 188.416C256.96 188.473 257.323 188.369 257.599 188.134L261.308 184.969L269.883 180.754L278.523 185.485L281.311 188.362C281.545 188.606 281.868 188.741 282.203 188.741C282.245 188.741 282.288 188.738 282.331 188.734C282.709 188.694 283.049 188.484 283.252 188.161L303.376 156.234C303.383 156.222 303.382 156.209 303.39 156.197C303.462 156.072 303.516 155.938 303.543 155.796C303.548 155.766 303.545 155.738 303.549 155.709C303.557 155.638 303.569 155.569 303.565 155.497L302.176 132.441C302.676 132.512 303.2 132.556 303.753 132.556C307.515 132.556 312.273 130.921 314.884 127.905C317.241 125.181 317.406 121.865 315.352 118.568C314.849 117.761 314.284 117.085 313.663 116.542C317.207 102.884 312.873 95.0837 310.522 92.0837C315.532 89.6037 320.339 82.8877 320.768 77.3024C321.033 73.8464 319.58 71.2184 316.674 69.8997C312.516 68.0171 307.656 69.1251 302.985 73.0224C302.947 73.0544 302.908 73.0877 302.869 73.1197C302.612 72.2171 302.289 71.3531 301.901 70.5624C300.355 67.4104 297.919 65.6744 295.041 65.6744C292.677 65.6744 290.796 66.5091 289.448 68.1557C287.069 71.0597 287.048 75.8424 287.304 78.7517C269.233 69.8424 251.497 79.2797 245.8 82.8891C245.551 80.5624 244.764 77.0237 242.332 74.8864C240.565 73.3357 238.279 72.7811 235.532 73.2371C232.031 73.8184 229.543 75.7104 228.419 78.6077C226.752 78.3504 225.255 78.7104 224.073 79.6904C222.219 81.2277 221.239 83.2704 221.163 85.7597C220.868 95.4904 234.987 109.57 237.647 112.134Z" fill="#303F23"/>
<path d="M282.371 118.533C289.864 117.504 293.1 122.683 293.239 122.915C293.472 123.303 293.883 123.519 294.306 123.519C294.522 123.519 294.74 123.464 294.939 123.345C295.528 122.996 295.723 122.235 295.374 121.645C295.207 121.365 291.212 114.811 282.034 116.073C281.355 116.167 280.879 116.793 280.972 117.472C281.066 118.152 281.698 118.625 282.371 118.533Z" fill="#303F23"/>
<path d="M241.955 123.34C242.154 123.459 242.373 123.516 242.59 123.516C243.011 123.516 243.422 123.302 243.657 122.915C243.791 122.695 247.022 117.502 254.526 118.534C255.209 118.627 255.831 118.152 255.925 117.472C256.018 116.794 255.542 116.167 254.863 116.074C245.687 114.814 241.69 121.366 241.523 121.646C241.175 122.232 241.369 122.99 241.955 123.34Z" fill="#303F23"/>
<path d="M277.044 157.122C270.593 161.257 265.696 158.181 265.478 158.038C264.909 157.664 264.142 157.817 263.762 158.386C263.382 158.957 263.536 159.728 264.106 160.108C264.265 160.213 266.652 161.76 270.298 161.76C272.578 161.76 275.353 161.154 278.384 159.212C278.961 158.842 279.129 158.074 278.76 157.497C278.388 156.92 277.618 156.753 277.044 157.122Z" fill="#303F23"/>
<path d="M284.823 137.961C284.157 137.883 283.527 138.373 283.45 139.055C283.374 139.736 283.862 140.351 284.545 140.428C285.55 140.543 286.403 140.831 287.134 141.203C276.114 153.776 259.853 148.38 259.151 148.137C258.501 147.916 257.797 148.259 257.573 148.905C257.349 149.553 257.691 150.26 258.339 150.484C258.427 150.515 262.551 151.897 268.161 151.897C274.486 151.897 282.693 150.121 289.13 142.681C290.234 143.821 290.703 144.973 290.741 145.065C290.929 145.559 291.399 145.863 291.899 145.863C292.046 145.863 292.194 145.837 292.338 145.783C292.979 145.54 293.302 144.823 293.059 144.183C292.974 143.956 290.901 138.651 284.823 137.961Z" fill="#303F23"/>
<path d="M251.371 138.526C251.583 138.944 252.011 139.206 252.479 139.206H277.111C277.797 139.206 278.353 138.65 278.353 137.965C278.353 137.28 277.797 136.724 277.111 136.724H254.93L269.497 116.866C269.902 116.313 269.783 115.536 269.23 115.13C268.678 114.725 267.902 114.845 267.495 115.397L251.478 137.232C251.202 137.609 251.159 138.109 251.371 138.526Z" fill="#303F23"/>
<path d="M287.639 129.776C289.543 129.776 291.093 128.225 291.093 126.32C291.093 124.416 289.543 122.865 287.639 122.865C285.733 122.865 284.183 124.416 284.183 126.32C284.183 128.225 285.733 129.776 287.639 129.776Z" fill="#303F23"/>
<path d="M252.817 126.32C252.817 124.415 251.268 122.864 249.363 122.864C247.457 122.864 245.908 124.415 245.908 126.32C245.908 128.226 247.457 129.776 249.363 129.776C251.268 129.776 252.817 128.226 252.817 126.32Z" fill="#303F23"/>
<path d="M144.482 241.087C131.354 243.482 113.884 244.8 95.2911 244.8C76.6964 244.8 59.2271 243.482 46.0991 241.087C31.7431 238.468 26.6498 235.252 26.6498 233.294V229.894C35.4351 236.47 66.1351 239.976 95.2911 239.976C124.446 239.976 155.146 236.47 163.931 229.894V233.294C163.931 235.252 158.838 238.468 144.482 241.087ZM147.226 365.572V370.766L109.886 359.392L147.226 365.572ZM82.1004 389.952H70.6164L88.6631 361.827L82.1004 389.952ZM58.0071 373.394L53.4604 368.915L86.1858 356.788L58.0071 373.394ZM89.1658 254.484H92.7871V353.579H89.1658V254.484ZM53.1738 217.07L55.5631 227.104C55.6964 227.663 56.1964 228.058 56.7711 228.058H127.904H162.41C159.995 229.836 154.498 231.952 144.482 233.78C131.354 236.175 113.883 237.494 95.2911 237.494C76.6964 237.494 59.2271 236.175 46.0991 233.78C31.7431 231.162 26.6498 227.946 26.6498 225.987C26.6498 224.03 32.2631 219.971 53.1738 217.07ZM113.867 173.244L126.332 225.575H57.7511L45.2871 173.244H113.867ZM163.272 221.659L163.856 225.575H128.884L127.951 221.659H163.272ZM165.57 220.235C165.48 219.627 164.958 219.176 164.342 219.176H127.36L116.055 171.716C115.922 171.156 115.423 170.762 114.847 170.762H43.7151C43.3351 170.762 42.9751 170.936 42.7404 171.234C42.5058 171.532 42.4191 171.922 42.5071 172.291L52.5951 214.642C39.4191 216.486 24.1671 219.928 24.1671 225.987V233.294C24.1671 241.626 54.9818 246.438 86.6831 247.179V353.958L50.7658 367.266C50.3684 367.414 50.0724 367.755 49.9844 368.17C49.8951 368.584 50.0244 369.016 50.3271 369.315L56.9444 375.832C57.1831 376.067 57.4978 376.19 57.8151 376.19C58.0324 376.19 58.2498 376.134 58.4458 376.018L87.6511 358.807L67.3004 390.523C67.0551 390.904 67.0378 391.39 67.2551 391.788C67.4724 392.187 67.8911 392.435 68.3444 392.435H83.0858C83.6631 392.435 84.1631 392.036 84.2951 391.475L92.4178 356.667L148.104 373.628C148.479 373.742 148.888 373.672 149.206 373.439C149.522 373.204 149.708 372.834 149.708 372.442V364.519C149.708 363.911 149.268 363.394 148.67 363.295L95.2698 354.456V247.283C95.2764 247.283 95.2844 247.283 95.2911 247.283C129.768 247.283 166.414 242.38 166.414 233.294V225.987C166.414 225.926 166.408 225.864 166.4 225.804L165.57 220.235Z" fill="#303F23"/>
<path d="M87.8358 190.69C92.5505 190.69 96.3865 194.526 96.3865 199.241C96.3865 203.956 92.5505 207.792 87.8358 207.792C83.1211 207.792 79.2851 203.956 79.2851 199.241C79.2851 194.526 83.1211 190.69 87.8358 190.69ZM87.8358 210.274C93.9198 210.274 98.8691 205.325 98.8691 199.241C98.8691 193.157 93.9198 188.208 87.8358 188.208C81.7518 188.208 76.8025 193.157 76.8025 199.241C76.8025 205.325 81.7518 210.274 87.8358 210.274Z" fill="#303F23"/>
</svg>
