<svg width="316" height="410" viewBox="0 0 316 410" fill="none" xmlns="http://www.w3.org/2000/svg">
<path d="M223.928 104.493C223.965 104.493 224.005 104.492 224.043 104.488C224.468 104.457 234.541 103.664 240.381 100.876C241.136 100.517 241.457 99.6129 241.096 98.8583C240.737 98.1023 239.833 97.7836 239.079 98.1436C235.127 100.029 228.697 100.944 225.596 101.293C227.465 83.5209 237.691 75.5076 237.819 75.4089C238.484 74.9036 238.615 73.9569 238.111 73.2889C237.608 72.6223 236.656 72.4889 235.991 72.9943C235.496 73.3689 223.863 82.3809 222.417 102.873C222.387 103.312 222.549 103.742 222.86 104.053C223.145 104.336 223.529 104.493 223.928 104.493Z" fill="#303F23"/>
<path d="M217.221 88.848C217.221 86.8093 215.561 85.1493 213.522 85.1493C211.483 85.1493 209.825 86.8093 209.825 88.848C209.825 90.8867 211.483 92.5453 213.522 92.5453C215.561 92.5453 217.221 90.8867 217.221 88.848Z" fill="#303F23"/>
<path d="M251.65 92.188C251.65 90.1493 249.991 88.4893 247.952 88.4893C245.914 88.4893 244.254 90.1493 244.254 92.188C244.254 94.2266 245.914 95.8853 247.952 95.8853C249.991 95.8853 251.65 94.2266 251.65 92.188Z" fill="#303F23"/>
<path d="M235.335 121.277C235.148 121.666 234.855 121.911 234.384 122.071C233.316 122.434 232.383 122.394 231.527 121.946C230.486 121.401 229.676 120.309 229.103 119.266C229.554 119.289 229.998 119.319 230.472 119.319C231.832 119.319 233.29 119.219 234.851 118.999C235.062 118.969 235.252 118.918 235.459 118.885C235.598 119.654 235.654 120.609 235.335 121.277ZM224.388 111.591C226 111.293 227.29 113.213 227.296 113.225C227.694 113.842 228.474 114.083 229.152 113.802C229.831 113.519 230.207 112.79 230.047 112.073C229.91 111.458 229.787 109.965 230.283 109.277C230.399 109.117 230.596 108.926 231.104 108.873C231.124 108.87 231.144 108.87 231.163 108.87C231.854 108.87 232.818 110.062 233.748 111.218C234.807 112.529 236.104 114.127 237.884 115.209C236.816 115.547 235.672 115.825 234.426 116.002C230.564 116.545 227.464 116.253 224.994 115.579C224.431 113.843 224.164 111.971 224.388 111.591ZM251.454 104.602C250.686 104.267 249.798 104.623 249.464 105.389C249.347 105.657 247.258 110.266 241.966 113.391C239.299 113.246 237.671 111.258 236.104 109.315C234.639 107.499 233.132 105.63 230.791 105.861C229.526 105.994 228.496 106.567 227.816 107.521C227.467 108.011 227.24 108.559 227.1 109.11C226.163 108.637 225.058 108.385 223.824 108.615C222.964 108.779 222.254 109.29 221.827 110.057C221.199 111.183 221.258 112.771 221.519 114.21C218.311 112.493 216.934 110.31 216.826 110.129C216.404 109.41 215.482 109.163 214.76 109.585C214.036 110.003 213.791 110.929 214.211 111.653C214.38 111.946 217.56 117.199 225.571 118.829C226.136 120.317 227.532 123.263 230.107 124.621C231.027 125.106 232 125.349 233.012 125.349C233.772 125.349 234.556 125.211 235.362 124.938C236.6 124.515 237.539 123.695 238.072 122.567C238.771 121.094 238.647 119.398 238.414 118.203C248.398 115.234 252.079 106.974 252.246 106.585C252.574 105.818 252.218 104.931 251.454 104.602Z" fill="#303F23"/>
<path d="M221.58 76.9593C221.616 76.1247 220.967 75.418 220.131 75.3833C209.56 74.9753 204.311 82.9247 204.093 83.2647C203.645 83.9687 203.851 84.8993 204.553 85.35C204.805 85.5113 205.088 85.59 205.368 85.59C205.867 85.59 206.353 85.3447 206.644 84.8953C206.825 84.6167 211.183 78.0287 220.004 78.4087C220.824 78.4527 221.545 77.7953 221.58 76.9593Z" fill="#303F23"/>
<path d="M306.073 50.1236C300.415 53.3116 294.54 53.4569 293.967 52.4889C293.933 52.4209 293.901 52.3542 294.075 52.1209C294.972 50.9222 298.468 49.6356 302.256 49.6356C303.109 49.6356 303.979 49.6996 304.836 49.8462C305.233 49.9156 305.651 50.0049 306.073 50.1236ZM304.331 32.6929C299.576 38.6182 290.845 42.3262 289.023 41.7982C289.251 40.2142 294.105 35.2262 300.216 33.3476C301.707 32.8902 303.053 32.6636 304.331 32.6929ZM291.007 22.3395C289.068 25.8635 286.368 29.0529 284.076 30.6702C282.631 31.6889 281.912 31.6729 281.852 31.7009C281.548 30.5489 285.119 25.6395 291.007 22.3395ZM308.612 60.8729C303.536 65.4409 292.339 67.8542 282.737 64.0622C283.289 52.6369 280.017 41.7529 273.113 33.4876C269.351 28.9822 264.731 25.5476 259.5 23.2222C259.347 20.3222 259.229 11.0356 263.528 6.12491C265.263 4.14091 267.48 3.13022 270.307 3.03555C274.555 2.92755 276.643 5.18625 277.673 7.77025C277.371 8.06759 277.077 8.38224 276.791 8.71691C272.612 13.6062 271.089 21.7342 272.775 24.9582C273.401 26.1529 274.471 26.7636 275.676 26.6489C279.547 26.2609 282.041 18.4022 281.608 11.8996C281.533 10.7942 281.381 9.7569 281.156 8.79023C283.153 7.4209 285.785 6.78623 289.196 7.93423C291.756 8.7969 293.169 10.3662 293.515 12.7329C293.751 14.3636 293.477 16.2182 292.865 18.1142C286.183 20.7302 279.193 27.1875 278.835 31.2875C278.719 32.6129 279.283 33.7062 280.381 34.2875C281.379 34.8142 283.128 35.0449 285.821 33.1449C289.139 30.8049 293.144 25.7662 295.221 20.4982C298.467 19.4982 302.397 19.3382 305.224 22.6169C307.061 24.7489 307.367 27.1689 306.145 29.8369C305.165 29.6756 304.127 29.6369 303.036 29.7236C295.572 30.3116 287.723 36.6689 286.275 40.5049C285.595 42.3076 286.273 43.3822 286.739 43.8622C289.628 46.8409 299.075 41.9302 304.053 37.3769C305.492 36.0609 306.671 34.7302 307.584 33.4036C309.047 34.0862 310.256 35.2596 311.204 36.9209C314.067 41.9409 311.827 45.6529 309.076 48.0369C307.981 47.4956 306.732 47.1009 305.347 46.8622C300.096 45.9609 293.697 47.5742 291.651 50.3076C290.835 51.3956 290.688 52.6769 291.247 53.8209C291.699 54.7409 292.835 55.8662 295.692 56.0022C299.196 56.1596 304.852 54.7236 309.237 51.7342C309.999 52.3929 310.623 53.2569 310.977 54.3889C311.857 57.1969 310.176 59.4662 308.612 60.8729ZM276.001 80.7369C272.788 80.7422 269.327 82.7916 267.045 84.4556C266.831 75.2316 265.827 68.5302 265.813 68.4422C265.811 68.4196 265.807 68.3956 265.801 68.3716C265.781 68.2716 265.76 68.1689 265.74 68.0635C268.815 64.7395 270.991 60.3822 271.776 57.0622C273.225 50.9356 270.132 49.6742 269.149 49.4342C266.732 48.8409 265.185 49.7089 264.319 50.5422C260.892 53.8289 261.844 62.8996 262.489 67.0196C260.113 69.1822 257.341 70.4582 254.6 69.8316C253.503 69.5809 252.583 69.1022 251.841 68.4009C253.927 66.1142 255.399 63.1369 256.243 60.2662C257.591 55.6756 257.615 50.1596 254.484 48.8942C253.795 48.6169 252.401 48.3529 250.832 49.7169C247.867 52.2982 245.563 59.8449 247.032 65.7036C247.233 66.5009 247.495 67.2382 247.817 67.9142C246.123 69.0875 244.092 69.6622 241.751 69.2142C240.612 68.9982 239.648 68.4596 238.845 67.6916C241.348 65.0009 243.216 61.0436 243.628 55.9182C244.032 50.9102 242.369 47.4889 239.291 46.9889C236.223 46.4929 233.756 49.2342 232.891 54.1582C232.2 58.0862 232.625 63.4156 234.792 67.2929C233.443 68.2569 231.863 68.8422 230.057 68.8422C228.127 68.8422 226.495 68.0636 225.183 66.5222C226.883 63.8836 227.981 60.6182 228.44 57.3729C229.173 52.1742 228.264 46.6809 224.577 46.1209C223.171 45.9115 221.88 46.5275 220.917 47.8622C218.491 51.2342 218.077 59.8516 221.18 65.9076C221.277 66.0982 221.377 66.2836 221.48 66.4649C219.627 68.5556 217.415 69.4502 214.864 69.1142C211.795 68.7129 209.959 66.7742 208.865 64.6969C209.483 63.5222 214.495 53.7516 212.755 48.9782C212.321 47.7929 211.507 46.9262 210.396 46.4756C209.197 45.9836 207.923 46.2462 206.904 47.1876C204.076 49.8036 203.207 57.5516 205.083 63.4462C205.211 63.8502 205.351 64.2422 205.501 64.6196C204.727 66.1742 203.376 69.0089 201.869 72.7049C200.941 71.2316 199.597 69.6289 197.853 68.8982C197.847 68.8942 197.839 68.8942 197.832 68.8916C197.677 63.8342 197.996 30.8102 231.917 23.7862C247.708 20.5209 261.877 24.7596 270.789 35.4289C280.535 47.0956 282.525 64.4449 276.001 80.7369ZM279.119 88.3929C278.737 89.4236 277.903 90.4169 276.816 91.3489C276.024 90.8182 275.073 90.5076 274.052 90.5076C271.307 90.5076 269.072 92.7409 269.072 95.4862C269.072 95.5902 269.096 95.6876 269.103 95.7902C268.28 96.1396 267.501 96.4449 266.789 96.7062C266.848 95.8289 266.907 94.9516 266.948 94.0502C267.039 92.0716 267.077 90.1449 267.083 88.2809C269.068 86.5889 273.517 83.4236 276.508 83.7876C277.431 83.9076 278.116 84.3649 278.669 85.2276C279.369 86.3222 279.512 87.3276 279.119 88.3929ZM290.951 137.446C291.232 144.913 293.032 207.189 276.697 235.608C268.599 249.697 249.063 257.625 233.629 261.853C239.396 258.974 244.617 255.452 249.272 251.281C249.72 251.941 250.167 252.601 250.599 253.272C250.889 253.72 251.376 253.965 251.873 253.965C252.155 253.965 252.439 253.886 252.693 253.724C253.395 253.269 253.597 252.333 253.144 251.63C252.615 250.809 252.072 250 251.521 249.194C278.219 223.033 278.225 181.268 278.225 161.162C278.225 145.11 272.627 136.497 267.117 131.897L267.128 131.9L290.951 137.446ZM282.715 244.024C268.581 265.533 223.431 273.648 214.033 275.125C214.031 275.125 214.029 275.125 214.028 275.125L214.056 268.998C217.723 268.501 228.416 266.845 240.191 263.106C259.827 256.872 272.993 248.128 279.323 237.117C295.785 208.476 294.405 148.885 294.011 138.152L299.209 139.361C299.452 149.073 300.421 217.077 282.715 244.024ZM276.401 337.537C275.587 337.661 274.768 337.414 274.148 336.877C273.528 336.341 273.172 335.564 273.172 334.744V263.441C273.317 263.378 273.461 263.316 273.607 263.253C273.644 263.238 273.829 263.158 273.853 263.149C274.163 263.021 274.473 262.896 274.784 262.773C275.339 262.556 275.895 262.348 276.455 262.144C277.24 261.858 278.029 261.586 278.819 261.31V334.744C278.819 336.136 277.779 337.337 276.401 337.537ZM222.476 356.644C221.665 356.764 220.843 356.521 220.224 355.984C219.604 355.449 219.248 354.67 219.248 353.849V282.856C219.833 282.832 220.419 282.776 221.001 282.706C222.3 282.666 223.597 282.6 224.893 282.492V353.849C224.893 355.242 223.855 356.444 222.476 356.644ZM202.579 270.596C205.476 270.272 208.289 269.842 211.027 269.32L211.003 274.512L202.579 270.596ZM184.945 268.316C186.289 262.246 187.389 259.186 187.413 259.114C187.704 258.326 187.304 257.454 186.517 257.164C185.729 256.885 184.869 257.285 184.579 258.06C184.264 258.896 177.119 278.746 176.997 319.657L131.969 325.954C130.733 316.653 124.653 266.465 135.105 248.408C149.651 223.314 209.964 218.009 216.855 217.489C216.86 217.488 216.861 217.488 216.867 217.488C226.349 224.981 238.168 235.74 247.523 248.772C232.651 262.248 211.637 268.816 184.945 268.316ZM158.229 374.39V381.425L107.652 366.02L158.229 374.39ZM73.02 406.482H57.7106L81.7693 368.988L73.02 406.482ZM41.4013 384.853L35.2706 378.814L79.396 362.464L41.4013 384.853ZM3.02799 203.193V200.07C14.3973 207.87 55.4333 210.82 84.4067 210.82C119.66 210.82 151.323 207.104 163.203 201.573C164.044 201.794 164.908 202.006 165.787 202.214V203.193C165.787 204.82 160.94 208.37 142.775 211.366C127.197 213.937 106.468 215.352 84.4067 215.352C62.3453 215.352 41.6173 213.937 26.0387 211.366C7.87465 208.37 3.02799 204.82 3.02799 203.193ZM31.0307 186.704C32.176 190.064 34.212 193.466 37.7 196.349C37.9707 196.572 38.312 196.696 38.664 196.696H58.6707C59.0227 196.696 59.364 196.572 59.6347 196.349C64.144 192.624 66.2293 188.028 67.0947 183.778C72.7533 183.58 78.5693 183.476 84.4067 183.476C97.1053 183.476 113.595 184.432 124.957 185.34C127.18 186.18 129.572 186.649 132.053 186.698C134.868 189.021 138.372 191.406 142.659 193.698C146.624 195.817 151.861 198.16 158.417 200.206C144.871 204.797 116.181 207.793 84.4067 207.793C62.3453 207.793 41.6173 206.378 26.0387 203.808C7.87465 200.812 3.02799 197.261 3.02799 195.634C3.02799 193.886 8.91466 189.798 31.0307 186.704ZM33.2667 173.009H64.0693C64.724 176.385 65.9587 186.805 58.1147 193.668H39.22C31.376 186.805 32.6093 176.385 33.2667 173.009ZM116.608 174.074C109.105 159.204 109.263 138.688 109.651 130.822C117.367 134.88 138.448 134.94 139.539 134.94C139.853 134.94 165.14 134.794 173.715 130.562C173.86 133.324 173.985 137.785 173.735 143.064C172.064 139.572 170.249 136.962 166.773 137.405C164.068 137.744 162.753 139.237 162.125 140.43C160.841 142.873 161.201 146.398 162.067 149.693C157.496 144.885 151.419 140.089 147.152 142.774C144.703 144.318 144.147 147.23 144.584 150.397C141.751 149.634 139.368 149.997 137.615 151.476C135.448 153.305 135.02 156.146 135.676 159.225C133.767 159.356 132.017 160.02 130.521 161.213C128.333 162.954 127.432 165.424 127.808 168.241C126.344 168.406 125.087 168.949 124.103 169.862C123.261 170.644 122.04 172.469 123.304 175.928C124.033 177.925 125.636 180.434 128.232 183.161C127.539 182.992 126.859 182.786 126.195 182.54C126.156 182.518 126.112 182.509 126.072 182.49C122.012 180.942 118.576 177.973 116.608 174.074ZM194.16 142.184C194.16 149.393 188.536 155.298 181.449 155.781C181.444 155.762 181.444 155.744 181.439 155.725C181.2 154.894 180.996 154.054 180.832 153.205C180.749 152.781 180.677 152.354 180.613 151.928C180.611 151.909 180.603 151.852 180.596 151.798C180.588 151.737 180.576 151.65 180.573 151.629C180.557 151.497 180.544 151.364 180.531 151.232C185.513 151.225 189.565 147.169 189.565 142.184C189.565 137.196 185.507 133.136 180.517 133.136C180.153 133.136 179.793 133.165 179.435 133.209C179.439 133.174 179.447 133.141 179.449 133.106C179.568 131.63 179.727 130.158 179.921 128.69C179.927 128.652 179.916 128.608 179.915 128.566C180.116 128.557 180.316 128.54 180.517 128.54C188.04 128.54 194.16 134.661 194.16 142.184ZM176.548 146.678C176.809 143.278 176.904 140.132 176.912 137.394C177.951 136.612 179.203 136.164 180.517 136.164C183.837 136.164 186.537 138.864 186.537 142.184C186.537 145.504 183.837 148.205 180.517 148.205C179.035 148.205 177.649 147.652 176.548 146.678ZM149.712 156.408C152.908 158.816 154.667 161.458 154.668 162.289C154.661 162.29 154.653 162.29 154.647 162.29C154.24 162.29 152.655 161.428 150.661 158.133C150.324 157.577 150.007 156.998 149.712 156.408ZM140.408 163.136C141.755 163.705 143.024 164.492 144.097 165.341C146.889 167.552 147.843 169.724 147.584 170.198C146.991 170.544 144.552 169.273 141.944 165.606C141.385 164.821 140.867 163.986 140.408 163.136ZM132.411 171.974C133.017 172.204 133.648 172.485 134.296 172.817C138.697 175.074 141.2 178.202 141.249 179.122C140.404 179.516 136.457 177.549 133.328 173.332C133.059 172.968 132.736 172.505 132.411 171.974ZM212.965 166.53C218.931 172.812 227.741 183.638 232.864 197.138C220.163 201.465 205.785 203.224 189.597 202.448C148.948 200.504 129.004 182.709 126.148 174.889C125.919 174.261 125.461 172.732 126.163 172.081C126.759 171.528 127.6 171.24 128.628 171.21C129.155 172.489 129.912 173.808 130.897 175.136C134.392 179.849 140.017 183.65 143.013 181.588C143.947 180.944 144.396 179.905 144.247 178.74C143.804 175.314 138.068 170.801 133.235 169.053C132.421 168.76 131.635 168.541 130.88 168.396C130.508 166.68 130.743 164.908 132.409 163.58C133.669 162.576 135.124 162.185 136.625 162.241C137.341 163.998 138.331 165.749 139.477 167.361C142.18 171.157 146.125 174.582 149.129 172.804C150.183 172.176 150.745 171.088 150.671 169.814C150.493 166.749 146.559 162.561 141.9 160.481C140.872 160.02 139.86 159.685 138.875 159.474C138.176 157.068 138.237 154.91 139.568 153.789C140.781 152.765 142.884 152.818 145.405 153.877C146.089 155.99 147.064 158.038 148.071 159.7C150.857 164.306 153.912 166.244 156.241 164.893C157.229 164.318 157.756 163.306 157.683 162.116C157.48 158.792 152.543 154.106 147.951 151.73C147.212 148.808 147.315 146.25 148.768 145.336C152.119 143.218 160.635 151.858 165.605 158.669C166.071 159.308 166.951 159.484 167.625 159.065C168.297 158.649 168.537 157.785 168.173 157.082C165.991 152.861 163.145 144.992 164.807 141.838C165.081 141.317 165.623 140.601 167.149 140.41C168.989 140.19 169.992 142.046 172.053 146.669C175.151 153.614 179.831 164.112 195.203 166.79C201.327 167.857 207.34 167.57 212.965 166.53ZM222.945 163.84C228.828 170.134 237.125 180.54 242.099 193.41C240.027 194.392 237.899 195.286 235.725 196.11C230.779 182.946 222.572 172.386 216.477 165.784C218.72 165.232 220.879 164.569 222.945 163.84ZM126.411 299.129L90.0533 304.664V249.906C90.6093 245.702 94.968 222.169 123.161 216.798C123.196 216.792 123.221 216.769 123.255 216.76C147.496 214.676 168.815 210.434 168.815 203.193V202.888C174.883 204.156 181.739 205.104 189.453 205.473C191.999 205.596 194.497 205.656 196.957 205.656C198.011 205.656 199.053 205.642 200.091 205.62C200.151 205.669 200.193 205.733 200.261 205.773C200.392 205.85 205.764 209.053 213.321 214.752C213.32 214.752 213.32 214.752 213.319 214.752H213.307C207.141 215.345 194.619 216.81 181.236 219.996C155.719 226.064 139.32 235.11 132.489 246.894C125.913 258.254 125.441 280.72 126.411 299.129ZM82.072 358.909V224.65C83.7226 224.802 85.3733 224.954 87.0253 225.108V249.769C86.9853 250.061 86.9667 250.24 86.9653 250.26C86.948 250.448 86.9773 250.626 87.0253 250.797V358.909H82.072ZM90.0533 218.342C96.632 218.26 103.651 218.033 110.691 217.641C99.092 223.114 93.1027 232.105 90.0533 239.27V218.342ZM86.0053 218.529C85.9893 218.534 85.9667 218.542 85.936 218.553C85.9667 218.54 85.9893 218.529 86.0066 218.524C86.0066 218.526 86.0053 218.528 86.0053 218.529ZM85.5346 219.08C85.5333 219.077 85.5306 219.074 85.5293 219.072C85.544 219.062 85.572 219.048 85.5947 219.034C85.5747 219.052 85.5533 219.068 85.5346 219.08ZM275.121 170.733C274.677 192.045 271.557 224.985 249.749 246.677C240.175 233.44 228.155 222.538 218.54 214.958L218.527 214.945C218.369 214.824 218.224 214.702 218.067 214.582C218.053 214.582 218.053 214.569 218.041 214.569C212.756 210.429 208.244 207.317 205.327 205.4C215.639 204.781 225.145 202.993 233.884 200.018C234.508 201.914 235.065 203.85 235.517 205.836C235.677 206.538 236.301 207.014 236.992 207.014C237.104 207.014 237.217 207.002 237.329 206.977C238.145 206.79 238.655 205.98 238.469 205.165C237.988 203.053 237.399 200.998 236.74 198.992C238.92 198.169 241.053 197.272 243.136 196.294C243.817 198.317 244.42 200.389 244.904 202.517C245.064 203.218 245.688 203.694 246.38 203.694C246.491 203.694 246.604 203.682 246.716 203.657C247.532 203.47 248.043 202.66 247.856 201.845C247.317 199.478 246.648 197.18 245.888 194.946C257.059 189.213 266.765 181.152 275.121 170.733ZM266.415 52.7249C266.652 52.4982 266.995 52.2649 267.612 52.2649C267.843 52.2649 268.112 52.2969 268.429 52.3742C269.177 52.5582 269.341 54.1996 268.829 56.3649C268.249 58.8196 266.921 61.6182 265.145 64.0382C264.657 59.5009 264.711 54.3609 266.415 52.7249ZM252.821 52.0009C253.077 51.7769 253.265 51.6996 253.333 51.6996C253.341 51.6996 253.347 51.6996 253.352 51.7022C253.952 51.9449 254.673 54.8609 253.337 59.4129C252.696 61.5956 251.636 63.8609 250.177 65.6769C250.1 65.4489 250.031 65.2116 249.969 64.9649C248.736 60.0582 250.851 53.7169 252.821 52.0009ZM235.872 54.6822C236.28 52.3596 237.305 49.9622 238.627 49.9622C238.685 49.9622 238.745 49.9676 238.805 49.9782C240.121 50.1916 240.863 52.5342 240.611 55.6756C240.368 58.6942 239.171 62.3955 237.044 65.1035C235.604 62.0475 235.305 57.9036 235.872 54.6822ZM223.376 49.6302C223.707 49.1716 223.937 49.1102 224.057 49.1102C224.085 49.1102 224.108 49.1129 224.123 49.1155C225.092 49.2622 226.087 52.3862 225.441 56.9489C225.105 59.3355 224.395 61.6289 223.42 63.5502C221.281 58.4422 221.837 51.7689 223.376 49.6302ZM208.96 49.4116C209.087 49.2942 209.149 49.2649 209.196 49.2649C209.219 49.2649 209.236 49.2716 209.256 49.2809C209.48 49.3716 209.733 49.5302 209.909 50.0156C210.679 52.1236 209.127 56.8702 207.477 60.5996C206.529 55.7369 207.575 50.6929 208.96 49.4116ZM251.14 132.072C244.561 138.421 235.407 140.544 223.932 138.382C212.281 136.188 204.34 130.821 200.324 122.434C191.713 104.449 202.979 77.1129 207.3 67.8809C209.085 70.2649 211.533 71.7316 214.471 72.1156C218.057 72.5902 221.011 71.2542 223.276 68.9342C225.101 70.8662 227.399 71.8702 230.057 71.8702C232.224 71.8702 234.499 71.1316 236.559 69.6902C237.776 70.9342 239.304 71.8329 241.187 72.1889C244.488 72.8129 247.276 72.0209 249.56 70.4249C250.712 71.5862 252.177 72.3836 253.927 72.7836C257.259 73.5409 260.363 72.4876 263.033 70.5142C264.027 78.7529 267.519 116.256 251.14 132.072ZM209.617 147.116L205.244 133.504C209.883 137.321 215.933 139.957 223.371 141.358C223.744 141.429 224.109 141.481 224.479 141.544L209.617 147.116ZM193.308 73.5809C193.497 72.7329 194.021 72.1462 194.952 71.7302C195.556 71.4622 196.104 71.4489 196.68 71.6889C198.425 72.4182 199.853 75.1182 200.411 76.4449C199.52 78.8382 198.621 81.4756 197.791 84.2782C197.525 83.9169 197.261 83.5396 196.997 83.1529C197.732 82.2849 198.193 81.1782 198.193 79.9542C198.193 77.2222 195.98 75.0009 193.255 74.9782C193.201 74.4716 193.213 73.9996 193.308 73.5809ZM278.524 11.3929C278.551 11.6369 278.571 11.8742 278.585 12.1009C278.988 18.1169 276.637 23.2142 275.477 23.6129C274.733 22.5969 274.931 17.2956 277.659 12.6996C277.917 12.2636 278.207 11.8236 278.524 11.3929ZM31.624 136.428C30.0266 133.064 29.864 130.006 31.24 129.16C32.084 128.638 32.7866 128.464 33.3653 128.464C33.94 128.464 34.392 128.637 34.7386 128.81C36.5586 129.724 39.896 133.262 43.0827 146.389C37.7013 145.237 33.5133 140.402 31.624 136.428ZM63.516 117.685C64.4627 117.104 65.3213 116.813 66.1107 116.813C66.588 116.813 67.0413 116.92 67.472 117.133C68.676 117.728 69.2186 119.116 69.084 121.261C68.584 129.306 59.2 142.554 49.368 145.97C48.6453 146.221 47.9333 146.398 47.2333 146.508C50.9973 134.461 57.6947 121.269 63.516 117.685ZM146.236 107.242L179.008 85.5649C180.252 87.4156 181.408 89.2049 182.46 90.8769L149.312 111.722C148.295 110.209 147.265 108.696 146.236 107.242ZM144.48 104.772C142.215 101.61 140.204 98.9462 139.041 97.4436C139.037 97.4369 139.033 97.4329 139.028 97.4262C146.221 95.0129 152.769 91.4462 157.993 86.4742C162.448 82.2329 166.108 77.4156 168.957 72.1116C171.917 75.5982 174.751 79.3916 177.301 83.0636L144.48 104.773C144.48 104.772 144.48 104.772 144.48 104.772ZM97.324 97.2956C92.1773 88.9916 94.704 77.3676 95.5747 74.0876C98.9787 73.9542 102.487 73.7089 106.009 73.2516C105.936 78.1356 106.813 82.7849 108.549 86.3276C110.636 90.5849 113.773 92.8769 117.465 92.8769C117.809 92.8769 118.159 92.8569 118.512 92.8169C119.035 92.7582 119.523 92.6369 119.993 92.4862C120.651 93.7449 121.856 95.7796 123.635 97.7889C120.789 98.1369 117.851 98.3582 114.824 98.4302C108.96 98.5742 103.003 98.1649 97.324 97.2956ZM65.7787 79.4929C66.6347 74.4929 75.3653 74.3996 86.4187 74.2822C88.3453 74.2609 90.3573 74.2356 92.416 74.1876C91.4013 78.3196 89.648 88.2702 93.5387 96.6422C86.4187 95.2582 79.9066 93.1342 74.8226 90.4236C71.0866 88.4316 64.9453 84.3636 65.7787 79.4929ZM116.132 53.9423C122.105 47.8169 128.985 44.3596 136.58 43.6689C140.065 43.3516 142.909 43.7222 144.603 44.0596C143.596 45.7956 142.475 47.5462 141.185 49.3076C141.072 49.4622 141.001 49.6343 140.953 49.8103C140.904 49.8676 140.867 49.9289 140.828 49.9929C140.804 50.0316 140.768 50.0556 140.748 50.0956C140.724 50.1422 140.725 50.1929 140.708 50.2422C140.669 50.3396 140.643 50.4356 140.625 50.5396C140.611 50.6342 140.604 50.7262 140.607 50.8209C140.609 50.9169 140.621 51.0075 140.643 51.1035C140.667 51.2049 140.699 51.2982 140.743 51.3929C140.764 51.4409 140.764 51.4916 140.792 51.5382C143.564 56.3022 149.561 69.6209 144.089 73.9849C142.44 75.2996 140.897 75.7022 139.611 75.6836C139.872 72.5809 139.423 69.4822 138.392 67.1942C136.771 63.5929 134.197 63.1636 132.333 63.9636C130.604 64.7049 129.579 66.2902 129.52 68.3116C129.419 71.8116 132.137 75.9502 135.712 77.7369C135.871 77.8156 136.032 77.8916 136.193 77.9609C135.553 80.6929 134.177 83.1409 131.824 84.2529C129.057 85.5622 126.805 85.4756 125.033 84.7836C125.26 80.2316 123.444 74.8849 121.195 72.8262C119.757 71.5089 118.481 71.7636 117.849 72.0316C117.209 72.3036 116.103 73.0636 115.881 75.0916C115.533 78.2916 117.611 83.4916 121.572 86.3129C121.633 86.3556 121.696 86.3996 121.759 86.4422C121.249 88.4649 120.047 89.5956 118.169 89.8089C114.632 90.2236 112.453 87.4156 111.268 84.9956C107.257 76.8062 108.483 61.7849 116.132 53.9423ZM161.644 7.2049C161.847 7.15824 162.44 7.37023 163.339 8.26089C167.101 11.9942 171.432 22.3236 172.725 34.8422C166.991 32.6969 157.3 30.7929 153.62 30.1116C154.725 26.0302 155.384 22.2649 155.955 18.9769C157.277 11.3489 158.072 7.6609 161.644 7.2049ZM183.324 57.1542C182.241 62.0956 173.168 63.7542 165.376 62.4476C159.697 61.4996 155.925 59.1542 156.204 56.7449C156.693 52.5396 168.469 51.6649 174.084 51.8956C174.088 51.8956 174.091 51.8929 174.095 51.8929C174.113 51.8942 174.131 51.8969 174.148 51.8969C174.536 51.8969 174.895 51.7436 175.165 51.4956C175.188 51.4756 175.2 51.4462 175.221 51.4262C175.328 51.3156 175.425 51.1956 175.495 51.0556C175.527 50.9916 175.536 50.9182 175.56 50.8489C175.591 50.7542 175.637 50.6662 175.649 50.5622C175.873 48.6822 176.017 46.8156 176.089 44.9689C179.147 47.0089 184.561 51.5049 183.324 57.1542ZM152.76 33.0329C156.389 33.7036 167.892 35.9383 172.995 38.2183C173.188 41.6569 173.14 45.2236 172.787 48.8342C168.089 48.7849 154.66 49.2476 153.285 55.9302C149.835 53.3569 146.216 51.2729 144.253 50.2036C148.469 44.2289 151.056 38.4036 152.76 33.0329ZM136.617 74.7849C134.095 73.2982 132.489 70.3676 132.547 68.3996C132.58 67.2809 133.121 66.9209 133.525 66.7475C133.661 66.6902 133.795 66.6609 133.927 66.6609C134.527 66.6609 135.099 67.2556 135.631 68.4369C136.337 70.0062 136.72 72.3529 136.617 74.7849ZM120.955 81.4356C118.891 78.5489 118.605 75.5809 118.976 74.9009C119.936 75.4556 121.652 78.9236 121.983 82.6796C121.579 82.2569 121.236 81.8302 120.955 81.4356ZM127.351 97.2556C124.893 95.0129 123.308 92.3036 122.605 90.9396C123.443 90.1289 124.096 89.0916 124.508 87.8236C124.511 87.8196 124.511 87.8156 124.512 87.8102C126.756 88.5449 129.644 88.6342 133.117 86.9902C136.316 85.4769 138.247 82.2716 139.121 78.7009C141.461 78.8742 143.808 78.0822 145.977 76.3529C152.093 71.4742 148.479 60.6796 145.692 54.5222C148.469 56.1862 152.071 58.5556 154.843 61.1302C154.929 61.2102 155.033 61.2543 155.132 61.3103C157.095 63.2329 160.449 64.6942 164.877 65.4342C166.1 65.6382 167.347 65.7529 168.593 65.8249C165.699 72.7969 161.448 79.0062 155.907 84.2809C149.057 90.7996 139.163 95.2529 127.351 97.2556ZM311.627 49.8209C312.543 48.9502 313.345 47.9902 313.989 46.9396C316.163 43.3929 316.109 39.4089 313.835 35.4209C312.607 33.2689 310.995 31.7036 309.057 30.7556C310.592 27.1396 310.105 23.6422 307.516 20.6396C304.777 17.4622 300.835 16.2489 296.261 17.1196C296.621 15.4556 296.732 13.8222 296.509 12.2969C296 8.79424 293.805 6.29156 290.164 5.06489C286.528 3.83956 283.087 4.13556 280.148 5.85822C278.295 1.96756 274.853 -0.167092 270.205 0.0102417C266.544 0.132908 263.529 1.5209 261.244 4.13557C256.749 9.27823 256.329 17.8502 256.42 22.0142C248.925 19.4169 240.361 18.9449 231.303 20.8222C196.28 28.0742 194.771 62.1036 194.809 68.6116C194.443 68.6916 194.079 68.8049 193.72 68.9649C191.919 69.7689 190.755 71.1342 190.353 72.9156C190.143 73.8489 190.172 74.8609 190.344 75.8996C189.072 76.8022 188.235 78.2796 188.235 79.9542C188.235 82.6996 190.469 84.9329 193.213 84.9329C193.635 84.9329 194.036 84.8649 194.427 84.7662C195.411 86.2076 196.305 87.3342 196.781 87.9089C192.965 102.585 193.232 114.628 197.591 123.737C198.404 125.436 199.36 127.018 200.453 128.492L207.22 149.554C207.347 149.948 207.629 150.273 208.003 150.453C208.209 150.554 208.436 150.605 208.661 150.605C208.841 150.605 209.021 150.573 209.192 150.508L231.313 142.212C231.619 142.22 231.929 142.236 232.231 142.236C240.696 142.236 247.741 139.562 253.247 134.246C254.585 132.953 255.819 131.496 256.965 129.909C260.627 130.72 275.197 135.554 275.197 161.162C275.197 162.568 275.196 164.09 275.187 165.697C266.672 177.18 256.599 185.946 244.84 192.048C239.919 179.365 232.016 169.161 226.056 162.67C229.044 161.465 231.783 160.146 234.195 158.854C244.391 153.393 250.972 147.402 251.247 147.149C251.863 146.585 251.904 145.626 251.339 145.01C250.775 144.396 249.817 144.354 249.2 144.917C249.036 145.068 238.477 154.592 223.793 160.281C220.6 157.012 218.327 155.116 218.037 154.878C217.392 154.346 216.437 154.44 215.907 155.086C215.376 155.732 215.468 156.686 216.113 157.217C216.176 157.269 217.957 158.756 220.62 161.428C218.495 162.136 216.297 162.746 214.045 163.233C211.043 160.19 208.928 158.426 208.649 158.198C208.004 157.665 207.049 157.76 206.52 158.406C205.988 159.052 206.081 160.006 206.727 160.537C206.783 160.584 208.197 161.764 210.381 163.902C205.639 164.6 200.704 164.676 195.723 163.808C190.435 162.886 186.579 160.954 183.653 158.55C191.349 157.077 197.188 150.304 197.188 142.184C197.188 132.99 189.709 125.512 180.517 125.512C179.012 125.512 177.532 125.714 176.099 126.108C173.927 122.877 163.709 121.326 154.629 120.564C153.624 118.616 152.353 116.461 150.949 114.27L184.055 93.4502C186.696 97.7822 188.389 100.898 188.637 101.43C188.835 102.037 189.404 102.476 190.076 102.476C190.912 102.476 191.591 101.797 191.591 100.961C191.591 100.408 189.653 96.7569 186.633 91.8289L188.821 90.4529C189.529 90.0076 189.743 89.0729 189.299 88.3649C188.851 87.6569 187.916 87.4436 187.211 87.8889L185.031 89.2596C183.951 87.5529 182.775 85.7489 181.527 83.8996L183.241 82.7649C183.939 82.3036 184.131 81.3636 183.669 80.6676C183.207 79.9689 182.265 79.7809 181.572 80.2396L179.815 81.4009C176.868 77.1676 173.632 72.8662 170.427 69.1782C170.931 68.0969 171.405 66.9982 171.844 65.8795C178.821 65.6075 185.125 63.0822 186.281 57.8036C188.217 48.9609 178.772 42.9249 176.139 41.4329C175.976 25.0742 170.38 10.9809 165.471 6.1129C164.019 4.67157 162.595 4.02758 161.26 4.20092C155.312 4.96092 154.279 10.9182 152.971 18.4582C151.889 24.6996 150.491 32.7062 146.119 41.2862C141.96 40.2582 127.456 37.9969 113.965 51.8276C109.324 56.5863 106.847 63.4329 106.189 70.1756C99.372 71.1062 92.4853 71.1889 86.3867 71.2542C73.9213 71.3876 64.076 71.4929 62.7933 78.9822C61.9386 83.9809 65.704 88.9929 73.3987 93.0956C82.9107 98.1662 97.4186 101.474 112.345 101.474C120.328 101.474 128.421 100.512 135.939 98.3809C135.945 98.3889 135.948 98.3929 135.953 98.4009C136.777 99.4662 139.163 102.568 141.948 106.442C141.949 106.444 141.951 106.445 141.951 106.446L137.615 109.314C136.917 109.776 136.725 110.716 137.187 111.412C137.479 111.852 137.96 112.09 138.451 112.09C138.739 112.09 139.028 112.009 139.284 111.84L143.7 108.92C143.701 108.921 143.703 108.924 143.704 108.925C144.709 110.354 145.739 111.844 146.732 113.345L142.796 115.82C142.088 116.266 141.875 117.2 142.32 117.908C142.608 118.365 143.1 118.616 143.603 118.616C143.879 118.616 144.157 118.541 144.407 118.384L148.383 115.884C149.351 117.408 150.257 118.906 151.056 120.31C144.735 119.91 139.684 119.886 139.539 119.886C138.219 119.886 107.541 119.97 106.863 127.177C106.859 127.198 106.861 127.226 106.859 127.25C106.859 127.254 106.856 127.257 106.856 127.261C106.737 128.425 104.085 155.978 113.905 175.44C115.173 177.952 116.919 180.114 118.999 181.86C108.271 181.112 95.0293 180.448 84.4067 180.448C78.72 180.448 73.0533 180.548 67.5293 180.736C67.9666 175.522 66.8253 171.402 66.7306 171.076C66.544 170.428 65.9506 169.981 65.276 169.981H50.04C49.7227 166.917 48.8307 159.126 47.204 151.025C47.108 150.541 47.0093 150.064 46.9107 149.594C48.0453 149.484 49.2 149.234 50.3613 148.83C61.3933 144.996 71.5386 130.569 72.1066 121.449C72.3173 118.068 71.1467 115.572 68.812 114.417C67.3507 113.696 64.9747 113.233 61.9293 115.106C55.472 119.081 49.9427 131.008 47.864 135.95C46.9147 138.212 46.0466 140.49 45.276 142.736C42.7306 133.384 39.7053 127.916 36.0973 126.105C34.6693 125.389 32.3947 124.89 29.6507 126.581C26.8067 128.336 26.5067 132.71 28.8907 137.728C31.644 143.522 36.9787 148.482 43.22 149.481C41.9733 154.201 41.2653 158.505 41.236 161.838C41.2293 162.674 41.9013 163.358 42.7373 163.365C43.548 163.429 44.2573 162.7 44.264 161.864C44.28 160.001 44.5253 157.834 44.9613 155.476C46.0653 161.732 46.716 167.321 46.996 169.981H32.0573C31.3827 169.981 30.7893 170.428 30.6027 171.076C30.4907 171.464 28.904 177.196 30.236 183.762C10.188 186.597 0 190.588 0 195.634V203.193C0 213.762 45.4146 217.944 79.044 218.346V314.74C79.02 314.801 79.02 314.873 79.02 314.945C79.02 324.005 69.04 331.72 62.44 336.818C60.9746 337.957 59.7026 338.937 58.6613 339.821C57.22 341.069 56.796 343.056 57.596 344.762C58.2973 346.241 59.7267 347.137 61.3373 347.137C61.58 347.137 61.8347 347.125 62.076 347.076L79.044 343.733V359.365L31.9853 376.802C31.5 376.982 31.14 377.397 31.032 377.904C30.9226 378.41 31.08 378.937 31.4493 379.3L40.1066 387.826C40.3973 388.113 40.7813 388.262 41.1693 388.262C41.4333 388.262 41.6986 388.193 41.9373 388.053L80.536 365.305L53.6667 407.18C53.368 407.645 53.3467 408.237 53.612 408.722C53.8773 409.209 54.3866 409.51 54.94 409.51H74.2227C74.9267 409.51 75.536 409.025 75.6973 408.341L86.348 362.696L159.303 384.916C159.759 385.058 160.259 384.969 160.644 384.685C161.029 384.398 161.257 383.949 161.257 383.468V373.106C161.257 372.366 160.721 371.733 159.991 371.613L90.0533 360.038V341.553L119.24 335.789L123.176 340.354C119.616 344.266 115.147 347.864 111.804 350.564C110.581 351.545 109.503 352.417 108.656 353.144C107.215 354.392 106.779 356.377 107.589 358.085C108.28 359.562 109.709 360.458 111.332 360.458C111.575 360.458 111.816 360.446 112.059 360.398L169.235 349.11L173.909 354.536C174.867 355.65 176.368 356.026 177.748 355.517C179.117 355.009 180.013 353.737 180.013 352.272V322.285L184.483 321.656C185.317 321.546 185.887 320.784 185.779 319.948C185.657 319.124 184.895 318.554 184.071 318.664L180.025 319.233C180.123 297.19 182.327 281.241 184.313 271.346C184.313 271.342 184.313 271.34 184.315 271.337C185.484 271.364 186.652 271.39 187.801 271.39C190.788 271.39 193.693 271.285 196.539 271.106C196.567 271.122 196.584 271.149 196.615 271.162L211.867 278.253C212.06 278.342 212.268 278.386 212.475 278.39C212.487 278.39 212.496 278.394 212.507 278.394C212.568 278.394 212.64 278.394 212.701 278.382C212.701 278.382 212.725 278.382 212.773 278.37C213.076 278.334 214.297 278.153 216.22 277.838V353.849C216.22 355.549 216.957 357.162 218.243 358.274C219.313 359.2 220.672 359.701 222.069 359.701C222.348 359.701 222.629 359.68 222.909 359.64C225.767 359.226 227.921 356.737 227.921 353.849V275.525C227.923 275.525 227.923 275.525 227.924 275.524C232.043 274.58 236.729 273.393 241.609 271.904V321.292C241.609 323 242.348 324.61 243.632 325.712C244.711 326.645 246.067 327.141 247.46 327.141C247.739 327.141 248.016 327.129 248.295 327.081C251.153 326.669 253.309 324.186 253.309 321.292V267.87C259.752 265.376 265.372 262.614 270.144 259.622C270.144 259.622 270.144 259.622 270.145 259.621V334.744C270.145 336.442 270.881 338.054 272.167 339.168C273.237 340.094 274.597 340.594 275.996 340.594C276.275 340.594 276.555 340.574 276.836 340.534C279.693 340.12 281.847 337.63 281.847 334.744V250.141C281.847 250.114 281.833 250.092 281.832 250.066C283.127 248.649 284.265 247.184 285.245 245.682C304.756 215.986 302.323 141.262 302.201 138.101C302.177 137.422 301.704 136.841 301.039 136.684L258.953 126.886L258.94 126.882C262.924 120.066 265.46 111.077 266.52 100.013C267.377 99.7289 268.693 99.2569 270.213 98.6196C271.128 99.7369 272.499 100.466 274.052 100.466C276.796 100.466 279.031 98.2316 279.031 95.4862C279.031 94.8622 278.903 94.2716 278.692 93.7209C280.179 92.4529 281.375 91.0236 281.957 89.4436C282.677 87.4956 282.421 85.4756 281.219 83.5956C280.617 82.6556 279.851 81.9396 278.961 81.4556C280.808 76.7436 281.971 71.9502 282.489 67.2142C285.841 68.4076 289.352 68.9409 292.761 68.9409C300.027 68.9409 306.828 66.5516 310.636 63.1236C313.78 60.2956 314.927 56.8716 313.867 53.4836C313.42 52.0622 312.663 50.8316 311.627 49.8209Z" fill="#303F23"/>
<path d="M245.296 77.2218C244.432 77.1912 243.748 77.8032 243.695 78.6378C243.643 79.4698 244.275 80.1898 245.108 80.2432C245.563 80.2738 256.245 81.1192 257.731 92.7872C257.829 93.5512 258.48 94.1098 259.231 94.1098C259.295 94.1098 259.36 94.1058 259.425 94.0978C260.253 93.9912 260.84 93.2352 260.735 92.4045C258.927 78.2125 245.432 77.2298 245.296 77.2218Z" fill="#303F23"/>
</svg>
