<svg width="322" height="376" viewBox="0 0 322 376" fill="none" xmlns="http://www.w3.org/2000/svg">
<path d="M260.902 72.9707C260.902 74.884 262.458 76.44 264.37 76.44C266.283 76.44 267.841 74.884 267.841 72.9707C267.841 71.0573 266.283 69.5027 264.37 69.5027C262.458 69.5027 260.902 71.0573 260.902 72.9707Z" fill="#303F23"/>
<path d="M232.476 69.784C232.476 67.8707 230.919 66.316 229.007 66.316C227.094 66.316 225.538 67.8707 225.538 69.784C225.538 71.6973 227.094 73.2533 229.007 73.2533C230.919 73.2533 232.476 71.6973 232.476 69.784Z" fill="#303F23"/>
<path d="M250.992 57.7759C251.403 57.1065 251.193 56.2319 250.525 55.8225C249.857 55.4132 248.983 55.6212 248.571 56.2892C248.464 56.4625 237.815 73.6572 227.373 78.4532C226.78 78.7252 226.449 79.3665 226.569 80.0079C226.692 80.6492 227.235 81.1252 227.887 81.1612C228.507 81.1972 242.457 81.9559 252.592 80.9065L252.392 83.4359C252.331 84.2172 252.913 84.9012 253.696 84.9625C253.733 84.9665 253.772 84.9679 253.809 84.9679C254.544 84.9679 255.165 84.4025 255.224 83.6599L255.56 79.4079C255.593 78.9799 255.432 78.5612 255.121 78.2652C254.811 77.9692 254.372 77.8332 253.959 77.8879C247.417 78.7479 238.319 78.6679 232.829 78.5132C242.371 71.7025 250.597 58.4185 250.992 57.7759Z" fill="#303F23"/>
<path d="M241.184 53.7814C231.695 51.7868 224 58.7374 223.678 59.0334C223.1 59.5641 223.063 60.4601 223.592 61.0388C223.871 61.3428 224.254 61.4988 224.639 61.4988C224.98 61.4988 225.324 61.3761 225.596 61.1268C225.666 61.0628 232.562 54.8694 240.603 56.5614C241.367 56.7214 242.123 56.2308 242.284 55.4628C242.444 54.6948 241.952 53.9428 241.184 53.7814Z" fill="#303F23"/>
<path d="M273.541 67.82C273.801 68.2893 274.285 68.5547 274.787 68.5547C275.019 68.5547 275.253 68.4973 275.471 68.3787C276.157 67.9987 276.408 67.136 276.029 66.448C270.401 56.248 259.833 54.3107 259.387 54.2333C258.607 54.096 257.881 54.616 257.747 55.3867C257.611 56.1587 258.127 56.8933 258.899 57.032C258.995 57.048 268.591 58.8453 273.541 67.82Z" fill="#303F23"/>
<path d="M229.835 87.594C229.294 87.0273 228.395 87.0087 227.829 87.5487C227.262 88.09 227.239 88.9873 227.781 89.554C227.905 89.6847 236.281 98.258 248.438 98.258C254.198 98.258 260.81 96.3207 267.791 90.6593C269.363 92.6207 269.71 94.706 269.734 94.8647C269.837 95.57 270.443 96.078 271.137 96.078C271.205 96.078 271.271 96.074 271.339 96.0633C272.117 95.9527 272.655 95.234 272.545 94.4567C272.105 91.3767 269.255 85.318 261.619 84.434C260.858 84.338 260.137 84.9007 260.046 85.6807C259.955 86.4593 260.514 87.1647 261.294 87.254C263.098 87.4633 264.519 88.0167 265.642 88.7313C246.163 104.182 230.506 88.2913 229.835 87.594Z" fill="#303F23"/>
<path d="M248.521 105.853C248.26 105.113 247.452 104.721 246.709 104.987C241.389 106.871 237.952 103.296 237.797 103.128C237.266 102.552 236.37 102.517 235.794 103.047C235.216 103.576 235.177 104.475 235.708 105.052C235.861 105.22 238.828 108.381 243.638 108.381C244.862 108.381 246.208 108.176 247.654 107.665C248.394 107.404 248.782 106.593 248.521 105.853Z" fill="#303F23"/>
<path d="M237.752 114.184L230.016 122.367L217.39 98.9043L237.752 114.184ZM212.155 92.8189C211.65 93.2523 211.515 93.9803 211.831 94.5683L228.447 125.444C228.664 125.846 229.059 126.119 229.511 126.179C229.574 126.187 229.636 126.191 229.698 126.191C230.086 126.191 230.46 126.032 230.73 125.746L240.91 114.979C241.187 114.684 241.326 114.287 241.292 113.883C241.258 113.48 241.054 113.11 240.73 112.867L213.934 92.7589C213.402 92.3602 212.662 92.3843 212.155 92.8189Z" fill="#303F23"/>
<path d="M110.627 127.768C116.47 127.768 121.223 132.521 121.223 138.364C121.223 144.208 116.47 148.961 110.627 148.961C104.785 148.961 100.031 144.208 100.031 138.364C100.031 132.521 104.785 127.768 110.627 127.768ZM110.627 151.801C118.037 151.801 124.063 145.773 124.063 138.364C124.063 130.956 118.037 124.928 110.627 124.928C103.218 124.928 97.1902 130.956 97.1902 138.364C97.1902 145.773 103.218 151.801 110.627 151.801Z" fill="#303F23"/>
<path d="M241.419 122.758C243.135 122.758 244.529 124.153 244.529 125.869C244.529 127.583 243.135 128.978 241.419 128.978C239.703 128.978 238.308 127.583 238.308 125.869C238.308 124.153 239.703 122.758 241.419 122.758ZM235.468 125.869C235.468 129.149 238.137 131.819 241.419 131.819C244.7 131.819 247.369 129.149 247.369 125.869C247.369 122.587 244.7 119.918 241.419 119.918C238.137 119.918 235.468 122.587 235.468 125.869Z" fill="#303F23"/>
<path d="M311.927 165.343C308.087 188.033 302.087 210.393 292.747 222.075C275.922 243.127 236.646 250.104 228.223 251.377L228.251 245.536C231.662 244.833 242.187 242.485 253.713 238.112C267.681 232.811 278.127 226.552 284.941 219.441C285.021 219.517 285.105 219.592 285.185 219.667C285.458 219.928 285.81 220.056 286.161 220.056C286.537 220.056 286.913 219.908 287.191 219.612C287.731 219.043 287.706 218.144 287.137 217.605C287.042 217.515 286.941 217.424 286.845 217.333C288.415 215.459 289.747 213.528 290.83 211.543C296.342 201.439 300.881 188.651 304.334 173.547C307.375 171.22 309.902 168.476 311.927 165.341V165.343ZM286.741 309.923C285.977 310.037 285.209 309.807 284.627 309.303C284.046 308.799 283.711 308.071 283.711 307.301V240.707C283.861 240.679 284.01 240.643 284.154 240.567C285.034 240.103 285.914 239.64 286.794 239.176C287.234 238.944 287.675 238.712 288.114 238.48C288.409 238.327 288.718 238.167 289.009 237.984V307.301C289.009 308.607 288.034 309.735 286.741 309.923ZM236.147 327.847C235.393 327.963 234.618 327.731 234.037 327.229C233.455 326.725 233.121 325.996 233.121 325.227V259.441C233.153 259.436 233.182 259.445 233.215 259.437C234.066 259.243 234.918 259.048 235.77 258.853C236.189 258.757 236.606 258.661 237.023 258.567C237.231 258.519 237.446 258.481 237.65 258.423C237.957 258.336 238.213 258.177 238.417 257.965V325.227C238.417 326.532 237.442 327.659 236.147 327.847ZM225.385 250.879L214.562 246.316C215.518 246.339 216.518 246.352 217.538 246.352C220.183 246.352 222.942 246.249 225.409 245.977L225.385 250.879ZM150.822 231.539C150.651 198.475 228.529 187.363 229.323 187.249C229.393 187.237 229.471 187.227 229.529 187.204C246.746 194.661 269.117 205.672 282.823 217.533C265.279 235.672 227.017 242.892 226.617 242.965C220.634 243.904 211.289 243.388 208.042 243.167V223.472C208.042 222.688 207.406 222.052 206.622 222.052C205.838 222.052 205.202 222.688 205.202 223.472V299.895H153.141C152.742 293.168 150.97 262.035 150.822 231.539ZM119.647 276.175V212.781L148.381 196.324C148.39 196.319 148.395 196.308 148.406 196.303C180.111 194.239 206.953 188.721 206.953 180.153V178.148C209.927 179.237 216.438 181.681 224.655 185.125C217.663 186.343 203.127 189.228 188.726 194.339C161.617 203.975 147.902 216.496 147.982 231.561C148.038 242.549 148.299 253.616 148.641 263.603V263.605L119.647 276.175ZM183.613 342.392V348.992L136.159 334.539L183.613 342.392ZM103.671 372.501H89.3074L111.879 337.324L103.671 372.501ZM74.0061 352.208L68.2554 346.543L109.653 331.201L74.0061 352.208ZM109.315 280.657L63.4007 300.553L37.37 259.899L109.315 218.7L109.317 218.699V280.657H109.315ZM119.647 197.217C119.69 197.217 119.733 197.217 119.775 197.217C127.21 197.217 134.727 197.032 142.067 196.665L119.647 209.508V197.217ZM112.158 327.865V202.737C113.699 202.967 115.251 203.057 116.807 202.983V327.865H112.158ZM35.438 180.153V175.796C45.93 183.919 83.8101 188.251 119.775 188.251C155.739 188.251 193.621 183.919 204.111 175.796V180.153C204.111 185.967 174.078 194.377 119.775 194.377C65.4714 194.377 35.438 185.967 35.438 180.153ZM68.1701 160.127L71.1247 172.533C71.2767 173.172 71.8487 173.624 72.5061 173.624H159.798H202.507C195.657 179.093 166.839 185.411 119.775 185.411C65.4714 185.411 35.438 177 35.438 171.187C35.438 168.748 42.3634 163.699 68.1701 160.127ZM142.654 106.36L157.999 170.784H73.6287L58.2821 106.36H142.654ZM169.147 159.828C169.421 160.409 169.803 160.937 170.303 161.393C171.975 162.916 174.966 163.044 178.21 162.397C178.191 162.587 178.189 162.768 178.179 162.953C178.142 162.951 178.11 162.932 178.073 162.932H159.049L158.021 158.611C161.869 158.963 165.602 159.369 169.147 159.828ZM174.351 152.112C176.067 150.232 178.21 148.696 179.778 148.311C180.015 148.252 180.21 148.229 180.365 148.229C180.551 148.229 180.677 148.263 180.742 148.311C180.721 148.473 180.313 149.149 178.759 150.099C177.466 150.889 175.909 151.576 174.351 152.112ZM182.533 158.128C184.034 155.267 186.359 152.777 188.246 152.323C188.423 152.281 188.586 152.259 188.738 152.259C189.179 152.259 189.527 152.441 189.85 152.828C190.065 153.084 189.535 153.801 188.953 154.36C187.451 155.797 185.061 157.128 182.533 158.128ZM188.863 166.676C189.754 164.456 192.731 161.164 195.919 159.601C196.834 159.153 197.642 158.923 198.273 158.923C198.618 158.923 198.91 158.992 199.137 159.133C199.075 160.047 196.57 162.896 192.325 165.171C191.239 165.752 190.051 166.281 188.863 166.676ZM167.271 153.195C166.989 153.092 166.242 152.641 166.183 151.795C166.13 150.993 166.673 148.005 175.942 143.155C187.487 137.119 210.646 137.499 244.77 144.296C248.398 145.017 251.818 145.531 255.033 145.889C258.558 153.997 263.519 166.707 266.699 180.347C245.845 179.997 224.789 173.732 218.479 170.796C204.277 164.183 197.962 166.555 193.787 168.125C192.541 168.593 191.667 168.905 190.899 168.96C190.991 168.925 191.082 168.888 191.174 168.851C196.094 166.844 201.599 162.577 201.955 159.423C202.074 158.372 201.657 157.428 200.809 156.832C199.742 156.083 197.811 155.511 194.669 157.051C190.703 158.995 186.158 163.745 185.781 167.348C184.367 167.468 183.115 167.24 182.219 166.511C180.757 165.319 180.861 163.2 181.214 161.613C185.141 160.356 188.974 158.273 190.918 156.409C193.738 153.707 192.635 151.731 192.03 151.007C190.901 149.657 189.319 149.143 187.581 149.561C183.975 150.429 180.426 155.067 178.931 159.304C175.911 160.077 173.221 160.208 172.217 159.293C171.775 158.891 171.234 158.176 171.631 156.611C171.706 156.317 171.809 156.019 171.934 155.717C176.322 154.765 181.443 152.413 182.973 150.147C183.83 148.875 183.775 147.484 182.826 146.427C182.337 145.879 181.199 145.033 179.099 145.552C176.181 146.269 172.114 149.593 170.023 153.204C168.809 153.384 167.823 153.395 167.271 153.195ZM238.403 136.599C240.119 136.599 241.514 137.993 241.514 139.709C241.514 140.064 241.433 140.405 241.317 140.735C239.271 140.348 237.265 139.985 235.299 139.647C235.333 137.961 236.71 136.599 238.403 136.599ZM203.046 169.253C203.067 169.277 203.075 169.308 203.098 169.329C203.615 169.84 203.933 170.327 204.053 170.784H194.79C196.849 170.011 199.315 169.099 203.046 169.253ZM160.919 170.784L159.726 165.772H178.073C178.213 165.772 178.339 165.731 178.467 165.693C178.821 166.905 179.47 167.935 180.426 168.712C181.946 169.952 184.046 170.421 186.555 170.117C186.771 170.371 187.033 170.592 187.33 170.784H160.919ZM299.026 176.929C299.65 176.601 300.257 176.259 300.849 175.905C297.551 189.445 293.355 200.98 288.335 210.183C287.335 212.017 286.119 213.763 284.727 215.424C261.182 194.989 213.999 177.645 206.953 175.123V171.187C206.953 170.68 206.837 170.185 206.663 169.696C209.527 170.255 212.985 171.371 217.282 173.371C222.161 175.641 235.907 180.016 252.021 182.088C256.626 182.68 261.869 183.127 267.333 183.181C268.078 186.691 268.693 190.243 269.123 193.779C269.21 194.5 269.823 195.028 270.531 195.028C270.589 195.028 270.646 195.025 270.705 195.019C271.483 194.923 272.038 194.215 271.943 193.437C271.527 190.013 270.939 186.576 270.231 183.176C280.127 183.008 290.511 181.421 299.026 176.929ZM311.451 118.589C311.826 111.003 311.846 105.863 311.838 104.061L318.518 98.94V98.9413C318.325 104.055 317.79 115.257 316.529 129.075C316.529 129.083 316.527 129.091 316.527 129.097C315.418 125.225 313.733 121.713 311.451 118.589ZM279.281 102.601L279.571 98.496L308.999 104.525C309.001 106.287 308.971 110.045 308.754 115.367C298.782 104.856 284.01 102.944 279.281 102.601ZM255.238 125.147L248.329 115.056L273.145 107.148L255.238 125.147ZM289.09 68.1933C290.061 68.3786 290.807 68.9906 291.374 70.0653C292.131 71.5013 292.221 72.756 291.65 73.9026C290.129 76.9533 284.405 78.844 280.906 79.6493L281.505 71.1973C283.111 69.9413 286.601 67.7 289.09 68.1933ZM316.663 96.7827L310.062 101.843L279.774 95.6373L280.182 89.864L316.663 96.7827ZM113.455 61.1586H140.81C144.883 61.1586 148.342 58.1093 148.851 54.0667L150.202 43.348C154.547 48.096 165.518 60.0826 176.521 72.0746C179.917 75.776 182.899 79.0266 185.542 81.9053C171.306 90.2906 161.351 101.52 156.426 107.873L113.455 61.1586ZM100.201 55.532C102.469 55.872 104.617 55.9866 106.466 55.9866C116.429 55.9866 127.097 52.512 127.097 47.34C127.097 45.6813 126.066 44.44 124.543 43.512C127.526 41.528 128.194 39.4467 128.194 37.9813C128.194 35.7733 126.819 34.056 124.69 32.7653C126.718 31.144 127.157 29.3826 127.117 28.0813C127.058 26.0706 126.086 24.3773 124.309 23.064C125.798 21.8933 126.122 20.624 126.098 19.688C126.065 18.3413 125.454 17.132 124.335 16.1907C118.858 11.5813 100.438 13.5347 94.4914 14.3053L94.5061 8.38663C96.0167 8.94263 98.2994 9.47598 101.749 9.94131C107.521 10.7373 115.179 11.18 123.314 11.18C131.45 11.18 139.097 10.7373 144.869 9.94131C148.059 9.50931 150.251 9.02132 151.762 8.51065L151.326 12.3173C147.859 13.2053 136.415 16.5026 133.146 22.044C132.19 23.6626 131.955 25.3493 132.449 27.056C132.857 28.4626 134.179 30.8586 138.47 31.0946C138.707 31.108 138.95 31.1147 139.197 31.1147C142.109 31.1133 145.653 30.22 149.174 28.788L146.034 53.712C145.703 56.3373 143.455 58.3186 140.81 58.3186H104.846C102.853 58.3186 101.093 57.2013 100.201 55.532ZM116.178 43.9373C110.581 45.4147 104.835 45.4893 103.266 44.7533C104.638 43.78 110.498 43.1453 116.178 43.9373ZM116.979 33.0359C111.713 34.2733 105.874 33.9946 104.034 33.2453C105.727 32.5066 111.353 31.9386 116.979 33.0359ZM115.65 23.0533C112.023 23.572 108.079 23.5653 105.713 23.2626C108.018 22.8146 111.922 22.572 115.65 23.0533ZM82.0234 32.988C82.0234 19.3813 88.4967 13.832 91.6567 11.9333L91.6474 15.9319C91.6474 16.3466 91.8261 16.7386 92.1381 17.0093C92.4527 17.2786 92.8647 17.396 93.274 17.34C99.9074 16.3653 118.089 14.6453 122.507 18.364C123.162 18.916 123.25 19.4253 123.258 19.7613C123.275 20.448 122.277 21.0693 121.681 21.3787C121.59 21.4253 121.497 21.472 121.403 21.5173C119.282 20.7027 116.61 20.1813 113.451 19.996C112.971 19.972 101.691 19.348 101.137 23.0906C101.083 23.4493 101.069 24.3573 102.067 25.0613C104.65 26.8786 115.359 26.7413 121.346 24.604C123.25 25.532 124.235 26.728 124.279 28.1653C124.319 29.5466 123.059 30.612 121.661 31.3653C119.125 30.4653 116.133 29.928 113.222 29.7C111.263 29.544 101.462 28.98 100.839 32.9267C100.695 33.836 101.103 34.7053 101.955 35.312C104.878 37.388 115.462 37.184 121.779 34.4586C123.427 35.1706 125.353 36.352 125.353 37.9813C125.353 39.3653 123.874 40.8426 121.25 42.116C117.691 41.0493 113.586 40.8213 112.27 40.7747C108.734 40.644 100.506 40.7787 100.227 44.6707C100.189 45.2093 100.302 46.2293 101.491 46.9946C104.625 49.0066 114.783 47.9506 121.389 45.168C123.481 45.9453 124.255 46.796 124.255 47.34C124.255 49.624 116.615 53.1466 106.466 53.1466C99.8607 53.1466 93.9194 51.5827 89.734 48.74C84.618 45.268 82.0234 39.968 82.0234 32.988ZM170.267 20.5706C170.267 28.0973 164.143 34.2227 156.615 34.2227C155.718 34.2227 154.903 34.1373 154.118 34.0026C154.206 33.8133 154.262 33.616 154.262 33.4026C154.417 32.2506 154.571 31.0986 154.726 29.9453C155.343 30.0693 155.974 30.14 156.615 30.14C161.891 30.14 166.185 25.848 166.185 20.5706C166.185 15.2933 161.891 11 156.615 11C156.545 11 156.474 11.012 156.403 11.0133C156.819 9.74531 157.25 8.48262 157.701 7.22662C157.729 7.14929 157.743 7.06397 157.75 6.97464C164.747 7.55464 170.267 13.4253 170.267 20.5706ZM153.71 26.6413C157.633 24.516 161.143 21.8733 163.219 19.2707C163.301 19.692 163.345 20.1266 163.345 20.5706C163.345 24.2813 160.326 27.3 156.615 27.3C155.597 27.3 154.607 27.072 153.71 26.6413ZM152.938 14.8466C152.979 14.8373 153.014 14.816 153.054 14.8026C153.106 14.7853 153.157 14.768 153.206 14.744C153.243 14.728 153.285 14.72 153.322 14.7C154.319 14.1373 155.459 13.84 156.615 13.84C158.711 13.84 160.587 14.804 161.822 16.312C158.831 21.6893 145.551 28.6386 138.626 28.2586C135.707 28.0973 135.309 26.72 135.178 26.2653C134.906 25.328 135.042 24.42 135.591 23.488C138.218 19.036 149.003 15.7413 152.938 14.8466ZM279.365 41.0693C278.845 39.212 279.534 33.4027 281.835 29.2747C281.806 34.444 280.453 39.6026 279.365 41.0693ZM269.761 40.4013C269.657 40.4893 269.575 40.5426 269.521 40.5733C268.811 39.8133 268.242 35.956 268.821 31.3053C270.491 35.944 270.821 39.5093 269.761 40.4013ZM254.031 34.5226C252.435 33.9853 247.803 28.052 246.103 20.9346C245.973 20.3853 245.855 19.8107 245.763 19.2227C250.85 24.928 254.437 32.7986 254.031 34.5226ZM242.821 33.7306C240.65 32.72 235.615 28.3893 233.41 23.124C233.121 22.432 232.901 21.768 232.749 21.132C237.661 25.3787 241.882 31.2933 242.821 33.7306ZM231.337 36.984C229.347 36.5666 224.289 33.9413 221.017 29.5C220.445 28.724 219.974 27.9573 219.602 27.1973C224.89 30.008 230.114 34.8453 231.337 36.984ZM207.073 67.9613C206.971 66.9053 207.358 66.0187 208.29 65.1707C209.485 64.0813 210.639 63.644 211.81 63.8213C213.789 64.124 215.562 66.1787 216.366 67.356L214.855 77.0373C211.918 74.9773 207.379 71.1586 207.073 67.9613ZM321.461 96.0107C321.461 95.8973 321.445 95.784 321.419 95.6733C321.407 95.624 321.386 95.58 321.37 95.532C321.341 95.448 321.315 95.3627 321.267 95.2827C321.25 95.244 321.222 95.2133 321.199 95.1813C321.185 95.1613 321.183 95.1373 321.169 95.1187C321.161 95.108 321.149 95.104 321.142 95.0946C321.137 95.0893 321.135 95.084 321.131 95.0786C321.087 95.0266 321.029 94.9973 320.979 94.9533C320.887 94.8693 320.798 94.7853 320.691 94.7293C320.643 94.7026 320.593 94.676 320.539 94.6586C320.461 94.624 320.381 94.6013 320.301 94.5906C320.285 94.5813 320.267 94.58 320.25 94.5813C320.237 94.58 320.225 94.576 320.211 94.5746L280.386 87.012L280.385 87.0107L280.697 82.604C283.742 81.9906 291.805 79.952 294.191 75.1746C294.875 73.8013 295.379 71.572 293.887 68.7413C292.918 66.904 291.442 65.748 289.618 65.4013C286.854 64.872 283.842 66.2653 281.762 67.56L282.43 58.1213C284.342 55.372 296.485 37.4173 294.09 28.104C293.517 25.8787 292.205 24.256 290.186 23.2826C288.07 22.264 285.95 22.2106 284.03 23.096C282.89 18.3893 280.263 15.7946 276.449 15.7946C272.946 15.7946 270.031 18.2946 268.079 22.904C267.002 20.9426 265.837 19.0733 264.665 17.4146C258.387 8.53061 252.043 5.04531 247.257 7.85464C245.258 9.02931 243.902 10.7947 243.225 13.0667C241.967 12.18 240.689 11.5013 239.421 11.112C236.757 10.296 234.339 10.8253 232.431 12.644C231.439 13.5906 230.71 14.6653 230.249 15.8466C228.118 14.5626 225.994 13.728 224.043 13.616C221.31 13.472 219.047 14.672 217.513 17.1147C216.355 18.9587 215.809 20.8093 215.734 22.6213C215.149 22.4747 214.582 22.3706 214.038 22.3133C210.67 21.9573 208.883 23.3933 207.981 24.656C206.835 26.26 206.486 28.1 206.973 29.9746C208.447 35.66 217.214 40.588 220.299 42.1666L216.946 63.6426C215.771 62.4746 214.171 61.3133 212.254 61.016C210.191 60.6933 208.223 61.3893 206.378 63.0706C204.797 64.5106 204.058 66.296 204.245 68.2333C204.761 73.5853 212.158 78.7147 214.371 80.136L212.982 89.0306C212.861 89.8053 213.391 90.532 214.167 90.6533C214.93 90.7693 215.667 90.2453 215.789 89.468L219.209 67.5693C219.265 67.4106 219.287 67.248 219.285 67.08L223.267 41.576C223.365 40.956 223.042 40.344 222.474 40.0746C219.318 38.5746 210.875 33.7093 209.722 29.26C209.442 28.1827 209.625 27.244 210.294 26.3066C211.158 25.0946 212.811 24.792 215.206 25.412C215.479 25.4813 215.757 25.5626 216.037 25.652C217.11 30.1533 220.797 34.1867 224.731 36.8907C225.923 37.7107 231.975 41.66 234.023 38.9293C234.386 38.4453 234.698 37.588 234.117 36.256C232.594 32.7693 225.15 26.3613 218.587 23.5933C218.474 21.8787 218.918 20.2186 219.918 18.6266C221.213 16.564 223.034 15.9826 225.653 16.7933C226.969 17.2013 228.319 17.8933 229.661 18.7759C229.622 20.0186 229.814 21.3413 230.246 22.7293C232.366 29.5573 239.621 36.1973 243.054 36.7506C244.495 36.98 245.217 36.2226 245.458 35.8853C246.278 34.736 245.678 33.1186 245.065 31.8373C243.193 27.9306 238.131 21.5893 232.698 17.508C232.975 16.4493 233.541 15.512 234.393 14.7C235.055 14.0653 237.078 12.1373 241.702 15.4746C242.049 15.7253 242.393 15.992 242.733 16.2733C242.714 16.8346 242.727 17.416 242.771 18.0173C243.333 25.8107 249.089 35.556 252.975 37.1426C254.454 37.744 255.425 37.1733 255.871 36.7786C256.795 35.9613 257.035 34.596 256.605 32.6053C255.667 28.2746 251.091 20.1107 245.678 15.076C245.969 13.1453 246.834 11.3973 248.695 10.304C252.582 8.01732 258.295 13.3253 262.346 19.0533C264.138 21.5906 265.637 24.1746 266.834 26.6306C265.323 32.532 265.054 41.06 268.049 43.0266C268.558 43.3586 269.918 43.9813 271.59 42.576C274.602 40.0413 272.991 33.12 269.847 26.3853C269.883 26.2666 269.919 26.1467 269.957 26.028C270.826 23.2667 272.825 18.6346 276.449 18.6346C277.297 18.6346 279.881 18.6346 281.174 23.452C281.303 23.932 281.411 24.428 281.502 24.936C277.229 29.3586 275.455 38.8613 276.834 42.3773C277.489 44.0413 278.71 44.2213 279.205 44.2213C280.921 44.2213 282.27 42.4746 283.334 38.8813C284.183 36.0133 284.67 32.468 284.67 29.156C284.67 28.0667 284.621 27.036 284.523 26.068C285.881 25.1387 287.342 25.0666 288.953 25.8413C290.198 26.444 290.979 27.4146 291.339 28.8106C293.179 35.9613 283.693 51.4427 279.883 56.804C279.733 57.0173 279.643 57.2667 279.625 57.528L276.395 103.131L245.646 112.929C245.219 113.065 244.881 113.396 244.734 113.821C244.589 114.247 244.651 114.715 244.906 115.085L253.862 128.167C254.101 128.516 254.483 128.74 254.905 128.779C254.947 128.783 254.991 128.784 255.034 128.784C255.41 128.784 255.773 128.635 256.041 128.367L278.862 105.428C283.141 105.745 298.73 107.648 307.998 118.777C312.949 124.721 315.37 132.397 315.251 141.663C314.767 145.796 314.241 150.048 313.634 154.357C311.266 163.34 305.922 170.08 297.702 174.417C289.714 178.629 279.773 180.245 269.617 180.355C266.574 167.055 261.837 154.592 258.261 146.208C276.063 147.675 286.561 144.205 287.095 144.024C287.837 143.772 288.234 142.967 287.982 142.224C287.73 141.481 286.922 141.08 286.182 141.335C286.053 141.379 275.149 144.945 256.963 143.223C254.877 138.519 253.425 135.676 253.379 135.587C253.018 134.889 252.162 134.62 251.465 134.975C250.767 135.336 250.494 136.192 250.854 136.889C250.894 136.967 252.017 139.165 253.69 142.863C251.035 142.532 248.247 142.092 245.326 141.511C244.926 141.431 244.537 141.357 244.141 141.279C244.279 140.769 244.354 140.241 244.354 139.709C244.354 136.428 241.685 133.759 238.403 133.759C235.303 133.759 232.779 136.148 232.506 139.177C212.065 135.833 196.162 135.208 184.961 137.296L197.238 112.663C197.587 111.961 197.302 111.108 196.599 110.757C195.898 110.409 195.045 110.693 194.695 111.396L182.386 136.093L158.398 110.016C163.154 103.871 173.239 92.3706 187.517 84.056C205.257 103.376 205.377 103.391 206.094 103.391C206.878 103.391 207.514 102.755 207.514 101.969C207.514 101.512 207.298 101.104 206.961 100.845C206.127 100.049 199.115 92.4627 190.07 82.628C191.755 81.7253 193.487 80.8653 195.277 80.072C195.994 79.7546 196.318 78.916 195.999 78.1986C195.683 77.4813 194.845 77.1533 194.126 77.476C192.037 78.4013 190.027 79.408 188.085 80.4666C175.307 66.5653 159.279 49.0626 150.669 39.648L151.109 36.1533C152.806 36.7707 154.594 37.0627 156.615 37.0627C165.709 37.0627 173.107 29.664 173.107 20.5706C173.107 11.476 165.709 4.0773 156.615 4.0773C155.898 4.0773 155.181 4.13996 154.47 4.23196C154.465 4.22663 154.463 4.21996 154.458 4.21463C153.549 3.13596 151.095 2.0893 144.869 1.2373C139.097 0.442638 131.438 0 123.314 0C115.179 0 107.521 0.442638 101.749 1.2373C92.886 2.4533 91.6701 4.04396 91.6701 5.58929C91.6701 5.59329 91.6714 5.59732 91.6714 5.60132L91.6647 8.71866C88.8594 10.0187 79.1834 15.752 79.1834 32.988C79.1834 40.8546 82.2794 47.1133 88.1394 51.092C90.9087 52.972 93.9661 54.1547 96.9541 54.8907C97.7967 58.5187 101.045 61.1586 104.846 61.1586H109.595L154.69 110.183C153.623 111.652 153.019 112.585 152.905 112.764C152.483 113.425 152.678 114.303 153.338 114.725C153.575 114.877 153.839 114.949 154.102 114.949C154.57 114.949 155.029 114.717 155.299 114.293C155.325 114.253 155.794 113.532 156.665 112.328L180.574 138.321C178.355 138.959 176.367 139.728 174.626 140.639C166.907 144.676 163.114 148.495 163.35 151.985C163.485 153.977 164.933 155.371 166.306 155.867C166.963 156.105 167.831 156.191 168.823 156.147C168.766 156.405 168.725 156.659 168.698 156.909C165.065 156.451 161.254 156.043 157.326 155.695L145.157 104.609C145.005 103.971 144.434 103.519 143.775 103.519H56.4834C56.0487 103.519 55.638 103.717 55.3687 104.059C55.1007 104.4 55.002 104.847 55.102 105.269L67.5087 157.351C51.3554 159.603 32.5981 163.807 32.5981 171.187V180.153C32.5981 190.325 70.4274 196.197 109.317 197.096V215.427L109.315 215.428L34.666 258.184C34.3247 258.376 34.0874 258.695 33.9954 259.069C33.9047 259.456 33.9621 259.853 34.1781 260.183L34.6327 260.888L1.92071 248.56C1.32871 248.332 0.659391 248.525 0.284725 249.037C-0.101942 249.548 -0.0912811 250.252 0.295385 250.752L23.35 280.647L21.4514 281.817C21.1221 282.021 20.8954 282.328 20.8154 282.703C20.7247 283.067 20.7821 283.453 20.9861 283.771L40.722 315.869C40.9954 316.301 41.4607 316.54 41.938 316.54C42.1874 316.54 42.4487 316.472 42.6767 316.335L62.7647 303.973C62.8794 303.905 62.9701 303.825 63.0487 303.747C63.1741 303.723 63.2994 303.7 63.4247 303.644L109.315 283.748H109.317V328.297L65.1727 344.656C64.7181 344.824 64.3794 345.213 64.2794 345.688C64.1767 346.164 64.3247 346.659 64.6701 346.999L72.7914 354.997C73.0647 355.265 73.4234 355.405 73.7874 355.405C74.0354 355.405 74.2847 355.341 74.5087 355.209L110.722 333.868L85.5141 373.155C85.2341 373.592 85.214 374.147 85.4634 374.603C85.7114 375.059 86.1901 375.341 86.7087 375.341H104.799C105.459 375.341 106.031 374.887 106.182 374.244L116.175 331.42L184.618 352.268C185.047 352.4 185.517 352.319 185.878 352.051C186.239 351.783 186.453 351.36 186.453 350.909V341.187C186.453 340.492 185.95 339.899 185.265 339.785L119.647 328.927V279.269L148.743 266.656V266.66C149.447 286.384 150.379 301.177 150.39 301.405C150.435 302.144 151.061 302.735 151.811 302.735H152.958L125.349 323.653C124.849 324.039 124.655 324.709 124.882 325.3C125.11 325.891 125.711 326.265 126.325 326.197L167.513 322.641V324.891C167.513 325.675 168.15 326.311 168.934 326.311H206.622C207.406 326.311 208.042 325.675 208.042 324.891V301.315V246.649L226.243 254.323C226.25 254.325 226.258 254.324 226.265 254.327C226.429 254.4 226.605 254.433 226.79 254.433L226.795 254.435C226.801 254.435 226.805 254.432 226.81 254.432C226.861 254.432 226.91 254.432 226.961 254.423C226.971 254.423 227.006 254.423 227.086 254.4C227.097 254.411 227.109 254.411 227.119 254.4C227.517 254.355 228.619 254.207 230.278 253.933H230.281V325.227C230.281 326.821 230.971 328.333 232.178 329.376C233.182 330.247 234.457 330.715 235.766 330.715C236.029 330.715 236.293 330.696 236.555 330.659C239.235 330.269 241.258 327.935 241.258 325.227V251.752C244.938 250.899 249.095 249.809 253.469 248.445C253.685 248.377 253.901 248.309 254.105 248.241V294.679C254.105 296.281 254.798 297.792 256.002 298.837C257.002 299.701 258.275 300.167 259.593 300.167C259.854 300.167 260.115 300.156 260.377 300.109C263.058 299.724 265.081 297.395 265.081 294.679V244.276C271.011 241.856 276.282 239.153 280.871 236.199V307.301C280.871 308.895 281.562 310.407 282.767 311.451C283.773 312.321 285.049 312.791 286.361 312.791C286.622 312.791 286.885 312.772 287.149 312.733C289.829 312.344 291.85 310.008 291.85 307.301V227.929C291.85 227.76 291.807 227.604 291.754 227.455C291.755 227.452 291.758 227.451 291.759 227.448C292.918 226.279 293.975 225.073 294.963 223.847C304.485 211.951 311.711 188.692 316.495 154.673C316.501 154.635 316.506 154.593 316.511 154.555C316.783 153.459 317.027 152.341 317.219 151.185C317.745 148.019 318.022 144.997 318.082 142.105C318.087 142.065 318.093 142.023 318.097 141.981C320.938 116.996 321.461 96.2373 321.461 96.0107Z" fill="#303F23"/>
</svg>
