<svg width="356" height="410" viewBox="0 0 356 410" fill="none" xmlns="http://www.w3.org/2000/svg">
<path d="M288.652 341.383C293.555 345.625 300.019 347.592 306.635 346.644C317.636 345.045 325.93 335.459 325.93 324.345V250.748C337.136 236.217 345.12 211.332 350.312 174.785C350.62 173.472 350.871 172.231 351.07 171.023C351.667 167.427 352.026 163.837 352.138 160.343C355.07 134.283 355.54 113.227 355.54 113.055C355.54 111.672 355.382 110.279 355.076 108.94C354.914 108.225 354.711 107.536 354.456 106.835C354.115 105.873 353.715 104.979 353.243 104.121C353.083 103.829 352.915 103.541 352.736 103.259C352.544 102.944 352.34 102.635 352.128 102.333H352.13C352.008 102.161 351.883 101.992 351.758 101.825C351.678 101.72 351.596 101.617 351.514 101.515V101.516C351.302 101.248 351.079 100.988 350.851 100.736C350.268 100.085 349.646 99.488 348.968 98.9306C348.35 98.4013 347.3 97.5786 345.888 96.8106C345.166 96.416 344.444 96.08 343.698 95.7946C342.587 95.3653 341.442 95.0466 340.274 94.844L328.711 92.648C329.402 87.7066 328.495 82.5653 326.002 77.836C324.787 75.5346 323.248 73.488 321.454 71.7506C326.615 61.748 330.118 50.5666 327.634 40.9026C311.178 -19.9334 216.174 5.82132 207.188 37.6133C205.902 20.8453 193.286 5.24527 175.782 4.14395C172.148 2.68396 168.17 1.93729 164.231 1.39728C157.687 0.495941 149.207 0 140.352 0C131.49 0 123.006 0.495941 116.47 1.39594C110.243 2.25061 105.93 3.43997 102.488 5.25064C97.787 7.72531 94.4003 11.6079 92.767 16.1906C86.303 22.0253 79.1763 32.4466 79.1763 50.032C79.1763 63.608 85.011 75.0453 95.6043 82.236C97.6843 83.6493 99.9257 84.88 102.306 85.9213C106.374 90.9733 112.32 94.3306 119.004 95.0853L126.764 103.519H73.5216C67.8323 103.519 62.5496 106.081 59.0216 110.552C55.503 115.015 54.243 120.744 55.5603 126.263L63.811 160.899C60.8003 161.628 58.0603 162.408 55.603 163.235C36.5843 169.627 32.591 180.356 32.591 188.231V197.196C32.591 218.393 59.8283 223.819 70.083 225.861C77.8536 227.409 87.0416 228.665 97.1083 229.58L47.3403 258.087L25.0083 249.671C17.3176 246.747 8.56165 249.3 3.65365 255.899C-1.28768 262.524 -1.20768 271.692 3.83765 278.204C3.83765 278.204 82.6096 387.835 85.4203 388.692C84.951 392.467 85.6496 396.359 87.535 399.803C90.771 405.74 96.983 409.428 103.747 409.428H121.836C130.45 409.428 137.842 403.572 139.818 395.161L145.671 370.075L196.635 385.599C202.215 387.319 208.348 386.271 213.074 382.78L288.652 341.383Z" fill="#D4E6C0"/>
<path d="M277.94 90.0146C277.94 91.9279 279.496 93.4839 281.408 93.4839C283.321 93.4839 284.878 91.9279 284.878 90.0146C284.878 88.1013 283.321 86.5466 281.408 86.5466C279.496 86.5466 277.94 88.1013 277.94 90.0146Z" fill="#303F23"/>
<path d="M249.514 86.8279C249.514 84.9146 247.957 83.3599 246.045 83.3599C244.132 83.3599 242.576 84.9146 242.576 86.8279C242.576 88.7413 244.132 90.2973 246.045 90.2973C247.957 90.2973 249.514 88.7413 249.514 86.8279Z" fill="#303F23"/>
<path d="M268.03 74.8198C268.441 74.1505 268.231 73.2758 267.563 72.8665C266.895 72.4571 266.021 72.6651 265.609 73.3331C265.502 73.5065 254.853 90.7011 244.411 95.4971C243.818 95.7691 243.487 96.4105 243.607 97.0518C243.73 97.6931 244.273 98.1691 244.925 98.2051C245.545 98.2411 259.495 98.9998 269.63 97.9505L269.43 100.48C269.369 101.261 269.951 101.945 270.734 102.006C270.771 102.01 270.81 102.012 270.847 102.012C271.582 102.012 272.203 101.446 272.262 100.704L272.598 96.4518C272.631 96.0238 272.47 95.6051 272.159 95.3091C271.849 95.0131 271.41 94.8771 270.997 94.9318C264.455 95.7918 255.357 95.7118 249.867 95.5571C259.409 88.7465 267.635 75.4625 268.03 74.8198Z" fill="#303F23"/>
<path d="M258.222 70.8254C248.733 68.8307 241.038 75.7814 240.716 76.0774C240.138 76.6081 240.101 77.5041 240.63 78.0827C240.909 78.3867 241.292 78.5427 241.677 78.5427C242.018 78.5427 242.362 78.4201 242.634 78.1707C242.704 78.1067 249.6 71.9134 257.641 73.6054C258.405 73.7654 259.161 73.2747 259.322 72.5067C259.482 71.7387 258.99 70.9867 258.222 70.8254Z" fill="#303F23"/>
<path d="M290.579 84.8639C290.839 85.3333 291.323 85.5986 291.824 85.5986C292.056 85.5986 292.291 85.5413 292.508 85.4226C293.195 85.0426 293.446 84.1799 293.067 83.4919C287.439 73.2919 276.871 71.3546 276.424 71.2773C275.644 71.1399 274.919 71.6599 274.784 72.4306C274.648 73.2026 275.164 73.9373 275.936 74.0759C276.032 74.0919 285.628 75.8893 290.579 84.8639Z" fill="#303F23"/>
<path d="M246.873 104.638C246.332 104.071 245.433 104.053 244.867 104.593C244.3 105.134 244.277 106.031 244.819 106.598C244.943 106.729 253.319 115.302 265.476 115.302C271.236 115.302 277.848 113.365 284.829 107.703C286.401 109.665 286.748 111.75 286.772 111.909C286.875 112.614 287.481 113.122 288.175 113.122C288.243 113.122 288.309 113.118 288.377 113.107C289.155 112.997 289.693 112.278 289.583 111.501C289.143 108.421 286.293 102.362 278.657 101.478C277.896 101.382 277.175 101.945 277.084 102.725C276.993 103.503 277.552 104.209 278.332 104.298C280.136 104.507 281.557 105.061 282.68 105.775C263.201 121.226 247.544 105.335 246.873 104.638Z" fill="#303F23"/>
<path d="M265.559 122.897C265.298 122.157 264.49 121.765 263.747 122.031C258.427 123.915 254.99 120.34 254.835 120.172C254.304 119.596 253.408 119.561 252.832 120.091C252.254 120.62 252.215 121.519 252.746 122.096C252.899 122.264 255.866 125.425 260.676 125.425C261.9 125.425 263.246 125.22 264.692 124.709C265.432 124.448 265.82 123.637 265.559 122.897Z" fill="#303F23"/>
<path d="M254.79 131.228L247.054 139.411L234.428 115.948L254.79 131.228ZM229.193 109.863C228.688 110.296 228.553 111.024 228.869 111.612L245.485 142.488C245.702 142.89 246.097 143.163 246.549 143.223C246.612 143.231 246.674 143.235 246.736 143.235C247.124 143.235 247.498 143.076 247.768 142.79L257.948 132.023C258.225 131.728 258.364 131.331 258.33 130.927C258.296 130.524 258.092 130.154 257.768 129.911L230.972 109.803C230.44 109.404 229.7 109.428 229.193 109.863Z" fill="#303F23"/>
<path d="M127.665 144.812C133.508 144.812 138.261 149.565 138.261 155.408C138.261 161.252 133.508 166.005 127.665 166.005C121.823 166.005 117.069 161.252 117.069 155.408C117.069 149.565 121.823 144.812 127.665 144.812ZM127.665 168.845C135.075 168.845 141.101 162.817 141.101 155.408C141.101 148 135.075 141.972 127.665 141.972C120.256 141.972 114.228 148 114.228 155.408C114.228 162.817 120.256 168.845 127.665 168.845Z" fill="#303F23"/>
<path d="M258.456 139.802C260.172 139.802 261.567 141.197 261.567 142.913C261.567 144.627 260.172 146.022 258.456 146.022C256.74 146.022 255.346 144.627 255.346 142.913C255.346 141.197 256.74 139.802 258.456 139.802ZM252.506 142.913C252.506 146.193 255.175 148.863 258.456 148.863C261.738 148.863 264.407 146.193 264.407 142.913C264.407 139.631 261.738 136.962 258.456 136.962C255.175 136.962 252.506 139.631 252.506 142.913Z" fill="#303F23"/>
<path d="M328.965 182.387C325.125 205.077 319.125 227.437 309.785 239.119C292.96 260.171 253.684 267.148 245.261 268.421L245.289 262.58C248.7 261.877 259.225 259.529 270.751 255.156C284.719 249.855 295.165 243.596 301.979 236.485C302.059 236.561 302.143 236.636 302.223 236.711C302.496 236.972 302.848 237.1 303.199 237.1C303.575 237.1 303.951 236.952 304.229 236.656C304.769 236.087 304.744 235.188 304.175 234.649C304.08 234.559 303.979 234.468 303.883 234.377C305.453 232.503 306.785 230.572 307.868 228.587C313.38 218.483 317.919 205.695 321.372 190.591C324.413 188.264 326.94 185.52 328.965 182.385V182.387ZM303.779 326.967C303.015 327.081 302.247 326.851 301.665 326.347C301.084 325.843 300.749 325.115 300.749 324.345V257.751C300.899 257.723 301.048 257.687 301.192 257.611C302.072 257.147 302.952 256.684 303.832 256.22C304.272 255.988 304.713 255.756 305.152 255.524C305.447 255.371 305.756 255.211 306.047 255.028V324.345C306.047 325.651 305.072 326.779 303.779 326.967ZM253.185 344.891C252.431 345.007 251.656 344.775 251.075 344.273C250.493 343.769 250.159 343.04 250.159 342.271V276.485C250.191 276.48 250.22 276.489 250.253 276.481C251.104 276.287 251.956 276.092 252.808 275.897C253.227 275.801 253.644 275.705 254.061 275.611C254.269 275.563 254.484 275.525 254.688 275.467C254.995 275.38 255.251 275.221 255.455 275.009V342.271C255.455 343.576 254.48 344.703 253.185 344.891ZM242.423 267.923L231.6 263.36C232.556 263.383 233.556 263.396 234.576 263.396C237.221 263.396 239.98 263.293 242.447 263.021L242.423 267.923ZM167.86 248.583C167.689 215.519 245.567 204.407 246.361 204.293C246.431 204.281 246.509 204.271 246.567 204.248C263.784 211.705 286.155 222.716 299.861 234.577C282.317 252.716 244.055 259.936 243.655 260.009C237.672 260.948 228.327 260.432 225.08 260.211V240.516C225.08 239.732 224.444 239.096 223.66 239.096C222.876 239.096 222.24 239.732 222.24 240.516V316.939H170.179C169.78 310.212 168.008 279.079 167.86 248.583ZM136.685 293.219V229.825L165.419 213.368C165.428 213.363 165.433 213.352 165.444 213.347C197.149 211.283 223.991 205.765 223.991 197.197V195.192C226.965 196.281 233.476 198.725 241.693 202.169C234.701 203.387 220.165 206.272 205.764 211.383C178.655 221.019 164.94 233.54 165.02 248.605C165.076 259.593 165.337 270.66 165.679 280.647V280.649L136.685 293.219ZM200.651 359.436V366.036L153.197 351.583L200.651 359.436ZM120.709 389.545H106.345L128.917 354.368L120.709 389.545ZM91.044 369.252L85.2933 363.587L126.691 348.245L91.044 369.252ZM126.353 297.701L80.4386 317.597L54.408 276.943L126.353 235.744L126.355 235.743V297.701H126.353ZM136.685 214.261C136.728 214.261 136.771 214.261 136.813 214.261C144.248 214.261 151.765 214.076 159.105 213.709L136.685 226.552V214.261ZM129.196 344.909V219.781C130.737 220.011 132.289 220.101 133.845 220.027V344.909H129.196ZM52.4759 197.197V192.84C62.9679 200.963 100.848 205.295 136.813 205.295C172.777 205.295 210.659 200.963 221.149 192.84V197.197C221.149 203.011 191.116 211.421 136.813 211.421C82.5093 211.421 52.4759 203.011 52.4759 197.197ZM85.208 177.171L88.1626 189.577C88.3146 190.216 88.8866 190.668 89.544 190.668H176.836H219.545C212.695 196.137 183.877 202.455 136.813 202.455C82.5093 202.455 52.4759 194.044 52.4759 188.231C52.4759 185.792 59.4013 180.743 85.208 177.171ZM159.692 123.404L175.037 187.828H90.6666L75.32 123.404H159.692ZM186.185 176.872C186.459 177.453 186.841 177.981 187.341 178.437C189.013 179.96 192.004 180.088 195.248 179.441C195.229 179.631 195.227 179.812 195.217 179.997C195.18 179.995 195.148 179.976 195.111 179.976H176.087L175.059 175.655C178.907 176.007 182.64 176.413 186.185 176.872ZM191.389 169.156C193.105 167.276 195.248 165.74 196.816 165.355C197.053 165.296 197.248 165.273 197.403 165.273C197.589 165.273 197.715 165.307 197.78 165.355C197.759 165.517 197.351 166.193 195.797 167.143C194.504 167.933 192.947 168.62 191.389 169.156ZM199.571 175.172C201.072 172.311 203.397 169.821 205.284 169.367C205.461 169.325 205.624 169.303 205.776 169.303C206.217 169.303 206.565 169.485 206.888 169.872C207.103 170.128 206.573 170.845 205.991 171.404C204.489 172.841 202.099 174.172 199.571 175.172ZM205.901 183.72C206.792 181.5 209.769 178.208 212.957 176.645C213.872 176.197 214.68 175.967 215.311 175.967C215.656 175.967 215.948 176.036 216.175 176.177C216.113 177.091 213.608 179.94 209.363 182.215C208.277 182.796 207.089 183.325 205.901 183.72ZM184.309 170.239C184.027 170.136 183.28 169.685 183.221 168.839C183.168 168.037 183.711 165.049 192.98 160.199C204.525 154.163 227.684 154.543 261.808 161.34C265.436 162.061 268.856 162.575 272.071 162.933C275.596 171.041 280.557 183.751 283.737 197.391C262.883 197.041 241.827 190.776 235.517 187.84C221.315 181.227 215 183.599 210.825 185.169C209.579 185.637 208.705 185.949 207.937 186.004C208.029 185.969 208.12 185.932 208.212 185.895C213.132 183.888 218.637 179.621 218.993 176.467C219.112 175.416 218.695 174.472 217.847 173.876C216.78 173.127 214.849 172.555 211.707 174.095C207.741 176.039 203.196 180.789 202.819 184.392C201.405 184.512 200.153 184.284 199.257 183.555C197.795 182.363 197.899 180.244 198.252 178.657C202.179 177.4 206.012 175.317 207.956 173.453C210.776 170.751 209.673 168.775 209.068 168.051C207.939 166.701 206.357 166.187 204.619 166.605C201.013 167.473 197.464 172.111 195.969 176.348C192.949 177.121 190.259 177.252 189.255 176.337C188.813 175.935 188.272 175.22 188.669 173.655C188.744 173.361 188.847 173.063 188.972 172.761C193.36 171.809 198.481 169.457 200.011 167.191C200.868 165.919 200.813 164.528 199.864 163.471C199.375 162.923 198.237 162.077 196.137 162.596C193.219 163.313 189.152 166.637 187.061 170.248C185.847 170.428 184.861 170.439 184.309 170.239ZM255.441 153.643C257.157 153.643 258.552 155.037 258.552 156.753C258.552 157.108 258.471 157.449 258.355 157.779C256.309 157.392 254.303 157.029 252.337 156.691C252.371 155.005 253.748 153.643 255.441 153.643ZM220.084 186.297C220.105 186.321 220.113 186.352 220.136 186.373C220.653 186.884 220.971 187.371 221.091 187.828H211.828C213.887 187.055 216.353 186.143 220.084 186.297ZM177.957 187.828L176.764 182.816H195.111C195.251 182.816 195.377 182.775 195.505 182.737C195.859 183.949 196.508 184.979 197.464 185.756C198.984 186.996 201.084 187.465 203.593 187.161C203.809 187.415 204.071 187.636 204.368 187.828H177.957ZM316.064 193.973C316.688 193.645 317.295 193.303 317.887 192.949C314.589 206.489 310.393 218.024 305.373 227.227C304.373 229.061 303.157 230.807 301.765 232.468C278.22 212.033 231.037 194.689 223.991 192.167V188.231C223.991 187.724 223.875 187.229 223.701 186.74C226.565 187.299 230.023 188.415 234.32 190.415C239.199 192.685 252.945 197.06 269.059 199.132C273.664 199.724 278.907 200.171 284.371 200.225C285.116 203.735 285.731 207.287 286.161 210.823C286.248 211.544 286.861 212.072 287.569 212.072C287.627 212.072 287.684 212.069 287.743 212.063C288.521 211.967 289.076 211.259 288.981 210.481C288.565 207.057 287.977 203.62 287.269 200.22C297.165 200.052 307.549 198.465 316.064 193.973ZM328.489 135.633C328.864 128.047 328.884 122.907 328.876 121.105L335.556 115.984V115.985C335.363 121.099 334.828 132.301 333.567 146.119C333.567 146.127 333.565 146.135 333.565 146.141C332.456 142.269 330.771 138.757 328.489 135.633ZM296.319 119.645L296.609 115.54L326.037 121.569C326.039 123.331 326.009 127.089 325.792 132.411C315.82 121.9 301.048 119.988 296.319 119.645ZM272.276 142.191L265.367 132.1L290.183 124.192L272.276 142.191ZM306.128 85.2372C307.099 85.4226 307.845 86.0346 308.412 87.1093C309.169 88.5453 309.259 89.7999 308.688 90.9466C307.167 93.9973 301.443 95.8879 297.944 96.6933L298.543 88.2412C300.149 86.9852 303.639 84.7439 306.128 85.2372ZM333.701 113.827L327.1 118.887L296.812 112.681L297.22 106.908L333.701 113.827ZM130.493 78.2026H157.848C161.921 78.2026 165.38 75.1533 165.889 71.1106L167.24 60.3919C171.585 65.1399 182.556 77.1266 193.559 89.1186C196.955 92.8199 199.937 96.0706 202.58 98.9492C188.344 107.335 178.389 118.564 173.464 124.917L130.493 78.2026ZM117.239 72.5759C119.507 72.9159 121.655 73.0306 123.504 73.0306C133.467 73.0306 144.135 69.5559 144.135 64.3839C144.135 62.7253 143.104 61.4839 141.581 60.5559C144.564 58.5719 145.232 56.4906 145.232 55.0253C145.232 52.8173 143.857 51.0999 141.728 49.8092C143.756 48.1879 144.195 46.4266 144.155 45.1252C144.096 43.1146 143.124 41.4212 141.347 40.1079C142.836 38.9372 143.16 37.6679 143.136 36.7319C143.103 35.3853 142.492 34.1759 141.373 33.2346C135.896 28.6253 117.476 30.5786 111.529 31.3493L111.544 25.4306C113.055 25.9866 115.337 26.5199 118.787 26.9853C124.559 27.7812 132.217 28.2239 140.352 28.2239C148.488 28.2239 156.135 27.7812 161.907 26.9853C165.097 26.5533 167.289 26.0653 168.8 25.5546L168.364 29.3612C164.897 30.2492 153.453 33.5466 150.184 39.0879C149.228 40.7066 148.993 42.3932 149.487 44.0999C149.895 45.5066 151.217 47.9026 155.508 48.1386C155.745 48.1519 155.988 48.1586 156.235 48.1586C159.147 48.1573 162.691 47.2639 166.212 45.8319L163.072 70.7559C162.741 73.3813 160.493 75.3626 157.848 75.3626H121.884C119.891 75.3626 118.131 74.2452 117.239 72.5759ZM133.216 60.9813C127.619 62.4586 121.873 62.5333 120.304 61.7972C121.676 60.8239 127.536 60.1892 133.216 60.9813ZM134.017 50.0799C128.751 51.3172 122.912 51.0386 121.072 50.2892C122.765 49.5506 128.391 48.9826 134.017 50.0799ZM132.688 40.0972C129.061 40.6159 125.117 40.6093 122.751 40.3066C125.056 39.8586 128.96 39.6159 132.688 40.0972ZM99.0613 50.0319C99.0613 36.4253 105.535 30.8759 108.695 28.9772L108.685 32.9759C108.685 33.3906 108.864 33.7826 109.176 34.0533C109.491 34.3226 109.903 34.4399 110.312 34.3839C116.945 33.4093 135.127 31.6892 139.545 35.4079C140.2 35.9599 140.288 36.4692 140.296 36.8052C140.313 37.4919 139.315 38.1133 138.719 38.4226C138.628 38.4693 138.535 38.5159 138.441 38.5613C136.32 37.7466 133.648 37.2253 130.489 37.0399C130.009 37.0159 118.729 36.3919 118.175 40.1346C118.121 40.4933 118.107 41.4012 119.105 42.1053C121.688 43.9226 132.397 43.7853 138.384 41.6479C140.288 42.5759 141.273 43.7719 141.317 45.2093C141.357 46.5906 140.097 47.6559 138.699 48.4092C136.163 47.5092 133.171 46.9719 130.26 46.7439C128.301 46.5879 118.5 46.024 117.877 49.9706C117.733 50.8799 118.141 51.7492 118.993 52.3559C121.916 54.4319 132.5 54.2279 138.817 51.5026C140.465 52.2146 142.391 53.3959 142.391 55.0253C142.391 56.4093 140.912 57.8866 138.288 59.1599C134.729 58.0933 130.624 57.8653 129.308 57.8186C125.772 57.6879 117.544 57.8226 117.265 61.7146C117.227 62.2533 117.34 63.2733 118.529 64.0386C121.663 66.0506 131.821 64.9946 138.427 62.2119C140.519 62.9893 141.293 63.8399 141.293 64.3839C141.293 66.6679 133.653 70.1906 123.504 70.1906C116.899 70.1906 110.957 68.6266 106.772 65.7839C101.656 62.3119 99.0613 57.0119 99.0613 50.0319ZM187.305 37.6146C187.305 45.1412 181.181 51.2666 173.653 51.2666C172.756 51.2666 171.941 51.1812 171.156 51.0466C171.244 50.8572 171.3 50.6599 171.3 50.4466C171.455 49.2946 171.609 48.1426 171.764 46.9893C172.381 47.1133 173.012 47.1839 173.653 47.1839C178.929 47.1839 183.223 42.8919 183.223 37.6146C183.223 32.3372 178.929 28.0439 173.653 28.0439C173.583 28.0439 173.512 28.0559 173.441 28.0573C173.857 26.7892 174.288 25.5266 174.739 24.2706C174.767 24.1932 174.781 24.1079 174.788 24.0186C181.785 24.5986 187.305 30.4692 187.305 37.6146ZM170.748 43.6852C174.671 41.5599 178.181 38.9173 180.257 36.3146C180.339 36.7359 180.383 37.1706 180.383 37.6146C180.383 41.3252 177.364 44.3439 173.653 44.3439C172.635 44.3439 171.645 44.1159 170.748 43.6852ZM169.976 31.8906C170.017 31.8812 170.052 31.8599 170.092 31.8466C170.144 31.8293 170.195 31.8119 170.244 31.7879C170.281 31.7719 170.323 31.7639 170.36 31.7439C171.357 31.1813 172.497 30.8839 173.653 30.8839C175.749 30.8839 177.625 31.8479 178.86 33.3559C175.869 38.7332 162.589 45.6826 155.664 45.3026C152.745 45.1412 152.347 43.7639 152.216 43.3092C151.944 42.3719 152.08 41.4639 152.629 40.5319C155.256 36.0799 166.041 32.7852 169.976 31.8906ZM296.403 58.1133C295.883 56.2559 296.572 50.4466 298.873 46.3186C298.844 51.4879 297.491 56.6466 296.403 58.1133ZM286.799 57.4453C286.695 57.5333 286.613 57.5866 286.559 57.6172C285.849 56.8573 285.28 52.9999 285.859 48.3493C287.529 52.9879 287.859 56.5533 286.799 57.4453ZM271.069 51.5666C269.473 51.0293 264.841 45.0959 263.141 37.9786C263.011 37.4293 262.893 36.8546 262.801 36.2666C267.888 41.9719 271.475 49.8426 271.069 51.5666ZM259.859 50.7746C257.688 49.7639 252.653 45.4333 250.448 40.1679C250.159 39.4759 249.939 38.8119 249.787 38.1759C254.699 42.4226 258.92 48.3372 259.859 50.7746ZM248.375 54.0279C246.385 53.6106 241.327 50.9853 238.055 46.5439C237.483 45.7679 237.012 45.0013 236.64 44.2412C241.928 47.0519 247.152 51.8893 248.375 54.0279ZM224.111 85.0052C224.009 83.9492 224.396 83.0626 225.328 82.2146C226.523 81.1252 227.677 80.6879 228.848 80.8653C230.827 81.1679 232.6 83.2226 233.404 84.3999L231.893 94.0812C228.956 92.0212 224.417 88.2026 224.111 85.0052ZM338.499 113.055C338.499 112.941 338.483 112.828 338.457 112.717C338.445 112.668 338.424 112.624 338.408 112.576C338.379 112.492 338.353 112.407 338.305 112.327C338.288 112.288 338.26 112.257 338.237 112.225C338.223 112.205 338.221 112.181 338.207 112.163C338.199 112.152 338.187 112.148 338.18 112.139C338.175 112.133 338.173 112.128 338.169 112.123C338.125 112.071 338.067 112.041 338.017 111.997C337.925 111.913 337.836 111.829 337.729 111.773C337.681 111.747 337.631 111.72 337.577 111.703C337.499 111.668 337.419 111.645 337.339 111.635C337.323 111.625 337.305 111.624 337.288 111.625C337.275 111.624 337.263 111.62 337.249 111.619L297.424 104.056L297.423 104.055L297.735 99.6479C300.78 99.0346 308.843 96.9959 311.229 92.2186C311.913 90.8452 312.417 88.6159 310.925 85.7853C309.956 83.9479 308.48 82.7919 306.656 82.4453C303.892 81.9159 300.88 83.3092 298.8 84.6039L299.468 75.1653C301.38 72.4159 313.523 54.4613 311.128 45.1479C310.555 42.9226 309.243 41.2999 307.224 40.3266C305.108 39.3079 302.988 39.2546 301.068 40.1399C299.928 35.4333 297.301 32.8386 293.487 32.8386C289.984 32.8386 287.069 35.3386 285.117 39.9479C284.04 37.9866 282.875 36.1172 281.703 34.4586C275.425 25.5746 269.081 22.0893 264.295 24.8986C262.296 26.0732 260.94 27.8386 260.263 30.1106C259.005 29.2239 257.727 28.5453 256.459 28.1559C253.795 27.3399 251.377 27.8692 249.469 29.6879C248.477 30.6346 247.748 31.7092 247.287 32.8906C245.156 31.6066 243.032 30.7719 241.081 30.6599C238.348 30.5159 236.085 31.7159 234.551 34.1586C233.393 36.0026 232.847 37.8533 232.772 39.6653C232.187 39.5186 231.62 39.4146 231.076 39.3572C227.708 39.0013 225.921 40.4373 225.019 41.7C223.873 43.304 223.524 45.1439 224.011 47.0186C225.485 52.7039 234.252 57.6319 237.337 59.2106L233.984 80.6866C232.809 79.5186 231.209 78.3573 229.292 78.0599C227.229 77.7373 225.261 78.4332 223.416 80.1146C221.835 81.5546 221.096 83.3399 221.283 85.2773C221.799 90.6292 229.196 95.7586 231.409 97.1799L230.02 106.075C229.899 106.849 230.429 107.576 231.205 107.697C231.968 107.813 232.705 107.289 232.827 106.512L236.247 84.6133C236.303 84.4546 236.325 84.2919 236.323 84.1239L240.305 58.6199C240.403 57.9999 240.08 57.3879 239.512 57.1186C236.356 55.6186 227.913 50.7533 226.76 46.304C226.48 45.2266 226.663 44.2879 227.332 43.3506C228.196 42.1386 229.849 41.8359 232.244 42.4559C232.517 42.5253 232.795 42.6066 233.075 42.6959C234.148 47.1972 237.835 51.2306 241.769 53.9346C242.961 54.7546 249.013 58.7039 251.061 55.9733C251.424 55.4893 251.736 54.6319 251.155 53.2999C249.632 49.8133 242.188 43.4053 235.625 40.6373C235.512 38.9226 235.956 37.2626 236.956 35.6706C238.251 33.6079 240.072 33.0266 242.691 33.8372C244.007 34.2452 245.357 34.9372 246.699 35.8199C246.66 37.0626 246.852 38.3853 247.284 39.7733C249.404 46.6013 256.659 53.2412 260.092 53.7946C261.533 54.0239 262.255 53.2666 262.496 52.9293C263.316 51.7799 262.716 50.1626 262.103 48.8813C260.231 44.9746 255.169 38.6332 249.736 34.5519C250.013 33.4933 250.579 32.5559 251.431 31.7439C252.093 31.1093 254.116 29.1812 258.74 32.5186C259.087 32.7693 259.431 33.0359 259.771 33.3173C259.752 33.8786 259.765 34.4599 259.809 35.0613C260.371 42.8546 266.127 52.5999 270.013 54.1866C271.492 54.7879 272.463 54.2173 272.909 53.8226C273.833 53.0052 274.073 51.6399 273.643 49.6492C272.705 45.3186 268.129 37.1546 262.716 32.1199C263.007 30.1893 263.872 28.4413 265.733 27.3479C269.62 25.0612 275.333 30.3692 279.384 36.0972C281.176 38.6346 282.675 41.2186 283.872 43.6746C282.361 49.5759 282.092 58.1039 285.087 60.0706C285.596 60.4026 286.956 61.0253 288.628 59.6199C291.64 57.0853 290.029 50.1639 286.885 43.4293C286.921 43.3106 286.957 43.1906 286.995 43.0719C287.864 40.3106 289.863 35.6786 293.487 35.6786C294.335 35.6786 296.919 35.6786 298.212 40.4959C298.341 40.9759 298.449 41.4719 298.54 41.9799C294.267 46.4026 292.493 55.9052 293.872 59.4213C294.527 61.0853 295.748 61.2653 296.243 61.2653C297.959 61.2653 299.308 59.5186 300.372 55.9252C301.221 53.0573 301.708 49.5119 301.708 46.2C301.708 45.1106 301.659 44.0799 301.561 43.1119C302.919 42.1826 304.38 42.1106 305.991 42.8853C307.236 43.4879 308.017 44.4586 308.377 45.8546C310.217 53.0052 300.731 68.4866 296.921 73.8479C296.771 74.0613 296.681 74.3106 296.663 74.5719L293.433 120.175L262.684 129.973C262.257 130.109 261.919 130.44 261.772 130.865C261.627 131.291 261.689 131.759 261.944 132.129L270.9 145.211C271.139 145.56 271.521 145.784 271.943 145.823C271.985 145.827 272.029 145.828 272.072 145.828C272.448 145.828 272.811 145.679 273.079 145.411L295.9 122.472C300.179 122.789 315.768 124.692 325.036 135.821C329.987 141.765 332.408 149.441 332.289 158.707C331.805 162.84 331.279 167.092 330.672 171.401C328.304 180.384 322.96 187.124 314.74 191.461C306.752 195.673 296.811 197.289 286.655 197.399C283.612 184.099 278.875 171.636 275.299 163.252C293.101 164.719 303.599 161.249 304.133 161.068C304.875 160.816 305.272 160.011 305.02 159.268C304.768 158.525 303.96 158.124 303.22 158.379C303.091 158.423 292.187 161.989 274.001 160.267C271.915 155.563 270.463 152.72 270.417 152.631C270.056 151.933 269.2 151.664 268.503 152.019C267.805 152.38 267.532 153.236 267.892 153.933C267.932 154.011 269.055 156.209 270.728 159.907C268.073 159.576 265.285 159.136 262.364 158.555C261.964 158.475 261.575 158.401 261.179 158.323C261.317 157.813 261.392 157.285 261.392 156.753C261.392 153.472 258.723 150.803 255.441 150.803C252.341 150.803 249.817 153.192 249.544 156.221C229.103 152.877 213.2 152.252 201.999 154.34L214.276 129.707C214.625 129.005 214.34 128.152 213.637 127.801C212.936 127.453 212.083 127.737 211.733 128.44L199.424 153.137L175.436 127.06C180.192 120.915 190.277 109.415 204.555 101.1C222.295 120.42 222.415 120.435 223.132 120.435C223.916 120.435 224.552 119.799 224.552 119.013C224.552 118.556 224.336 118.148 223.999 117.889C223.165 117.093 216.153 109.507 207.108 99.6719C208.793 98.7693 210.525 97.9092 212.315 97.1159C213.032 96.7986 213.356 95.9599 213.037 95.2426C212.721 94.5252 211.883 94.1973 211.164 94.5199C209.075 95.4453 207.065 96.4519 205.123 97.5106C192.345 83.6093 176.317 66.1066 167.707 56.6919L168.147 53.1973C169.844 53.8146 171.632 54.1066 173.653 54.1066C182.747 54.1066 190.145 46.7079 190.145 37.6146C190.145 28.5199 182.747 21.1212 173.653 21.1212C172.936 21.1212 172.219 21.1839 171.508 21.2759C171.503 21.2706 171.501 21.2639 171.496 21.2586C170.587 20.1799 168.133 19.1332 161.907 18.2812C156.135 17.4866 148.476 17.0439 140.352 17.0439C132.217 17.0439 124.559 17.4866 118.787 18.2812C109.924 19.4973 108.708 21.0879 108.708 22.6332C108.708 22.6372 108.709 22.6413 108.709 22.6453L108.703 25.7626C105.897 27.0626 96.2213 32.7959 96.2213 50.0319C96.2213 57.8986 99.3173 64.1573 105.177 68.1359C107.947 70.0159 111.004 71.1986 113.992 71.9346C114.835 75.5626 118.083 78.2026 121.884 78.2026H126.633L171.728 127.227C170.661 128.696 170.057 129.629 169.943 129.808C169.521 130.469 169.716 131.347 170.376 131.769C170.613 131.921 170.877 131.993 171.14 131.993C171.608 131.993 172.067 131.761 172.337 131.337C172.363 131.297 172.832 130.576 173.703 129.372L197.612 155.365C195.393 156.003 193.405 156.772 191.664 157.683C183.945 161.72 180.152 165.539 180.388 169.029C180.523 171.021 181.971 172.415 183.344 172.911C184.001 173.149 184.869 173.235 185.861 173.191C185.804 173.449 185.763 173.703 185.736 173.953C182.103 173.495 178.292 173.087 174.364 172.739L162.195 121.653C162.043 121.015 161.472 120.563 160.813 120.563H73.5213C73.0866 120.563 72.6759 120.761 72.4066 121.103C72.1386 121.444 72.0399 121.891 72.1399 122.313L84.5466 174.395C68.3933 176.647 49.636 180.851 49.636 188.231V197.197C49.636 207.369 87.4653 213.241 126.355 214.14V232.471L126.353 232.472L51.704 275.228C51.3626 275.42 51.1253 275.739 51.0333 276.113C50.9426 276.5 51 276.897 51.216 277.227L51.6706 277.932L18.9586 265.604C18.3666 265.376 17.6973 265.569 17.3226 266.081C16.936 266.592 16.9466 267.296 17.3333 267.796L40.388 297.691L38.4893 298.861C38.16 299.065 37.9333 299.372 37.8533 299.747C37.7626 300.111 37.82 300.497 38.024 300.815L57.7599 332.913C58.0333 333.345 58.4986 333.584 58.9759 333.584C59.2253 333.584 59.4866 333.516 59.7146 333.379L79.8026 321.017C79.9173 320.949 80.008 320.869 80.0866 320.791C80.212 320.767 80.3373 320.744 80.4626 320.688L126.353 300.792H126.355V345.341L82.2106 361.7C81.756 361.868 81.4173 362.257 81.3173 362.732C81.2146 363.208 81.3626 363.703 81.708 364.043L89.8293 372.041C90.1026 372.309 90.4613 372.449 90.8253 372.449C91.0733 372.449 91.3226 372.385 91.5466 372.253L127.76 350.912L102.552 390.199C102.272 390.636 102.252 391.191 102.501 391.647C102.749 392.103 103.228 392.385 103.747 392.385H121.837C122.497 392.385 123.069 391.931 123.22 391.288L133.213 348.464L201.656 369.312C202.085 369.444 202.555 369.363 202.916 369.095C203.277 368.827 203.491 368.404 203.491 367.953V358.231C203.491 357.536 202.988 356.943 202.303 356.829L136.685 345.971V296.313L165.781 283.7V283.704C166.485 303.428 167.417 318.221 167.428 318.449C167.473 319.188 168.099 319.779 168.849 319.779H169.996L142.387 340.697C141.887 341.083 141.693 341.753 141.92 342.344C142.148 342.935 142.749 343.309 143.363 343.241L184.551 339.685V341.935C184.551 342.719 185.188 343.355 185.972 343.355H223.66C224.444 343.355 225.08 342.719 225.08 341.935V318.359V263.693L243.281 271.367C243.288 271.369 243.296 271.368 243.303 271.371C243.467 271.444 243.643 271.477 243.828 271.477C243.829 271.477 243.832 271.479 243.833 271.479C243.839 271.479 243.843 271.476 243.848 271.476C243.899 271.476 243.948 271.476 243.999 271.467C244.009 271.467 244.044 271.467 244.124 271.444C244.135 271.455 244.147 271.455 244.157 271.444C244.555 271.399 245.657 271.251 247.316 270.977C247.317 270.977 247.317 270.977 247.319 270.977V342.271C247.319 343.865 248.009 345.377 249.216 346.42C250.22 347.291 251.495 347.759 252.804 347.759C253.067 347.759 253.331 347.74 253.593 347.703C256.273 347.313 258.296 344.979 258.296 342.271V268.796C261.976 267.943 266.133 266.853 270.507 265.489C270.723 265.421 270.939 265.353 271.143 265.285V311.723C271.143 313.325 271.836 314.836 273.04 315.881C274.04 316.745 275.313 317.211 276.631 317.211C276.892 317.211 277.153 317.2 277.415 317.153C280.096 316.768 282.119 314.439 282.119 311.723V261.32C288.049 258.9 293.32 256.197 297.909 253.243V324.345C297.909 325.939 298.6 327.451 299.805 328.495C300.811 329.365 302.087 329.835 303.399 329.835C303.66 329.835 303.923 329.816 304.187 329.777C306.867 329.388 308.888 327.052 308.888 324.345V244.973C308.888 244.804 308.845 244.648 308.792 244.499C308.793 244.496 308.796 244.495 308.797 244.492C309.956 243.323 311.013 242.117 312.001 240.891C321.523 228.995 328.749 205.736 333.533 171.717C333.539 171.679 333.544 171.637 333.549 171.599C333.821 170.503 334.065 169.385 334.257 168.229C334.783 165.063 335.06 162.041 335.12 159.149C335.125 159.109 335.131 159.067 335.135 159.025C337.976 134.04 338.499 113.281 338.499 113.055Z" fill="#303F23"/>
</svg>
