<svg width="381" height="454" viewBox="0 0 381 454" fill="none" xmlns="http://www.w3.org/2000/svg">
<path d="M380.209 262.117C380.209 261.261 380.141 260.395 380.008 259.541C379.864 258.569 379.673 257.835 379.575 257.47C379.388 256.767 379.169 256.097 378.913 255.449C378.612 254.673 378.255 253.918 377.847 253.201L363.121 227.359C363.883 217.642 361.82 201.203 348.764 192.389C351.256 189.414 353.295 186.315 354.896 183.534C359.693 175.198 363.032 165.499 363.825 157.587C365.499 140.902 356.005 134.315 351.829 132.25C345.231 128.994 337.463 129.402 331.047 133.345C329.341 134.394 325.909 136.507 321.924 142.709C315.52 129.597 304.785 118.094 290.225 109.035C288.603 108.025 286.984 107.074 285.383 106.182C285.461 105.947 285.535 105.711 285.605 105.474C288.501 95.8248 283.416 59.0581 267.111 46.3114C266.461 38.3181 263.764 24.4314 253.385 13.6301C244.9 4.79278 233.175 0.120795 219.477 0.120795C173.435 -2.61787 137.796 42.1034 137.353 42.9114C118.639 36.4634 104.883 41.4301 96.5413 46.8621C87.0653 53.0301 81.0347 62.4128 79.1053 73.9954C76.8827 87.3341 80.0387 103.377 88.7387 122.763H51.8347C45.4 122.763 39.656 126.157 36.4653 131.379C23.28 133.883 13.2787 145.494 13.2787 159.397C13.2787 168.054 17.0987 175.866 23.276 181.115V231.035L5.78402 247.206C5.62402 247.354 5.46802 247.505 5.31335 247.658C5.02002 247.951 4.73869 248.254 4.46936 248.569C3.99603 249.114 3.55467 249.691 3.13867 250.31C2.49734 251.23 1.96667 252.174 1.552 253.123C1.08934 254.166 0.740034 255.226 0.493368 256.343C0.302701 257.134 0.169365 257.917 0.0906982 258.703C0.0306982 259.277 0 259.853 0 260.429V434.899C0 445.337 8.46135 453.797 18.8987 453.797H361.312C371.748 453.797 380.209 445.337 380.209 434.899V262.117Z" fill="#D4E6C0"/>
<path d="M196.383 84.7819C198.249 84.7819 199.767 83.2633 199.767 81.3979C199.767 79.5326 198.249 78.0153 196.383 78.0153C194.518 78.0153 193.001 79.5326 193.001 81.3979C193.001 83.2633 194.518 84.7819 196.383 84.7819Z" fill="#303F23"/>
<path d="M234.843 81.398C234.843 79.5327 233.324 78.0154 231.459 78.0154C229.593 78.0154 228.076 79.5327 228.076 81.398C228.076 83.2634 229.593 84.782 231.459 84.782C233.324 84.782 234.843 83.2634 234.843 81.398Z" fill="#303F23"/>
<path d="M262.517 224.296C260.652 224.296 259.134 225.813 259.134 227.679C259.134 229.544 260.652 231.063 262.517 231.063C264.382 231.063 265.901 229.544 265.901 227.679C265.901 225.813 264.382 224.296 262.517 224.296Z" fill="#303F23"/>
<path d="M207.473 163.784C209.339 163.784 210.856 162.266 210.856 160.4C210.856 158.535 209.339 157.016 207.473 157.016C205.608 157.016 204.089 158.535 204.089 160.4C204.089 162.266 205.608 163.784 207.473 163.784Z" fill="#303F23"/>
<path d="M207.473 151.858C209.339 151.858 210.856 150.339 210.856 148.474C210.856 146.609 209.339 145.091 207.473 145.091C205.608 145.091 204.089 146.609 204.089 148.474C204.089 150.339 205.608 151.858 207.473 151.858Z" fill="#303F23"/>
<path d="M122.654 128.818C120.789 128.818 119.27 130.336 119.27 132.201C119.27 134.066 120.789 135.585 122.654 135.585C124.52 135.585 126.037 134.066 126.037 132.201C126.037 130.336 124.52 128.818 122.654 128.818Z" fill="#303F23"/>
<path d="M360.818 421.017H345.345L338.502 315.648C338.505 315.645 338.507 315.644 338.51 315.642C340.306 314.657 341.347 313.516 341.347 312.174V300.934C341.347 300.922 341.351 300.912 341.351 300.9C341.351 293.924 312.906 292.081 297.865 292.081C282.825 292.081 254.378 293.924 254.378 300.9C254.378 300.913 254.383 300.925 254.383 300.937V312.174C254.383 314.192 256.766 315.776 260.511 317.017L253.709 421.017H148.687L141.886 317.017C141.887 317.017 141.887 317.017 141.889 317.017C145.634 315.776 148.017 314.192 148.017 312.174V300.92C148.017 300.913 148.018 300.906 148.018 300.9C148.018 293.924 119.573 292.081 104.531 292.081C89.514 292.081 61.1394 293.918 61.0487 300.868C61.0487 300.881 61.0407 300.892 61.0407 300.905V312.174C61.0407 313.516 62.082 314.657 63.8887 315.642C63.8913 315.644 63.8927 315.645 63.8953 315.646L57.0527 421.017H19.3927V261.813H181.051L181.469 268.262C181.515 268.99 182.119 269.557 182.85 269.557H195.943C196.114 269.557 196.274 269.517 196.425 269.46C198.554 271.066 202.259 271.594 205.697 271.594C207.909 271.594 210.006 271.377 211.493 271.096C217.285 269.998 222.909 267.273 227.321 263.501H360.818V421.017ZM333.077 427.141L330.415 388.346C330.379 387.809 330.033 387.34 329.527 387.148C329.023 386.958 328.453 387.073 328.066 387.45L324.305 391.121V391.116L323.541 379.256L329.118 373.852C329.409 373.57 329.563 373.173 329.535 372.768L326.406 324.862C328.542 324.502 330.678 324.144 332.814 323.784C333.886 323.604 334.981 323.47 336.043 323.238C336.102 323.226 336.158 323.204 336.215 323.186L342.966 427.141H333.077ZM326.233 421.017V421.013L324.537 394.706L324.535 394.685C324.621 394.632 324.711 394.594 324.786 394.522L327.857 391.525L329.879 421.017H326.233ZM334.921 317.814C334.919 317.813 334.918 317.81 334.917 317.809C334.862 317.673 334.901 317.701 334.921 317.814ZM293.965 320.94C295.338 320.973 296.646 320.984 297.865 320.984C299.793 320.984 301.943 320.95 304.226 320.884L308.226 381.964H289.942L293.965 320.94ZM275.777 319.865C276.694 319.954 277.623 320.042 278.551 320.13L274.495 381.964H271.699L275.777 319.865ZM262.994 321.485C263.023 321.512 263.055 321.534 263.087 321.558C263.054 321.556 263.022 321.558 262.99 321.56L262.994 321.485ZM323.307 375.625L319.717 319.888C320.922 319.754 322.106 319.61 323.278 319.466L326.73 372.309L323.307 375.625ZM257.153 304.33C264.666 308.508 285.67 309.72 297.865 309.72C310.059 309.72 331.065 308.508 338.577 304.33V312.164C338.41 313.182 333.955 315.122 324.549 316.529C324.539 316.53 324.53 316.532 324.522 316.533C324.506 316.533 324.491 316.525 324.474 316.526C324.442 316.528 324.417 316.546 324.385 316.55C324.325 316.56 324.269 316.568 324.205 316.574C324.194 316.574 324.194 316.574 324.182 316.585C322.51 316.829 320.67 317.05 318.675 317.261C318.521 317.194 318.343 317.172 318.166 317.184C317.957 317.194 317.758 317.261 317.581 317.36C317.577 317.36 317.571 317.36 317.567 317.361C314.121 317.693 310.231 317.948 305.877 318.092C305.733 318.048 305.589 318.025 305.433 318.036C305.311 318.048 305.201 318.07 305.09 318.114C302.807 318.181 300.402 318.214 297.865 318.214C296.181 318.214 294.551 318.202 292.978 318.169C292.911 318.148 292.846 318.136 292.767 318.136C292.635 318.125 292.513 318.136 292.391 318.158C287.881 318.058 283.837 317.848 280.235 317.549C280.202 317.538 280.158 317.526 280.113 317.526H280.025H280.014C264.533 316.241 257.363 313.472 257.153 312.174V304.33ZM338.577 300.894V300.908C338.245 302.638 325.719 306.949 297.865 306.949C270.041 306.949 257.513 302.648 257.153 300.913V300.905C257.153 300.901 257.151 300.898 257.151 300.894C257.485 299.164 270.015 294.852 297.865 294.852C325.734 294.852 338.261 299.169 338.578 300.888C338.578 300.89 338.577 300.892 338.577 300.894ZM314.619 437.192L313.655 422.398V422.386L311.905 395.549C311.861 394.817 311.251 394.252 310.531 394.252L269.653 394.241H269.565C269.542 394.241 269.531 394.241 269.509 394.252C269.431 394.241 269.354 394.252 269.287 394.274C269.239 394.281 269.197 394.3 269.153 394.314C269.126 394.322 269.101 394.328 269.075 394.338C269.071 394.34 269.069 394.34 269.066 394.341C268.977 394.374 268.899 394.408 268.833 394.452C268.789 394.473 268.755 394.506 268.722 394.54C268.719 394.541 268.717 394.545 268.714 394.546C268.677 394.576 268.639 394.604 268.605 394.637C268.601 394.642 268.593 394.645 268.589 394.65C268.534 394.696 268.489 394.75 268.445 394.817C268.41 394.86 268.383 394.906 268.359 394.954C268.335 394.997 268.318 395.042 268.298 395.088C268.293 395.105 268.282 395.122 268.278 395.138C268.246 395.205 268.223 395.272 268.213 395.349C268.205 395.381 268.206 395.416 268.201 395.448C268.197 395.477 268.179 395.501 268.178 395.532L265.317 437.189H255.427L262.814 324.245C262.918 324.274 263.017 324.313 263.127 324.328C266.291 324.725 269.471 324.977 272.659 325.081L268.839 383.258C268.838 383.265 268.842 383.272 268.842 383.278C268.837 383.301 268.833 383.322 268.833 383.348C268.833 383.448 268.843 383.537 268.866 383.625C268.871 383.669 268.891 383.705 268.903 383.745C268.914 383.778 268.923 383.812 268.935 383.845C268.939 383.853 268.939 383.861 268.943 383.869C268.977 383.946 269.01 384.024 269.054 384.09C269.087 384.134 269.11 384.18 269.143 384.213C269.15 384.221 269.157 384.226 269.163 384.236C269.178 384.253 269.193 384.268 269.207 384.285C269.219 384.297 269.227 384.312 269.243 384.324C269.335 384.416 269.443 384.49 269.557 384.554C269.585 384.57 269.611 384.585 269.641 384.598C269.665 384.609 269.685 384.625 269.709 384.633C269.786 384.666 269.863 384.689 269.941 384.7C269.983 384.71 270.031 384.71 270.075 384.716C270.095 384.718 270.11 384.729 270.13 384.73C270.161 384.733 270.191 384.734 270.222 384.734C270.223 384.734 270.225 384.733 270.226 384.733H309.699C310.087 384.733 310.453 384.578 310.719 384.301C310.974 384.013 311.107 383.636 311.085 383.26L307.377 326.457C310.515 326.4 313.649 326.225 316.774 325.929C316.965 325.91 317.154 325.858 317.331 325.78L320.737 378.705C320.737 378.794 320.747 378.882 320.758 378.96L324.503 437.192H314.619ZM288.955 397.01L309.223 397.022L310.786 421.013V421.017H287.359L287.361 421.013L288.955 397.01ZM270.853 397.01H273.509L271.925 421.013L271.923 421.017H269.203L270.853 397.01ZM137.081 437.189L134.218 395.532C134.217 395.509 134.203 395.492 134.202 395.47C134.197 395.43 134.197 395.388 134.187 395.349C134.175 395.272 134.154 395.205 134.121 395.138C134.114 395.113 134.101 395.084 134.089 395.056C134.077 395.029 134.067 395.002 134.054 394.978C134.031 394.92 133.994 394.868 133.954 394.817C133.91 394.75 133.866 394.696 133.81 394.65C133.802 394.641 133.79 394.634 133.781 394.625C133.757 394.602 133.731 394.581 133.705 394.56C133.683 394.544 133.669 394.524 133.643 394.506C133.545 394.429 133.431 394.376 133.314 394.333C133.293 394.325 133.271 394.321 133.25 394.314C133.205 394.301 133.161 394.282 133.111 394.274C133.034 394.252 132.946 394.241 132.857 394.241H132.835H132.746L91.8687 394.252C91.1367 394.252 90.538 394.817 90.494 395.549L87.7687 437.192H77.8847L81.6407 378.96L81.6634 378.661L84.9914 326.973C85.002 326.973 85.0113 326.98 85.022 326.98C88.3313 327.166 91.6407 327.366 94.9487 327.578L91.314 383.26C91.2927 383.636 91.4247 384.013 91.6793 384.301C91.946 384.578 92.3113 384.733 92.6887 384.733H132.171C132.173 384.733 132.174 384.734 132.175 384.734C132.206 384.734 132.235 384.733 132.267 384.73C132.286 384.73 132.301 384.718 132.319 384.717C132.365 384.712 132.414 384.712 132.458 384.7C132.535 384.689 132.613 384.666 132.691 384.633C132.715 384.624 132.737 384.608 132.761 384.597C132.786 384.585 132.81 384.572 132.835 384.558C132.953 384.494 133.062 384.418 133.157 384.324C133.174 384.31 133.183 384.293 133.197 384.278C133.207 384.266 133.218 384.254 133.23 384.242C133.238 384.232 133.247 384.225 133.257 384.213C133.29 384.18 133.311 384.134 133.345 384.09C133.389 384.024 133.422 383.946 133.455 383.869C133.462 383.858 133.461 383.846 133.466 383.837C133.475 383.81 133.483 383.784 133.491 383.757C133.506 383.713 133.527 383.673 133.533 383.625C133.555 383.537 133.566 383.448 133.566 383.348C133.566 383.318 133.565 383.297 133.557 383.269C133.557 383.265 133.558 383.262 133.558 383.258L129.817 326.274C133.005 325.745 136.166 325.064 139.287 324.222C139.385 324.197 139.478 324.141 139.573 324.088L145.998 422.336C145.997 422.358 145.985 422.378 145.985 422.402C145.985 422.449 146.006 422.488 146.01 422.533L146.969 437.189H137.081ZM130.463 421.013L128.89 397.01H131.543L133.193 421.013H130.463ZM113.443 397.01L115.027 421.013L115.029 421.017H91.602V421.013L93.1647 397.022L113.443 397.01ZM74.5393 391.525L77.61 394.522C77.682 394.592 77.7713 394.628 77.8527 394.678L77.8513 394.706L76.1554 421.013V421.017H72.5167L74.5393 391.525ZM66.6034 316.817C66.6447 316.832 66.69 316.846 66.7327 316.861C66.6767 316.896 66.6327 316.938 66.5834 316.982L66.5953 316.814C66.598 316.816 66.6007 316.817 66.6034 316.817ZM127.903 381.964L123.849 320.13C124.779 320.042 125.699 319.953 126.618 319.865L130.697 381.964H127.903ZM98.174 320.896C100.457 320.95 102.606 320.984 104.534 320.984C105.753 320.984 107.05 320.973 108.423 320.94L112.457 381.964H94.1727L98.174 320.896ZM85.6647 322.137C85.558 322.168 85.5233 322.132 85.6647 322.137ZM79.0807 375.613V375.616L75.666 372.309L79.118 319.466C80.2807 319.61 81.4753 319.754 82.6713 319.888L79.0807 375.613ZM145.246 300.905C144.914 302.636 132.386 306.949 104.531 306.949C76.6167 306.949 64.094 302.618 63.814 300.905C64.0953 299.182 76.6207 294.852 104.531 294.852C132.401 294.852 144.93 299.17 145.247 300.897C145.247 300.9 145.246 300.902 145.246 300.905ZM63.8113 304.326C71.318 308.506 92.3327 309.72 104.531 309.72C116.727 309.72 137.734 308.508 145.246 304.329V312.164C145.035 313.472 137.866 316.241 122.397 317.526H122.386H122.286C122.242 317.526 122.197 317.538 122.153 317.549C118.551 317.848 114.507 318.058 109.997 318.158C109.886 318.136 109.753 318.125 109.631 318.136C109.554 318.136 109.487 318.148 109.421 318.169C107.847 318.202 106.218 318.214 104.534 318.214C101.997 318.214 99.5913 318.181 97.3087 318.114C97.198 318.07 97.0873 318.048 96.966 318.036C96.81 318.025 96.666 318.048 96.522 318.092C92.1673 317.948 88.2673 317.693 84.8313 317.361C84.8273 317.36 84.822 317.36 84.818 317.36C84.6407 317.26 84.4433 317.194 84.234 317.184C84.0447 317.172 83.8673 317.194 83.702 317.249H83.69C81.7074 317.05 79.8793 316.829 78.206 316.585C78.194 316.574 78.194 316.574 78.1834 316.574C78.122 316.568 78.07 316.56 78.0153 316.552C77.9833 316.546 77.9554 316.529 77.922 316.526C77.906 316.525 77.8913 316.533 77.8753 316.533C77.8673 316.532 77.8593 316.53 77.8513 316.529H77.8287C68.4313 315.122 63.978 313.194 63.8113 312.174V304.326ZM59.4314 427.141L66.006 325.886C69.2487 326.545 72.534 327.001 75.834 327.249L72.8607 372.768C72.8327 373.173 72.9874 373.57 73.278 373.852L78.8474 379.246L78.0834 391.105V391.113L74.33 387.45C73.9434 387.073 73.374 386.96 72.8687 387.148C72.3633 387.34 72.0167 387.809 71.9807 388.346L69.3207 427.141H59.4314ZM39.898 242.079V246.209C39.898 246.973 40.5193 247.595 41.2833 247.595H121.921C122.685 247.595 123.306 246.973 123.306 246.209V232.7H159.014C158.586 234.116 158.35 235.615 158.35 237.169C158.35 245.699 165.289 252.637 173.818 252.637C176.265 252.637 178.387 252.174 180.363 251.208L180.871 259.044H21.5473L39.898 242.079ZM46.2927 159.396C46.2927 161.876 44.2753 163.893 41.7953 163.893C39.3153 163.893 37.298 161.876 37.298 159.396C37.298 156.916 39.3153 154.899 41.7953 154.899C44.2753 154.899 46.2927 156.916 46.2927 159.396ZM32.6713 159.396C32.6713 154.365 36.7647 150.272 41.7953 150.272C44.2047 150.272 46.5193 151.244 48.2233 152.937L47.794 155.301C46.4847 153.388 44.2847 152.129 41.7953 152.129C37.7887 152.129 34.5273 155.389 34.5273 159.396C34.5273 163.404 37.7887 166.664 41.7953 166.664C43.3527 166.664 44.7927 166.168 45.9767 165.331L45.5473 167.696C44.374 168.226 43.0927 168.521 41.7953 168.521C36.7647 168.521 32.6713 164.426 32.6713 159.396ZM52.9927 142.156H74.4953L79.942 169.052H48.122C48.1393 168.998 48.1367 168.943 48.146 168.888L52.9927 142.156ZM88.4047 142.156H109.909L115.354 169.052H83.53L88.4047 142.156ZM42.6687 171.822H120.535V244.825H42.6687V171.822ZM159.401 201.755C169.626 210.118 177.614 209.708 178.046 209.687C178.522 209.653 178.943 209.376 179.175 208.965L195.122 179.413L200.119 177.74V218.241C194.811 218.306 189.835 218.761 186.013 219.537C182.213 220.313 179.941 221.311 179.033 222.607C177.367 222.008 175.621 221.701 173.818 221.701C167.903 221.701 162.759 225.04 160.158 229.929H151.87L159.401 201.755ZM160.158 197.68C160.785 197.832 161.338 197.896 161.826 197.896C163.314 197.896 164.195 197.292 164.699 196.7C165.743 195.474 166.221 193.968 166.122 192.257C168.935 192.504 171.154 191.566 172.559 189.552C173.386 188.365 173.821 186.984 173.866 185.468C176.247 185.655 178.375 185.08 179.725 183.369C180.763 182.05 181.105 180.388 180.965 178.593C183.197 178.726 184.398 177.668 185.057 176.742C187.203 173.733 184.585 168.196 177.274 160.284C175.846 158.739 174.041 156.788 171.913 154.907L172.269 153.576C172.27 153.578 172.271 153.58 172.273 153.583C172.815 154.381 173.502 155.256 174.334 156.199C177.115 159.335 181.203 162.913 185.858 166.293C190.501 169.661 195.177 172.442 199.022 174.116C199.531 174.337 200.019 174.537 200.485 174.704L193.726 176.953C193.393 177.064 193.115 177.296 192.95 177.607L177.137 206.905C174.821 206.761 167.275 205.587 158.321 197.065C158.309 197.053 158.295 197.039 158.282 197.027C158.939 197.304 159.575 197.54 160.158 197.68ZM161.733 188.057C157.766 186.1 154.911 182.987 154.687 181.865C155.713 181.897 159.11 184.005 161.589 187.832C161.634 187.901 161.683 187.976 161.733 188.057ZM170.334 181.785C169.023 181.279 167.69 180.596 166.463 179.803C162.865 177.476 161.279 175 161.826 173.951C161.929 173.753 162.025 173.664 162.317 173.664C164.095 173.664 167.745 176.699 169.787 180.612C169.965 180.951 170.155 181.348 170.334 181.785ZM176.807 174.188C172.263 171.381 169.762 167.405 170.091 166.685C170.109 166.682 170.127 166.681 170.149 166.681C170.873 166.681 173.531 168.552 175.919 172.55C176.25 173.105 176.547 173.651 176.807 174.188ZM140.411 171.801C138.914 165.459 140.703 160.094 145.727 155.857C145.733 155.854 145.735 155.851 145.739 155.848C149.811 152.337 153.579 150.929 157.087 150.929C164.049 150.929 169.987 156.479 175.239 162.164C184.463 172.145 182.998 174.857 182.802 175.133C182.319 175.812 181.435 175.94 180.39 175.734C179.147 171.728 176.213 167.633 173.707 165.562C170.41 162.836 168.662 164.148 168.065 164.837C167.514 165.472 167.007 166.617 167.717 168.476C168.969 171.756 173.754 176.257 178.094 177.933C178.375 179.513 178.207 180.82 177.55 181.653C176.774 182.635 175.302 182.904 173.538 182.657C173.27 181.584 172.838 180.469 172.242 179.329C170.125 175.272 165.727 170.895 162.317 170.895C161.014 170.895 159.966 171.525 159.369 172.669C157.689 175.892 161.155 179.669 164.959 182.129C166.855 183.356 168.998 184.372 171.093 184.957C171.134 185.999 170.929 187.047 170.287 187.968C169.177 189.564 167.285 189.725 165.479 189.378C163.769 184.797 158.751 179.757 155.283 179.163C153.71 178.892 152.846 179.61 152.475 180.062C152.098 180.521 151.562 181.528 152.207 183.117C153.413 186.084 158.407 190.12 163.255 191.66C163.474 192.809 163.377 193.98 162.591 194.904C162.366 195.168 161.683 195.201 160.807 194.988C155.249 193.645 143.097 183.18 140.411 171.801ZM122.419 143.991C128.902 139.336 141.046 131.321 153.863 126.504C157.113 133.667 159.899 141.271 161.57 148.82C156.41 147.372 150.445 148.139 143.935 153.744C140.006 157.06 137.757 161.098 137.25 165.638C134.341 161.736 128.609 153.812 122.419 143.991ZM116.667 134.485C115.619 132.677 114.629 130.904 113.667 129.148C121.945 124.287 135.27 117.05 147.145 113.246C149.033 116.629 150.915 120.229 152.694 123.976C139.637 128.9 127.525 136.878 120.939 141.62C119.519 139.321 118.086 136.937 116.667 134.485ZM98.234 77.1811C99.2607 71.0158 102.251 66.2825 107.121 63.1132C114.193 58.5105 122.701 58.0505 132.413 61.7438C154.289 70.0652 176.566 97.5052 180.638 111.555L169.561 152.98C168.05 151.839 166.411 150.798 164.659 149.977C163.033 141.798 160.059 133.497 156.47 125.574C157.371 125.27 158.274 124.977 159.177 124.711C159.909 124.493 160.329 123.722 160.113 122.989C159.895 122.254 159.121 121.837 158.391 122.053C157.357 122.359 156.326 122.694 155.298 123.045C153.569 119.4 151.729 115.845 149.837 112.442C151.625 111.942 153.37 111.528 155.041 111.233C155.794 111.101 156.297 110.383 156.165 109.629C156.031 108.876 155.307 108.368 154.561 108.505C152.589 108.852 150.533 109.348 148.43 109.954C137.993 91.7612 126.745 78.3318 126.558 78.1092C126.066 77.5265 125.191 77.4505 124.606 77.9452C124.021 78.4385 123.947 79.3132 124.441 79.8972C124.519 79.9878 132.251 89.1825 140.711 102.469C142.319 104.997 144.025 107.796 145.747 110.784C133.717 114.708 120.586 121.833 112.342 126.687C101.189 105.733 96.3113 88.7171 98.234 77.1811ZM172.946 75.5065C172.786 73.6652 173.406 72.1465 174.602 71.4438C177.602 69.6905 180.877 74.0305 181.483 74.8892L181.261 85.2225C175.569 82.5345 173.211 78.5438 172.946 75.5065ZM192.219 52.9665C188.902 55.9532 184.03 61.0732 184.538 65.0105C184.69 66.1918 185.377 67.8145 187.777 68.8318C191.661 70.4745 195.845 68.9905 199.247 66.4958C200.205 67.8092 201.901 69.0065 204.882 69.4492C208.299 69.9585 211.413 69.1518 214.009 67.7185C215.029 68.6492 216.602 69.4212 219.023 69.6878C222.879 70.1092 226.415 69.0118 229.235 67.2185C230.606 68.7545 232.911 70.2158 236.771 70.5078C237.375 70.5545 237.963 70.5758 238.541 70.5758C242.385 70.5758 245.621 69.6038 248.263 68.2838L248.783 91.9358C248.778 91.9772 248.767 92.0158 248.765 92.0572C248.762 92.1558 248.735 92.9638 248.833 94.1572L249.195 110.664L214.394 127.123L183.482 110.708L183.977 87.7758C184.066 87.5145 184.055 87.2518 183.994 87.0012L184.727 52.9665H192.219ZM181.825 43.2598C192.385 43.2598 198.967 47.5145 202.07 50.1958H156.659C160.238 47.4812 168.029 43.2598 181.825 43.2598ZM219.478 19.5132C227.877 19.5132 234.581 22.0505 239.39 27.0478C246.803 34.7612 247.779 46.3078 247.89 50.1958H229.761C229.373 43.2265 223.666 37.6745 216.697 37.6745C210.446 37.6745 205.205 42.1518 203.921 48.1132C200.895 45.4545 195.066 41.6092 185.925 40.6892C187.277 35.8692 193.737 19.5132 219.478 19.5132ZM200.995 61.0945C201.482 59.0905 202.786 57.4732 203.455 57.0225C203.266 57.8158 202.462 59.3745 200.995 61.0945ZM214.947 63.7665C214.729 61.7612 216.042 59.1612 217.61 57.7625C218.317 57.1318 218.823 56.9825 219.009 56.9825C219.035 56.9825 219.055 56.9865 219.069 56.9918C219.203 57.1838 219.21 58.3678 218.03 60.2772C217.381 61.3278 216.334 62.6132 214.947 63.7665ZM230.053 63.0665C229.443 60.8798 230.063 58.5425 231.109 57.4171C231.555 56.9371 231.93 56.8318 232.189 56.8318C232.335 56.8318 232.443 56.8652 232.506 56.8852C232.726 56.9532 233.243 57.1132 232.975 58.4025C232.699 59.7305 231.669 61.4865 230.053 63.0665ZM235.686 58.9665C236.169 56.6492 235.263 54.8385 233.326 54.2372C231.822 53.7772 230.277 54.2438 229.079 55.5305C227.335 57.4078 226.293 61.1505 227.674 64.6732C227.701 64.7452 227.731 64.8172 227.762 64.8918C225.494 66.3505 222.607 67.2958 219.327 66.9358C218.121 66.8012 217.157 66.5172 216.445 66.0865C219.159 63.9172 221.011 61.1545 221.631 59.0385C222.574 55.8198 220.781 54.7305 220.209 54.4732C218.894 53.8812 217.314 54.3132 215.766 55.6958C213.326 57.8732 211.418 62.0532 212.447 65.2785C212.463 65.3265 212.479 65.3745 212.495 65.4212C210.477 66.4918 208.042 67.1172 205.289 66.7092C203.381 66.4252 202.077 65.7545 201.387 64.7038C203.269 62.9225 204.749 60.9265 205.558 59.2425C207.11 56.0132 205.715 54.8225 205.045 54.4598C204.014 53.9025 202.737 54.1238 201.542 55.0652C199.374 56.7745 197.595 60.5985 198.143 63.8412C196.123 65.4412 192.355 67.7612 188.857 66.2798C187.565 65.7332 187.341 65.0918 187.285 64.6558C186.902 61.6905 192.639 56.0038 196.509 52.9665H247.926L248.194 65.1692C245.377 66.8172 241.641 68.0972 236.978 67.7465C234.549 67.5625 232.679 66.8105 231.453 65.5438C233.722 63.5278 235.243 61.0972 235.686 58.9665ZM258.155 71.4438C259.351 72.1465 259.971 73.6652 259.81 75.5065C259.545 78.5598 257.163 82.5758 251.409 85.2638L251.183 75.0185C251.375 74.7305 254.919 69.5505 258.155 71.4438ZM260.725 90.5225C261.122 90.7065 261.463 90.9172 261.754 91.1425C260.315 91.6185 259.078 92.5679 258.254 93.7399C256.565 96.1399 256.866 98.9265 258.986 100.516C260.187 101.417 261.621 101.55 262.913 100.89C264.849 99.8998 266.215 97.2025 266.163 94.4785C266.163 94.4492 266.162 94.4212 266.161 94.3932C267.165 95.2065 267.743 97.5318 267.033 99.9012C266.522 101.606 264.974 104.465 260.354 104.465C257.994 104.465 256.15 103.743 254.715 102.255C252.426 99.8798 251.779 96.1305 251.599 93.9318L251.535 91.0105C252.365 90.3652 255.709 88.1932 260.725 90.5225ZM263.293 93.6145C263.359 93.9345 263.389 94.2438 263.394 94.5305C263.429 96.3665 262.515 97.9825 261.65 98.4238C261.295 98.6078 261.006 98.5678 260.649 98.2998C259.302 97.2905 260.209 95.7745 260.519 95.3345C261.057 94.5705 262.061 93.7865 263.293 93.6145ZM309.442 172.772C309.442 196.923 297.83 215.903 274.925 229.227C269.809 217.867 261.15 206.82 255.993 200.77C277.782 183.502 283.59 166.229 283.919 165.199C284.153 164.471 283.751 163.692 283.023 163.458C282.293 163.221 281.515 163.627 281.281 164.353C281.253 164.441 278.351 173.236 268.954 184.365C268.006 185.489 266.962 186.665 265.829 187.877L252.351 113.427C262.799 116.373 309.442 131.833 309.442 172.772ZM196.395 242.037C196.609 241.941 196.815 241.853 197.01 241.772C202.505 239.493 208.093 239.61 209.115 240.298C208.058 241.39 201.938 242.919 196.395 242.037ZM200.198 251.545C204.173 249.248 209.081 247.893 211.246 248.504C211.907 248.688 211.973 248.956 212.007 249.01C211.602 250.129 206.142 251.711 200.198 251.545ZM181.583 227.184C182.713 227.66 184.186 228.092 186.013 228.457C190.169 229.3 195.675 229.765 201.505 229.765C203.598 229.765 205.649 229.709 207.621 229.588C207.649 229.586 207.674 229.584 207.701 229.583C200.455 230.416 192.745 232.057 189.795 235.291C188.758 236.428 188.297 237.71 188.425 239.102C188.523 240.188 188.998 241.558 190.487 242.717C189.061 244.216 188.237 246.016 188.425 248.12C188.557 249.601 189.409 251.649 192.722 252.99C193.015 253.11 193.322 253.221 193.637 253.324C191.854 255.53 191.83 257.356 192.171 258.552C192.499 259.697 193.418 261.115 195.801 262.147C194.765 263.6 194.382 265.174 194.707 266.786H184.149L181.583 227.184ZM188.029 116.258L212.421 129.212L207.077 138.142L188.029 116.258ZM182.745 114.405L206.242 141.4C206.533 141.736 206.97 141.899 207.409 141.871C207.851 141.832 208.247 141.584 208.474 141.203L212.973 133.685V169.006H206.434C205.914 168.253 205.261 167.445 204.497 166.581C201.715 163.445 197.626 159.855 192.971 156.487C188.329 153.107 183.653 150.325 179.807 148.663C177.391 147.611 175.475 147.068 174.023 147.034C174.021 147.034 174.019 147.034 174.018 147.034L182.745 114.405ZM220.565 139.119L216.178 129.344L243.791 116.284L220.565 139.119ZM215.743 135.141L218.851 142.069C219.038 142.482 219.414 142.779 219.859 142.864C220.306 142.952 220.763 142.808 221.086 142.491L245.066 118.916L239.153 169.006H215.743V135.141ZM243.747 209.32C247.402 207.079 250.742 204.788 253.791 202.488C258.866 208.458 267.535 219.513 272.497 230.597C272.477 230.608 272.457 230.62 272.435 230.631C268.334 232.865 264.221 234.733 260.298 236.288C255.425 225.564 248.174 215.197 243.747 209.32ZM217.006 228.457C218.857 228.081 220.342 227.649 221.483 227.161L221.403 228.734C219.686 228.758 216.705 228.836 213.223 229.079C213.225 229.079 213.226 229.079 213.227 229.079C214.579 228.901 215.843 228.691 217.006 228.457ZM179.174 232.841L179.689 240.785C178.421 242.837 176.229 244.064 173.818 244.064C170.017 244.064 166.923 240.971 166.923 237.169C166.923 233.367 170.017 230.273 173.818 230.273C175.919 230.273 177.857 231.211 179.174 232.841ZM236.617 243.102C236.607 242.948 236.605 242.794 236.591 242.64C235.526 229.732 226.661 224.292 224.194 223.021C223.794 222.093 222.754 221.309 221.018 220.645C221.013 220.642 221.005 220.641 220.999 220.638C228.635 217.578 235.381 214.234 241.335 210.748C245.638 216.465 252.883 226.783 257.698 237.284C248.037 240.864 239.906 242.522 236.617 243.102ZM249.785 197.963C249.823 198.003 250.626 198.857 251.918 200.322C248.935 202.573 245.643 204.836 242.018 207.062C240.818 205.524 240.035 204.576 239.893 204.404C239.405 203.816 238.533 203.734 237.943 204.225C237.354 204.713 237.274 205.587 237.763 206.175C237.797 206.216 238.491 207.056 239.617 208.504C232.993 212.383 225.329 216.117 216.481 219.436C213.811 218.928 210.611 218.561 207.155 218.396V175.136C207.345 174.98 207.51 174.814 207.643 174.625C208.186 173.872 208.275 172.931 207.909 171.779C207.909 171.777 207.909 171.777 207.909 171.777H240.385C241.086 171.777 241.677 171.251 241.759 170.555L248.221 115.813L249.703 114.356L263.457 190.331C260.798 192.985 257.703 195.781 254.123 198.619C252.81 197.133 251.951 196.221 251.793 196.056C251.266 195.501 250.39 195.478 249.835 196.005C249.281 196.532 249.258 197.408 249.785 197.963ZM173.818 224.472C174.406 224.472 174.983 224.524 175.555 224.601C175.541 225.629 175.555 226.656 175.605 227.682C175.021 227.574 174.426 227.504 173.818 227.504C168.489 227.504 164.153 231.84 164.153 237.169C164.153 242.499 168.489 246.833 173.818 246.833C174.882 246.833 175.909 246.645 176.882 246.322C176.941 247.289 176.998 248.257 177.057 249.225C177.062 249.312 177.085 249.392 177.102 249.473C176.089 249.736 175.013 249.866 173.818 249.866C166.817 249.866 161.121 244.171 161.121 237.169C161.121 230.168 166.817 224.472 173.818 224.472ZM202.085 260.689C202.722 260.369 203.287 260.129 203.665 259.977C209.014 257.834 213.935 257.952 214.83 258.659C213.763 259.729 207.905 261.12 202.085 260.689ZM217.102 260.253C217.729 259.466 217.863 258.516 217.471 257.648C215.893 254.15 208.117 255.424 203.585 257.045C201.287 257.868 199.391 258.865 197.941 259.982C196.203 259.454 195.093 258.689 194.837 257.791C194.482 256.553 195.691 255.1 196.443 254.344C196.546 254.24 196.651 254.137 196.761 254.036C202.999 254.964 210.925 253.669 213.575 251.383C214.897 250.243 214.845 249.044 214.697 248.43C214.389 247.158 213.427 246.236 211.991 245.836C208.25 244.791 200.622 247.388 195.965 251.072C193.947 250.645 191.35 249.737 191.183 247.873C191.047 246.352 191.898 245.082 193.071 244.07C198.763 246.069 208.366 244.777 211.015 242.292C211.849 241.51 212.158 240.518 211.865 239.57C210.751 235.953 202.873 237.308 201.306 237.614C198.339 238.198 195.181 239.288 192.729 240.885C191.909 240.408 191.266 239.749 191.183 238.849C191.149 238.47 191.179 237.884 191.842 237.157C196.074 232.516 215.567 231.497 222.722 231.496C223.459 231.496 224.067 230.917 224.105 230.18L224.301 226.281C227.306 228.224 233.029 233.152 233.83 242.866C233.874 243.406 233.889 243.94 233.89 244.47C233.862 244.616 233.839 244.764 233.861 244.92C233.865 244.946 233.881 244.968 233.886 244.994C233.594 257.012 222.39 266.21 210.977 268.373C204.439 269.614 197.971 268.328 197.462 266.444C197.114 265.156 197.711 263.996 198.671 263.021C198.71 263.03 198.747 263.037 198.787 263.045C204.851 264.249 214.825 263.117 217.102 260.253ZM319.367 244.346C319.615 244.55 319.927 244.662 320.25 244.662H338.554C338.877 244.662 339.189 244.55 339.437 244.346C342.191 242.069 343.951 238.644 345.055 234.822L359.819 260.732H230.175C234.125 256.346 236.315 251.291 236.625 245.912C239.707 245.388 248.409 243.69 258.811 239.822C259.591 241.688 260.285 243.548 260.853 245.378C261.037 245.972 261.585 246.352 262.175 246.352C262.31 246.352 262.449 246.333 262.586 246.289C263.317 246.064 263.725 245.287 263.498 244.556C262.909 242.661 262.198 240.745 261.403 238.829C265.342 237.265 269.467 235.392 273.582 233.16C274.025 234.286 274.423 235.409 274.769 236.522C274.953 237.114 275.501 237.496 276.091 237.496C276.226 237.496 276.365 237.476 276.502 237.433C277.233 237.207 277.641 236.43 277.414 235.7C277.105 234.704 276.75 233.702 276.369 232.7H313.202C314.235 237.361 316.11 241.654 319.367 244.346ZM343.383 211.304C343.53 212.524 343.745 214.608 343.866 217.157H314.938C315.059 214.608 315.274 212.524 315.421 211.304H343.383ZM314.854 219.928H343.95C344.054 227.448 343.105 237.293 338.038 241.893H320.766C315.701 237.293 314.75 227.448 314.854 219.928ZM330.502 172.581C333.938 160.366 337.941 151.873 341.211 149.86C341.717 149.549 342.127 149.444 342.466 149.444C342.785 149.444 343.039 149.537 343.25 149.641C344.374 150.196 344.853 152.444 344.531 155.652C343.559 165.339 335.727 181.578 327.438 185.34C328.273 181.181 329.319 176.786 330.502 172.581ZM317.301 180.556C316.422 178.436 316.547 176.734 317.165 176.374C317.633 176.104 318.017 176.008 318.337 176.008C318.673 176.008 318.938 176.113 319.155 176.227C321.097 177.247 322.777 181.092 324.149 186.085C320.986 185.973 318.457 183.347 317.301 180.556ZM363.573 262.038C363.567 261.946 363.542 261.86 363.518 261.768C363.494 261.677 363.473 261.589 363.431 261.506C363.419 261.481 363.421 261.454 363.406 261.43L345.966 230.825C347.657 221.044 346.074 210.392 345.967 209.708C345.865 209.033 345.282 208.533 344.599 208.533H330.671C330.437 205.976 329.811 199.917 328.673 193.636C328.322 191.708 327.955 189.92 327.573 188.27C333.475 186.168 338.162 179.288 340.49 175.242C344.119 168.936 346.725 161.535 347.287 155.928C347.87 150.115 346.081 147.949 344.477 147.156C343.423 146.637 341.753 146.276 339.759 147.5C333.931 151.088 328.618 166.996 325.497 181.15C324.025 177.213 322.349 174.776 320.445 173.774C318.961 172.996 317.346 173.065 315.773 173.979C313.719 175.173 313.314 178.172 314.742 181.616C316.257 185.272 319.643 188.69 323.977 188.861C323.118 193.849 322.629 198.189 322.603 201.084C322.597 201.848 323.211 202.473 323.977 202.48H323.989C324.749 202.48 325.367 201.868 325.374 201.107C325.39 199.221 325.594 196.836 325.95 194.135C326.858 199.057 327.515 204.209 327.897 208.533H314.205C313.522 208.533 312.941 209.033 312.837 209.708C312.734 210.37 311.238 220.405 312.689 229.929H279.094C300.786 216.269 312.211 196.623 312.211 172.772C312.211 152.831 301.574 135.672 281.446 123.148C268.461 115.069 255.667 111.397 251.962 110.441L251.801 103.067C252.081 103.448 252.378 103.82 252.711 104.168C254.67 106.203 257.241 107.236 260.354 107.236C264.969 107.236 268.458 104.792 269.686 100.699C270.729 97.2199 269.815 93.4745 267.558 91.9865C266.783 91.4759 265.994 91.1465 265.215 90.9692C264.486 89.7105 263.355 88.6892 261.891 88.0105C258.882 86.6132 256.314 86.5105 254.297 86.8852C259.881 83.7065 262.266 79.2478 262.571 75.7478C262.826 72.8132 261.699 70.3105 259.555 69.0545C256.41 67.2092 253.309 68.7638 251.091 70.8545L250.999 66.6732C254.723 64.1172 256.689 61.2065 256.838 60.9798C257.257 60.3425 257.079 59.4865 256.442 59.0652C255.806 58.6465 254.946 58.8211 254.525 59.4571C254.415 59.6211 253.206 61.4038 250.925 63.2798L250.669 51.6465C250.669 51.6438 250.671 51.6412 250.671 51.6372V51.5598C250.715 50.1852 250.947 35.0825 241.397 25.1425C236.043 19.5692 228.675 16.7425 219.478 16.7425C191.266 16.7425 184.373 35.8692 183.121 40.5118C182.699 40.4892 182.267 40.4892 181.825 40.4892C160.106 40.4892 152.338 50.3291 152.027 50.7505C151.706 51.1611 151.65 51.7252 151.883 52.2025C152.117 52.6678 152.593 52.9665 153.125 52.9665H181.957L181.573 70.7638C179.363 68.7198 176.303 67.2358 173.202 69.0545C171.058 70.3105 169.931 72.8132 170.186 75.7478C170.537 79.7732 173.637 85.0678 181.195 88.2212L180.841 104.685C173.255 89.3452 153.158 66.6732 133.397 59.1545C122.814 55.1292 113.463 55.6785 105.61 60.7905C100.063 64.4025 96.662 69.7638 95.502 76.7265C93.0873 91.2158 100.614 110.712 109.905 128.14C106.567 130.155 104.427 131.548 104.114 131.753C103.475 132.173 103.297 133.03 103.715 133.672C103.981 134.077 104.423 134.297 104.875 134.297C105.135 134.297 105.399 134.224 105.634 134.071C105.711 134.02 107.823 132.645 111.233 130.595C113.662 135.027 116.183 139.301 118.657 143.295C116.997 144.536 115.986 145.348 115.809 145.491C115.214 145.972 115.122 146.845 115.603 147.439C115.877 147.777 116.278 147.953 116.681 147.953C116.987 147.953 117.294 147.852 117.551 147.644C117.594 147.609 118.525 146.864 120.138 145.66C128.682 159.182 136.301 169.004 137.066 169.982C137.141 170.077 137.226 170.157 137.317 170.228C137.413 170.956 137.538 171.69 137.714 172.437C139.274 179.045 143.843 185.521 148.779 190.291C148.779 190.292 148.779 190.293 148.781 190.294C148.803 190.338 148.825 190.383 148.858 190.428C151.661 194.225 154.429 197.272 157.075 199.72L149.002 229.929H123.306V170.437C123.306 169.672 122.685 169.052 121.921 169.052H118.182L112.399 140.496C112.269 139.849 111.701 139.385 111.041 139.385H87.2487C86.578 139.385 86.0047 139.865 85.886 140.524L81.6847 163.7L76.986 140.496C76.8554 139.849 76.2874 139.385 75.6287 139.385H51.8353C51.166 139.385 50.5913 139.865 50.4727 140.524L48.794 149.786C46.7753 148.318 44.3247 147.501 41.7953 147.501C35.2367 147.501 29.9007 152.837 29.9007 159.396C29.9007 165.308 34.2407 170.212 39.898 171.125V238.317C39.8873 238.326 39.8727 238.329 39.862 238.338L17.0674 259.412C17.0607 259.417 17.058 259.427 17.0513 259.433C16.9727 259.509 16.9207 259.605 16.8607 259.697C16.822 259.757 16.77 259.81 16.7407 259.874C16.714 259.938 16.7114 260.01 16.6927 260.078C16.6647 260.186 16.63 260.292 16.6273 260.402C16.6273 260.412 16.6234 260.42 16.6234 260.429V422.402C16.6234 423.168 17.2433 423.788 18.0073 423.788H56.8727L56.5714 428.436C56.546 428.818 56.6807 429.193 56.942 429.473C57.2034 429.752 57.57 429.912 57.9527 429.912H70.614C71.342 429.912 71.946 429.348 71.9953 428.621L72.3274 423.788H75.978L75.0247 438.488C75.0033 438.864 75.1367 439.241 75.402 439.518C75.6567 439.806 76.022 439.961 76.41 439.961H89.0753C89.7967 439.961 90.406 439.396 90.45 438.665L91.4247 423.788H115.205L115.526 428.614C115.582 429.345 116.181 429.91 116.911 429.91H129.577C129.954 429.91 130.319 429.756 130.586 429.468C130.851 429.19 130.985 428.814 130.951 428.437L130.641 423.782H133.382L134.406 438.669C134.455 439.394 135.059 439.958 135.787 439.958H148.447C148.83 439.958 149.195 439.8 149.458 439.521C149.719 439.241 149.854 438.866 149.829 438.482L148.869 423.788H253.527L252.567 438.482C252.542 438.866 252.677 439.241 252.938 439.521C253.199 439.8 253.566 439.958 253.949 439.958H266.61C267.338 439.958 267.942 439.394 267.991 438.669L269.014 423.788H271.747L271.437 428.437C271.414 428.814 271.547 429.19 271.814 429.468C272.069 429.756 272.434 429.91 272.822 429.91H285.487C286.207 429.91 286.817 429.345 286.862 428.614L287.182 423.788H310.963L311.938 438.665C311.994 439.396 312.591 439.961 313.323 439.961H325.989C326.366 439.961 326.731 439.806 326.997 439.518C327.263 439.241 327.397 438.864 327.363 438.488L326.41 423.788H330.07L330.402 428.621C330.451 429.348 331.055 429.912 331.783 429.912H344.445C344.827 429.912 345.193 429.752 345.455 429.473C345.717 429.193 345.851 428.818 345.826 428.436L345.525 423.788H362.203C362.969 423.788 363.589 423.168 363.589 422.402V262.117C363.589 262.089 363.574 262.065 363.573 262.038Z" fill="#303F23"/>
<path d="M76.4443 237.754H50.9536V227.49H76.4443V237.754ZM77.8296 224.72H49.5683C48.8029 224.72 48.1829 225.34 48.1829 226.105V239.14C48.1829 239.905 48.8029 240.525 49.5683 240.525H77.8296C78.5949 240.525 79.2149 239.905 79.2149 239.14V226.105C79.2149 225.34 78.5949 224.72 77.8296 224.72Z" fill="#303F23"/>
<path d="M96.1014 175.146C92.1121 175.146 88.8654 178.382 88.8654 182.372C88.8654 186.361 92.1121 189.608 96.1014 189.608C100.091 189.608 103.337 186.361 103.337 182.372C103.337 178.382 100.091 175.146 96.1014 175.146Z" fill="#303F23"/>
<path d="M111.305 175.146C107.315 175.146 104.069 178.382 104.069 182.372C104.069 186.361 107.315 189.608 111.305 189.608C115.294 189.608 118.541 186.361 118.541 182.372C118.541 178.382 115.294 175.146 111.305 175.146Z" fill="#303F23"/>
<path d="M188.104 78.4429C188.339 78.5989 188.604 78.6735 188.867 78.6735C189.315 78.6735 189.756 78.4562 190.023 78.0549C190.251 77.7149 195.727 69.7402 205.667 74.7122C206.349 75.0549 207.184 74.7762 207.525 74.0922C207.867 73.4082 207.591 72.5749 206.905 72.2335C194.737 66.1482 187.78 76.4255 187.711 76.5282C187.292 77.1655 187.468 78.0202 188.104 78.4429Z" fill="#303F23"/>
<path d="M226.687 75.6466C231.117 74.0693 234.665 73.9839 237.229 75.3973C240.037 76.9413 240.744 79.8679 240.76 79.9346C240.901 80.5826 241.475 81.0239 242.112 81.0239C242.208 81.0239 242.305 81.0146 242.403 80.9933C243.151 80.8319 243.628 80.0959 243.467 79.3479C243.431 79.1799 242.535 75.1839 238.613 72.9959C235.32 71.1586 230.993 71.1719 225.759 73.0359C225.037 73.2933 224.661 74.0853 224.917 74.8053C225.175 75.5266 225.967 75.8986 226.687 75.6466Z" fill="#303F23"/>
<path d="M194.401 94.6965C194.612 95.2205 195.122 95.5645 195.686 95.5645H223.002C223.766 95.5645 224.386 94.9445 224.386 94.1791C224.386 93.4138 223.766 92.7938 223.002 92.7938H199.13L217.314 75.3405C217.866 74.8111 217.885 73.9351 217.354 73.3831C216.824 72.8298 215.948 72.8098 215.397 73.3431L194.728 93.1805C194.32 93.5711 194.19 94.1711 194.401 94.6965Z" fill="#303F23"/>
<path d="M218.734 105.094C218.776 104.103 219.324 103.247 220.406 102.478C221.423 101.758 222.442 101.524 223.518 101.766C225.834 102.287 228.022 104.902 229.154 106.578C227.115 108.144 224.635 109.598 221.722 110.542C220.55 109.396 218.646 107.095 218.734 105.094ZM231.968 96.007C231.207 95.919 230.519 96.4604 230.431 97.2204C230.34 97.9804 230.884 98.6697 231.643 98.7577C233.236 98.9457 234.496 99.363 235.507 99.887C234.751 100.99 233.338 102.852 231.275 104.78C229.992 102.935 227.398 99.803 224.132 99.0657C222.268 98.6404 220.474 99.031 218.802 100.22C216.558 101.815 216.02 103.69 215.966 104.98C215.86 107.463 217.354 109.778 218.648 111.306C217.411 111.522 216.111 111.644 214.746 111.644C200.816 111.644 196.315 101.687 196.132 101.267C195.83 100.564 195.018 100.24 194.314 100.539C193.61 100.84 193.284 101.655 193.584 102.358C193.796 102.851 198.934 114.414 214.746 114.414C227.74 114.414 235.314 105.114 237.73 101.566C239.079 103.04 239.371 104.547 239.392 104.671C239.502 105.351 240.09 105.838 240.758 105.838C240.828 105.838 240.9 105.831 240.971 105.82C241.727 105.706 242.246 104.998 242.13 104.24C241.748 101.762 239.132 96.8497 231.968 96.007Z" fill="#303F23"/>
<path d="M217.404 118.533C213.4 120.947 210.268 118.719 210.117 118.61C209.508 118.153 208.644 118.273 208.183 118.881C207.72 119.489 207.839 120.358 208.448 120.822C208.573 120.918 210.62 122.434 213.644 122.434C215.167 122.434 216.937 122.049 218.835 120.905C219.489 120.51 219.7 119.658 219.305 119.003C218.912 118.349 218.061 118.137 217.404 118.533Z" fill="#303F23"/>
<path d="M184.213 212.029L191.959 216.884C192.189 217.026 192.443 217.094 192.694 217.094C193.155 217.094 193.607 216.864 193.87 216.445C194.275 215.797 194.079 214.942 193.431 214.536L185.685 209.681C185.034 209.274 184.181 209.473 183.774 210.12C183.369 210.768 183.565 211.622 184.213 212.029Z" fill="#303F23"/>
<path d="M195.395 211.604C195.643 212.074 196.123 212.342 196.622 212.342C196.839 212.342 197.059 212.292 197.266 212.182C197.943 211.826 198.202 210.989 197.845 210.312L193.818 202.669C193.462 201.992 192.627 201.73 191.946 202.089C191.27 202.445 191.01 203.284 191.367 203.961L195.395 211.604Z" fill="#303F23"/>
<path d="M221.605 209.681L213.858 214.535C213.21 214.942 213.014 215.797 213.419 216.445C213.682 216.863 214.134 217.094 214.594 217.094C214.846 217.094 215.099 217.026 215.33 216.883L223.077 212.029C223.725 211.622 223.921 210.767 223.514 210.119C223.107 209.473 222.255 209.275 221.605 209.681Z" fill="#303F23"/>
<path d="M215.342 202.09C214.662 201.731 213.828 201.992 213.472 202.668L209.444 210.312C209.086 210.99 209.346 211.827 210.022 212.183C210.229 212.292 210.45 212.343 210.668 212.343C211.165 212.343 211.646 212.075 211.893 211.604L215.921 203.96C216.278 203.283 216.018 202.446 215.342 202.09Z" fill="#303F23"/>
</svg>
